<?xml version="1.0" encoding="UTF-8" standalone="no"?>
<svg width="36px" height="38px" viewBox="0 0 36 38" version="1.1" xmlns="http://www.w3.org/2000/svg" xmlns:xlink="http://www.w3.org/1999/xlink">
    <!-- Generator: Sketch 41.2 (35397) - http://www.bohemiancoding.com/sketch -->
    <title>address-book</title>
    <desc>Created with Sketch.</desc>
    <defs>
        <rect id="path-1" x="0" y="0" width="48" height="48"></rect>
    </defs>
    <g id="Page-1" stroke="none" stroke-width="1" fill="none" fill-rule="evenodd">
        <g id="Artboard" transform="translate(-514.000000, -64.000000)">
            <g id="address-book" transform="translate(508.000000, 59.000000)">
                <g id="Symbols">
                    <mask id="mask-2" fill="white">
                        <use xlink:href="#path-1"></use>
                    </mask>
                    <g id="Mask"></g>
                    <path d="M39.41475,5.17075873 L12.45975,5.17075873 C11.02875,5.17075873 9.8745,6.3379619 9.8745,7.78190159 L9.8745,12.4908857 L7.88775,12.4908857 C6.86175,12.4908857 6.0315,13.3277905 6.0315,14.3655524 L6.0315,15.2716413 C6.0315,16.3094032 6.86175,17.1463079 7.88775,17.1463079 L9.8745,17.1463079 L9.8745,21.6410444 L7.88775,21.6410444 C6.86175,21.6410444 6.0315,22.4779492 6.0315,23.5157111 L6.0315,24.4218 C6.0315,25.4595619 6.86175,26.2964667 7.88775,26.2964667 L9.8745,26.2964667 L9.8745,30.7912032 L7.88775,30.7912032 C6.86175,30.7912032 6.0315,31.6281079 6.0315,32.6658698 L6.0315,33.5808857 C6.0315,34.6186476 6.86175,35.4555524 7.88775,35.4555524 L9.8745,35.4555524 L9.8745,40.1667683 C9.8745,41.6084762 11.031,42.7779111 12.45975,42.7779111 L39.4125,42.7779111 C40.8435,42.7779111 41.99775,41.6107079 41.99775,40.1667683 L41.99775,7.79082857 C42.009,6.34688889 40.8435,5.17075873 39.41475,5.17075873 L39.41475,5.17075873 L39.41475,5.17075873 Z M35.952,33.4335905 C35.952,34.0629429 35.448,34.571781 34.82475,34.571781 L27.303,34.571781 L24.68625,34.571781 L17.16,34.571781 C16.53675,34.571781 16.035,34.0629429 16.035,33.4335905 L16.035,32.9024349 C16.035,31.5209841 16.674,30.2064857 17.7765,29.3852032 C19.9905,27.7247841 22.1055,26.6468508 22.58475,26.4125175 C22.6455,26.381273 22.68375,26.3187841 22.68375,26.2518317 L22.68375,24.2968222 C22.38675,23.7723619 22.19775,23.2278159 22.12125,22.7279048 C21.9075,22.7122825 21.6195,22.4065333 21.31575,21.3062825 C20.89725,19.808781 21.33825,19.5856063 21.7185,19.6257778 C21.642,19.4159937 21.588,19.210673 21.55875,19.0098159 L21.55875,19.0098159 C21.4215,18.3112794 21.39,17.6573778 21.552,17.0347206 C21.741,16.1978159 22.191,15.5282921 22.69275,15.0127587 C23.01225,14.6757651 23.37,14.3744794 23.75025,14.1289873 C24.06075,13.9147397 24.405,13.7317365 24.77625,13.6000635 L24.77625,13.6000635 C25.06425,13.4996349 25.377,13.4393778 25.7145,13.4237556 C26.7315,13.332254 27.501,13.5933683 28.05675,13.9236667 C28.88475,14.3856381 29.1975,14.992673 29.1975,14.992673 C29.1975,14.992673 31.092,15.1310413 30.453,19.0120476 C30.41475,19.2196 30.36075,19.4182254 30.2955,19.6257778 C30.6735,19.5856063 31.11675,19.8110127 30.69825,21.3085143 C30.39225,22.4065333 30.10425,22.7145143 29.89275,22.7301365 C29.8185,23.2233524 29.62725,23.7589714 29.33025,24.2745048 L29.33025,26.2496 C29.33025,26.3165524 29.3685,26.381273 29.42925,26.4102857 C29.9085,26.644619 32.03025,27.7314794 34.2375,29.3829714 C35.34,30.204254 35.979,31.5187524 35.979,32.9002032 L35.979,33.4313587 L35.952,33.4313587 L35.952,33.4335905 L35.952,33.4335905 Z" fill="#4C7BC1" mask="url(#mask-2)"></path>
                </g>
            </g>
        </g>
    </g>
</svg>