<?xml version="1.0" encoding="UTF-8" standalone="no"?>
<svg width="42px" height="38px" viewBox="0 0 42 38" version="1.1" xmlns="http://www.w3.org/2000/svg" xmlns:xlink="http://www.w3.org/1999/xlink">
    <!-- Generator: Sketch 41.2 (35397) - http://www.bohemiancoding.com/sketch -->
    <title>alarm</title>
    <desc>Created with Sketch.</desc>
    <defs>
        <rect id="path-1" x="0" y="0" width="48" height="48"></rect>
    </defs>
    <g id="Page-1" stroke="none" stroke-width="1" fill="none" fill-rule="evenodd">
        <g id="Artboard" transform="translate(-287.000000, -233.000000)">
            <g id="alarm" transform="translate(284.000000, 228.000000)">
                <g id="Combined-Shape">
                    <mask id="mask-2" fill="white">
                        <use xlink:href="#path-1"></use>
                    </mask>
                    <g id="Mask"></g>
                    <path d="M44.3211529,38.1938879 L26.4450353,6.60416822 C25.8778588,5.60196262 24.9192706,5 23.8816235,5 C22.8436235,5 21.8850353,5.59841121 21.3182118,6.60168224 L3.44174118,38.1874953 C2.87844706,39.1833084 2.85232941,40.3265047 3.37221176,41.2253645 C3.89138824,42.1252897 4.88174118,42.6736262 6.02032941,42.6736262 L41.7429176,42.6736262 C42.8815059,42.6736262 43.8711529,42.1252897 44.3910353,41.2253645 C44.9098588,40.3265047 44.8840941,39.1889907 44.3211529,38.1938879 Z M25.8134085,36.4897617 C25.7061602,36.6040647 25.5748422,36.6612478 25.4195797,36.6612478 L21.9834974,36.6612478 C21.8285484,36.6612478 21.6912129,36.6010284 21.5719924,36.4807161 C21.4526466,36.3603406 21.393099,36.2218108 21.393099,36.0655693 L21.393099,32.6344563 C21.393099,32.4777088 21.4526466,32.3391789 21.5719924,32.2188034 C21.6912756,32.0984912 21.8285484,32.0384615 21.9834974,32.0384615 L25.4195797,32.0384615 C25.5749049,32.0384615 25.706599,32.0958344 25.8134085,32.2096946 C25.9206568,32.3246301 25.9746884,32.4655637 25.9746884,32.6344563 L25.9746884,36.065506 C25.9746884,36.2343354 25.9206568,36.3754587 25.8134085,36.4897617 Z M25.9351937,29.8388095 C25.9231588,29.9591218 25.8607279,30.0645057 25.7477129,30.1548348 C25.634071,30.2449108 25.4941656,30.2898856 25.3272444,30.2898856 L22.0162746,30.2898856 C21.8491654,30.2898856 21.7060005,30.2449108 21.5867173,30.1548348 C21.4673715,30.0645057 21.4076359,29.9591218 21.4076359,29.8388095 L21.1034419,18.6234561 C21.1034419,18.4787272 21.1629894,18.3706233 21.2822099,18.2983221 C21.4016811,18.2021102 21.544846,18.1538462 21.7118299,18.1538462 L25.649428,18.1538462 C25.8165373,18.1538462 25.9595768,18.2019204 26.07886,18.2983221 C26.1981431,18.3706233 26.2573773,18.4789802 26.2573773,18.6234561 L25.9351937,29.8388095 Z" fill="#4C7BC1" mask="url(#mask-2)"></path>
                </g>
            </g>
        </g>
    </g>
</svg>