<?xml version="1.0" encoding="UTF-8" standalone="no"?>
<svg width="38px" height="38px" viewBox="0 0 38 38" version="1.1" xmlns="http://www.w3.org/2000/svg" xmlns:xlink="http://www.w3.org/1999/xlink">
    <!-- Generator: Sketch 41.2 (35397) - http://www.bohemiancoding.com/sketch -->
    <title>alert</title>
    <desc>Created with Sketch.</desc>
    <defs>
        <rect id="path-1" x="0" y="0" width="48" height="48"></rect>
    </defs>
    <g id="Page-1" stroke="none" stroke-width="1" fill="none" fill-rule="evenodd">
        <g id="Artboard" transform="translate(-905.000000, -178.000000)">
            <g id="alert" transform="translate(900.000000, 173.000000)">
                <g id="Shape">
                    <mask id="mask-2" fill="white">
                        <use xlink:href="#path-1"></use>
                    </mask>
                    <g id="Mask"></g>
                    <path d="M40.4147016,14.4526515 C38.717426,11.5449157 36.41518,9.2426697 33.5073576,7.54548064 C30.5990159,5.84837813 27.4241549,5 23.9803508,5 C20.5368929,5 17.361426,5.84837813 14.4532574,7.54548064 C11.545262,9.24241002 9.24301595,11.544656 7.54574032,14.4526515 C5.84837813,17.36082 5,20.5366333 5,23.9798314 C5,27.4230296 5.84863781,30.5984966 7.54548064,33.5068383 C9.2426697,36.4139681 11.5449157,38.71682 14.4529112,40.4141822 C17.3610797,42.1111982 20.5366333,42.9596629 23.9800046,42.9596629 C27.4233759,42.9596629 30.5992756,42.1111982 33.5072711,40.4141822 C36.4150934,38.717426 38.7172528,36.414574 40.4143554,33.5068383 C42.1111982,30.5984966 42.9594897,27.4227699 42.9594897,23.9798314 C42.9595763,20.5366333 42.1111982,17.3603872 40.4147016,14.4526515 L40.4147016,14.4526515 Z M27.1438724,35.8173075 C27.1438724,36.0483371 27.0692574,36.2414533 26.9211526,36.3978679 C26.7730478,36.5542825 26.5917039,36.632533 26.3772938,36.632533 L21.6322278,36.632533 C21.4182506,36.632533 21.2285968,36.5501276 21.063959,36.3854897 C20.8991481,36.2207654 20.8169157,36.0311982 20.8169157,35.8173941 L20.8169157,31.1221868 C20.8169157,30.9076902 20.8991481,30.718123 21.063959,30.5533986 C21.2286834,30.3887608 21.4182506,30.306615 21.6322278,30.306615 L26.3772938,30.306615 C26.5917904,30.306615 26.7736538,30.3851253 26.9211526,30.5409339 C27.0692574,30.6982141 27.1438724,30.8910706 27.1438724,31.1221868 L27.1438724,35.8173075 L27.1438724,35.8173075 Z M27.0941868,27.3163007 C27.0775672,27.4809385 26.9913531,27.6251481 26.8352847,27.7487563 C26.6783508,27.8720182 26.4851481,27.9335626 26.2546378,27.9335626 L21.6823462,27.9335626 C21.4515763,27.9335626 21.2538724,27.8720182 21.0891481,27.7487563 C20.9243371,27.6251481 20.8418451,27.4809385 20.8418451,27.3163007 L20.4217677,11.9689749 C20.4217677,11.7709248 20.504,11.6229932 20.6686378,11.5240547 C20.8336219,11.3923964 21.0313257,11.3263508 21.2619226,11.3263508 L26.6995581,11.3263508 C26.930328,11.3263508 27.1278588,11.3921367 27.2925831,11.5240547 C27.4573075,11.6229932 27.5391071,11.7712711 27.5391071,11.9689749 L27.0941868,27.3163007 L27.0941868,27.3163007 Z" fill="#4C7BC1" mask="url(#mask-2)"></path>
                </g>
            </g>
        </g>
    </g>
</svg>