<?xml version="1.0" encoding="UTF-8" standalone="no"?>
<svg width="40px" height="36px" viewBox="0 0 40 36" version="1.1" xmlns="http://www.w3.org/2000/svg" xmlns:xlink="http://www.w3.org/1999/xlink">
    <!-- Generator: Sketch 41.2 (35397) - http://www.bohemiancoding.com/sketch -->
    <title>analytics</title>
    <desc>Created with Sketch.</desc>
    <defs>
        <rect id="path-1" x="0" y="0" width="48" height="48"></rect>
    </defs>
    <g id="Page-1" stroke="none" stroke-width="1" fill="none" fill-rule="evenodd">
        <g id="Artboard" transform="translate(-904.000000, -66.000000)">
            <g id="analytics" transform="translate(900.000000, 59.000000)">
                <g>
                    <mask id="mask-2" fill="white">
                        <use xlink:href="#path-1"></use>
                    </mask>
                    <g id="Mask"></g>
                    <path d="M4.2,8.00112915 C4.2,7.44822079 4.64105301,7 5.20274295,7 L34.3972571,7 C34.9510567,7 35.4,7.45039225 35.4,8.00112915 L35.4,13.1988708 C35.4,13.7517792 34.958947,14.2 34.3972571,14.2 L5.20274295,14.2 C4.64894331,14.2 4.2,13.7496078 4.2,13.1988708 L4.2,8.00112915 Z M4.2,17.6011292 C4.2,17.0482208 4.64714439,16.6 5.2026741,16.6 L29.5973259,16.6 C30.1510875,16.6 30.6,17.0503922 30.6,17.6011292 L30.6,22.7988708 C30.6,23.3517792 30.1528556,23.8 29.5973259,23.8 L5.2026741,23.8 C4.64891249,23.8 4.2,23.3496078 4.2,22.7988708 L4.2,17.6011292 Z M4.2,27.2011292 C4.2,26.6482208 4.65237923,26.2 5.19136119,26.2 L32.0086388,26.2 C32.5561525,26.2 33,26.6503922 33,27.2011292 L33,32.3988708 C33,32.9517792 32.5476208,33.4 32.0086388,33.4 L5.19136119,33.4 C4.64384752,33.4 4.2,32.9496078 4.2,32.3988708 L4.2,27.2011292 Z M4.2,36.8011292 C4.2,36.2482208 4.65567198,35.8 5.20524244,35.8 L22.3947576,35.8 C22.9499376,35.8 23.4,36.2503922 23.4,36.8011292 L23.4,41.9988708 C23.4,42.5517792 22.944328,43 22.3947576,43 L5.20524244,43 C4.65006237,43 4.2,42.5496078 4.2,41.9988708 L4.2,36.8011292 Z M34.2,17.6011292 C34.2,17.0482208 34.6429688,16.6 35.1945631,16.6 L38.0054369,16.6 C38.5547189,16.6 39,17.0503922 39,17.6011292 L39,22.7988708 C39,23.3517792 38.5570313,23.8 38.0054369,23.8 L35.1945631,23.8 C34.6452811,23.8 34.2,23.3496078 34.2,22.7988708 L34.2,17.6011292 Z M36.6,27.2011292 C36.6,26.6482208 37.0429688,26.2 37.5945631,26.2 L40.4054369,26.2 C40.9547189,26.2 41.4,26.6503922 41.4,27.2011292 L41.4,32.3988708 C41.4,32.9517792 40.9570313,33.4 40.4054369,33.4 L37.5945631,33.4 C37.0452811,33.4 36.6,32.9496078 36.6,32.3988708 L36.6,27.2011292 Z M27,36.8011292 C27,36.2482208 27.4429688,35.8 27.9945631,35.8 L30.8054369,35.8 C31.3547189,35.8 31.8,36.2503922 31.8,36.8011292 L31.8,41.9988708 C31.8,42.5517792 31.3570313,43 30.8054369,43 L27.9945631,43 C27.4452811,43 27,42.5496078 27,41.9988708 L27,36.8011292 Z M39,8.00112915 C39,7.44822079 39.4429687,7 39.9945631,7 L42.8054369,7 C43.3547189,7 43.8,7.45039225 43.8,8.00112915 L43.8,13.1988708 C43.8,13.7517792 43.3570312,14.2 42.8054369,14.2 L39.9945631,14.2 C39.4452811,14.2 39,13.7496078 39,13.1988708 L39,8.00112915 Z" fill="#4C7BC1" mask="url(#mask-2)"></path>
                </g>
            </g>
        </g>
    </g>
</svg>