<?xml version="1.0" encoding="utf-8"?>
<!-- Generator: Adobe Illustrator 16.0.0, SVG Export Plug-In . SVG Version: 6.00 Build 0)  -->
<!DOCTYPE svg PUBLIC "-//W3C//DTD SVG 1.1//EN" "http://www.w3.org/Graphics/SVG/1.1/DTD/svg11.dtd">
<svg version="1.1" id="Layer_1" xmlns="http://www.w3.org/2000/svg" xmlns:xlink="http://www.w3.org/1999/xlink" x="0px" y="0px"
	 width="48px" height="48px" viewBox="0 0 48 48" enable-background="new 0 0 48 48" xml:space="preserve">
<title>arrow-right</title>
<desc>Created with Sketch.</desc>
<g id="Page-1">
	<g id="Artboard" transform="translate(-230.000000, -292.000000)">
		<g id="arrow-right" transform="translate(228.000000, 284.000000)">
			<g id="Shape">
				<g id="Mask">
				</g>
				<defs>
					<filter id="Adobe_OpacityMaskFilter" filterUnits="userSpaceOnUse" x="4.448" y="16.824" width="43.105" height="30.352">
						<feColorMatrix  type="matrix" values="1 0 0 0 0  0 1 0 0 0  0 0 1 0 0  0 0 0 1 0"/>
					</filter>
				</defs>
				<mask maskUnits="userSpaceOnUse" x="4.448" y="16.824" width="43.105" height="30.352" id="mask-2">
					<g filter="url(#Adobe_OpacityMaskFilter)">
						<rect id="path-1" x="2.448" y="8.824" fill="#FFFFFF" width="48" height="48"/>
					</g>
				</mask>
				<path mask="url(#mask-2)" fill="#4C7BC1" d="M25.979,23.545H6.312c-1.024,0-1.864,0.839-1.864,1.875V38.58
					c0,1.035,0.835,1.874,1.864,1.874h19.667v5.637c0,1.04,0.684,1.393,1.526,0.794l19.414-13.8c0.844-0.599,0.844-1.571,0-2.17
					L27.506,17.115c-0.842-0.599-1.526-0.244-1.526,0.793V23.545L25.979,23.545z"/>
			</g>
		</g>
	</g>
</g>
</svg>
