<?xml version="1.0" encoding="utf-8"?>
<!-- Generator: Adobe Illustrator 16.0.0, SVG Export Plug-In . SVG Version: 6.00 Build 0)  -->
<!DOCTYPE svg PUBLIC "-//W3C//DTD SVG 1.1//EN" "http://www.w3.org/Graphics/SVG/1.1/DTD/svg11.dtd">
<svg version="1.1" id="Layer_1" xmlns="http://www.w3.org/2000/svg" xmlns:xlink="http://www.w3.org/1999/xlink" x="0px" y="0px"
	 width="48px" height="48px" viewBox="0 0 48 48" enable-background="new 0 0 48 48" xml:space="preserve">
<title>arrow-left</title>
<desc>Created with Sketch.</desc>
<g id="Page-1">
	<g id="Artboard" transform="translate(-342.000000, -292.000000)">
		<g id="arrow-left" transform="translate(340.000000, 284.000000)">
			<g id="Shape">
				<g id="Mask">
				</g>
				<defs>
					<filter id="Adobe_OpacityMaskFilter" filterUnits="userSpaceOnUse" x="4.447" y="16.824" width="43.105" height="30.352">
						<feColorMatrix  type="matrix" values="1 0 0 0 0  0 1 0 0 0  0 0 1 0 0  0 0 0 1 0"/>
					</filter>
				</defs>
				<mask maskUnits="userSpaceOnUse" x="4.447" y="16.824" width="43.105" height="30.352" id="mask-2">
					<g filter="url(#Adobe_OpacityMaskFilter)">
						<rect id="path-1" x="2.447" y="8.824" fill="#FFFFFF" width="48" height="48"/>
					</g>
				</mask>
				<path mask="url(#mask-2)" fill="#4C7BC1" d="M26.021,40.455h19.667c1.024,0,1.865-0.839,1.865-1.874V25.42
					c0-1.036-0.835-1.874-1.865-1.874H26.021V17.91c0-1.041-0.684-1.393-1.526-0.793L5.079,30.916c-0.842,0.599-0.843,1.571,0,2.17
					l19.415,13.799c0.842,0.6,1.526,0.244,1.526-0.793V40.455L26.021,40.455z"/>
			</g>
		</g>
	</g>
</g>
</svg>
