<?xml version="1.0" encoding="utf-8"?>
<!-- Generator: Adobe Illustrator 16.0.0, SVG Export Plug-In . SVG Version: 6.00 Build 0)  -->
<!DOCTYPE svg PUBLIC "-//W3C//DTD SVG 1.1//EN" "http://www.w3.org/Graphics/SVG/1.1/DTD/svg11.dtd">
<svg version="1.1" id="Layer_1" xmlns="http://www.w3.org/2000/svg" xmlns:xlink="http://www.w3.org/1999/xlink" x="0px" y="0px"
	 width="48px" height="48px" viewBox="0 0 48 48" enable-background="new 0 0 48 48" xml:space="preserve">
<title>arrow-up</title>
<desc>Created with Sketch.</desc>
<g id="Page-1">
	<g id="Artboard" transform="translate(-404.000000, -285.000000)">
		<g id="arrow-up" transform="translate(396.000000, 284.000000)">
			<g id="Shape">
				<g id="Mask">
				</g>
				<defs>
					<filter id="Adobe_OpacityMaskFilter" filterUnits="userSpaceOnUse" x="16.824" y="1.623" width="30.352" height="43.105">
						<feColorMatrix  type="matrix" values="1 0 0 0 0  0 1 0 0 0  0 0 1 0 0  0 0 0 1 0"/>
					</filter>
				</defs>
				<mask maskUnits="userSpaceOnUse" x="16.824" y="1.623" width="30.352" height="43.105" id="mask-2">
					<g filter="url(#Adobe_OpacityMaskFilter)">
						<rect id="path-1" x="8.447" fill="#FFFFFF" width="48" height="48"/>
					</g>
				</mask>
				<path mask="url(#mask-2)" fill="#4C7BC1" d="M23.545,23.197v19.667c0,1.024,0.839,1.864,1.874,1.864H38.58
					c1.035,0,1.874-0.834,1.874-1.864V23.197h5.636c1.041,0,1.394-0.684,0.794-1.527l-13.8-19.415c-0.598-0.842-1.57-0.843-2.17,0
					L17.115,21.67c-0.599,0.842-0.244,1.527,0.793,1.527H23.545L23.545,23.197z"/>
			</g>
		</g>
	</g>
</g>
</svg>
