<?xml version="1.0" encoding="utf-8"?>
<!-- Generator: Adobe Illustrator 16.0.0, SVG Export Plug-In . SVG Version: 6.00 Build 0)  -->
<!DOCTYPE svg PUBLIC "-//W3C//DTD SVG 1.1//EN" "http://www.w3.org/Graphics/SVG/1.1/DTD/svg11.dtd">
<svg version="1.1" id="Layer_1" xmlns="http://www.w3.org/2000/svg" xmlns:xlink="http://www.w3.org/1999/xlink" x="0px" y="0px"
	 width="48px" height="48px" viewBox="0 0 48 48" enable-background="new 0 0 48 48" xml:space="preserve">
<title>arrow-down</title>
<desc>Created with Sketch.</desc>
<g id="Page-1">
	<g id="Artboard" transform="translate(-292.000000, -285.000000)">
		<g id="arrow-down" transform="translate(284.000000, 284.000000)">
			<g id="Shape">
				<g id="Mask">
				</g>
				<defs>
					<filter id="Adobe_OpacityMaskFilter" filterUnits="userSpaceOnUse" x="16.824" y="3.448" width="30.352" height="43.105">
						<feColorMatrix  type="matrix" values="1 0 0 0 0  0 1 0 0 0  0 0 1 0 0  0 0 0 1 0"/>
					</filter>
				</defs>
				<mask maskUnits="userSpaceOnUse" x="16.824" y="3.448" width="30.352" height="43.105" id="mask-2">
					<g filter="url(#Adobe_OpacityMaskFilter)">
						<rect id="path-1" x="8.447" y="1.824" fill="#FFFFFF" width="48" height="48"/>
					</g>
				</mask>
				<path mask="url(#mask-2)" fill="#4C7BC1" d="M40.455,24.979V5.312c0-1.024-0.84-1.864-1.874-1.864H25.42
					c-1.036,0-1.874,0.834-1.874,1.864v19.667H17.91c-1.041,0-1.393,0.684-0.794,1.526l13.8,19.415c0.598,0.842,1.571,0.843,2.17,0
					l13.799-19.415c0.599-0.842,0.244-1.526-0.793-1.526H40.455L40.455,24.979z"/>
			</g>
		</g>
	</g>
</g>
</svg>
