<?xml version="1.0" encoding="UTF-8" standalone="no"?>
<svg width="39px" height="42px" viewBox="0 0 39 42" version="1.1" xmlns="http://www.w3.org/2000/svg" xmlns:xlink="http://www.w3.org/1999/xlink">
    <!-- Generator: Sketch 41.2 (35397) - http://www.bohemiancoding.com/sketch -->
    <title>assets</title>
    <desc>Created with Sketch.</desc>
    <defs>
        <rect id="path-1" x="0" y="0" width="48" height="48"></rect>
    </defs>
    <g id="Page-1" stroke="none" stroke-width="1" fill="none" fill-rule="evenodd">
        <g id="Artboard" transform="translate(-233.000000, -62.000000)">
            <g id="assets" transform="translate(228.000000, 59.000000)">
                <g id="Shape">
                    <mask id="mask-2" fill="white">
                        <use xlink:href="#path-1"></use>
                    </mask>
                    <g id="Mask"></g>
                    <path d="M7.53573585,14.6649569 L23.0496415,22.7629914 L23.0496415,41.6282328 L7.53573585,33.5301983 L7.53573585,14.6649569 L7.53573585,14.6649569 Z M24.3175094,5.62771552 L39.5311887,12.6583707 L24.3175094,20.5985431 L9.10530189,12.6583707 L24.3175094,5.62771552 L24.3175094,5.62771552 Z M43.6357547,12.6366466 L43.6357547,12.5903017 C43.6357547,12.5772672 43.6313396,12.5649569 43.6306038,12.5519224 C43.6276604,12.4700948 43.6180943,12.3904397 43.5989623,12.3122328 C43.5923396,12.2861638 43.5871887,12.2600948 43.5790943,12.23475 C43.5555472,12.1579914 43.5253774,12.0841293 43.4878491,12.0131638 C43.4790189,11.9979569 43.4738679,11.9813017 43.4650377,11.966819 C43.4164717,11.8835431 43.3576038,11.8067845 43.2899057,11.7365431 C43.2744528,11.7191638 43.2553208,11.7054052 43.2376604,11.6894741 C43.1839434,11.6387845 43.1258113,11.5924397 43.0617925,11.5511638 C43.0470755,11.54175 43.0367736,11.5287155 43.0220566,11.5200259 C43.0073396,11.5113362 42.9896792,11.5077155 42.9749623,11.49975 C42.9506792,11.4874397 42.9315472,11.4715086 42.9072642,11.4599224 L24.8568868,3.11785345 C24.5154528,2.96071552 24.119566,2.96071552 23.7788679,3.11785345 L5.72849057,11.4599224 C5.70420755,11.4715086 5.68360377,11.4874397 5.66079245,11.5004741 C5.64533962,11.5084397 5.62841509,11.5113362 5.61369811,11.5200259 C5.59971698,11.5287155 5.58941509,11.54175 5.57543396,11.5504397 C5.51067925,11.5917155 5.45107547,11.6387845 5.39662264,11.6901983 C5.37969811,11.7061293 5.36130189,11.7191638 5.34584906,11.735819 C5.27815094,11.8067845 5.21928302,11.8835431 5.17071698,11.9660948 C5.16188679,11.9820259 5.156,11.998681 5.14716981,12.0146121 C5.11037736,12.0848534 5.0809434,12.1572672 5.05739623,12.2333017 C5.04930189,12.2600948 5.04267925,12.2868879 5.0360566,12.3144052 C5.01839623,12.3904397 5.00809434,12.4679224 5.00588679,12.5468534 C5.00515094,12.5613362 5,12.5750948 5,12.5903017 L5,34.2818534 C5,34.7438534 5.25901887,35.1674741 5.67403774,35.3847155 L23.7236792,44.8064741 C23.7781321,44.8347155 23.8362642,44.8506466 23.8936604,44.8701983 C23.9282453,44.8825086 23.9613585,44.9006121 23.9974151,44.9100259 C24.1026415,44.936819 24.2100755,44.9520259 24.3175094,44.9520259 C24.4256792,44.9520259 24.5323774,44.936819 24.6376038,44.9100259 C24.6736604,44.9006121 24.7060377,44.8825086 24.7406226,44.8709224 C24.7980189,44.8506466 24.8568868,44.8347155 24.9113396,44.8064741 L42.961717,35.3847155 C43.3774717,35.1674741 43.6357547,34.7438534 43.6357547,34.2818534 L43.6357547,12.6402672 L43.6357547,12.6366466 L43.6357547,12.6366466 Z" fill="#4C7BC1" mask="url(#mask-2)"></path>
                </g>
            </g>
        </g>
    </g>
</svg>