<?xml version="1.0" encoding="utf-8"?>
<!-- Generator: Adobe Illustrator 16.0.0, SVG Export Plug-In . SVG Version: 6.00 Build 0)  -->
<!DOCTYPE svg PUBLIC "-//W3C//DTD SVG 1.1//EN" "http://www.w3.org/Graphics/SVG/1.1/DTD/svg11.dtd">
<svg version="1.1" id="Layer_1" xmlns="http://www.w3.org/2000/svg" xmlns:xlink="http://www.w3.org/1999/xlink" x="0px" y="0px"
	 width="48px" height="48px" viewBox="0 0 48 48" enable-background="new 0 0 48 48" xml:space="preserve">
<title>audio-off</title>
<desc>Created with Sketch.</desc>
<g id="Page-1">
	<g id="Artboard" transform="translate(-231.000000, -405.000000)">
		<g id="audio-off" transform="translate(228.000000, 396.000000)">
			<g id="speaker">
				<g id="Mask">
				</g>
				<defs>
					<filter id="Adobe_OpacityMaskFilter" filterUnits="userSpaceOnUse" x="6.778" y="18.151" width="40.445" height="29.697">
						<feColorMatrix  type="matrix" values="1 0 0 0 0  0 1 0 0 0  0 0 1 0 0  0 0 0 1 0"/>
					</filter>
				</defs>
				<mask maskUnits="userSpaceOnUse" x="6.778" y="18.151" width="40.445" height="29.697" id="mask-2">
					<g filter="url(#Adobe_OpacityMaskFilter)">
						<rect id="path-1" x="3.778" y="8.777" fill="#FFFFFF" width="48" height="48"/>
					</g>
				</mask>
				<path id="Shape" mask="url(#mask-2)" fill="#4C7BC1" d="M27.575,45.934c0,0.743-0.423,1.418-1.085,1.732
					c-0.256,0.123-0.53,0.183-0.803,0.183c-0.432,0-0.859-0.15-1.205-0.44l-10.32-8.678H8.666c-1.042,0.002-1.888-0.857-1.888-1.914
					v-7.631c0-1.058,0.845-1.916,1.888-1.916h5.497l10.32-8.677c0.564-0.475,1.346-0.576,2.008-0.258
					c0.662,0.315,1.085,0.991,1.085,1.733L27.575,45.934L27.575,45.934z M46.764,30.37c0.508-0.512,0.5-1.355-0.021-1.88
					l-0.709-0.713c-0.521-0.525-1.357-0.536-1.865-0.023l-2.422,2.438l-2.479-2.498c-0.52-0.524-1.357-0.535-1.867-0.022
					l-0.691,0.696c-0.508,0.512-0.5,1.355,0.023,1.88l2.479,2.498l-2.42,2.439c-0.508,0.511-0.498,1.354,0.023,1.88l0.707,0.713
					c0.521,0.526,1.357,0.535,1.867,0.023l2.42-2.439l2.48,2.499c0.52,0.524,1.357,0.535,1.867,0.022l0.689-0.695
					c0.51-0.514,0.5-1.355-0.021-1.883l-2.48-2.497L46.764,30.37L46.764,30.37L46.764,30.37z"/>
			</g>
		</g>
	</g>
</g>
</svg>
