<?xml version="1.0" encoding="utf-8"?>
<!-- Generator: Adobe Illustrator 16.0.0, SVG Export Plug-In . SVG Version: 6.00 Build 0)  -->
<!DOCTYPE svg PUBLIC "-//W3C//DTD SVG 1.1//EN" "http://www.w3.org/Graphics/SVG/1.1/DTD/svg11.dtd">
<svg version="1.1" id="Layer_1" xmlns="http://www.w3.org/2000/svg" xmlns:xlink="http://www.w3.org/1999/xlink" x="0px" y="0px"
	 width="48px" height="48px" viewBox="0 0 48 48" enable-background="new 0 0 48 48" xml:space="preserve">
<title>audio-on</title>
<desc>Created with Sketch.</desc>
<g id="Page-1">
	<g id="Artboard" transform="translate(-175.000000, -403.000000)">
		<g id="audio-on" transform="translate(172.000000, 396.000000)">
			<g id="speaker">
				<g id="Mask">
				</g>
				<defs>
					<filter id="Adobe_OpacityMaskFilter" filterUnits="userSpaceOnUse" x="6.215" y="14.247" width="41.57" height="33.506">
						<feColorMatrix  type="matrix" values="1 0 0 0 0  0 1 0 0 0  0 0 1 0 0  0 0 0 1 0"/>
					</filter>
				</defs>
				<mask maskUnits="userSpaceOnUse" x="6.215" y="14.247" width="41.57" height="33.506" id="mask-2">
					<g filter="url(#Adobe_OpacityMaskFilter)">
						<rect id="path-1" x="3.215" y="6.991" fill="#FFFFFF" width="48" height="48"/>
					</g>
				</mask>
				<path id="Shape" mask="url(#mask-2)" fill="#4C7BC1" d="M27.012,44.147c0,0.743-0.423,1.418-1.085,1.732
					c-0.256,0.123-0.53,0.183-0.803,0.183c-0.432,0-0.859-0.15-1.205-0.44l-10.32-8.677H8.103c-1.042,0-1.888-0.857-1.888-1.916
					v-7.63c0-1.058,0.845-1.916,1.888-1.916H13.6l10.32-8.677c0.564-0.475,1.346-0.576,2.008-0.258
					c0.662,0.315,1.085,0.991,1.085,1.733L27.012,44.147L27.012,44.147z M34.268,41.154c-0.047,0.003-0.09,0.005-0.137,0.005
					c-0.498,0-0.979-0.199-1.334-0.561l-0.252-0.257c-0.662-0.671-0.74-1.733-0.183-2.495c1.413-1.935,2.159-4.227,2.159-6.631
					c0-2.587-0.847-5.013-2.449-7.017c-0.611-0.761-0.555-1.868,0.129-2.561l0.252-0.256c0.377-0.382,0.883-0.591,1.43-0.558
					c0.533,0.027,1.03,0.282,1.367,0.701c2.225,2.761,3.398,6.113,3.398,9.692c0,3.333-1.038,6.507-3.004,9.176
					C35.316,40.836,34.813,41.115,34.268,41.154z M42.072,47.073c-0.342,0.41-0.836,0.655-1.363,0.678
					c-0.026,0.002-0.053,0.002-0.08,0.002c-0.5,0-0.979-0.2-1.334-0.561l-0.248-0.252c-0.693-0.702-0.74-1.826-0.11-2.587
					c3.044-3.674,4.722-8.34,4.722-13.138c0-4.992-1.795-9.797-5.055-13.531c-0.661-0.758-0.628-1.905,0.076-2.622l0.247-0.251
					c0.367-0.375,0.845-0.581,1.392-0.563c0.52,0.015,1.012,0.248,1.356,0.643c3.94,4.5,6.11,10.299,6.11,16.325
					C47.786,37.013,45.757,42.646,42.072,47.073z"/>
			</g>
		</g>
	</g>
</g>
</svg>
