<?xml version="1.0" encoding="UTF-8" standalone="no"?>
<svg width="45px" height="41px" viewBox="0 0 45 41" version="1.1" xmlns="http://www.w3.org/2000/svg" xmlns:xlink="http://www.w3.org/1999/xlink">
    <!-- Generator: Sketch 41.2 (35397) - http://www.bohemiancoding.com/sketch -->
    <title>back</title>
    <desc>Created with Sketch.</desc>
    <defs>
        <rect id="path-1" x="0" y="0" width="48" height="48"></rect>
    </defs>
    <g id="Page-1" stroke="none" stroke-width="1" fill="none" fill-rule="evenodd">
        <g id="Artboard" transform="translate(-397.000000, -9.000000)">
            <g id="back" transform="translate(395.000000, 5.000000)">
                <g>
                    <mask id="mask-2" fill="white">
                        <use xlink:href="#path-1"></use>
                    </mask>
                    <g id="Mask"></g>
                    <path d="M44.9642741,22.5435996 C42.2954701,15.6668272 35.0896734,12.2283514 23.3460186,12.2283514 L17.8118912,12.2283514 L17.8118912,5.67584681 C17.8118912,5.23189489 17.6553507,4.8479195 17.3425292,4.523831 C17.0295348,4.19956321 16.6592545,4.03738448 16.2308233,4.03738448 C15.8023055,4.03738448 15.4316792,4.19956321 15.1188577,4.523831 L2.46936198,17.6288401 C2.15654053,17.9533768 2,18.3371729 2,18.7808559 C2,19.2244492 2.15654053,19.6082454 2.46936198,19.9326028 L15.1189443,33.0379705 C15.4321119,33.3618797 15.8027382,33.5245963 16.2309098,33.5245963 C16.6589949,33.5245963 17.0295348,33.3619693 17.3426158,33.0379705 C17.6555238,32.7139716 17.8119778,32.3299066 17.8119778,31.8861339 L17.8119778,25.3331812 L23.3461051,25.3331812 C24.9598831,25.3331812 26.4050057,25.384103 27.6813864,25.4863052 C28.9576806,25.5887763 30.2266194,25.7722023 31.486126,26.0370314 C32.7464114,26.3015021 33.8419355,26.6637818 34.7726117,27.1249468 C35.703115,27.5861117 36.5720057,28.1788844 37.3791976,28.9038026 C38.186476,29.6294381 38.845348,30.490626 39.3562465,31.4892489 C39.8664526,32.4876028 40.2659814,33.6687552 40.5544002,35.0339612 C40.8422132,36.3992568 40.9868121,37.9436752 40.9868121,39.6666784 C40.9868121,40.6049661 40.9453621,41.6547798 40.8632412,42.8150435 C40.8632412,42.9169767 40.842819,43.1176158 40.801369,43.4164227 C40.7604384,43.7152296 40.7397566,43.9410606 40.7397566,44.0943637 C40.7397566,44.3499589 40.8096763,44.563418 40.9494293,44.7341136 C41.0897878,44.9046298 41.2834517,44.9897087 41.5304205,44.9897087 C41.7940039,44.9897087 42.0243582,44.8449223 42.2221756,44.5546322 C42.3370931,44.4012393 42.4437899,44.2134204 42.5432178,43.9913548 C42.6421264,43.769827 42.7534961,43.513963 42.8767209,43.2237626 C43.0005515,42.9335621 43.0869992,42.7295165 43.1361507,42.6098323 C45.2276845,37.7473394 46.2737109,33.8995169 46.2737109,31.0667236 C46.2735378,27.6713699 45.8373185,24.8298803 44.9642741,22.5435996 L44.9642741,22.5435996 L44.9642741,22.5435996 Z" fill="#4C7BC1" mask="url(#mask-2)"></path>
                </g>
            </g>
        </g>
    </g>
</svg>