<?xml version="1.0" encoding="utf-8"?>
<!-- Generator: Adobe Illustrator 16.0.0, SVG Export Plug-In . SVG Version: 6.00 Build 0)  -->
<!DOCTYPE svg PUBLIC "-//W3C//DTD SVG 1.1//EN" "http://www.w3.org/Graphics/SVG/1.1/DTD/svg11.dtd">
<svg version="1.1" id="Layer_1" xmlns="http://www.w3.org/2000/svg" xmlns:xlink="http://www.w3.org/1999/xlink" x="0px" y="0px"
	 width="48px" height="48px" viewBox="0 0 48 48" enable-background="new 0 0 48 48" xml:space="preserve">
<title>battery-high</title>
<desc>Created with Sketch.</desc>
<g id="Page-1">
	<g id="Artboard" transform="translate(-288.000000, -463.000000)">
		<g id="battery-high" transform="translate(285.000000, 452.000000)">
			<g id="battery">
				<g id="Mask">
				</g>
				<defs>
					<filter id="Adobe_OpacityMaskFilter" filterUnits="userSpaceOnUse" x="5.514" y="22.016" width="42.973" height="25.968">
						<feColorMatrix  type="matrix" values="1 0 0 0 0  0 1 0 0 0  0 0 1 0 0  0 0 0 1 0"/>
					</filter>
				</defs>
				<mask maskUnits="userSpaceOnUse" x="5.514" y="22.016" width="42.973" height="25.968" id="mask-2">
					<g filter="url(#Adobe_OpacityMaskFilter)">
						<rect id="path-1" x="2.514" y="11.014" fill="#FFFFFF" width="48" height="48"/>
					</g>
				</mask>
				<path id="Combined-Shape" mask="url(#mask-2)" fill="#4C7BC1" d="M45.381,29.405h-2.518V27.28c0-2.903-2.35-5.264-5.238-5.264
					H10.751c-2.889,0-5.237,2.361-5.237,5.264V42.72c0,2.903,2.349,5.265,5.237,5.265h26.874c2.889,0,5.238-2.361,5.238-5.265
					v-2.124h2.518c1.715,0,3.105-1.398,3.105-3.123v-4.945C48.486,30.803,47.096,29.405,45.381,29.405z M38.601,42.72
					c0,0.541-0.437,0.981-0.976,0.981H10.751c-0.539,0-0.975-0.44-0.975-0.981V27.28c0-0.541,0.437-0.98,0.975-0.98h26.874
					c0.539,0,0.976,0.44,0.976,0.98V42.72z M17.98,29.014h-4.599c-0.479,0-0.867,0.391-0.867,0.872v10.808
					c0,0.481,0.388,0.872,0.867,0.872h4.599c0.479,0,0.867-0.391,0.867-0.872V29.885C18.847,29.404,18.458,29.014,17.98,29.014z
					 M26.48,29.014h-4.599c-0.479,0-0.867,0.391-0.867,0.872v10.808c0,0.481,0.389,0.872,0.867,0.872h4.599
					c0.479,0,0.867-0.391,0.867-0.872V29.885C27.347,29.404,26.958,29.014,26.48,29.014z M34.98,29.014h-4.6
					c-0.479,0-0.867,0.391-0.867,0.872v10.808c0,0.481,0.389,0.872,0.867,0.872h4.6c0.479,0,0.867-0.391,0.867-0.872V29.885
					C35.848,29.404,35.459,29.014,34.98,29.014z"/>
			</g>
		</g>
	</g>
</g>
</svg>
