<?xml version="1.0" encoding="UTF-8" standalone="no"?>
<svg width="28px" height="37px" viewBox="0 0 28 37" version="1.1" xmlns="http://www.w3.org/2000/svg" xmlns:xlink="http://www.w3.org/1999/xlink">
    <!-- Generator: Sketch 41.2 (35397) - http://www.bohemiancoding.com/sketch -->
    <title>bin</title>
    <desc>Created with Sketch.</desc>
    <defs>
        <rect id="path-1" x="0" y="0" width="48" height="48"></rect>
    </defs>
    <g id="Page-1" stroke="none" stroke-width="1" fill="none" fill-rule="evenodd">
        <g id="Artboard" transform="translate(-854.000000, -179.000000)">
            <g id="bin" transform="translate(844.000000, 173.000000)">
                <g>
                    <mask id="mask-2" fill="white">
                        <use xlink:href="#path-1"></use>
                    </mask>
                    <g id="Mask"></g>
                    <path d="M14.6058446,40.4124752 C14.6058446,40.4124752 15.1572688,42.9181859 17.995607,42.9181859 L30.8293526,42.9181859 C33.6675529,42.9181859 34.2189771,40.4124752 34.2189771,40.4124752 L36.7525773,15.8449046 L12.0723823,15.8449046 L14.6058446,40.4124752 L14.6058446,40.4124752 Z M29.3485464,19.5367782 C29.3485464,18.8570653 29.9009358,18.3061995 30.5825285,18.3061995 C31.2641213,18.3061995 31.8166486,18.8570653 31.8166486,19.5367782 L30.5825285,37.9958711 C30.5825285,38.675584 30.0300013,39.2264498 29.3485464,39.2264498 C28.6670915,39.2264498 28.1145642,38.6754465 28.1145642,37.9958711 L29.3485464,19.5367782 L29.3485464,19.5367782 Z M23.1784976,19.5367782 C23.1784976,18.8570653 23.7310249,18.3061995 24.4124798,18.3061995 C25.0940726,18.3061995 25.646462,18.8570653 25.646462,19.5367782 L25.646462,37.9958711 C25.646462,38.675584 25.0940726,39.2264498 24.4124798,39.2264498 C23.730887,39.2264498 23.1784976,38.6754465 23.1784976,37.9958711 L23.1784976,19.5367782 L23.1784976,19.5367782 Z M18.2424311,18.306062 C18.9240238,18.306062 19.4764132,18.8569278 19.4764132,19.5366407 L20.7105333,37.9957336 C20.7105333,38.6754465 20.158006,39.2263123 19.4764132,39.2263123 C18.7949583,39.2263123 18.2424311,38.6753089 18.2424311,37.9957336 L17.0084489,19.5367782 C17.0084489,18.8570653 17.5609762,18.306062 18.2424311,18.306062 L18.2424311,18.306062 Z M36.0121052,10.9243774 L30.5825285,10.9243774 L30.5825285,8.4612949 C30.5825285,6.59431904 29.9770513,6 28.1145642,6 L20.7103954,6 C19.0020699,6 18.2424311,6.82519865 18.2424311,8.4612949 L18.2424311,10.9245149 L12.8128544,10.9245149 C11.7215889,10.9245149 10.8384001,11.7505387 10.8384001,12.7712768 C10.8384001,13.7921524 11.7215889,14.6181762 12.8128544,14.6181762 L36.0121052,14.6181762 C37.1033707,14.6181762 37.9865595,13.7921524 37.9865595,12.7712768 C37.9865595,11.7505387 37.1033707,10.9243774 36.0121052,10.9243774 L36.0121052,10.9243774 Z M28.1145642,10.9243774 L20.7105333,10.9243774 L20.7106712,8.46115739 L28.1147021,8.46115739 L28.1147021,10.9243774 L28.1145642,10.9243774 Z" fill="#4C7BC1" mask="url(#mask-2)"></path>
                </g>
            </g>
        </g>
    </g>
</svg>