<?xml version="1.0" encoding="utf-8"?>
<!-- Generator: Adobe Illustrator 16.0.0, SVG Export Plug-In . SVG Version: 6.00 Build 0)  -->
<!DOCTYPE svg PUBLIC "-//W3C//DTD SVG 1.1//EN" "http://www.w3.org/Graphics/SVG/1.1/DTD/svg11.dtd">
<svg version="1.1" id="Layer_1" xmlns="http://www.w3.org/2000/svg" xmlns:xlink="http://www.w3.org/1999/xlink" x="0px" y="0px"
	 width="48px" height="48px" viewBox="0 0 48 48" enable-background="new 0 0 48 48" xml:space="preserve">
<title>bug</title>
<desc>Created with Sketch.</desc>
<g id="Page-1">
	<g id="Artboard" transform="translate(-64.000000, -456.000000)">
		<g id="bug" transform="translate(60.000000, 452.000000)">
			<g>
				<g id="Mask">
				</g>
				<defs>
					<filter id="Adobe_OpacityMaskFilter" filterUnits="userSpaceOnUse" x="8.008" y="8.558" width="39.984" height="38.886">
						<feColorMatrix  type="matrix" values="1 0 0 0 0  0 1 0 0 0  0 0 1 0 0  0 0 0 1 0"/>
					</filter>
				</defs>
				<mask maskUnits="userSpaceOnUse" x="8.008" y="8.558" width="39.984" height="38.886" id="mask-2">
					<g filter="url(#Adobe_OpacityMaskFilter)">
						<rect id="path-1" x="4.008" y="4.508" fill="#FFFFFF" width="48" height="48"/>
					</g>
				</mask>
				<path id="Combined-Shape" mask="url(#mask-2)" fill="#4C7BC1" d="M47.516,29.662c-0.314-0.314-0.691-0.472-1.124-0.472h-5.598
					v-7.291l4.323-4.291c0.316-0.314,0.476-0.686,0.476-1.116c0-0.43-0.159-0.801-0.476-1.116c-0.316-0.314-0.691-0.471-1.124-0.471
					s-0.808,0.157-1.124,0.471l-4.324,4.291H17.454l-4.323-4.291c-0.317-0.314-0.691-0.471-1.125-0.471
					c-0.434,0-0.808,0.157-1.125,0.471c-0.316,0.314-0.475,0.686-0.475,1.116c0,0.43,0.158,0.802,0.475,1.116l4.324,4.291v7.291
					H9.607c-0.434,0-0.808,0.157-1.125,0.472c-0.317,0.313-0.475,0.686-0.475,1.115s0.158,0.803,0.475,1.116
					c0.316,0.313,0.691,0.472,1.125,0.472h5.598c0,2.645,0.483,4.91,1.449,6.795l-5.048,5.629c-0.283,0.331-0.412,0.715-0.387,1.152
					s0.196,0.807,0.512,1.104c0.316,0.266,0.675,0.397,1.074,0.397c0.467,0,0.867-0.173,1.2-0.521l4.573-5.134l0.375,0.348
					c0.233,0.216,0.595,0.483,1.087,0.806s1.042,0.645,1.649,0.968c0.608,0.322,1.333,0.595,2.174,0.818
					c0.842,0.224,1.687,0.335,2.537,0.335v-22.22H29.6v22.22c0.799,0,1.607-0.107,2.424-0.322s1.499-0.455,2.049-0.719
					c0.549-0.266,1.092-0.566,1.625-0.906c0.533-0.338,0.883-0.574,1.049-0.707c0.167-0.132,0.292-0.239,0.375-0.322l4.948,4.886
					c0.3,0.314,0.675,0.472,1.124,0.472c0.45,0,0.825-0.157,1.125-0.472c0.316-0.313,0.475-0.687,0.475-1.116
					s-0.158-0.802-0.475-1.115l-5.197-5.184c1.116-1.967,1.674-4.364,1.674-7.191h5.598c0.434,0,0.809-0.157,1.125-0.471
					c0.316-0.314,0.475-0.687,0.475-1.117C47.992,30.348,47.834,29.977,47.516,29.662z M33.66,10.876
					C32.104,9.331,30.216,8.558,28,8.558c-2.216,0-4.103,0.773-5.661,2.319c-1.557,1.546-2.336,3.418-2.336,5.617h15.992
					C35.996,14.295,35.218,12.422,33.66,10.876z"/>
			</g>
		</g>
	</g>
</g>
</svg>
