<?xml version="1.0" encoding="UTF-8" standalone="no"?>
<svg width="38px" height="38px" viewBox="0 0 38 38" version="1.1" xmlns="http://www.w3.org/2000/svg" xmlns:xlink="http://www.w3.org/1999/xlink">
    <!-- Generator: Sketch 41.2 (35397) - http://www.bohemiancoding.com/sketch -->
    <title>calendar</title>
    <desc>Created with Sketch.</desc>
    <defs>
        <rect id="path-1" x="0" y="0" width="48" height="48"></rect>
    </defs>
    <g id="Page-1" stroke="none" stroke-width="1" fill="none" fill-rule="evenodd">
        <g id="Artboard" transform="translate(-737.000000, -10.000000)">
            <g id="calendar" transform="translate(732.000000, 5.000000)">
                <g id="Layer_1" transform="translate(5.000000, 5.000000)"></g>
                <g id="Symbols">
                    <mask id="mask-2" fill="white">
                        <use xlink:href="#path-1"></use>
                    </mask>
                    <g id="Mask"></g>
                    <path d="M12.2453333,15.0974444 L14.6435556,15.0974444 C15.3718889,15.0974444 15.963,14.5211111 15.963,13.8096667 L15.963,6.28777778 C15.9608889,5.57633333 15.3697778,5 14.6414444,5 L12.2453333,5 C11.517,5 10.9258889,5.57633333 10.9258889,6.28777778 L10.9258889,13.8096667 C10.9258889,14.5211111 11.517,15.0974444 12.2453333,15.0974444 L12.2453333,15.0974444 Z M33.3036667,15.0974444 L35.7018889,15.0974444 C36.4302222,15.0974444 37.0192222,14.5211111 37.0192222,13.8096667 L37.0192222,6.28777778 C37.0192222,5.57633333 36.4302222,5 35.7018889,5 L33.3036667,5 C32.5753333,5 31.9863333,5.57633333 31.9863333,6.28777778 L31.9863333,13.8096667 C31.9863333,14.5211111 32.5753333,15.0974444 33.3036667,15.0974444 L33.3036667,15.0974444 Z M39.6032222,9.22433333 L39.6032222,13.8117778 C39.6032222,15.8848889 37.8826667,17.5568889 35.761,17.5568889 L33.3374444,17.5568889 C31.2157778,17.5568889 29.472,15.8848889 29.472,13.8117778 L29.472,9.20744444 L18.5427778,9.20744444 L18.5427778,13.8117778 C18.5427778,15.8848889 16.799,17.5568889 14.6773333,17.5568889 L12.2537778,17.5568889 C10.1321111,17.5568889 8.41155556,15.8848889 8.41155556,13.8117778 L8.41155556,9.22433333 C6.558,9.27922222 5.03377778,10.7781111 5.03377778,12.6211111 L5.03377778,39.5124444 C5.03377778,41.3913333 6.58966667,42.9324444 8.51077778,42.9324444 L39.5018889,42.9324444 C41.4208889,42.9324444 42.9788889,41.3871111 42.9788889,39.5124444 L42.9788889,12.6211111 C42.9788889,10.7781111 41.4567778,9.27922222 39.6032222,9.22433333 L39.6032222,9.22433333 Z M38.4758889,37.8383333 C38.4758889,38.6511111 37.8024444,39.3097778 36.9706667,39.3097778 L10.9744444,39.3097778 C10.1426667,39.3097778 9.47133333,38.6511111 9.47133333,37.8383333 L9.47133333,23.9493333 C9.47133333,23.1365556 10.1447778,22.48 10.9744444,22.48 L36.9727778,22.48 C37.8045556,22.48 38.478,23.1386667 38.478,23.9493333 L38.478,37.8383333 L38.4758889,37.8383333 Z M34.1058889,33.4387778 C34.1058889,32.9616667 33.709,32.5774444 33.2255556,32.5774444 L30.1517778,32.5774444 C29.6662222,32.5774444 29.2693333,32.9637778 29.2693333,33.4387778 L29.2693333,36.4428889 C29.2693333,36.92 29.6662222,37.3021111 30.1517778,37.3021111 L33.2255556,37.3021111 C33.709,37.3021111 34.1058889,36.9178889 34.1058889,36.4428889 L34.1058889,33.4387778 L34.1058889,33.4387778 Z M26.4235556,33.4387778 C26.4235556,32.9616667 26.0266667,32.5774444 25.5411111,32.5774444 L22.4694444,32.5774444 C21.9838889,32.5774444 21.5891111,32.9637778 21.5891111,33.4387778 L21.5891111,36.4428889 C21.5891111,36.92 21.9838889,37.3021111 22.4694444,37.3021111 L25.5411111,37.3021111 C26.0266667,37.3021111 26.4235556,36.9178889 26.4235556,36.4428889 L26.4235556,33.4387778 L26.4235556,33.4387778 Z M18.7412222,33.4387778 C18.7412222,32.9616667 18.3464444,32.5774444 17.8608889,32.5774444 L14.7871111,32.5774444 C14.3015556,32.5774444 13.9067778,32.9637778 13.9067778,33.4387778 L13.9067778,36.4428889 C13.9067778,36.92 14.3015556,37.3021111 14.7871111,37.3021111 L17.8608889,37.3021111 C18.3464444,37.3021111 18.7412222,36.9178889 18.7412222,36.4428889 L18.7412222,33.4387778 L18.7412222,33.4387778 Z M34.1058889,25.9274444 C34.1058889,25.4503333 33.709,25.0682222 33.2234444,25.0682222 L30.1517778,25.0682222 C29.6662222,25.0682222 29.2693333,25.4524444 29.2693333,25.9274444 L29.2693333,28.9315556 C29.2693333,29.4086667 29.6662222,29.7928889 30.1517778,29.7928889 L33.2234444,29.7928889 C33.709,29.7928889 34.1058889,29.4065556 34.1058889,28.9315556 L34.1058889,25.9274444 L34.1058889,25.9274444 Z M26.4235556,25.9274444 C26.4235556,25.4503333 26.0266667,25.0682222 25.5411111,25.0682222 L22.4694444,25.0682222 C21.9838889,25.0682222 21.5891111,25.4524444 21.5891111,25.9274444 L21.5891111,28.9315556 C21.5891111,29.4086667 21.9838889,29.7928889 22.4694444,29.7928889 L25.5411111,29.7928889 C26.0266667,29.7928889 26.4235556,29.4065556 26.4235556,28.9315556 L26.4235556,25.9274444 L26.4235556,25.9274444 Z M18.7412222,25.9274444 C18.7412222,25.4503333 18.3464444,25.0682222 17.8608889,25.0682222 L14.7871111,25.0682222 C14.3015556,25.0682222 13.9067778,25.4524444 13.9067778,25.9274444 L13.9067778,28.9315556 C13.9067778,29.4086667 14.3015556,29.7928889 14.7871111,29.7928889 L17.8608889,29.7928889 C18.3464444,29.7928889 18.7412222,29.4065556 18.7412222,28.9315556 L18.7412222,25.9274444 L18.7412222,25.9274444 Z" fill="#4C7BC1" mask="url(#mask-2)"></path>
                </g>
            </g>
        </g>
    </g>
</svg>