<?xml version="1.0" encoding="UTF-8" standalone="no"?>
<svg width="42px" height="33px" viewBox="0 0 42 33" version="1.1" xmlns="http://www.w3.org/2000/svg" xmlns:xlink="http://www.w3.org/1999/xlink">
    <!-- Generator: Sketch 41.2 (35397) - http://www.bohemiancoding.com/sketch -->
    <title>camera</title>
    <desc>Created with Sketch.</desc>
    <defs>
        <rect id="path-1" x="0" y="0" width="48" height="48"></rect>
    </defs>
    <g id="Page-1" stroke="none" stroke-width="1" fill="none" fill-rule="evenodd">
        <g id="Artboard" transform="translate(-342.000000, -66.000000)">
            <g id="camera" transform="translate(339.000000, 59.000000)">
                <g id="Shape">
                    <mask id="mask-2" fill="white">
                        <use xlink:href="#path-1"></use>
                    </mask>
                    <g id="Mask"></g>
                    <path d="M38.9517974,15.2540494 C37.8076216,15.2540494 36.879216,16.2198172 36.879216,17.4110454 C36.879216,18.6022735 37.8076216,19.5673539 38.9517974,19.5673539 C40.0966329,19.5673539 41.0250386,18.6022735 41.0250386,17.4110454 C41.0250386,16.2198172 40.0966329,15.2540494 38.9517974,15.2540494 M32.8330305,25.9489825 C32.8330305,20.7578947 28.7749676,16.5346369 23.7865197,16.5346369 C18.7987315,16.5346369 14.7406686,20.7578947 14.7406686,25.9489825 C14.7406686,31.1386955 18.7987315,35.3619533 23.7865197,35.3619533 C28.7749676,35.3619533 32.8330305,31.1386955 32.8330305,25.9489825 M44.573699,16.0527841 L44.573699,36.4397638 C44.573699,38.4063558 43.0421928,39.9997007 41.1530491,39.9997007 L6.4199902,39.9997007 C4.53084647,39.9997007 3,38.4063558 3,36.4397638 L3,16.0527841 C3,14.0868796 4.53084647,12.4935346 6.4199902,12.4935346 L13.0065891,12.4935346 L15.3180353,8.67995476 C16.1296479,7.63720052 17.583952,7 19.1530696,7 L28.2127774,7 C29.7818951,7 31.2361992,7.63720052 32.0478117,8.67995476 L34.359258,12.4935346 L41.1530491,12.4935346 C43.0421928,12.4935346 44.573699,14.0868796 44.573699,16.0527841 M30.8020195,25.9489825 C30.8020195,29.9735877 27.6545463,33.2482622 23.7865197,33.2482622 C19.9184928,33.2482622 16.7710198,29.9735877 16.7710198,25.9489825 C16.7710198,21.9230025 19.9184928,18.6483279 23.7865197,18.6483279 C27.6545463,18.6483279 30.8020195,21.9230025 30.8020195,25.9489825" fill="#4C7BC1" mask="url(#mask-2)"></path>
                </g>
            </g>
        </g>
    </g>
</svg>