<?xml version="1.0" encoding="UTF-8" standalone="no"?>
<svg width="35px" height="40px" viewBox="0 0 35 40" version="1.1" xmlns="http://www.w3.org/2000/svg" xmlns:xlink="http://www.w3.org/1999/xlink">
    <!-- Generator: Sketch 41.2 (35397) - http://www.bohemiancoding.com/sketch -->
    <title>checklist</title>
    <desc>Created with Sketch.</desc>
    <defs>
        <rect id="path-1" x="0" y="0" width="48" height="48"></rect>
    </defs>
    <g id="Page-1" stroke="none" stroke-width="1" fill="none" fill-rule="evenodd">
        <g id="Artboard" transform="translate(-460.000000, -232.000000)">
            <g id="checklist" transform="translate(452.000000, 228.000000)">
                <mask id="mask-2" fill="white">
                    <use xlink:href="#path-1"></use>
                </mask>
                <g id="Mask"></g>
                <path d="M24.3333333,7.34932681 C24.3333333,6.79903822 24.7763478,6.35294118 25.3369344,6.35294118 L41.9963989,6.35294118 C42.5506725,6.35294118 43,6.7945022 43,7.34932681 L43,12.4153791 C43,12.9656677 42.5569856,13.4117647 41.9963989,13.4117647 L25.3369344,13.4117647 C24.7826608,13.4117647 24.3333333,12.9702037 24.3333333,12.4153791 L24.3333333,7.34932681 Z M24.3333333,21.4669739 C24.3333333,20.9166853 24.7763478,20.4705882 25.3369344,20.4705882 L41.9963989,20.4705882 C42.5506725,20.4705882 43,20.9121493 43,21.4669739 L43,26.5330261 C43,27.0833147 42.5569856,27.5294118 41.9963989,27.5294118 L25.3369344,27.5294118 C24.7826608,27.5294118 24.3333333,27.0878507 24.3333333,26.5330261 L24.3333333,21.4669739 Z M24.3333333,35.5846209 C24.3333333,35.0343323 24.7763478,34.5882353 25.3369344,34.5882353 L41.9963989,34.5882353 C42.5506725,34.5882353 43,35.0297963 43,35.5846209 L43,40.6506732 C43,41.2009618 42.5569856,41.6470588 41.9963989,41.6470588 L25.3369344,41.6470588 C24.7826608,41.6470588 24.3333333,41.2054978 24.3333333,40.6506732 L24.3333333,35.5846209 Z M8,5.00305221 C8,4.44908177 8.44310093,4 8.99469344,4 L18.6719732,4 C19.2213272,4 19.6666667,4.44682447 19.6666667,5.00305221 L19.6666667,14.7616537 C19.6666667,15.3156241 19.2235657,15.7647059 18.6719732,15.7647059 L8.99469344,15.7647059 C8.44533942,15.7647059 8,15.3178814 8,14.7616537 L8,5.00305221 Z M8,19.1206993 C8,18.5667288 8.44310093,18.1176471 8.99469344,18.1176471 L18.6719732,18.1176471 C19.2213272,18.1176471 19.6666667,18.5644715 19.6666667,19.1206993 L19.6666667,28.8793007 C19.6666667,29.4332712 19.2235657,29.8823529 18.6719732,29.8823529 L8.99469344,29.8823529 C8.44533942,29.8823529 8,29.4355285 8,28.8793007 L8,19.1206993 Z M8,33.2383463 C8,32.6843759 8.44310093,32.2352941 8.99469344,32.2352941 L18.6719732,32.2352941 C19.2213272,32.2352941 19.6666667,32.6821186 19.6666667,33.2383463 L19.6666667,42.9969478 C19.6666667,43.5509182 19.2235657,44 18.6719732,44 L8.99469344,44 C8.44533942,44 8,43.5531755 8,42.9969478 L8,33.2383463 Z" fill="#4C7BC1" mask="url(#mask-2)"></path>
            </g>
        </g>
    </g>
</svg>