<?xml version="1.0" encoding="UTF-8" standalone="no"?>
<svg width="46px" height="38px" viewBox="0 0 46 38" version="1.1" xmlns="http://www.w3.org/2000/svg" xmlns:xlink="http://www.w3.org/1999/xlink">
    <!-- Generator: Sketch 41.2 (35397) - http://www.bohemiancoding.com/sketch -->
    <title>client</title>
    <desc>Created with Sketch.</desc>
    <defs>
        <rect id="path-1" x="0" y="0" width="48" height="48"></rect>
    </defs>
    <g id="Page-1" stroke="none" stroke-width="1" fill="none" fill-rule="evenodd">
        <g id="Artboard" transform="translate(-565.000000, -234.000000)">
            <g id="client" transform="translate(564.000000, 228.000000)">
                <g id="Combined-Shape">
                    <mask id="mask-2" fill="white">
                        <use xlink:href="#path-1"></use>
                    </mask>
                    <g id="Mask"></g>
                    <path d="M32.0308194,12.0086878 C31.9226149,11.9019968 31.7880903,11.8248364 31.6428427,11.7800643 L22.8938706,9.09564367 C19.3952566,8.02206594 17.1190616,9.89487323 16.5059025,10.4959624 C16.1481451,10.8455658 15.8742218,11.2142212 15.7338483,11.5352467 L11.8365346,20.4934764 C11.6133018,21.0059741 11.6893375,21.6889867 12.0392963,22.3700941 C12.5403517,23.3426965 13.4430311,24.0438085 14.5221523,24.2962469 C15.7299491,24.5791684 16.9825874,24.1952715 17.9632521,23.2379107 C18.2196287,22.9873775 18.4379875,22.7111241 18.5666631,22.4767851 L19.8768156,20.1019587 C20.0922499,19.7085358 20.4051658,19.300824 20.7346536,18.9788459 C21.8586162,17.8795481 22.3928153,18.3825197 22.6199474,18.5959016 C24.580302,20.444894 34.8577853,30.5309995 34.8577853,30.5309995 C35.2233413,30.8882237 35.1473056,31.5655208 34.690117,32.0113365 C34.2339032,32.4561997 33.5398343,32.5324075 33.1752532,32.1770886 L30.2878487,29.3564464 C29.9154691,28.9916015 29.3149825,28.9916015 28.9426029,29.3564464 C28.5702232,29.717481 28.5702232,30.3071391 28.9426029,30.6700788 L31.8300074,33.4926261 C32.1945885,33.8479451 32.1185529,34.5252422 31.662339,34.9701053 C31.2061252,35.4168737 30.5110815,35.4911763 30.1484501,35.1358573 L27.2600707,32.3152152 C26.8876911,31.9513229 26.2852549,31.9513229 25.9148249,32.3152152 C25.5424452,32.6762498 25.5424452,33.2659078 25.9148249,33.6298002 L28.8022294,36.4513949 C29.1668105,36.8076665 29.0878504,37.4849635 28.6326114,37.9307793 C28.1773724,38.3756425 27.4842784,38.4518503 27.1187224,38.0946261 L24.231318,35.273984 C23.8608879,34.9110443 23.2574769,34.9110443 22.8860721,35.273984 C22.5156421,35.6369238 22.5156421,36.2265818 22.8860721,36.5876164 L25.7734766,39.4101637 C26.1390325,39.7673879 26.0610473,40.4446849 25.6058083,40.8905007 C25.1476448,41.3363165 24.4545508,41.4115717 24.0909445,41.0553001 L20.5757586,37.6173746 C21.0777887,36.8800639 20.9413145,35.8102966 20.1965552,35.0796541 C19.3621129,34.265183 18.0782804,34.1899277 17.3354708,34.9177124 C18.0782804,34.1908803 18.0051692,32.9382142 17.1687772,32.1218379 C16.3323853,31.3064142 15.0514773,31.2311589 14.3086676,31.9570385 C15.0514773,31.2311589 14.9764164,29.9794454 14.1390496,29.1640217 C13.3046073,28.3466928 12.0236993,28.2723901 11.27894,28.9982697 C12.0236993,28.2723901 11.9466888,27.0206766 11.1112717,26.2023951 C10.3294694,25.4384117 9.16456444,25.3345785 8.40713254,25.9166158 L2.71518289,20.3543972 C2.34377806,19.9905048 1.74036706,19.9905048 1.36896223,20.3543972 C0.998532213,20.7163843 0.998532213,21.3060424 1.36896223,21.6699347 L7.04628964,27.2169118 L5.3627827,28.8620482 C4.61997303,29.5869751 4.69503385,30.8386886 5.53240065,31.6569702 C6.366843,32.4723939 7.64775101,32.5476491 8.39153549,31.820817 C7.64775101,32.5476491 7.72378664,33.79841 8.56017863,34.6157389 C9.39462098,35.4302101 10.6765038,35.5073705 11.4202883,34.7805384 C10.6765038,35.5073705 10.7515646,36.7581314 11.5879566,37.5745077 C12.4243486,38.3918367 13.7052566,38.4661393 14.4480663,37.7402598 C13.7052566,38.4651867 13.7803174,39.7159476 14.6167094,40.5342291 C15.4521266,41.3496528 16.7320598,41.4249081 17.476819,40.6980759 L19.2548831,38.9614901 L22.7456986,42.3717903 C23.8599131,43.4606096 25.7442321,43.3844018 26.9510541,42.2069909 C27.5388681,41.6325744 27.8527588,40.8990741 27.8966255,40.1731946 C28.6394351,40.1303277 29.3910182,39.8226386 29.9778573,39.2472695 C30.566646,38.672853 30.8824864,37.9393527 30.9273279,37.2134732 C31.6691628,37.1706063 32.4178213,36.8638698 33.0085597,36.2885007 C33.5963737,35.7131316 33.9112392,34.9805839 33.9541311,34.2537518 C34.6979155,34.2118375 35.4485237,33.905101 36.0373125,33.3278267 C37.2421849,32.1504158 37.3162709,30.3061865 36.2049808,29.2192724 L34.7330089,27.7798971 L40.7768671,21.8747433 C41.1482719,21.5127561 41.1482719,20.9230981 40.7768671,20.5601583 L32.0308194,12.0086878 Z M46.3547633,14.0872562 L38.6527434,6.5607809 C37.9099337,5.83394877 36.7040865,5.83394877 35.9603021,6.5607809 L33.2678607,9.18995085 C32.5250511,9.91583038 32.5250511,11.0941939 33.2678607,11.8200734 L40.9708554,19.3484539 C41.7146399,20.0743334 42.9204871,20.0743334 43.6632968,19.3484539 L46.3547633,16.7183313 C47.0965981,15.9914992 47.0965981,14.8131357 46.3547633,14.0872562 Z M42.312202,17.9205098 C41.4504648,17.9205098 40.7505471,17.2374971 40.7505471,16.3944481 C40.7505471,15.551399 41.4504648,14.8674338 42.312202,14.8674338 C43.174914,14.8674338 43.8748318,15.5504464 43.8748318,16.3944481 C43.873857,17.2365445 43.174914,17.9205098 42.312202,17.9205098 Z" fill="#4C7BC1" mask="url(#mask-2)"></path>
                </g>
            </g>
        </g>
    </g>
</svg>