<?xml version="1.0" encoding="UTF-8" standalone="no"?>
<svg width="38px" height="38px" viewBox="0 0 38 38" version="1.1" xmlns="http://www.w3.org/2000/svg" xmlns:xlink="http://www.w3.org/1999/xlink">
    <!-- Generator: Sketch 41.2 (35397) - http://www.bohemiancoding.com/sketch -->
    <title>close</title>
    <desc>Created with Sketch.</desc>
    <defs>
        <rect id="path-1" x="0" y="0" width="48" height="48"></rect>
    </defs>
    <g id="Page-1" stroke="none" stroke-width="1" fill="none" fill-rule="evenodd">
        <g id="Artboard" transform="translate(-512.000000, -10.000000)">
            <g id="close" transform="translate(507.000000, 5.000000)">
                <g id="Symbols">
                    <mask id="mask-2" fill="white">
                        <use xlink:href="#path-1"></use>
                    </mask>
                    <g id="Mask"></g>
                    <path d="M41.0955294,15.7447111 C42.8368235,13.9905185 42.8077647,11.0991407 41.0195294,9.29765926 L38.592,6.8544 C36.8037647,5.05291852 33.9358824,5.01688889 32.1923529,6.77558519 L23.8949412,15.1344593 L15.3941176,6.57066667 C13.6103529,4.77368889 10.738,4.73540741 8.99223529,6.4941037 L6.62282353,8.88106667 C4.87929412,10.6375111 4.91058824,13.526637 6.70105882,15.3281185 L15.2018824,23.8919111 L6.90447059,32.253037 C5.16317647,34.0049778 5.19223529,36.8963556 6.98270588,38.7000889 L9.408,41.1433481 C11.1984706,42.9470815 14.0641176,42.9786074 15.8076471,41.222163 L24.1050588,32.861037 L32.6081176,41.4270815 C34.3941176,43.2263111 37.2642353,43.2623407 39.01,41.5036444 L41.3794118,39.1189333 C43.1251765,37.3579852 43.0916471,34.4711111 41.3011765,32.6673778 L32.8003529,24.1035852 L41.0955294,15.7447111 L41.0955294,15.7447111 L41.0955294,15.7447111 Z" fill="#4C7BC1" mask="url(#mask-2)"></path>
                </g>
            </g>
        </g>
    </g>
</svg>