<?xml version="1.0" encoding="UTF-8" standalone="no"?>
<svg width="43px" height="42px" viewBox="0 0 43 42" version="1.1" xmlns="http://www.w3.org/2000/svg" xmlns:xlink="http://www.w3.org/1999/xlink">
    <!-- Generator: Sketch 41.2 (35397) - http://www.bohemiancoding.com/sketch -->
    <title>cloud-download copy</title>
    <desc>Created with Sketch.</desc>
    <defs>
        <rect id="path-1" x="0" y="0" width="48" height="48"></rect>
    </defs>
    <g id="Page-1" stroke="none" stroke-width="1" fill="none" fill-rule="evenodd">
        <g id="Artboard" transform="translate(-735.000000, -399.000000)">
            <g id="cloud-download-copy" transform="translate(732.000000, 396.000000)">
                <g id="cloud">
                    <mask id="mask-2" fill="white">
                        <use xlink:href="#path-1"></use>
                    </mask>
                    <g id="Mask"></g>
                    <path d="M43.3670769,3.98734615 L4.16761538,24.543 C2.55511538,25.3881154 2.62126923,26.6268462 4.31315385,27.2966538 L9.31769231,29.2746538 C11.0062692,29.9428077 13.5664231,29.5806154 15.0019615,28.4576538 L36.7368077,11.3188462 C38.1657308,10.1925769 38.3195385,10.3596154 37.0775,11.6893077 L19.8940385,30.0850385 C18.6486923,31.4097692 19.0191538,33.0338462 20.7126923,33.6937308 L21.2981538,33.9236154 C22.9916923,34.5785385 25.7602308,35.68 27.4455,36.368 L32.9958077,38.6271538 C34.6827308,39.3135 36.0620385,39.8824231 36.0620385,39.8923462 C36.0620385,39.9022692 36.0719615,39.9336923 36.0802308,39.9353462 C36.0885,39.9386538 36.4870769,38.5064231 36.9633846,36.7500385 L45.4277692,5.64615385 C45.9040769,3.88811538 44.9795769,3.14388462 43.3670769,3.98734615 Z M20.0743077,35.7792308 L16.2340769,34.2080769 C14.5504615,33.5184231 13.7433846,34.3271538 14.4413077,36.0091154 C14.4429615,36.0091154 18.007,44.5991923 17.9077692,44.9018462 C17.8052308,45.2028462 21.3279231,39.8046923 21.3279231,39.8046923 C22.3235385,38.2798462 21.7579231,36.4688846 20.0743077,35.7792308 Z" id="Combined-Shape" fill="#4C7BC1" mask="url(#mask-2)"></path>
                </g>
            </g>
        </g>
    </g>
</svg>