<?xml version="1.0" encoding="UTF-8" standalone="no"?>
<svg width="42px" height="30px" viewBox="0 0 42 30" version="1.1" xmlns="http://www.w3.org/2000/svg" xmlns:xlink="http://www.w3.org/1999/xlink">
    <!-- Generator: Sketch 41.2 (35397) - http://www.bohemiancoding.com/sketch -->
    <title>cloud</title>
    <desc>Created with Sketch.</desc>
    <defs>
        <rect id="path-1" x="0" y="0" width="48" height="48"></rect>
    </defs>
    <g id="Page-1" stroke="none" stroke-width="1" fill="none" fill-rule="evenodd">
        <g id="Artboard" transform="translate(-119.000000, -293.000000)">
            <g id="cloud" transform="translate(116.000000, 284.000000)">
                <mask id="mask-2" fill="white">
                    <use xlink:href="#path-1"></use>
                </mask>
                <g id="Mask"></g>
                <path d="M36.7504826,19.308644 C36.1961199,13.5280169 31.2836132,9 25.3050243,9 C20.6995493,9 16.7337236,11.6744922 14.9000623,15.5423496 C14.2859989,15.3138329 13.6207637,15.1953427 12.9384711,15.1953427 C9.7658105,15.1953427 7.19868461,17.7428812 7.19868461,20.8913341 C7.19868461,21.5768843 7.31808581,22.2370437 7.54835956,22.8464217 C5.04946294,24.2936944 3.36078876,26.9935774 3.36078876,30.0743216 C3.36078876,34.5430934 6.9001816,38.6648583 11.3436121,38.9103022 L19.1046904,38.9103022 L20.9127658,38.9103022 L20.9127658,29.9896857 L16.8019529,29.9896857 C15.9661444,29.9896857 15.5397116,28.990983 16.1196603,28.3985321 L23.4031337,20.9590427 C23.7783947,20.5781815 24.392458,20.5781815 24.7591903,20.9590427 L32.0426637,28.3985321 C32.6226124,28.990983 32.2047082,29.9896857 31.3603711,29.9896857 L27.2495582,29.9896857 L27.2495582,38.9272293 L29.049105,38.9272293 L35.7526297,38.9272293 C40.8101236,38.5717589 44.8100639,34.1622321 44.8100639,29.0671552 C44.8185925,24.302158 41.3303717,20.0872937 36.7504826,19.308644 Z" id="Shape" fill="#4C7BC1" mask="url(#mask-2)"></path>
            </g>
        </g>
    </g>
</svg>