<?xml version="1.0" encoding="utf-8"?>
<!-- Generator: Adobe Illustrator 16.0.0, SVG Export Plug-In . SVG Version: 6.00 Build 0)  -->
<!DOCTYPE svg PUBLIC "-//W3C//DTD SVG 1.1//EN" "http://www.w3.org/Graphics/SVG/1.1/DTD/svg11.dtd">
<svg version="1.1" id="Layer_1" xmlns="http://www.w3.org/2000/svg" xmlns:xlink="http://www.w3.org/1999/xlink" x="0px" y="0px"
	 width="48px" height="48px" viewBox="0 0 48 48" enable-background="new 0 0 48 48" xml:space="preserve">
<title>cloud-download</title>
<desc>Created with Sketch.</desc>
<g id="Page-1">
	<g id="Artboard" transform="translate(-679.000000, -404.000000)">
		<g id="cloud-download" transform="translate(677.000000, 396.000000)">
			<g id="cloud">
				<g id="Mask">
				</g>
				<defs>
					<filter id="Adobe_OpacityMaskFilter" filterUnits="userSpaceOnUse" x="4.033" y="16.132" width="43.934" height="31.735">
						<feColorMatrix  type="matrix" values="1 0 0 0 0  0 1 0 0 0  0 0 1 0 0  0 0 0 1 0"/>
					</filter>
				</defs>
				<mask maskUnits="userSpaceOnUse" x="4.033" y="16.132" width="43.934" height="31.735" id="mask-2">
					<g filter="url(#Adobe_OpacityMaskFilter)">
						<rect id="path-1" x="2.033" y="8.125" fill="#FFFFFF" width="48" height="48"/>
					</g>
				</mask>
				<path id="Shape" mask="url(#mask-2)" fill="#4C7BC1" d="M46.056,33.836c-1.274-1.57-2.901-2.588-4.886-3.054
					c0.626-0.932,0.938-1.968,0.938-3.11c0-1.593-0.571-2.953-1.715-4.08c-1.145-1.126-2.525-1.69-4.142-1.69
					c-1.45,0-2.716,0.466-3.798,1.397c-0.9-2.164-2.338-3.899-4.313-5.206c-1.976-1.308-4.153-1.961-6.533-1.961
					c-3.234,0-5.995,1.127-8.283,3.381c-2.289,2.253-3.432,4.974-3.432,8.159c0,0.195,0.015,0.519,0.045,0.969
					c-1.8,0.827-3.234,2.066-4.302,3.719s-1.602,3.456-1.602,5.41c0,2.779,1.003,5.157,3.009,7.133
					c2.006,1.977,4.42,2.965,7.242,2.965h24.896c2.425,0,4.495-0.846,6.212-2.536s2.574-3.729,2.574-6.119
					C47.967,37.198,47.33,35.406,46.056,33.836z M33.094,34.703l-8.032,7.912c-0.137,0.135-0.313,0.203-0.526,0.203
					c-0.214,0-0.389-0.068-0.526-0.203l-8.054-7.934c-0.138-0.135-0.206-0.309-0.206-0.519c0-0.195,0.072-0.364,0.217-0.507
					s0.316-0.215,0.515-0.215h5.125v-7.933c0-0.195,0.073-0.364,0.217-0.507c0.145-0.142,0.316-0.213,0.515-0.213h4.394
					c0.199,0,0.369,0.071,0.516,0.213c0.145,0.143,0.217,0.312,0.217,0.507v7.933h5.125c0.214,0,0.39,0.068,0.526,0.203
					c0.138,0.135,0.205,0.309,0.205,0.519C33.321,34.344,33.246,34.523,33.094,34.703z"/>
			</g>
		</g>
	</g>
</g>
</svg>
