<?xml version="1.0" encoding="utf-8"?>
<!-- Generator: Adobe Illustrator 16.0.0, SVG Export Plug-In . SVG Version: 6.00 Build 0)  -->
<!DOCTYPE svg PUBLIC "-//W3C//DTD SVG 1.1//EN" "http://www.w3.org/Graphics/SVG/1.1/DTD/svg11.dtd">
<svg version="1.1" id="Layer_1" xmlns="http://www.w3.org/2000/svg" xmlns:xlink="http://www.w3.org/1999/xlink" x="0px" y="0px"
	 width="48px" height="48px" viewBox="0 0 48 48" enable-background="new 0 0 48 48" xml:space="preserve">
<title>cloud-upload</title>
<desc>Created with Sketch.</desc>
<g id="Page-1">
	<g id="Artboard" transform="translate(-622.000000, -404.000000)">
		<g id="cloud-upload" transform="translate(620.000000, 396.000000)">
			<g id="cloud">
				<g id="Mask">
				</g>
				<defs>
					<filter id="Adobe_OpacityMaskFilter" filterUnits="userSpaceOnUse" x="4.033" y="16.246" width="43.934" height="31.508">
						<feColorMatrix  type="matrix" values="1 0 0 0 0  0 1 0 0 0  0 0 1 0 0  0 0 0 1 0"/>
					</filter>
				</defs>
				<mask maskUnits="userSpaceOnUse" x="4.033" y="16.246" width="43.934" height="31.508" id="mask-2">
					<g filter="url(#Adobe_OpacityMaskFilter)">
						<rect id="path-1" x="2.033" y="7.77" fill="#FFFFFF" width="48" height="48"/>
					</g>
				</mask>
				<path id="Shape" mask="url(#mask-2)" fill="#4C7BC1" d="M46.056,33.822c-1.274-1.558-2.901-2.569-4.886-3.031
					c0.626-0.925,0.938-1.954,0.938-3.088c0-1.582-0.571-2.932-1.715-4.051c-1.145-1.118-2.525-1.678-4.142-1.678
					c-1.45,0-2.716,0.462-3.798,1.387c-0.9-2.148-2.338-3.871-4.313-5.169c-1.976-1.298-4.153-1.947-6.533-1.947
					c-3.234,0-5.995,1.119-8.283,3.357c-2.289,2.237-3.432,4.938-3.432,8.101c0,0.194,0.015,0.515,0.045,0.962
					c-1.8,0.821-3.234,2.051-4.302,3.692c-1.068,1.641-1.602,3.432-1.602,5.371c0,2.76,1.003,5.12,3.009,7.082
					c2.006,1.963,4.42,2.943,7.242,2.943h24.896c2.425,0,4.495-0.84,6.212-2.518c1.717-1.679,2.574-3.703,2.574-6.076
					C47.967,37.161,47.33,35.383,46.056,33.822z M33.104,33.219c-0.146,0.142-0.316,0.213-0.515,0.213h-5.125v7.877
					c0,0.193-0.072,0.361-0.218,0.503s-0.316,0.213-0.515,0.213h-4.394c-0.198,0-0.37-0.07-0.515-0.213
					c-0.145-0.142-0.217-0.31-0.217-0.503v-7.877H16.48c-0.213,0-0.389-0.067-0.526-0.201c-0.137-0.135-0.206-0.307-0.206-0.515
					c0-0.179,0.076-0.358,0.229-0.537l8.032-7.854c0.137-0.134,0.312-0.201,0.526-0.201c0.214,0,0.389,0.067,0.526,0.201
					l8.055,7.876c0.138,0.134,0.206,0.306,0.206,0.515C33.321,32.909,33.249,33.078,33.104,33.219z"/>
			</g>
		</g>
	</g>
</g>
</svg>
