<?xml version="1.0" encoding="UTF-8" standalone="no"?>
<svg width="42px" height="34px" viewBox="0 0 42 34" version="1.1" xmlns="http://www.w3.org/2000/svg" xmlns:xlink="http://www.w3.org/1999/xlink">
    <!-- Generator: Sketch 41.2 (35397) - http://www.bohemiancoding.com/sketch -->
    <title>container</title>
    <desc>Created with Sketch.</desc>
    <defs>
        <rect id="path-1" x="0" y="0" width="48" height="48"></rect>
    </defs>
    <g id="Page-1" stroke="none" stroke-width="1" fill="none" fill-rule="evenodd">
        <g id="Artboard" transform="translate(-120.000000, -66.000000)">
            <g id="container" transform="translate(117.000000, 59.000000)">
                <g id="Shape">
                    <mask id="mask-2" fill="white">
                        <use xlink:href="#path-1"></use>
                    </mask>
                    <g id="Mask"></g>
                    <path d="M4.57575473,35.2400024 C4.56937449,35.1809613 4.5661017,35.1209578 4.5661017,35.06015 L4.5661017,12.7594293 C3.69199099,12.7052582 3,11.9872883 3,11.1020109 L3,10.58629 C3,10.4726145 3.01147195,10.3616066 3.03333431,10.2543513 C3.02231162,10.1774957 3.01661017,10.0989644 3.01661017,10.0191362 L3.01661017,9.47652321 C3.01661017,8.55771309 3.76602038,7.81287033 4.69880253,7.81287033 L5.22119746,7.81287033 C5.9548049,7.81287033 6.57873151,8.27811517 6.80877385,8.92558909 L41.1906516,8.92558909 C41.4196966,8.27754193 42.0420511,7.81287033 42.7788025,7.81287033 L43.3011974,7.81287033 C44.2302467,7.81287033 44.9833898,8.55902958 44.9833898,9.47652321 L44.9833898,10.0191362 C44.9833898,10.0989619 44.9777333,10.1774746 44.9667913,10.2542998 C44.9885696,10.3614969 45,10.4725117 45,10.58629 L45,11.1020109 C45,11.9838149 44.3096846,12.705098 43.4338983,12.7594262 L43.4338983,35.06015 C43.4338983,35.1209145 43.4305641,35.1809165 43.4240688,35.23999 C44.3028156,35.2893658 45,36.0093959 45,36.8979891 L45,37.4137099 C45,37.5273855 44.988528,37.6383934 44.9666657,37.7456487 C44.9776884,37.8225043 44.9833898,37.9010356 44.9833898,37.9808639 L44.9833898,38.5234768 C44.9833898,39.4422869 44.2339796,40.1871297 43.3011974,40.1871297 L42.7788025,40.1871297 C42.0451951,40.1871297 41.4212685,39.7218849 41.1912261,39.0744109 L6.80934839,39.0744109 C6.58030341,39.722458 5.9579489,40.1871297 5.22119746,40.1871297 L4.69880253,40.1871297 C3.76975335,40.1871297 3.01661017,39.4409704 3.01661017,38.5234768 L3.01661017,37.9808639 C3.01661017,37.9010381 3.02226676,37.8225254 3.03320874,37.7457002 C3.01143039,37.6385031 3,37.5274884 3,37.4137099 L3,36.8979891 C3,36.0129478 3.69539333,35.2896082 4.57575473,35.2400024 L4.57575473,35.2400024 Z M8.6,13.2171696 C9.2133169,13.2171696 9.71050847,13.7100534 9.71050847,14.3137975 L9.71050847,34.234363 C9.71050847,34.8400138 9.21759282,35.3309908 8.6,35.3309908 C7.98668311,35.3309908 7.48949153,34.8381069 7.48949153,34.234363 L7.48949153,14.3137975 C7.48949153,13.7081466 7.98240717,13.2171696 8.6,13.2171696 L8.6,13.2171696 Z M20.92,13.2171696 C21.5333169,13.2171696 22.0305084,13.7100534 22.0305084,14.3137975 L22.0305084,34.234363 C22.0305084,34.8400138 21.5375928,35.3309908 20.92,35.3309908 C20.3066831,35.3309908 19.8094915,34.8381069 19.8094915,34.234363 L19.8094915,14.3137975 C19.8094915,13.7081466 20.3024072,13.2171696 20.92,13.2171696 L20.92,13.2171696 Z M14.76,13.2171696 C15.3733169,13.2171696 15.8705085,13.7100534 15.8705085,14.3137975 L15.8705085,34.234363 C15.8705085,34.8400138 15.3775929,35.3309908 14.76,35.3309908 C14.1466831,35.3309908 13.6494915,34.8381069 13.6494915,34.234363 L13.6494915,14.3137975 C13.6494915,13.7081466 14.1424071,13.2171696 14.76,13.2171696 L14.76,13.2171696 Z M27.08,13.2171696 C27.6933169,13.2171696 28.1905085,13.7100534 28.1905085,14.3137975 L28.1905085,34.234363 C28.1905085,34.8400138 27.6975928,35.3309908 27.08,35.3309908 C26.4666831,35.3309908 25.9694916,34.8381069 25.9694916,34.234363 L25.9694916,14.3137975 C25.9694916,13.7081466 26.4624072,13.2171696 27.08,13.2171696 L27.08,13.2171696 Z M33.24,13.2171696 C33.8533169,13.2171696 34.3505085,13.7100534 34.3505085,14.3137975 L34.3505085,34.234363 C34.3505085,34.8400138 33.8575929,35.3309908 33.24,35.3309908 C32.6266831,35.3309908 32.1294915,34.8381069 32.1294915,34.234363 L32.1294915,14.3137975 C32.1294915,13.7081466 32.6224071,13.2171696 33.24,13.2171696 L33.24,13.2171696 Z M39.4,13.2171696 C40.0133169,13.2171696 40.5105084,13.7100534 40.5105084,14.3137975 L40.5105084,34.234363 C40.5105084,34.8400138 40.0175928,35.3309908 39.4,35.3309908 C38.7866831,35.3309908 38.2894915,34.8381069 38.2894915,34.234363 L38.2894915,14.3137975 C38.2894915,13.7081466 38.7824072,13.2171696 39.4,13.2171696 L39.4,13.2171696 Z" fill="#4C7BC1" mask="url(#mask-2)"></path>
                </g>
            </g>
        </g>
    </g>
</svg>