<?xml version="1.0" encoding="UTF-8" standalone="no"?>
<svg width="41px" height="40px" viewBox="0 0 41 40" version="1.1" xmlns="http://www.w3.org/2000/svg" xmlns:xlink="http://www.w3.org/1999/xlink">
    <!-- Generator: Sketch 41.2 (35397) - http://www.bohemiancoding.com/sketch -->
    <title>coverjobs</title>
    <desc>Created with Sketch.</desc>
    <defs>
        <rect id="path-1" x="0" y="0" width="48" height="48"></rect>
    </defs>
    <g id="Page-1" stroke="none" stroke-width="1" fill="none" fill-rule="evenodd">
        <g id="Artboard" transform="translate(-232.000000, -9.000000)">
            <g id="coverjobs" transform="translate(228.000000, 5.000000)">
                <g>
                    <mask id="mask-2" fill="white">
                        <use xlink:href="#path-1"></use>
                    </mask>
                    <g id="Mask"></g>
                    <path d="M21.3561589,35.6363636 C20.7851371,35.6363636 20.3179374,36.1004555 20.3179374,36.667679 L20.3179374,38.9881384 C20.3179374,39.5553619 20.7851371,40.0194538 21.3561589,40.0194538 L43.7164682,40.0194538 C44.2874898,40.0194538 44.7546897,39.5553619 44.7546897,38.9881384 L44.7546897,36.667679 C44.7546897,36.1004555 44.2874898,35.6363636 43.7164682,35.6363636 L21.3561589,35.6363636 L21.3561589,35.6363636 Z M21.3561589,21.5757576 C20.7851371,21.5757576 20.3179374,22.0398495 20.3179374,22.6070729 L20.3179374,24.9275324 C20.3179374,25.4947558 20.7851371,25.9588477 21.3561589,25.9588477 L43.7164682,25.9588477 C44.2874898,25.9588477 44.7546897,25.4947558 44.7546897,24.9275324 L44.7546897,22.6070729 C44.7546897,22.0398495 44.2874898,21.5757576 43.7164682,21.5757576 L21.3561589,21.5757576 L21.3561589,21.5757576 Z M21.3561589,7.60960366 C20.7851371,7.60960366 20.3179374,8.07369558 20.3179374,8.64091898 L20.3179374,10.9613785 C20.3179374,11.5286019 20.7851371,11.9926938 21.3561589,11.9926938 L43.7164682,11.9926938 C44.2874898,11.9926938 44.7546897,11.5286019 44.7546897,10.9613785 L44.7546897,8.64091898 C44.7546897,8.07369558 44.2874898,7.60960366 43.7164682,7.60960366 L21.3561589,7.60960366 L21.3561589,7.60960366 Z M4.19723638,37.6466627 C4.19723638,40.8504438 6.81199713,43.4478114 10.0372321,43.4478114 C13.2624671,43.4478114 15.8772278,40.8504438 15.8772278,37.6466627 C15.8772278,34.4428816 13.2624671,31.8455139 10.0372321,31.8455139 C6.81199713,31.8455139 4.19723638,34.4428816 4.19723638,37.6466627 L4.19723638,37.6466627 Z M4.19723638,23.7239057 C4.19723638,26.9276868 6.81199713,29.5250545 10.0372321,29.5250545 C13.2624671,29.5250545 15.8772278,26.9276868 15.8772278,23.7239057 C15.8772278,20.5201247 13.2624671,17.922757 10.0372321,17.922757 C6.81199713,17.922757 4.19723638,20.5201247 4.19723638,23.7239057 L4.19723638,23.7239057 Z M10.0372321,15.6022975 C6.81199713,15.6022975 4.19723638,13.0049298 4.19723638,9.80114875 C4.19723638,6.59736766 6.81199713,4 10.0372321,4 C13.2624671,4 15.8772278,6.59736766 15.8772278,9.80114875 C15.8772278,13.0049298 13.2624671,15.6022975 10.0372321,15.6022975 L10.0372321,15.6022975 Z" fill="#4C7BC1" mask="url(#mask-2)"></path>
                </g>
            </g>
        </g>
    </g>
</svg>