<?xml version="1.0" encoding="UTF-8" standalone="no"?>
<svg width="30px" height="41px" viewBox="0 0 30 41" version="1.1" xmlns="http://www.w3.org/2000/svg" xmlns:xlink="http://www.w3.org/1999/xlink">
    <!-- Generator: Sketch 41.2 (35397) - http://www.bohemiancoding.com/sketch -->
    <title>data</title>
    <desc>Created with Sketch.</desc>
    <defs>
        <rect id="path-1" x="0" y="0" width="48" height="48"></rect>
    </defs>
    <g id="Page-1" stroke="none" stroke-width="1" fill="none" fill-rule="evenodd">
        <g id="Artboard" transform="translate(-69.000000, -177.000000)">
            <g id="data" transform="translate(60.000000, 173.000000)">
                <g id="Combined-Shape">
                    <mask id="mask-2" fill="white">
                        <use xlink:href="#path-1"></use>
                    </mask>
                    <g id="Mask"></g>
                    <path d="M37.1019208,19.1666872 L10.8403264,19.1666872 C10.2914525,19.1666872 9.846512,19.6144031 9.846512,20.1667008 L9.846512,28.8333792 C9.846512,29.385677 10.2914525,29.8333929 10.8403264,29.8333929 L37.1018412,29.8333929 C37.6507151,29.8333929 38.0956556,29.385677 38.0956556,28.8333792 L38.0956556,20.1667008 C38.0956556,19.6144031 37.6507947,19.1666872 37.1019208,19.1666872 Z M24.4073101,25.4999736 L16.9811574,25.4999736 C16.432363,25.4999736 15.987343,25.0522577 15.987343,24.49996 C15.987343,23.9476622 16.432363,23.4999463 16.9811574,23.4999463 L24.4073101,23.4999463 C24.9561045,23.4999463 25.4011245,23.9476622 25.4011245,24.49996 C25.4011245,25.0522577 24.9561045,25.4999736 24.4073101,25.4999736 Z M30.2283028,26.4199894 C29.1744839,26.4199894 28.3201759,25.5604325 28.3201759,24.49996 C28.3201759,23.4394874 29.1744043,22.5799305 30.2283028,22.5799305 C31.2822013,22.5799305 32.1364297,23.4394874 32.1364297,24.49996 C32.1364297,25.5604325 31.2821217,26.4199894 30.2283028,26.4199894 Z M36.6050135,4 L11.3372337,4 C10.5139625,4 9.84659158,4.67161392 9.84659158,5.50002051 L9.84659158,16.1667262 C9.84659158,16.719024 10.291532,17.1667399 10.840406,17.1667399 L37.1019208,17.1667399 C37.6507947,17.1667399 38.0957352,16.7189439 38.0957352,16.1667262 L38.0957352,5.50002051 C38.0956556,4.67161392 37.4282847,4 36.6050135,4 Z M24.4073101,11.833387 L16.9811574,11.833387 C16.432363,11.833387 15.987343,11.3856711 15.987343,10.8333734 C15.987343,10.2810756 16.432363,9.8333597 16.9811574,9.8333597 L24.4073101,9.8333597 C24.9561045,9.8333597 25.4011245,10.2810756 25.4011245,10.8333734 C25.4011245,11.3856711 24.9561045,11.833387 24.4073101,11.833387 Z M30.2283028,12.7533227 C29.1744839,12.7533227 28.3201759,11.8937658 28.3201759,10.8332933 C28.3201759,9.77282076 29.1744043,8.91326384 30.2283028,8.91326384 C31.2822013,8.91326384 32.1364297,9.77282076 32.1364297,10.8332933 C32.1363501,11.8936858 31.2821217,12.7533227 30.2283028,12.7533227 Z M37.1019208,31.8332601 L10.8403264,31.8332601 C10.2914525,31.8332601 9.846512,32.2810561 9.846512,32.8332738 L9.846512,43.4999795 C9.846512,44.3283861 10.5139625,45 11.3372337,45 L36.604934,45 C37.4282051,45 38.0956556,44.3283861 38.0956556,43.4999795 L38.0956556,32.8332738 C38.0956556,32.280976 37.6507947,31.8332601 37.1019208,31.8332601 Z M24.4073101,39.1666403 L16.9811574,39.1666403 C16.432363,39.1666403 15.987343,38.7189244 15.987343,38.1666266 C15.987343,37.6143289 16.432363,37.166613 16.9811574,37.166613 L24.4073101,37.166613 C24.9561045,37.166613 25.4011245,37.6143289 25.4011245,38.1666266 C25.4011245,38.7189244 24.9561045,39.1666403 24.4073101,39.1666403 Z M30.2283028,40.0866561 C29.1744839,40.0866561 28.3201759,39.2270191 28.3201759,38.1666266 C28.3201759,37.1062342 29.1744043,36.2465972 30.2283028,36.2465972 C31.2822013,36.2465972 32.1364297,37.1061541 32.1364297,38.1666266 C32.1364297,39.2270992 31.2821217,40.0866561 30.2283028,40.0866561 Z" fill="#4C7BC1" mask="url(#mask-2)"></path>
                </g>
            </g>
        </g>
    </g>
</svg>