<?xml version="1.0" encoding="UTF-8" standalone="no"?>
<svg width="48px" height="31px" viewBox="0 0 48 31" version="1.1" xmlns="http://www.w3.org/2000/svg" xmlns:xlink="http://www.w3.org/1999/xlink">
    <!-- Generator: Sketch 41.2 (35397) - http://www.bohemiancoding.com/sketch -->
    <title>dispatch-truck</title>
    <desc>Created with Sketch.</desc>
    <defs>
        <rect id="path-1" x="0" y="0" width="48" height="48"></rect>
    </defs>
    <g id="Page-1" stroke="none" stroke-width="1" fill="none" fill-rule="evenodd">
        <g id="Artboard" transform="translate(-116.000000, -125.000000)">
            <g id="dispatch-truck" transform="translate(116.000000, 116.000000)">
                <g id="Combined-Shape">
                    <mask id="mask-2" fill="white">
                        <use xlink:href="#path-1"></use>
                    </mask>
                    <g id="Mask"></g>
                    <path d="M17.6681047,22.1683738 L17.6681047,23.4945099 C17.6681047,24.0389786 18.0341886,24.2411865 18.4857758,23.9307202 L21.1412359,22.1050914 C21.2963238,22.0473592 21.4320755,21.9527113 21.5385608,21.8319306 L25.54189,19.0796418 C25.9861001,18.7742473 25.9934773,18.2658102 25.54189,17.955344 L18.4857758,13.1042655 C18.0415657,12.7988711 17.6681047,12.9890972 17.6681047,13.5404758 L17.6681047,15.3036987 L0.820905519,15.3036987 C0.258747704,15.3036987 -0.18005066,15.7506003 -0.18005066,16.3018814 L-0.18005066,21.1701911 C-0.18005066,21.7179633 0.268092686,22.1683738 0.820905519,22.1683738 L17.6681047,22.1683738 L17.6681047,22.1683738 Z M3.93875443,13.9289605 L3.93875443,10.7376448 C3.93875443,9.77800149 4.69157008,9 5.62007307,9 L30.7269758,9 C31.6541133,9 32.4073841,9.77800149 32.4073841,10.7376448 L32.4073841,28.0997281 C32.4073841,29.058908 31.6541133,29.8373729 30.7269758,29.8373729 L5.62007307,29.8373729 C4.69157008,29.8373729 3.93875443,29.058908 3.93875443,28.0997281 L3.93875443,23.5395057 L16.3261336,23.5395057 C16.566825,25.121024 18.1669262,25.8142247 19.5821681,24.8412459 L26.0011122,20.4282218 C27.4139971,19.4568635 27.4213989,17.5796047 26.0011122,16.6031576 L19.5821681,12.1901335 C18.0564401,11.1411955 16.2951697,12.0438213 16.2951697,13.9112167 L16.2951697,13.9289605 L3.93875443,13.9289605 L3.93875443,13.9289605 Z M9.91931497,31.1903726 C7.56483167,31.1903726 5.65684907,33.162947 5.65684907,35.5961131 C5.65684907,38.0288158 7.56483167,40 9.91931497,40 C12.2747086,40 14.1817809,38.0288158 14.1817809,35.5961131 C14.1817809,33.162947 12.2747086,31.1903726 9.91931497,31.1903726 L9.91931497,31.1903726 Z M42.9856274,16.2529757 C42.6151365,15.4860951 42.1463336,14.5153309 41.2173754,14.5153309 L35.6713907,14.5153309 C34.7419774,14.5153309 33.9887066,15.292869 33.9887066,16.2529757 L33.9887066,27.8961225 C33.9887066,29.122668 34.7679209,30.0035381 35.8429817,30.0035381 L40.4149486,30.0035381 C42.7125383,30.0035381 45.0110383,32.0711037 45.0110383,34.7915604 C45.0110383,35.5190543 45.6937611,35.9879867 46.3341551,35.9879867 C47.0268911,35.9879867 47.6304181,35.4893985 47.6304181,34.8193627 L47.6304181,25.1005995 L42.9856274,16.2529757 L42.9856274,16.2529757 Z M33.053695,31.2157191 L17.1362409,31.2157191 C16.2882992,31.2157191 15.6033007,31.923288 15.6033007,32.7995244 C15.6033007,33.6734439 15.349783,34.3828663 16.1959041,34.3828663 L32.3099823,34.3828663 C33.154738,34.3828663 33.8401917,33.6734439 33.8401917,32.7995244 C33.8401917,31.923288 33.8989058,31.2157191 33.053695,31.2157191 L33.053695,31.2157191 Z M39.4021976,31.1903726 C37.0463489,31.1903726 35.1388214,33.162947 35.1388214,35.5961131 C35.1388214,38.0288158 37.0463489,40 39.4021976,40 C41.7562258,40 43.6646635,38.0288158 43.6646635,35.5961131 C43.6646635,33.162947 41.7562258,31.1903726 39.4021976,31.1903726 L39.4021976,31.1903726 Z" fill="#4C7BC1" mask="url(#mask-2)"></path>
                </g>
            </g>
        </g>
    </g>
</svg>