<?xml version="1.0" encoding="utf-8"?>
<!-- Generator: Adobe Illustrator 16.0.0, SVG Export Plug-In . SVG Version: 6.00 Build 0)  -->
<!DOCTYPE svg PUBLIC "-//W3C//DTD SVG 1.1//EN" "http://www.w3.org/Graphics/SVG/1.1/DTD/svg11.dtd">
<svg version="1.1" id="Layer_1" xmlns="http://www.w3.org/2000/svg" xmlns:xlink="http://www.w3.org/1999/xlink" x="0px" y="0px"
	 width="48px" height="48px" viewBox="0 0 48 48" enable-background="new 0 0 48 48" xml:space="preserve">
<title>document-mpg</title>
<desc>Created with Sketch.</desc>
<g id="Mask">
</g>
<g>
	<path fill="#4C7BC1" d="M24.99,23.785h-0.979v2.134h0.945c0.672,0,1.002-0.451,1.002-1.078S25.629,23.785,24.99,23.785z"/>
	<path fill="#4C7BC1" d="M39.32,10.99l-6.043-5.589C32.998,5.144,32.629,5,32.245,5H10.147C9.082,5,8.214,5.845,8.214,6.883v35.234
		c0,1.038,0.867,1.883,1.933,1.883h27.705c1.065,0,1.933-0.845,1.933-1.883V12.046C39.785,11.647,39.617,11.265,39.32,10.99z
		 M20.493,30h-0.715c-0.385,0-0.594-0.198-0.627-0.583l-0.198-2.959c-0.044-0.594,0-1.319,0-1.319h-0.022
		c0,0-0.264,0.824-0.44,1.319l-0.649,1.793c-0.121,0.33-0.341,0.483-0.693,0.483h-0.616c-0.352,0-0.572-0.153-0.693-0.483
		l-0.649-1.793c-0.176-0.495-0.44-1.319-0.44-1.319h-0.022c0,0,0.044,0.726,0,1.319l-0.198,2.959C14.498,29.802,14.289,30,13.904,30
		h-0.726c-0.396,0-0.605-0.23-0.572-0.627l0.55-6.655c0.033-0.385,0.242-0.583,0.627-0.583h0.99c0.352,0,0.572,0.154,0.682,0.495
		l0.979,2.827c0.176,0.506,0.396,1.298,0.396,1.298h0.022c0,0,0.22-0.792,0.396-1.298l0.979-2.827
		c0.11-0.341,0.33-0.495,0.682-0.495h0.99c0.385,0,0.594,0.198,0.627,0.583l0.539,6.655C21.098,29.77,20.889,30,20.493,30z
		 M25.354,27.568h-1.342v1.826c0,0.396-0.209,0.605-0.605,0.605h-0.715c-0.396,0-0.605-0.209-0.605-0.605V22.74
		c0-0.396,0.209-0.605,0.605-0.605h2.662c1.529,0,2.562,1.122,2.562,2.706S26.883,27.568,25.354,27.568z M35.736,29.395
		c0,0.396-0.209,0.605-0.605,0.605h-0.362c-0.396,0-0.604-0.209-0.604-0.473v-0.022c0-0.065,0.01-0.11,0.01-0.11h-0.021
		c0,0-0.693,0.737-2.09,0.737c-2.023,0-3.872-1.54-3.872-4.015c0-2.398,1.728-4.114,4.136-4.114c1.254,0,2.233,0.462,2.553,0.693
		c0.33,0.242,0.362,0.495,0.153,0.836l-0.286,0.451c-0.209,0.33-0.473,0.352-0.836,0.165s-0.781-0.385-1.463-0.385
		c-1.572,0-2.266,1.055-2.266,2.244c0,1.452,1.033,2.365,2.232,2.365c1.122,0,1.617-0.638,1.617-0.638v-0.539h-0.506
		c-0.396,0-0.605-0.209-0.605-0.605v-0.429c0-0.396,0.209-0.604,0.605-0.604h1.605c0.396,0,0.605,0.209,0.605,0.604V29.395z
		 M32.025,12.842V8.227l4.768,4.615H32.025z"/>
</g>
</svg>
