<?xml version="1.0" encoding="utf-8"?>
<!-- Generator: Adobe Illustrator 16.0.0, SVG Export Plug-In . SVG Version: 6.00 Build 0)  -->
<!DOCTYPE svg PUBLIC "-//W3C//DTD SVG 1.1//EN" "http://www.w3.org/Graphics/SVG/1.1/DTD/svg11.dtd">
<svg version="1.1" id="Layer_1" xmlns="http://www.w3.org/2000/svg" xmlns:xlink="http://www.w3.org/1999/xlink" x="0px" y="0px"
	 width="48px" height="48px" viewBox="0 0 48 48" enable-background="new 0 0 48 48" xml:space="preserve">
<title>document-wmv</title>
<desc>Created with Sketch.</desc>
<g id="Mask">
</g>
<path fill="#4C7BC1" d="M38.32,9.99l-6.043-5.589C31.998,4.144,31.629,4,31.245,4H9.147C8.082,4,7.214,4.845,7.214,5.883v35.234
	C7.214,42.155,8.082,43,9.147,43h27.705c1.065,0,1.933-0.845,1.933-1.883V11.046C38.785,10.647,38.617,10.265,38.32,9.99z
	 M31.025,7.227l4.768,4.615h-4.768V7.227z M20.247,21.806l-1.694,6.676C18.464,28.835,18.245,29,17.881,29h-1.067
	c-0.363,0-0.583-0.176-0.671-0.527l-0.858-3.443c-0.121-0.506-0.154-0.924-0.154-0.924h-0.022c0,0-0.033,0.418-0.154,0.924
	l-0.858,3.443C14.009,28.824,13.79,29,13.426,29h-1.089c-0.363,0-0.583-0.176-0.671-0.527l-1.617-6.667
	c-0.099-0.418,0.099-0.671,0.528-0.671h0.781c0.363,0,0.583,0.176,0.66,0.539l0.88,4.378c0.099,0.484,0.099,0.825,0.099,0.825h0.022
	c0,0,0.011-0.341,0.132-0.825l1.078-4.389c0.088-0.352,0.308-0.528,0.671-0.528h0.473c0.363,0,0.583,0.176,0.66,0.528l1.056,4.389
	c0.121,0.484,0.132,0.825,0.132,0.825h0.022c0,0,0-0.341,0.099-0.825l0.957-4.389c0.077-0.352,0.297-0.528,0.671-0.528h0.748
	C20.147,21.135,20.345,21.388,20.247,21.806z M28.539,29h-0.715c-0.385,0-0.594-0.198-0.627-0.583l-0.198-2.959
	c-0.044-0.594,0-1.32,0-1.32h-0.022c0,0-0.264,0.825-0.439,1.32l-0.648,1.793c-0.121,0.33-0.342,0.483-0.693,0.483h-0.616
	c-0.352,0-0.572-0.153-0.693-0.483l-0.649-1.793c-0.176-0.495-0.44-1.32-0.44-1.32h-0.022c0,0,0.044,0.726,0,1.32l-0.198,2.959
	C22.544,28.802,22.335,29,21.95,29h-0.726c-0.396,0-0.605-0.23-0.572-0.627l0.55-6.655c0.033-0.385,0.242-0.583,0.627-0.583h0.99
	c0.352,0,0.572,0.154,0.682,0.495l0.979,2.827c0.176,0.506,0.396,1.298,0.396,1.298h0.022c0,0,0.22-0.792,0.396-1.298l0.979-2.827
	c0.109-0.341,0.33-0.495,0.682-0.495h0.99c0.385,0,0.594,0.198,0.627,0.583l0.539,6.655C29.145,28.77,28.936,29,28.539,29z
	 M36.425,21.828l-2.354,6.688C33.949,28.846,33.73,29,33.378,29H32.41c-0.353,0-0.572-0.154-0.693-0.484l-2.365-6.688
	c-0.143-0.418,0.045-0.693,0.495-0.693h0.825c0.363,0,0.583,0.165,0.682,0.506l1.232,3.97c0.154,0.496,0.297,1.266,0.297,1.266
	h0.021c0,0,0.144-0.77,0.297-1.266l1.255-3.97c0.099-0.341,0.319-0.506,0.682-0.506h0.792C36.381,21.135,36.568,21.41,36.425,21.828
	z"/>
</svg>
