<?xml version="1.0" encoding="utf-8"?>
<!-- Generator: Adobe Illustrator 16.0.0, SVG Export Plug-In . SVG Version: 6.00 Build 0)  -->
<!DOCTYPE svg PUBLIC "-//W3C//DTD SVG 1.1//EN" "http://www.w3.org/Graphics/SVG/1.1/DTD/svg11.dtd">
<svg version="1.1" id="Layer_1" xmlns="http://www.w3.org/2000/svg" xmlns:xlink="http://www.w3.org/1999/xlink" x="0px" y="0px"
	 width="48px" height="48px" viewBox="0 0 48 48" enable-background="new 0 0 48 48" xml:space="preserve">
<title>document-vcf</title>
<desc>Created with Sketch.</desc>
<g id="Mask">
</g>
<path fill="#4C7BC1" d="M39.32,9.99l-6.043-5.589C32.998,4.144,32.629,4,32.245,4H10.147C9.082,4,8.214,4.845,8.214,5.883v35.234
	c0,1.038,0.867,1.883,1.933,1.883h27.705c1.065,0,1.933-0.845,1.933-1.883V11.046C39.785,10.647,39.617,10.265,39.32,9.99z
	 M21.269,21.828l-2.354,6.688C18.793,28.846,18.573,29,18.222,29h-0.968c-0.352,0-0.572-0.154-0.693-0.484l-2.365-6.688
	c-0.143-0.418,0.044-0.693,0.495-0.693h0.825c0.363,0,0.583,0.165,0.682,0.506l1.232,3.97c0.154,0.496,0.297,1.266,0.297,1.266
	h0.022c0,0,0.143-0.77,0.297-1.266l1.254-3.97c0.099-0.341,0.319-0.506,0.682-0.506h0.792C21.225,21.135,21.412,21.41,21.269,21.828
	z M28.197,28.197c-0.495,0.385-1.419,0.935-2.75,0.935c-2.53,0-4.125-1.749-4.125-4.081c0-2.288,1.694-4.048,4.125-4.048
	c1.21,0,2.057,0.429,2.52,0.748c0.307,0.22,0.329,0.517,0.131,0.836l-0.274,0.451c-0.209,0.341-0.483,0.374-0.825,0.165
	c-0.363-0.209-0.88-0.44-1.463-0.44c-1.573,0-2.222,1.111-2.222,2.244c0,1.166,0.704,2.365,2.222,2.365
	c0.66,0,1.232-0.297,1.605-0.562c0.33-0.23,0.617-0.22,0.848,0.11l0.308,0.429C28.506,27.658,28.494,27.966,28.197,28.197z
	 M33.971,22.18c0,0.396-0.209,0.605-0.605,0.605h-2.287v1.65h1.793c0.396,0,0.605,0.209,0.605,0.605v0.44
	c0,0.396-0.21,0.604-0.605,0.604h-1.793v2.31c0,0.396-0.209,0.605-0.605,0.605h-0.715c-0.396,0-0.605-0.209-0.605-0.605V21.74
	c0-0.396,0.209-0.605,0.605-0.605h3.607c0.396,0,0.605,0.209,0.605,0.605V22.18z M32.025,11.842V7.227l4.768,4.615H32.025z"/>
</svg>
