<?xml version="1.0" encoding="utf-8"?>
<!-- Generator: Adobe Illustrator 16.0.0, SVG Export Plug-In . SVG Version: 6.00 Build 0)  -->
<!DOCTYPE svg PUBLIC "-//W3C//DTD SVG 1.1//EN" "http://www.w3.org/Graphics/SVG/1.1/DTD/svg11.dtd">
<svg version="1.1" id="Layer_1" xmlns="http://www.w3.org/2000/svg" xmlns:xlink="http://www.w3.org/1999/xlink" x="0px" y="0px"
	 width="48px" height="48px" viewBox="0 0 48 48" enable-background="new 0 0 48 48" xml:space="preserve">
<title>document-mov</title>
<desc>Created with Sketch.</desc>
<g id="Mask">
</g>
<g>
	<path fill="#4C7BC1" d="M25.299,22.763c-1.243,0-2.123,0.968-2.123,2.254c0,1.342,0.88,2.354,2.123,2.354
		c1.242,0,2.123-1.013,2.123-2.354C27.422,23.731,26.541,22.763,25.299,22.763z"/>
	<path fill="#4C7BC1" d="M39.32,9.99l-6.043-5.589C32.998,4.144,32.629,4,32.245,4H10.147C9.082,4,8.214,4.845,8.214,5.883v35.234
		c0,1.038,0.867,1.883,1.933,1.883h27.705c1.065,0,1.933-0.845,1.933-1.883V11.046C39.785,10.647,39.617,10.265,39.32,9.99z
		 M20.053,29h-0.715c-0.385,0-0.594-0.198-0.627-0.583l-0.198-2.959c-0.044-0.594,0-1.32,0-1.32h-0.022c0,0-0.264,0.825-0.44,1.32
		l-0.649,1.793c-0.121,0.33-0.341,0.483-0.693,0.483h-0.616c-0.352,0-0.572-0.153-0.693-0.483l-0.649-1.793
		c-0.176-0.495-0.44-1.32-0.44-1.32h-0.022c0,0,0.044,0.726,0,1.32l-0.198,2.959C14.058,28.802,13.849,29,13.464,29h-0.726
		c-0.396,0-0.605-0.23-0.572-0.627l0.55-6.655c0.033-0.385,0.242-0.583,0.627-0.583h0.99c0.352,0,0.572,0.154,0.682,0.495
		l0.979,2.827c0.176,0.506,0.396,1.298,0.396,1.298h0.022c0,0,0.22-0.792,0.396-1.298l0.979-2.827
		c0.11-0.341,0.33-0.495,0.682-0.495h0.99c0.385,0,0.594,0.198,0.627,0.583l0.539,6.655C20.658,28.77,20.449,29,20.053,29z
		 M25.299,29.132c-2.442,0-4.114-1.804-4.114-4.114c0-2.254,1.672-4.015,4.114-4.015c2.441,0,4.113,1.76,4.113,4.015
		C29.412,27.328,27.74,29.132,25.299,29.132z M36.528,21.828l-2.354,6.688C34.053,28.846,33.834,29,33.481,29h-0.968
		c-0.353,0-0.572-0.154-0.693-0.484l-2.365-6.688c-0.143-0.418,0.045-0.693,0.495-0.693h0.825c0.363,0,0.583,0.165,0.682,0.506
		l1.232,3.97c0.154,0.496,0.297,1.266,0.297,1.266h0.021c0,0,0.144-0.77,0.297-1.266l1.255-3.97
		c0.099-0.341,0.319-0.506,0.682-0.506h0.792C36.484,21.135,36.672,21.41,36.528,21.828z M32.025,11.842V7.227l4.768,4.615H32.025z"
		/>
</g>
</svg>
