<?xml version="1.0" encoding="utf-8"?>
<!-- Generator: Adobe Illustrator 16.0.0, SVG Export Plug-In . SVG Version: 6.00 Build 0)  -->
<!DOCTYPE svg PUBLIC "-//W3C//DTD SVG 1.1//EN" "http://www.w3.org/Graphics/SVG/1.1/DTD/svg11.dtd">
<svg version="1.1" id="Layer_1" xmlns="http://www.w3.org/2000/svg" xmlns:xlink="http://www.w3.org/1999/xlink" x="0px" y="0px"
	 width="48px" height="48px" viewBox="0 0 48 48" enable-background="new 0 0 48 48" xml:space="preserve">
<title>document-mp3</title>
<desc>Created with Sketch.</desc>
<g id="Mask">
</g>
<g>
	<path fill="#4C7BC1" d="M39.32,10.49l-6.043-5.589C32.998,4.644,32.629,4.5,32.245,4.5H10.147c-1.066,0-1.933,0.845-1.933,1.883
		v35.234c0,1.038,0.867,1.883,1.933,1.883h27.705c1.065,0,1.933-0.845,1.933-1.883V11.546C39.785,11.147,39.617,10.765,39.32,10.49z
		 M19.195,27.08c0,1.727-1.32,2.552-2.629,2.552c-1.331,0-2.64-0.868-2.64-2.519c0-0.396,0.209-0.605,0.605-0.605h0.737
		c0.396,0,0.539,0.165,0.583,0.561c0.044,0.408,0.253,0.804,0.715,0.804c0.418,0,0.704-0.265,0.704-0.836v-3.751h-1.507
		c-0.396,0-0.605-0.209-0.605-0.605V22.24c0-0.396,0.209-0.605,0.605-0.605h2.827c0.396,0,0.605,0.209,0.605,0.605V27.08z
		 M23.648,27.068h-1.342v1.826c0,0.396-0.209,0.605-0.605,0.605h-0.715c-0.396,0-0.605-0.209-0.605-0.605V22.24
		c0-0.396,0.209-0.605,0.605-0.605h2.662c1.529,0,2.562,1.122,2.562,2.706S25.178,27.068,23.648,27.068z M34.031,28.895
		c0,0.396-0.209,0.605-0.605,0.605h-0.362c-0.396,0-0.604-0.209-0.604-0.473v-0.022c0-0.065,0.01-0.11,0.01-0.11h-0.021
		c0,0-0.693,0.737-2.09,0.737c-2.023,0-3.872-1.54-3.872-4.015c0-2.398,1.728-4.114,4.136-4.114c1.254,0,2.233,0.462,2.553,0.692
		c0.33,0.242,0.362,0.496,0.153,0.837l-0.286,0.45c-0.209,0.33-0.473,0.353-0.836,0.166c-0.363-0.188-0.781-0.385-1.463-0.385
		c-1.572,0-2.266,1.055-2.266,2.243c0,1.452,1.033,2.365,2.232,2.365c1.123,0,1.617-0.638,1.617-0.638v-0.539H31.82
		c-0.396,0-0.605-0.209-0.605-0.605v-0.429c0-0.396,0.209-0.604,0.605-0.604h1.605c0.396,0,0.605,0.209,0.605,0.604V28.895z
		 M32.025,12.342V7.727l4.768,4.615H32.025z"/>
	<path fill="#4C7BC1" d="M23.286,23.285h-0.979v2.134h0.946c0.671,0,1.001-0.451,1.001-1.078S23.924,23.285,23.286,23.285z"/>
</g>
</svg>
