<?xml version="1.0" encoding="UTF-8" standalone="no"?>
<svg width="32px" height="39px" viewBox="0 0 32 39" version="1.1" xmlns="http://www.w3.org/2000/svg" xmlns:xlink="http://www.w3.org/1999/xlink">
    <!-- Generator: Sketch 41.2 (35397) - http://www.bohemiancoding.com/sketch -->
    <title>document-pdf</title>
    <desc>Created with Sketch.</desc>
    <defs>
        <rect id="path-1" x="0" y="0" width="48" height="48"></rect>
    </defs>
    <g id="Page-1" stroke="none" stroke-width="1" fill="none" fill-rule="evenodd">
        <g id="Artboard" transform="translate(-460.000000, -288.000000)">
            <g id="document-pdf" transform="translate(452.000000, 284.000000)">
                <g id="document">
                    <mask id="mask-2" fill="white">
                        <use xlink:href="#path-1"></use>
                    </mask>
                    <g id="Mask"></g>
                </g>
                <path d="M39.3201262,9.98969453 L33.2771267,4.40106533 C32.9982999,4.1441461 32.6291614,4 32.245117,4 L10.1476598,4 C9.0814544,4 8.21428571,4.84452658 8.21428571,5.88322644 L8.21428571,41.1176215 C8.21428571,42.1554734 9.0814544,43 10.1476598,43 L37.8523402,43 C38.9176688,43 39.7857143,42.1554734 39.7857143,41.1176215 L39.7857143,11.0462007 C39.7857143,10.6468312 39.6173661,10.265268 39.3201262,9.98969453 Z M32.0250368,11.841548 L32.0250368,7.22717687 L36.7922725,11.841548 L32.0250368,11.841548 Z M14.104,28.3771685 C14.104,28.7795596 14.316373,28.9919326 14.718764,28.9919326 L15.4453034,28.9919326 C15.8476944,28.9919326 16.0600674,28.7795596 16.0600674,28.3771685 L16.0600674,26.5216989 L17.4237258,26.5216989 C18.9774022,26.5216989 20.0280899,25.359236 20.0280899,23.7496719 C20.0280899,22.1401079 18.9774022,21 17.4237258,21 L14.718764,21 C14.316373,21 14.104,21.212373 14.104,21.614764 L14.104,28.3771685 Z M16.0600674,24.8450697 L16.0600674,22.6766292 L17.0548674,22.6766292 C17.703164,22.6766292 18.0384899,23.1125528 18.0384899,23.7496719 C18.0384899,24.386791 17.703164,24.8450697 17.0213348,24.8450697 L16.0600674,24.8450697 Z M20.9893573,28.3771685 C20.9893573,28.7795596 21.2017303,28.9919326 21.6041213,28.9919326 L23.8284494,28.9919326 C26.3433933,28.9919326 27.9529573,27.4941438 27.9529573,24.9792 C27.9529573,22.4642562 26.3433933,21 23.8284494,21 L21.6041213,21 C21.2017303,21 20.9893573,21.212373 20.9893573,21.614764 L20.9893573,28.3771685 Z M22.9454247,27.3153034 L22.9454247,22.6766292 L23.7502067,22.6766292 C25.0691551,22.6766292 25.9298247,23.4590562 25.9298247,24.9792 C25.9298247,26.5105213 25.1026876,27.3153034 23.7502067,27.3153034 L22.9454247,27.3153034 Z M29.1042427,28.3771685 C29.1042427,28.7795596 29.3166157,28.9919326 29.7190067,28.9919326 L30.4455461,28.9919326 C30.8479371,28.9919326 31.0603101,28.7795596 31.0603101,28.3771685 L31.0603101,26.0298876 L32.8822472,26.0298876 C33.2846382,26.0298876 33.4970112,25.8175146 33.4970112,25.4151236 L33.4970112,24.9680225 C33.4970112,24.5656315 33.2846382,24.3532584 32.8822472,24.3532584 L31.0603101,24.3532584 L31.0603101,22.6766292 L33.385236,22.6766292 C33.787627,22.6766292 34,22.4642562 34,22.0618652 L34,21.614764 C34,21.212373 33.787627,21 33.385236,21 L29.7190067,21 C29.3166157,21 29.1042427,21.212373 29.1042427,21.614764 L29.1042427,28.3771685 Z" id="Combined-Shape" fill="#4C7BC1"></path>
            </g>
        </g>
    </g>
</svg>