<?xml version="1.0" encoding="utf-8"?>
<!-- Generator: Adobe Illustrator 16.0.0, SVG Export Plug-In . SVG Version: 6.00 Build 0)  -->
<!DOCTYPE svg PUBLIC "-//W3C//DTD SVG 1.1//EN" "http://www.w3.org/Graphics/SVG/1.1/DTD/svg11.dtd">
<svg version="1.1" id="Layer_1" xmlns="http://www.w3.org/2000/svg" xmlns:xlink="http://www.w3.org/1999/xlink" x="0px" y="0px"
	 width="48px" height="48px" viewBox="0 0 48 48" enable-background="new 0 0 48 48" xml:space="preserve">
<title>document-mp4</title>
<desc>Created with Sketch.</desc>
<g id="Mask">
</g>
<g>
	<path fill="#4C7BC1" d="M25.738,23.285H24.76v2.134h0.945c0.672,0,1.002-0.451,1.002-1.078S26.377,23.285,25.738,23.285z"/>
	<path fill="#4C7BC1" d="M39.32,10.49l-6.043-5.589C32.998,4.644,32.629,4.5,32.245,4.5H10.147c-1.066,0-1.933,0.845-1.933,1.883
		v35.234c0,1.038,0.867,1.883,1.933,1.883h27.705c1.065,0,1.933-0.845,1.933-1.883V11.546C39.785,11.147,39.617,10.765,39.32,10.49z
		 M21.241,29.5h-0.715c-0.385,0-0.594-0.198-0.627-0.583l-0.198-2.959c-0.044-0.594,0-1.319,0-1.319h-0.022
		c0,0-0.264,0.824-0.44,1.319l-0.649,1.793c-0.121,0.33-0.341,0.483-0.693,0.483h-0.616c-0.352,0-0.572-0.153-0.693-0.483
		l-0.649-1.793c-0.176-0.495-0.44-1.319-0.44-1.319h-0.022c0,0,0.044,0.726,0,1.319l-0.198,2.959
		c-0.033,0.385-0.242,0.583-0.627,0.583h-0.726c-0.396,0-0.605-0.23-0.572-0.627l0.55-6.655c0.033-0.385,0.242-0.583,0.627-0.583
		h0.99c0.352,0,0.572,0.154,0.682,0.495l0.979,2.827c0.176,0.506,0.396,1.298,0.396,1.298H17.6c0,0,0.22-0.792,0.396-1.298
		l0.979-2.827c0.11-0.341,0.33-0.495,0.682-0.495h0.99c0.385,0,0.594,0.198,0.627,0.583l0.539,6.655
		C21.846,29.27,21.637,29.5,21.241,29.5z M26.102,27.068H24.76v1.826c0,0.396-0.209,0.605-0.605,0.605h-0.715
		c-0.396,0-0.605-0.209-0.605-0.605V22.24c0-0.396,0.209-0.605,0.605-0.605h2.662c1.529,0,2.562,1.122,2.562,2.706
		S27.631,27.068,26.102,27.068z M35.065,26.992c0,0.396-0.165,0.605-0.462,0.605h-0.473v1.297c0,0.396-0.209,0.605-0.605,0.605
		h-0.693c-0.396,0-0.604-0.209-0.604-0.605v-1.297h-2.882c-0.396,0-0.605-0.209-0.605-0.605v-0.154c0-0.297,0.055-0.506,0.221-0.748
		l2.562-4.059c0.176-0.275,0.396-0.396,0.727-0.396h1.275c0.396,0,0.605,0.209,0.605,0.605v3.762h0.33
		c0.396,0,0.604,0.209,0.604,0.605V26.992z M32.025,12.342V7.727l4.768,4.615H32.025z"/>
	<path fill="#4C7BC1" d="M31.887,24.176l-1.188,1.805v0.021h1.529v-1.76c0-0.43,0.065-0.881,0.065-0.881h-0.021
		C32.271,23.361,32.106,23.846,31.887,24.176z"/>
</g>
</svg>
