<?xml version="1.0" encoding="utf-8"?>
<!-- Generator: Adobe Illustrator 16.0.0, SVG Export Plug-In . SVG Version: 6.00 Build 0)  -->
<!DOCTYPE svg PUBLIC "-//W3C//DTD SVG 1.1//EN" "http://www.w3.org/Graphics/SVG/1.1/DTD/svg11.dtd">
<svg version="1.1" id="Layer_1" xmlns="http://www.w3.org/2000/svg" xmlns:xlink="http://www.w3.org/1999/xlink" x="0px" y="0px"
	 width="48px" height="48px" viewBox="0 0 48 48" enable-background="new 0 0 48 48" xml:space="preserve">
<title>document-avi</title>
<desc>Created with Sketch.</desc>
<g id="Mask">
</g>
<g>
	<path fill="#4C7BC1" d="M19.25,23.428h-0.022c0,0-0.176,0.858-0.319,1.354l-0.451,1.529h1.551l-0.44-1.529
		C19.426,24.286,19.25,23.428,19.25,23.428z"/>
	<path fill="#4C7BC1" d="M39.32,10.49l-6.043-5.589C32.998,4.644,32.629,4.5,32.246,4.5H10.148c-1.066,0-1.933,0.845-1.933,1.883
		v35.234c0,1.038,0.867,1.883,1.933,1.883h27.706c1.064,0,1.932-0.845,1.932-1.883V11.546C39.785,11.147,39.617,10.765,39.32,10.49z
		 M22.198,29.5h-0.726c-0.352,0-0.572-0.165-0.682-0.506l-0.33-1.145h-2.453l-0.33,1.145c-0.099,0.341-0.319,0.506-0.671,0.506
		H16.28c-0.44,0-0.638-0.275-0.495-0.693l2.277-6.677c0.11-0.341,0.33-0.495,0.682-0.495h0.99c0.352,0,0.572,0.154,0.682,0.495
		l2.277,6.677C22.836,29.225,22.638,29.5,22.198,29.5z M29.348,22.328l-2.355,6.688c-0.121,0.33-0.34,0.484-0.691,0.484h-0.969
		c-0.352,0-0.572-0.154-0.693-0.484l-2.365-6.688c-0.143-0.418,0.044-0.693,0.495-0.693h0.825c0.363,0,0.583,0.165,0.682,0.506
		l1.231,3.971c0.154,0.496,0.297,1.266,0.297,1.266h0.021c0,0,0.145-0.77,0.297-1.266l1.254-3.971c0.1-0.341,0.32-0.506,0.684-0.506
		h0.791C29.303,21.635,29.49,21.91,29.348,22.328z M31.865,28.895c0,0.396-0.209,0.605-0.605,0.605h-0.715
		c-0.396,0-0.605-0.209-0.605-0.605V22.24c0-0.396,0.209-0.605,0.605-0.605h0.715c0.396,0,0.605,0.209,0.605,0.605V28.895z
		 M32.025,12.342V7.727l4.768,4.615H32.025z"/>
</g>
</svg>
