<?xml version="1.0" encoding="utf-8"?>
<!-- Generator: Adobe Illustrator 16.0.0, SVG Export Plug-In . SVG Version: 6.00 Build 0)  -->
<!DOCTYPE svg PUBLIC "-//W3C//DTD SVG 1.1//EN" "http://www.w3.org/Graphics/SVG/1.1/DTD/svg11.dtd">
<svg version="1.1" id="Layer_1" xmlns="http://www.w3.org/2000/svg" xmlns:xlink="http://www.w3.org/1999/xlink" x="0px" y="0px"
	 width="48px" height="48px" viewBox="0 0 48 48" enable-background="new 0 0 48 48" xml:space="preserve">
<title>document-zip</title>
<desc>Created with Sketch.</desc>
<g id="Mask">
</g>
<path fill="#4C7BC1" d="M39.32,10.99l-6.043-5.589C32.998,5.144,32.629,5,32.245,5H10.147C9.082,5,8.214,5.845,8.214,6.883v35.234
	c0,1.038,0.867,1.883,1.933,1.883h27.705c1.065,0,1.933-0.845,1.933-1.883V12.046C39.785,11.647,39.617,11.265,39.32,10.99z
	 M22.341,29.395c0,0.396-0.209,0.605-0.605,0.605h-4.928c-0.396,0-0.605-0.209-0.605-0.605v-0.187c0-0.297,0.066-0.517,0.242-0.759
	l2.794-3.96c0.341-0.484,0.605-0.715,0.605-0.715v-0.022c0,0-0.253,0.033-0.605,0.033h-2.288c-0.396,0-0.605-0.209-0.605-0.605
	v-0.44c0-0.396,0.209-0.605,0.605-0.605h4.73c0.396,0,0.605,0.209,0.605,0.594v0.176c0,0.297-0.066,0.517-0.242,0.759l-2.805,3.982
	c-0.341,0.483-0.605,0.715-0.605,0.715v0.021c0,0,0.253-0.033,0.605-0.033h2.497c0.396,0,0.605,0.209,0.605,0.605V29.395z
	 M25.123,29.395c0,0.396-0.209,0.605-0.605,0.605h-0.715c-0.396,0-0.605-0.209-0.605-0.605V22.74c0-0.396,0.209-0.605,0.605-0.605
	h0.715c0.396,0,0.605,0.209,0.605,0.605V29.395z M29.643,27.568h-1.342v1.826c0,0.396-0.209,0.605-0.605,0.605H26.98
	c-0.396,0-0.605-0.209-0.605-0.605V22.74c0-0.396,0.209-0.605,0.605-0.605h2.662c1.529,0,2.562,1.122,2.562,2.706
	S31.172,27.568,29.643,27.568z M32.025,12.842V8.227l4.768,4.615H32.025z"/>
<path fill="#4C7BC1" d="M29.279,23.785h-0.979v2.134h0.945c0.672,0,1.002-0.451,1.002-1.078S29.918,23.785,29.279,23.785z"/>
</svg>
