<?xml version="1.0" encoding="utf-8"?>
<!-- Generator: Adobe Illustrator 16.0.0, SVG Export Plug-In . SVG Version: 6.00 Build 0)  -->
<!DOCTYPE svg PUBLIC "-//W3C//DTD SVG 1.1//EN" "http://www.w3.org/Graphics/SVG/1.1/DTD/svg11.dtd">
<svg version="1.1" id="Layer_1" xmlns="http://www.w3.org/2000/svg" xmlns:xlink="http://www.w3.org/1999/xlink" x="0px" y="0px"
	 width="48px" height="48px" viewBox="0 0 48 48" enable-background="new 0 0 48 48" xml:space="preserve">
<title>document-rtf</title>
<desc>Created with Sketch.</desc>
<g id="Mask">
</g>
<path fill="#4C7BC1" d="M18.717,23.395c-0.176-0.076-0.407-0.109-0.727-0.109h-0.648v1.914h0.836c0.615,0,1-0.342,1-0.969
	C19.178,23.835,19.08,23.538,18.717,23.395z"/>
<path fill="#4C7BC1" d="M39.32,10.49L33.277,4.9c-0.279-0.256-0.648-0.4-1.032-0.4H10.147c-1.065,0-1.933,0.845-1.933,1.883v35.234
	c0,1.038,0.867,1.883,1.933,1.883h27.705c1.065,0,1.933-0.845,1.933-1.883v-30.07C39.785,11.146,39.617,10.766,39.32,10.49z
	 M20.961,29.5h-0.836c-0.33,0-0.551-0.132-0.715-0.43l-1.166-2.221h-0.902v2.045c0,0.396-0.209,0.605-0.605,0.605h-0.715
	c-0.396,0-0.605-0.209-0.605-0.605V22.24c0-0.396,0.209-0.605,0.605-0.605h2.134c0.804,0,1.188,0.055,1.529,0.188
	c0.891,0.341,1.452,1.144,1.452,2.287c0,0.836-0.396,1.75-1.178,2.146v0.022c0,0,0.11,0.143,0.297,0.473l1.123,2.023
	C21.621,29.191,21.434,29.5,20.961,29.5z M28.043,22.68c0,0.396-0.209,0.605-0.605,0.605h-1.781v5.609
	c0,0.396-0.209,0.605-0.605,0.605h-0.715c-0.396,0-0.605-0.209-0.605-0.605v-5.609h-1.781c-0.396,0-0.605-0.209-0.605-0.605V22.24
	c0-0.396,0.209-0.605,0.605-0.605h5.488c0.396,0,0.605,0.209,0.605,0.605V22.68z M33.421,22.68c0,0.396-0.209,0.605-0.604,0.605
	h-2.289v1.65h1.793c0.396,0,0.605,0.209,0.605,0.604v0.44c0,0.396-0.209,0.604-0.605,0.604h-1.793v2.31
	c0,0.396-0.209,0.605-0.604,0.605h-0.715c-0.396,0-0.604-0.209-0.604-0.605V22.24c0-0.396,0.209-0.605,0.604-0.605h3.608
	c0.396,0,0.604,0.209,0.604,0.605V22.68z M32.025,12.342V7.727l4.768,4.615H32.025z"/>
</svg>
