<?xml version="1.0" encoding="UTF-8" standalone="no"?>
<svg width="32px" height="39px" viewBox="0 0 32 39" version="1.1" xmlns="http://www.w3.org/2000/svg" xmlns:xlink="http://www.w3.org/1999/xlink">
    <!-- Generator: Sketch 41.2 (35397) - http://www.bohemiancoding.com/sketch -->
    <title>document</title>
    <desc>Created with Sketch.</desc>
    <defs>
        <rect id="path-1" x="0" y="0" width="48" height="48"></rect>
    </defs>
    <g id="Page-1" stroke="none" stroke-width="1" fill="none" fill-rule="evenodd">
        <g id="Artboard" transform="translate(-292.000000, -177.000000)">
            <g id="document" transform="translate(284.000000, 173.000000)">
                <g>
                    <mask id="mask-2" fill="white">
                        <use xlink:href="#path-1"></use>
                    </mask>
                    <g id="Mask"></g>
                    <path d="M32.0250368,11.841548 L32.0250368,7.22717687 L36.7922725,11.841548 L32.0250368,11.841548 Z M31.8680872,19.8721818 L15.7601439,19.8721818 C14.9333086,19.8721818 14.2625462,19.2192847 14.2625462,18.4146103 C14.2625462,17.6099359 14.9333086,16.9570388 15.7601439,16.9570388 L31.8680872,16.9570388 C32.6957992,16.9570388 33.3656848,17.6099359 33.3656848,18.4146103 C33.3656848,19.2192847 32.6957992,19.8721818 31.8680872,19.8721818 L31.8680872,19.8721818 Z M31.8680872,27.4585064 L15.7601439,27.4585064 C14.9333086,27.4585064 14.2625462,26.8056093 14.2625462,26.0009349 C14.2625462,25.1962605 14.9333086,24.5433634 15.7601439,24.5433634 L31.8680872,24.5433634 C32.6957992,24.5433634 33.3656848,25.1962605 33.3656848,26.0009349 C33.3656848,26.8056093 32.6957992,27.4585064 31.8680872,27.4585064 L31.8680872,27.4585064 Z M31.8680872,35.5391673 L15.7601439,35.5391673 C14.9333086,35.5391673 14.2625462,34.8879661 14.2625462,34.0815958 C14.2625462,33.2769214 14.9333086,32.6248723 15.7601439,32.6248723 L31.8680872,32.6248723 C32.6957992,32.6248723 33.3656848,33.2769214 33.3656848,34.0815958 C33.3656848,34.8879661 32.6957992,35.5391673 31.8680872,35.5391673 L31.8680872,35.5391673 Z M15.7601439,9.20706599 L24.0004384,9.20706599 C24.8263969,9.20706599 25.4971593,9.85911512 25.4971593,10.6637895 C25.4971593,11.4693119 24.8263969,12.121361 24.0004384,12.121361 L15.7601439,12.121361 C14.9333086,12.121361 14.2625462,11.4693119 14.2625462,10.6637895 C14.2625462,9.85911512 14.9333086,9.20706599 15.7601439,9.20706599 L15.7601439,9.20706599 Z M39.3201262,9.98969453 L33.2771267,4.40106533 C32.9982999,4.1441461 32.6291614,4 32.245117,4 L10.1476598,4 C9.0814544,4 8.21428571,4.84452658 8.21428571,5.88322644 L8.21428571,41.1176215 C8.21428571,42.1554734 9.0814544,43 10.1476598,43 L37.8523402,43 C38.9176688,43 39.7857143,42.1554734 39.7857143,41.1176215 L39.7857143,11.0462007 C39.7857143,10.6468312 39.6173661,10.265268 39.3201262,9.98969453 L39.3201262,9.98969453 Z" fill="#4C7BC1" mask="url(#mask-2)"></path>
                </g>
            </g>
        </g>
    </g>
</svg>