<?xml version="1.0" encoding="utf-8"?>
<!-- Generator: Adobe Illustrator 16.0.0, SVG Export Plug-In . SVG Version: 6.00 Build 0)  -->
<!DOCTYPE svg PUBLIC "-//W3C//DTD SVG 1.1//EN" "http://www.w3.org/Graphics/SVG/1.1/DTD/svg11.dtd">
<svg version="1.1" id="Layer_1" xmlns="http://www.w3.org/2000/svg" xmlns:xlink="http://www.w3.org/1999/xlink" x="0px" y="0px"
	 width="48px" height="48px" viewBox="0 0 48 48" enable-background="new 0 0 48 48" xml:space="preserve">
<title>document-png</title>
<desc>Created with Sketch.</desc>
<g id="Mask">
</g>
<g>
	<path fill="#4C7BC1" d="M16.417,22.785h-0.979v2.134h0.946c0.671,0,1.001-0.451,1.001-1.078S17.056,22.785,16.417,22.785z"/>
	<path fill="#4C7BC1" d="M39.32,9.99l-6.043-5.589C32.998,4.144,32.629,4,32.245,4H10.147C9.082,4,8.214,4.845,8.214,5.883v35.234
		c0,1.038,0.867,1.883,1.933,1.883h27.705c1.065,0,1.933-0.845,1.933-1.883V11.046C39.785,10.647,39.617,10.265,39.32,9.99z
		 M16.78,26.568h-1.342v1.826c0,0.396-0.209,0.605-0.605,0.605h-0.715c-0.396,0-0.605-0.209-0.605-0.605V21.74
		c0-0.396,0.209-0.605,0.605-0.605h2.662c1.529,0,2.563,1.122,2.563,2.706S18.31,26.568,16.78,26.568z M26.668,28.395
		c0,0.396-0.209,0.605-0.605,0.605h-0.857c-0.33,0-0.55-0.121-0.715-0.407l-1.947-3.256c-0.308-0.517-0.66-1.342-0.66-1.342h-0.022
		c0,0,0.088,0.847,0.088,1.342v3.058c0,0.396-0.209,0.605-0.605,0.605h-0.715c-0.396,0-0.605-0.209-0.605-0.605V21.74
		c0-0.396,0.209-0.605,0.605-0.605h0.858c0.341,0,0.561,0.121,0.726,0.407l1.936,3.267c0.308,0.518,0.66,1.342,0.66,1.342h0.022
		c0,0-0.088-0.846-0.088-1.342V21.74c0-0.396,0.209-0.605,0.604-0.605h0.715c0.396,0,0.605,0.209,0.605,0.605V28.395z
		 M35.061,28.395c0,0.396-0.209,0.605-0.605,0.605h-0.363c-0.396,0-0.605-0.209-0.605-0.473v-0.022c0-0.065,0.012-0.11,0.012-0.11
		h-0.021c0,0-0.693,0.737-2.091,0.737c-2.024,0-3.872-1.54-3.872-4.015c0-2.398,1.727-4.114,4.137-4.114
		c1.254,0,2.232,0.462,2.551,0.693c0.33,0.242,0.363,0.495,0.154,0.836l-0.285,0.451c-0.209,0.33-0.474,0.352-0.836,0.165
		c-0.363-0.187-0.781-0.385-1.463-0.385c-1.574,0-2.267,1.056-2.267,2.244c0,1.452,1.034,2.365,2.233,2.365
		c1.121,0,1.617-0.638,1.617-0.638v-0.539h-0.507c-0.396,0-0.604-0.209-0.604-0.605v-0.429c0-0.396,0.209-0.604,0.604-0.604h1.606
		c0.396,0,0.605,0.209,0.605,0.604V28.395z M32.025,11.842V7.227l4.768,4.615H32.025z"/>
</g>
</svg>
