<?xml version="1.0" encoding="utf-8"?>
<!-- Generator: Adobe Illustrator 16.0.0, SVG Export Plug-In . SVG Version: 6.00 Build 0)  -->
<!DOCTYPE svg PUBLIC "-//W3C//DTD SVG 1.1//EN" "http://www.w3.org/Graphics/SVG/1.1/DTD/svg11.dtd">
<svg version="1.1" id="Layer_1" xmlns="http://www.w3.org/2000/svg" xmlns:xlink="http://www.w3.org/1999/xlink" x="0px" y="0px"
	 width="48px" height="48px" viewBox="0 0 48 48" enable-background="new 0 0 48 48" xml:space="preserve">
<title>document-xml</title>
<desc>Created with Sketch.</desc>
<g id="Mask">
</g>
<path fill="#4C7BC1" d="M39.32,9.99l-6.043-5.589C32.998,4.144,32.629,4,32.245,4H10.147C9.082,4,8.214,4.845,8.214,5.883v35.234
	c0,1.038,0.867,1.883,1.933,1.883h27.705c1.065,0,1.933-0.845,1.933-1.883V11.046C39.785,10.647,39.617,10.265,39.32,9.99z
	 M19.767,28.273C20.031,28.691,19.855,29,19.36,29h-0.803c-0.33,0-0.55-0.132-0.715-0.43l-0.671-1.221
	c-0.275-0.494-0.484-0.979-0.484-0.979h-0.022c0,0-0.209,0.484-0.484,0.979L15.51,28.57C15.345,28.868,15.125,29,14.795,29h-0.792
	c-0.495,0-0.671-0.309-0.418-0.727l1.947-3.178l-1.958-3.235c-0.253-0.418-0.077-0.726,0.407-0.726h0.858
	c0.33,0,0.55,0.132,0.715,0.429l0.627,1.188c0.264,0.495,0.484,1.012,0.484,1.012h0.022c0,0,0.209-0.506,0.484-1.012l0.638-1.188
	c0.165-0.297,0.385-0.429,0.715-0.429h0.858c0.484,0,0.66,0.308,0.407,0.726l-1.969,3.235L19.767,28.273z M28.346,29h-0.715
	c-0.385,0-0.594-0.198-0.627-0.583l-0.198-2.959c-0.044-0.594,0-1.32,0-1.32h-0.022c0,0-0.264,0.825-0.439,1.32l-0.648,1.793
	c-0.121,0.33-0.342,0.483-0.693,0.483h-0.616c-0.352,0-0.572-0.153-0.693-0.483l-0.649-1.793c-0.176-0.495-0.44-1.32-0.44-1.32
	h-0.022c0,0,0.044,0.726,0,1.32l-0.198,2.959C22.351,28.802,22.142,29,21.757,29h-0.726c-0.396,0-0.605-0.23-0.572-0.627l0.55-6.655
	c0.033-0.385,0.242-0.583,0.627-0.583h0.99c0.352,0,0.572,0.154,0.682,0.495l0.979,2.827c0.176,0.506,0.396,1.298,0.396,1.298h0.022
	c0,0,0.22-0.792,0.396-1.298l0.979-2.827c0.109-0.341,0.33-0.495,0.682-0.495h0.99c0.385,0,0.594,0.198,0.627,0.583l0.539,6.655
	C28.951,28.77,28.742,29,28.346,29z M35.076,28.395c0,0.396-0.209,0.605-0.605,0.605h-3.926c-0.396,0-0.605-0.209-0.605-0.605V21.74
	c0-0.396,0.209-0.605,0.605-0.605h0.715c0.396,0,0.604,0.209,0.604,0.605v5.609h2.606c0.396,0,0.605,0.209,0.605,0.605V28.395z
	 M32.025,11.842V7.227l4.768,4.615H32.025z"/>
</svg>
