<?xml version="1.0" encoding="utf-8"?>
<!-- Generator: Adobe Illustrator 16.0.0, SVG Export Plug-In . SVG Version: 6.00 Build 0)  -->
<!DOCTYPE svg PUBLIC "-//W3C//DTD SVG 1.1//EN" "http://www.w3.org/Graphics/SVG/1.1/DTD/svg11.dtd">
<svg version="1.1" id="Layer_1" xmlns="http://www.w3.org/2000/svg" xmlns:xlink="http://www.w3.org/1999/xlink" x="0px" y="0px"
	 width="48px" height="48px" viewBox="0 0 48 48" enable-background="new 0 0 48 48" xml:space="preserve">
<title>document-doc</title>
<desc>Created with Sketch.</desc>
<g id="Mask">
</g>
<g>
	<path fill="#4C7BC1" d="M24.54,23.264c-1.243,0-2.123,0.967-2.123,2.254c0,1.342,0.88,2.354,2.123,2.354
		c1.243,0,2.123-1.013,2.123-2.354C26.663,24.23,25.783,23.264,24.54,23.264z"/>
	<path fill="#4C7BC1" d="M39.693,10.49L33.65,4.901C33.371,4.644,33.002,4.5,32.618,4.5H10.521c-1.066,0-1.933,0.845-1.933,1.883
		v35.234c0,1.038,0.867,1.883,1.933,1.883h27.705c1.065,0,1.933-0.845,1.933-1.883V11.546C40.158,11.147,39.99,10.765,39.693,10.49z
		 M15.926,29.5h-2.189c-0.396,0-0.605-0.209-0.605-0.605V22.24c0-0.396,0.209-0.605,0.605-0.605h2.189
		c2.475,0,4.059,1.441,4.059,3.916S18.401,29.5,15.926,29.5z M24.56,29.632c-2.442,0-4.114-1.804-4.114-4.114
		c0-2.254,1.672-4.015,4.114-4.015c2.442,0,4.114,1.761,4.114,4.015C28.674,27.828,27.002,29.632,24.56,29.632z M35.987,28.697
		c-0.495,0.385-1.419,0.935-2.75,0.935c-2.53,0-4.125-1.749-4.125-4.081c0-2.287,1.694-4.048,4.125-4.048
		c1.21,0,2.058,0.429,2.519,0.748c0.309,0.22,0.33,0.517,0.133,0.836l-0.275,0.451c-0.209,0.341-0.484,0.374-0.824,0.165
		c-0.363-0.209-0.881-0.439-1.463-0.439c-1.574,0-2.223,1.11-2.223,2.243c0,1.166,0.704,2.365,2.223,2.365
		c0.659,0,1.231-0.297,1.605-0.562c0.33-0.23,0.615-0.22,0.847,0.11l0.308,0.429C36.295,28.158,36.285,28.466,35.987,28.697z
		 M32.398,12.342V7.727l4.768,4.615H32.398z"/>
	<path fill="#4C7BC1" d="M15.83,23.285h-0.792v4.564h0.792c1.331,0,2.145-0.791,2.145-2.299
		C17.975,24.055,17.127,23.285,15.83,23.285z"/>
</g>
</svg>
