<?xml version="1.0" encoding="utf-8"?>
<!-- Generator: Adobe Illustrator 16.0.0, SVG Export Plug-In . SVG Version: 6.00 Build 0)  -->
<!DOCTYPE svg PUBLIC "-//W3C//DTD SVG 1.1//EN" "http://www.w3.org/Graphics/SVG/1.1/DTD/svg11.dtd">
<svg version="1.1" id="Layer_1" xmlns="http://www.w3.org/2000/svg" xmlns:xlink="http://www.w3.org/1999/xlink" x="0px" y="0px"
	 width="48px" height="48px" viewBox="0 0 48 48" enable-background="new 0 0 48 48" xml:space="preserve">
<title>document-svg</title>
<desc>Created with Sketch.</desc>
<g id="Mask">
</g>
<g>
	<path fill="#4C7BC1" d="M39.321,10.49L33.278,4.9c-0.279-0.256-0.648-0.4-1.032-0.4H10.148c-1.066,0-1.934,0.845-1.934,1.883
		v35.234c0,1.038,0.867,1.883,1.934,1.883h27.705c1.065,0,1.933-0.845,1.933-1.883v-30.07C39.786,11.146,39.618,10.766,39.321,10.49
		z M16.66,29.632c-1.1,0-2.078-0.45-2.496-0.78c-0.231-0.188-0.396-0.43-0.111-0.836l0.342-0.496c0.22-0.318,0.473-0.34,0.836-0.143
		c0.253,0.132,0.748,0.484,1.43,0.484c0.572,0,0.836-0.242,0.836-0.551c0-1.11-3.476-0.935-3.476-3.398
		c0-1.452,1.21-2.409,2.805-2.409c0.913,0,1.749,0.319,2.123,0.583c0.319,0.23,0.353,0.506,0.187,0.825l-0.264,0.517
		c-0.22,0.43-0.517,0.363-0.824,0.209c-0.363-0.176-0.727-0.363-1.244-0.363c-0.604,0-0.857,0.242-0.857,0.551
		c0,1.144,3.477,0.869,3.477,3.355C19.422,28.499,18.432,29.632,16.66,29.632z M24.326,29.016c-0.121,0.33-0.341,0.484-0.692,0.484
		h-0.969c-0.353,0-0.571-0.154-0.692-0.484l-2.365-6.688c-0.144-0.418,0.044-0.693,0.494-0.693h0.826
		c0.362,0,0.582,0.165,0.682,0.506l1.232,3.971c0.153,0.496,0.297,1.266,0.297,1.266h0.021c0,0,0.143-0.77,0.297-1.266l1.254-3.971
		c0.099-0.341,0.319-0.506,0.683-0.506h0.791c0.451,0,0.639,0.275,0.496,0.693L24.326,29.016z M34.269,28.895
		c0,0.396-0.209,0.605-0.604,0.605h-0.363c-0.396,0-0.604-0.209-0.604-0.473v-0.022c0-0.065,0.011-0.11,0.011-0.11h-0.022
		c0,0-0.693,0.737-2.09,0.737c-2.023,0-3.872-1.54-3.872-4.015c0-2.398,1.728-4.114,4.136-4.114c1.254,0,2.233,0.462,2.553,0.692
		c0.33,0.242,0.363,0.496,0.154,0.837l-0.287,0.45c-0.209,0.33-0.473,0.353-0.836,0.166c-0.362-0.188-0.781-0.385-1.463-0.385
		c-1.572,0-2.266,1.055-2.266,2.243c0,1.452,1.034,2.365,2.232,2.365c1.123,0,1.617-0.638,1.617-0.638v-0.539h-0.506
		c-0.396,0-0.605-0.209-0.605-0.605v-0.429c0-0.396,0.209-0.604,0.605-0.604h1.606c0.396,0,0.604,0.209,0.604,0.604V28.895z
		 M32.026,12.342V7.727l4.768,4.615H32.026z"/>
</g>
</svg>
