<?xml version="1.0" encoding="utf-8"?>
<!-- Generator: Adobe Illustrator 16.0.0, SVG Export Plug-In . SVG Version: 6.00 Build 0)  -->
<!DOCTYPE svg PUBLIC "-//W3C//DTD SVG 1.1//EN" "http://www.w3.org/Graphics/SVG/1.1/DTD/svg11.dtd">
<svg version="1.1" id="Layer_1" xmlns="http://www.w3.org/2000/svg" xmlns:xlink="http://www.w3.org/1999/xlink" x="0px" y="0px"
	 width="48px" height="48px" viewBox="0 0 48 48" enable-background="new 0 0 48 48" xml:space="preserve">
<title>document-cnf</title>
<desc>Created with Sketch.</desc>
<g id="Mask">
</g>
<path fill="#4C7BC1" d="M39.32,10.49l-6.043-5.589C32.998,4.644,32.629,4.5,32.245,4.5H10.147c-1.066,0-1.933,0.845-1.933,1.883
	v35.234c0,1.038,0.867,1.883,1.933,1.883h27.705c1.065,0,1.933-0.845,1.933-1.883V11.546C39.785,11.147,39.617,10.765,39.32,10.49z
	 M20.817,28.697c-0.495,0.385-1.419,0.935-2.75,0.935c-2.53,0-4.125-1.749-4.125-4.081c0-2.287,1.694-4.048,4.125-4.048
	c1.21,0,2.057,0.429,2.519,0.748c0.308,0.22,0.33,0.517,0.132,0.836l-0.275,0.451c-0.209,0.341-0.484,0.374-0.825,0.165
	c-0.363-0.209-0.88-0.439-1.463-0.439c-1.573,0-2.222,1.11-2.222,2.243c0,1.166,0.704,2.365,2.222,2.365
	c0.66,0,1.232-0.297,1.606-0.562c0.33-0.23,0.616-0.22,0.847,0.11l0.308,0.429C21.125,28.158,21.114,28.466,20.817,28.697z
	 M28.417,28.895c0,0.396-0.209,0.605-0.604,0.605h-0.858c-0.33,0-0.55-0.121-0.715-0.407l-1.947-3.256
	c-0.308-0.517-0.66-1.342-0.66-1.342H23.61c0,0,0.088,0.847,0.088,1.342v3.058c0,0.396-0.209,0.605-0.605,0.605h-0.715
	c-0.396,0-0.605-0.209-0.605-0.605V22.24c0-0.396,0.209-0.605,0.605-0.605h0.858c0.341,0,0.561,0.121,0.726,0.407l1.937,3.267
	c0.308,0.518,0.66,1.342,0.66,1.342h0.021c0,0-0.088-0.846-0.088-1.342V22.24c0-0.396,0.209-0.605,0.605-0.605h0.715
	c0.396,0,0.604,0.209,0.604,0.605V28.895z M34.488,22.68c0,0.396-0.209,0.605-0.605,0.605h-2.288v1.65h1.793
	c0.396,0,0.604,0.209,0.604,0.604v0.44c0,0.396-0.209,0.604-0.604,0.604h-1.793v2.31c0,0.396-0.209,0.605-0.604,0.605h-0.715
	c-0.396,0-0.605-0.209-0.605-0.605V22.24c0-0.396,0.209-0.605,0.605-0.605h3.607c0.396,0,0.605,0.209,0.605,0.605V22.68z
	 M32.025,12.342V7.727l4.768,4.615H32.025z"/>
</svg>
