<?xml version="1.0" encoding="utf-8"?>
<!-- Generator: Adobe Illustrator 16.0.0, SVG Export Plug-In . SVG Version: 6.00 Build 0)  -->
<!DOCTYPE svg PUBLIC "-//W3C//DTD SVG 1.1//EN" "http://www.w3.org/Graphics/SVG/1.1/DTD/svg11.dtd">
<svg version="1.1" id="Layer_1" xmlns="http://www.w3.org/2000/svg" xmlns:xlink="http://www.w3.org/1999/xlink" x="0px" y="0px"
	 width="48px" height="48px" viewBox="0 0 48 48" enable-background="new 0 0 48 48" xml:space="preserve">
<title>document-txt</title>
<desc>Created with Sketch.</desc>
<g id="Mask">
</g>
<path fill="#4C7BC1" d="M39.32,9.99l-6.043-5.589C32.998,4.144,32.629,4,32.245,4H10.147C9.082,4,8.214,4.845,8.214,5.883v35.234
	c0,1.038,0.867,1.883,1.933,1.883h27.705c1.065,0,1.933-0.845,1.933-1.883V11.046C39.785,10.647,39.617,10.265,39.32,9.99z
	 M20.812,22.18c0,0.396-0.209,0.605-0.605,0.605h-1.782v5.609c0,0.396-0.209,0.605-0.605,0.605h-0.715
	c-0.396,0-0.605-0.209-0.605-0.605v-5.609h-1.782c-0.396,0-0.605-0.209-0.605-0.605v-0.44c0-0.396,0.209-0.605,0.605-0.605h5.489
	c0.396,0,0.605,0.209,0.605,0.605V22.18z M27.224,28.273C27.488,28.691,27.312,29,26.816,29h-0.803c-0.33,0-0.55-0.132-0.715-0.43
	l-0.672-1.221c-0.274-0.494-0.483-0.979-0.483-0.979h-0.022c0,0-0.209,0.484-0.484,0.979l-0.671,1.221
	C22.802,28.868,22.582,29,22.251,29h-0.792c-0.495,0-0.671-0.309-0.418-0.727l1.947-3.178l-1.958-3.235
	c-0.253-0.418-0.077-0.726,0.407-0.726h0.858c0.33,0,0.55,0.132,0.715,0.429l0.627,1.188c0.264,0.495,0.484,1.012,0.484,1.012h0.022
	c0,0,0.209-0.506,0.483-1.012l0.639-1.188c0.165-0.297,0.385-0.429,0.715-0.429h0.858c0.483,0,0.659,0.308,0.407,0.726l-1.969,3.235
	L27.224,28.273z M34.152,22.18c0,0.396-0.209,0.605-0.605,0.605h-1.781v5.609c0,0.396-0.209,0.605-0.605,0.605h-0.715
	c-0.396,0-0.605-0.209-0.605-0.605v-5.609h-1.781c-0.396,0-0.605-0.209-0.605-0.605v-0.44c0-0.396,0.209-0.605,0.605-0.605h5.488
	c0.396,0,0.605,0.209,0.605,0.605V22.18z M32.025,11.842V7.227l4.768,4.615H32.025z"/>
</svg>
