<?xml version="1.0" encoding="utf-8"?>
<!-- Generator: Adobe Illustrator 16.0.0, SVG Export Plug-In . SVG Version: 6.00 Build 0)  -->
<!DOCTYPE svg PUBLIC "-//W3C//DTD SVG 1.1//EN" "http://www.w3.org/Graphics/SVG/1.1/DTD/svg11.dtd">
<svg version="1.1" id="Layer_1" xmlns="http://www.w3.org/2000/svg" xmlns:xlink="http://www.w3.org/1999/xlink" x="0px" y="0px"
	 width="48px" height="48px" viewBox="0 0 48 48" enable-background="new 0 0 48 48" xml:space="preserve">
<title>document-ppt</title>
<desc>Created with Sketch.</desc>
<g id="Mask">
</g>
<g>
	<path fill="#4C7BC1" d="M17.869,23.285h-0.979v2.134h0.945c0.672,0,1.002-0.451,1.002-1.078S18.508,23.285,17.869,23.285z"/>
	<path fill="#4C7BC1" d="M24.381,23.285h-0.979v2.134h0.946c0.67,0,1-0.451,1-1.078S25.018,23.285,24.381,23.285z"/>
	<path fill="#4C7BC1" d="M39.32,10.49L33.277,4.9c-0.279-0.256-0.648-0.4-1.032-0.4H10.147c-1.065,0-1.933,0.845-1.933,1.883v35.234
		c0,1.038,0.867,1.883,1.933,1.883h27.705c1.065,0,1.933-0.845,1.933-1.883v-30.07C39.785,11.146,39.617,10.766,39.32,10.49z
		 M18.232,27.068h-1.342v1.826c0,0.396-0.209,0.605-0.605,0.605H15.57c-0.396,0-0.605-0.209-0.605-0.605V22.24
		c0-0.396,0.209-0.605,0.605-0.605h2.662c1.529,0,2.562,1.122,2.562,2.706S19.762,27.068,18.232,27.068z M24.743,27.068h-1.342
		v1.826c0,0.396-0.209,0.605-0.605,0.605h-0.715c-0.396,0-0.604-0.209-0.604-0.605V22.24c0-0.396,0.209-0.605,0.604-0.605h2.662
		c1.528,0,2.563,1.122,2.563,2.706S26.271,27.068,24.743,27.068z M33.992,22.68c0,0.396-0.209,0.605-0.604,0.605h-1.782v5.609
		c0,0.396-0.209,0.605-0.604,0.605h-0.716c-0.396,0-0.604-0.209-0.604-0.605v-5.609h-1.782c-0.396,0-0.604-0.209-0.604-0.605V22.24
		c0-0.396,0.209-0.605,0.604-0.605h5.489c0.396,0,0.604,0.209,0.604,0.605V22.68z M32.025,12.342V7.727l4.768,4.615H32.025z"/>
</g>
</svg>
