<?xml version="1.0" encoding="UTF-8" standalone="no"?>
<svg width="28px" height="37px" viewBox="0 0 28 37" version="1.1" xmlns="http://www.w3.org/2000/svg" xmlns:xlink="http://www.w3.org/1999/xlink">
    <!-- Generator: Sketch 41.2 (35397) - http://www.bohemiancoding.com/sketch -->
    <title>download</title>
    <desc>Created with Sketch.</desc>
    <defs>
        <rect id="path-1" x="0" y="0" width="48" height="48"></rect>
    </defs>
    <g id="Page-1" stroke="none" stroke-width="1" fill="none" fill-rule="evenodd">
        <g id="Artboard" transform="translate(-911.000000, -233.000000)">
            <g id="download" transform="translate(901.000000, 228.000000)">
                <g id="Shape">
                    <mask id="mask-2" fill="white">
                        <use xlink:href="#path-1"></use>
                    </mask>
                    <g id="Mask"></g>
                    <path d="M29.6142744,19.2272596 L29.6142744,6.2319675 C29.6142744,5.55538298 29.0598395,5 28.3759093,5 L19.6799209,5 C18.9956127,5 18.4415558,5.55157064 18.4415558,6.2319675 L18.4415558,19.2272596 L14.7172669,19.2272596 C14.0295369,19.2272596 13.796909,19.6788892 14.1928899,20.2360026 L23.3109283,33.0643526 C23.7063528,33.6206831 24.348921,33.621466 24.7449019,33.0643526 L33.8629403,20.2360026 C34.2583648,19.6796721 34.0241496,19.2272596 33.3385633,19.2272596 L29.6142744,19.2272596 Z M10,36.990778 C10,36.4435864 10.4398131,36 10.9965348,36 L37.0034652,36 C37.5538362,36 38,36.4509752 38,36.990778 L38,41.009222 C38,41.5564136 37.5601869,42 37.0034652,42 L10.9965348,42 C10.4461638,42 10,41.5490248 10,41.009222 L10,36.990778 Z" id="Combined-Shape" fill="#4C7BC1" mask="url(#mask-2)"></path>
                </g>
            </g>
        </g>
    </g>
</svg>