<?xml version="1.0" encoding="UTF-8" standalone="no"?>
<svg width="42px" height="43px" viewBox="0 0 42 43" version="1.1" xmlns="http://www.w3.org/2000/svg" xmlns:xlink="http://www.w3.org/1999/xlink">
    <!-- Generator: Sketch 41.2 (35397) - http://www.bohemiancoding.com/sketch -->
    <title>driver</title>
    <desc>Created with Sketch.</desc>
    <defs>
        <rect id="path-1" x="0" y="0" width="48" height="48"></rect>
    </defs>
    <g id="Page-1" stroke="none" stroke-width="1" fill="none" fill-rule="evenodd">
        <g id="Artboard" transform="translate(-511.000000, -118.000000)">
            <g id="driver" transform="translate(508.000000, 116.000000)">
                <g id="Combined-Shape">
                    <mask id="mask-2" fill="white">
                        <use xlink:href="#path-1"></use>
                    </mask>
                    <g id="Mask"></g>
                    <path d="M25.7947717,44.9919662 L41.6119198,44.9920364 C41.6119198,44.9920364 43.7973946,45.1731262 44.7707653,43.8082136 C45.3162598,43.0448168 44.9080926,41.5257687 44.5096209,40.6798048 L43.5465815,38.633133 C43.5465815,38.633133 41.2029578,32.8658311 38.2437454,29.5831319 C36.4740672,27.6224351 34.5212858,28.0075416 33.2382929,28.6335331 C32.3850835,29.0496216 31.4384153,30.2596241 30.7277784,30.8814331 C29.7482088,31.7383956 28.0174717,32.7123152 25.1897057,32.7671534 L23.4537235,32.7671534 C20.6242091,32.7123152 18.893472,31.7383956 17.9131078,30.8814331 C17.2016761,30.2594692 16.2281464,29.0858705 15.3671488,28.6831044 C13.9692397,28.0284544 11.8079243,27.5700755 9.99072184,29.582977 C7.03246314,32.8655213 4.43373491,38.5301178 4.43373491,38.5301178 L3.49406021,40.6172211 C3.11037031,41.4690716 2.71952794,42.9957103 3.28059893,43.749038 C4.31897761,45.1435384 6.67642942,44.9918815 6.67642942,44.9918815 L22.2125434,44.9919503 C22.1751146,44.864216 22.1685954,44.7204986 22.1991753,44.567599 L23.2901561,39.1126951 L20.625,35.78125 C20.279822,35.3497775 20.4530363,35 20.9970301,35 L27.0029699,35 C27.5536144,35 27.7250638,35.3436702 27.375,35.78125 L24.7158685,39.1051643 L25.8083555,44.567599 C25.8387698,44.7196705 25.8323495,44.8636277 25.7947717,44.9919662 L25.7947717,44.9919662 Z M23.9648862,27.4497104 C17.8252119,27.4497104 12.8507534,21.6376395 12.8507534,14.4733587 C12.8507534,7.30985241 17.8252119,2 23.9648862,2 C30.1055141,2 35.0841052,7.30985241 35.0841052,14.4733587 C35.0841052,21.6376395 30.1053551,27.4497104 23.9648862,27.4497104 L23.9648862,27.4497104 Z" fill="#4C7BC1" mask="url(#mask-2)"></path>
                </g>
            </g>
        </g>
    </g>
</svg>