<?xml version="1.0" encoding="UTF-8" standalone="no"?>
<svg width="40px" height="39px" viewBox="0 0 40 39" version="1.1" xmlns="http://www.w3.org/2000/svg" xmlns:xlink="http://www.w3.org/1999/xlink">
    <!-- Generator: Sketch 41.2 (35397) - http://www.bohemiancoding.com/sketch -->
    <title>edit</title>
    <desc>Created with Sketch.</desc>
    <defs>
        <rect id="path-1" x="0" y="0" width="48" height="48"></rect>
    </defs>
    <g id="Page-1" stroke="none" stroke-width="1" fill="none" fill-rule="evenodd">
        <g id="Artboard" transform="translate(-68.000000, -117.000000)">
            <g id="edit" transform="translate(61.000000, 116.000000)">
                <g>
                    <mask id="mask-2" fill="white">
                        <use xlink:href="#path-1"></use>
                    </mask>
                    <g id="Mask"></g>
                    <path d="M24.0605744,28.0284205 C23.9323208,27.6073655 23.8600766,27.1541382 23.6514615,26.7724943 C22.8409473,25.2857319 21.6773296,24.1403981 20.1447799,23.3851533 C19.7113151,23.1704032 19.2539042,23.0352796 18.7242491,23.0831359 C18.467336,24.2831627 18.2023055,25.4526257 17.9697444,26.6293276 L17.9697444,26.6373707 C19.2299581,26.8517186 20.2328528,27.8217134 20.4816486,29.0619556 C21.5969682,28.8399667 22.7045763,28.5930443 23.8198959,28.3706533 C24.0366283,28.3308401 24.1165839,28.2274866 24.0605744,28.0284205 M45.9115843,6.73518412 C46.1526687,7.27567875 46.2167955,7.88815889 46.3689953,8.46846674 C46.3292204,8.92973709 46.1684975,9.28725176 45.8397461,9.60535537 C39.1953149,16.1813734 32.5504779,22.7573914 25.9141641,29.3486912 C25.6576568,29.6032545 25.3767976,29.7460191 25.0318116,29.8176024 C22.166804,30.4139964 19.3017964,31.0103904 16.4371946,31.6148275 C15.7630513,31.7575921 15.2577482,31.2565085 15.4022365,30.5889333 C16.0118471,27.7268051 16.6137463,24.8638727 17.2477089,22.0093854 C17.3118357,21.7314972 17.4802701,21.4367185 17.6807678,21.2304136 C19.5826556,19.3221941 21.500778,17.4296586 23.4103772,15.5371231 C28.1366859,10.8540427 32.8638064,6.17056026 37.5819979,1.47943686 C37.9273898,1.12956311 38.3125565,0.954626228 38.7776789,1.01012344 C39.3077398,1.07406589 39.8609351,1.12956311 40.3508152,1.32822705 C42.9426751,2.36980525 44.7885533,4.20684354 45.9115843,6.73518412 M9.25499111,8.09486592 L25.6093588,8.09486592 C24.9112694,8.78657035 24.2212973,9.47827479 23.522802,10.1699792 L21.1156112,12.5631961 L11.5018649,12.5631961 L11.5018649,35.4948068 L34.645152,35.4948068 L34.645152,25.9609481 L39.146611,21.5006609 L39.146611,37.7215321 C39.146611,38.9537312 38.1360049,39.9554961 36.8920258,39.9554961 L9.25499111,39.9554961 C8.0114179,39.9554961 7,38.9537312 7,37.7215321 L7,10.321189 C7,9.08858781 8.0114179,8.09486592 9.25499111,8.09486592" fill="#4C7BC1" mask="url(#mask-2)"></path>
                </g>
            </g>
        </g>
    </g>
</svg>