<?xml version="1.0" encoding="utf-8"?>
<!-- Generator: Adobe Illustrator 16.0.0, SVG Export Plug-In . SVG Version: 6.00 Build 0)  -->
<!DOCTYPE svg PUBLIC "-//W3C//DTD SVG 1.1//EN" "http://www.w3.org/Graphics/SVG/1.1/DTD/svg11.dtd">
<svg version="1.1" id="Layer_1" xmlns="http://www.w3.org/2000/svg" xmlns:xlink="http://www.w3.org/1999/xlink" x="0px" y="0px"
	 width="48px" height="48px" viewBox="0 0 48 48" enable-background="new 0 0 48 48" xml:space="preserve">
<title>engine-power</title>
<desc>Created with Sketch.</desc>
<g id="Page-1">
	<g id="Artboard" transform="translate(-397.000000, -572.000000)">
		<g id="engine-power" transform="translate(396.000000, 564.000000)">
			<g id="Fill-1">
				<g id="Mask">
				</g>
				<defs>
					<filter id="Adobe_OpacityMaskFilter" filterUnits="userSpaceOnUse" x="2.278" y="16" width="45.443" height="33">
						<feColorMatrix  type="matrix" values="1 0 0 0 0  0 1 0 0 0  0 0 1 0 0  0 0 0 1 0"/>
					</filter>
				</defs>
				<mask maskUnits="userSpaceOnUse" x="2.278" y="16" width="45.443" height="33" id="mask-2_1_">
					<g filter="url(#Adobe_OpacityMaskFilter)">
						<rect id="path-1_1_" x="1" y="8" fill="#FFFFFF" width="48" height="48"/>
					</g>
				</mask>
				<path id="Combined-Shape" mask="url(#mask-2_1_)" fill="#4C7BC1" d="M47.12,31.704l-5.101-3.789
					c-0.461-0.343-1.078-0.401-1.598-0.148c-0.517,0.251-0.844,0.769-0.844,1.334v2.318h-1.51v-2.343
					c0-0.824-0.681-1.491-1.521-1.491h-3.031v-5.534c0-0.823-0.682-1.49-1.522-1.49h-4.735V18.98h1.275
					c0.84,0,1.523-0.667,1.523-1.49c0-0.823-0.684-1.49-1.523-1.49h-9.835c-0.842,0-1.522,0.667-1.522,1.49
					c0,0.823,0.681,1.49,1.522,1.49h1.275v1.582h-5.885c-0.841,0-1.523,0.667-1.523,1.49v2.909H9.592
					c-0.841,0-1.522,0.667-1.522,1.49v3.409H5.323v-4.228c0-0.823-0.682-1.49-1.523-1.49c-0.84,0-1.521,0.667-1.521,1.49v15.586
					c0,0.824,0.682,1.491,1.522,1.491c0.84,0,1.523-0.668,1.523-1.491V36.99h2.746v3.495c0,0.822,0.682,1.489,1.522,1.489h3.828
					l5.372,6.475C19.081,48.799,19.515,49,19.973,49h16.574c0.841,0,1.522-0.667,1.522-1.49v-1.969h1.509v1.969
					c0,0.582,0.346,1.111,0.886,1.354C40.667,48.955,40.885,49,41.1,49c0.357,0,0.71-0.123,0.992-0.359l5.1-4.277
					c0.337-0.283,0.53-0.697,0.53-1.132V32.891C47.722,32.424,47.499,31.986,47.12,31.704z M30.941,32.828
					c-0.107-0.243-0.345-0.399-0.607-0.399h-5.002l2.058-5.516c0.077-0.207,0.05-0.44-0.075-0.622
					C27.191,26.109,26.986,26,26.768,26h-4.948c-0.276,0-0.524,0.173-0.622,0.436l-3.137,8.41c-0.078,0.207-0.049,0.439,0.075,0.621
					c0.124,0.183,0.329,0.291,0.547,0.291l5.551-0.033l-2.933,7.912c-0.039,0.104,0.001,0.223,0.095,0.28
					c0.094,0.058,0.216,0.04,0.29-0.043l9.143-10.32C31.004,33.355,31.049,33.071,30.941,32.828z"/>
			</g>
		</g>
	</g>
</g>
</svg>
