<?xml version="1.0" encoding="UTF-8" standalone="no"?>
<svg width="46px" height="33px" viewBox="0 0 46 33" version="1.1" xmlns="http://www.w3.org/2000/svg" xmlns:xlink="http://www.w3.org/1999/xlink">
    <!-- Generator: Sketch 41.2 (35397) - http://www.bohemiancoding.com/sketch -->
    <title>engine</title>
    <desc>Created with Sketch.</desc>
    <defs>
        <rect id="path-1" x="0" y="0" width="48" height="48"></rect>
    </defs>
    <g id="Page-1" stroke="none" stroke-width="1" fill="none" fill-rule="evenodd">
        <g id="Artboard" transform="translate(-61.000000, -236.000000)">
            <g id="engine" transform="translate(60.000000, 228.000000)">
                <g id="Fill-1">
                    <mask id="mask-2" fill="white">
                        <use xlink:href="#path-1"></use>
                    </mask>
                    <g id="Mask"></g>
                    <path d="M46.1200137,23.7036957 L41.0200748,19.9144348 C40.5590427,19.5715217 39.941157,19.513413 39.422221,19.7666522 C38.9054839,20.0177391 38.5778505,20.5349783 38.5778505,21.101 L38.5778505,23.4196087 L37.068685,23.4196087 L37.068685,21.0766087 C37.068685,20.2530435 36.3877647,19.5858696 35.5463261,19.5858696 L32.5155346,19.5858696 L32.5155346,14.051913 C32.5155346,13.2290652 31.8346143,12.5618913 30.9931757,12.5618913 L26.2582512,12.5618913 L26.2582512,10.9800435 L27.5336024,10.9800435 C28.3735751,10.9800435 29.0559612,10.3128696 29.0559612,9.49002174 C29.0559612,8.66717391 28.3735751,8 27.5336024,8 L17.698006,8 C16.8565674,8 16.1756471,8.66717391 16.1756471,9.49002174 C16.1756471,10.3128696 16.8565674,10.9800435 17.698006,10.9800435 L18.9733572,10.9800435 L18.9733572,12.5618913 L13.0876847,12.5618913 C12.2469791,12.5618913 11.5645929,13.2290652 11.5645929,14.051913 L11.5645929,16.9609348 L8.59170525,16.9609348 C7.75026665,16.9609348 7.06934638,17.6281087 7.06934638,18.4509565 L7.06934638,21.86 L4.32294355,21.86 L4.32294355,17.6316957 C4.32294355,16.8088478 3.64129032,16.1416739 2.79985172,16.1416739 C1.95987903,16.1416739 1.27822581,16.8088478 1.27822581,17.6316957 L1.27822581,33.2177391 C1.27822581,34.0420217 1.95987903,34.7084783 2.80058468,34.7084783 C3.64129032,34.7084783 4.32367651,34.0413043 4.32367651,33.2177391 L4.32367651,28.9908696 L7.06934638,28.9908696 L7.06934638,32.4852826 C7.06934638,33.307413 7.75099961,33.974587 8.59170525,33.974587 L12.4199577,33.974587 L17.7918249,40.4490435 C18.0806113,40.798413 18.5152569,41 18.9733572,41 L35.5470591,41 C36.3877647,41 37.0694179,40.3328261 37.0694179,39.5099783 L37.0694179,37.5407391 L38.5778505,37.5407391 L38.5778505,39.5099783 C38.5778505,40.0917826 38.9245408,40.6205 39.4639997,40.8636957 C39.6670298,40.9548043 39.884719,41 40.1002094,41 C40.4564282,41 40.8097151,40.8766087 41.091172,40.6413043 L46.1911108,36.3635 C46.5282726,36.079413 46.7217742,35.6661957 46.7217742,35.2314565 L46.7217742,24.8902609 C46.7217742,24.4239565 46.4989542,23.9856304 46.1200137,23.7036957" fill="#4C7BC1" mask="url(#mask-2)"></path>
                </g>
            </g>
        </g>
    </g>
</svg>