<?xml version="1.0" encoding="utf-8"?>
<!-- Generator: Adobe Illustrator 16.0.0, SVG Export Plug-In . SVG Version: 6.00 Build 0)  -->
<!DOCTYPE svg PUBLIC "-//W3C//DTD SVG 1.1//EN" "http://www.w3.org/Graphics/SVG/1.1/DTD/svg11.dtd">
<svg version="1.1" id="Layer_1" xmlns="http://www.w3.org/2000/svg" xmlns:xlink="http://www.w3.org/1999/xlink" x="0px" y="0px"
	 width="48px" height="48px" viewBox="0 0 48 48" enable-background="new 0 0 48 48" xml:space="preserve">
<title>engine-idle</title>
<desc>Created with Sketch.</desc>
<g id="Page-1">
	<g id="Artboard" transform="translate(-290.000000, -571.000000)">
		<g id="engine-idle" transform="translate(284.000000, 564.000000)">
			<g id="Fill-1">
				<g id="Mask">
				</g>
				<defs>
					<filter id="Adobe_OpacityMaskFilter" filterUnits="userSpaceOnUse" x="10" y="14" width="38.611" height="34.04">
						<feColorMatrix  type="matrix" values="1 0 0 0 0  0 1 0 0 0  0 0 1 0 0  0 0 0 1 0"/>
					</filter>
				</defs>
				<mask maskUnits="userSpaceOnUse" x="10" y="14" width="38.611" height="34.04" id="mask-2_1_">
					<g filter="url(#Adobe_OpacityMaskFilter)">
						<rect id="path-1_1_" x="4" y="7" fill="#FFFFFF" width="48" height="48"/>
					</g>
				</mask>
				<path id="Combined-Shape" mask="url(#mask-2_1_)" fill="#4C7BC1" d="M15,18.991c1.566-1.563,3.39-2.792,5.42-3.65
					c2.103-0.889,4.334-1.34,6.632-1.34c1.691,0,3.361,0.248,4.965,0.736c1.553,0.473,3.03,1.167,4.391,2.062
					c1.342,0.882,2.551,1.949,3.597,3.168c0.651,0.759,1.237,1.579,1.745,2.437c0.146,0.251,0.289,0.507,0.424,0.766l5.442-3.041
					c0.235-0.132,0.528-0.108,0.74,0.059c0.213,0.167,0.304,0.445,0.229,0.705l-3.1,10.963c-0.048,0.17-0.162,0.314-0.316,0.401
					c-0.101,0.056-0.213,0.085-0.326,0.085c-0.062,0-0.123-0.008-0.182-0.025l-10.984-3.093c-0.26-0.073-0.451-0.296-0.482-0.563
					c-0.032-0.269,0.102-0.529,0.337-0.662l4.753-2.655c-0.134-0.262-0.275-0.521-0.427-0.771c-0.329-0.548-0.704-1.076-1.114-1.569
					c-0.773-0.929-1.674-1.743-2.676-2.417c-1.018-0.684-2.123-1.213-3.287-1.573c-1.203-0.374-2.458-0.563-3.729-0.563
					c-1.697,0-3.345,0.333-4.896,0.99c-1.499,0.633-2.846,1.541-4.004,2.697c-1.158,1.155-2.067,2.5-2.702,3.997
					c-0.658,1.549-0.991,3.193-0.991,4.887c0,1.695,0.333,3.338,0.991,4.888c0.635,1.496,1.544,2.841,2.702,3.996
					c1.158,1.156,2.505,2.063,4.004,2.697c1.552,0.656,3.199,0.988,4.896,0.988c1.446,0,2.865-0.242,4.215-0.724
					c1.307-0.465,2.521-1.14,3.611-2.007c1.082-0.858,2.01-1.881,2.758-3.037c0.375-0.58,0.704-1.194,0.979-1.826
					c0.277-0.641,0.503-1.311,0.669-1.988c0.043-0.174,0.153-0.324,0.309-0.415c0.155-0.092,0.341-0.118,0.514-0.071l3.017,0.803
					c0.352,0.095,0.564,0.453,0.477,0.807c-0.197,0.791-0.455,1.574-0.765,2.327c-0.401,0.979-0.899,1.926-1.478,2.814
					c-1.015,1.558-2.27,2.935-3.73,4.089c-1.474,1.168-3.116,2.077-4.881,2.703c-1.824,0.647-3.741,0.976-5.694,0.976
					c-2.297,0-4.529-0.45-6.632-1.34c-2.03-0.858-3.853-2.087-5.42-3.65c-1.567-1.563-2.797-3.384-3.658-5.411
					C10.452,35.541,10,33.314,10,31.02c0-2.293,0.452-4.521,1.343-6.619C12.203,22.375,13.433,20.555,15,18.991L15,18.991z"/>
			</g>
		</g>
	</g>
</g>
</svg>
