<?xml version="1.0" encoding="utf-8"?>
<!-- Generator: Adobe Illustrator 16.0.0, SVG Export Plug-In . SVG Version: 6.00 Build 0)  -->
<!DOCTYPE svg PUBLIC "-//W3C//DTD SVG 1.1//EN" "http://www.w3.org/Graphics/SVG/1.1/DTD/svg11.dtd">
<svg version="1.1" id="Layer_1" xmlns="http://www.w3.org/2000/svg" xmlns:xlink="http://www.w3.org/1999/xlink" x="0px" y="0px"
	 width="48px" height="48px" viewBox="0 0 48 48" enable-background="new 0 0 48 48" xml:space="preserve">
<title>export</title>
<desc>Created with Sketch.</desc>
<g id="Artboard" transform="translate(-901.000000, -343.000000)">
</g>
<g id="Mask">
</g>
<g>
	<path fill="#4C7BC1" d="M32.655,4.36c-0.438-0.455-1.066-0.454-1.502-0.001c-0.224,0.23-0.331,0.493-0.331,0.806v7.053h-6.033
		c-11.462,0-18.579,3.363-21.152,9.996c-0.847,2.217-1.275,5.026-1.272,8.342c0,2.754,1.042,6.572,3.098,11.346
		c0.052,0.129,0.137,0.33,0.259,0.615c0.122,0.289,0.231,0.541,0.33,0.76c0.085,0.189,0.174,0.348,0.264,0.467
		c0.162,0.236,0.26,0.236,0.292,0.236c0.124,0,0.165-0.037,0.194-0.072c0.041-0.051,0.096-0.139,0.096-0.324
		c0-0.137-0.02-0.342-0.057-0.609c-0.047-0.332-0.067-0.555-0.067-0.67c-0.082-1.127-0.124-2.197-0.124-3.148
		c0-1.748,0.149-3.342,0.442-4.736c0.295-1.398,0.713-2.633,1.242-3.668c0.536-1.049,1.239-1.967,2.088-2.73
		c0.837-0.752,1.752-1.377,2.718-1.855c0.96-0.475,2.106-0.854,3.406-1.129c1.267-0.266,2.567-0.453,3.867-0.559
		c1.283-0.104,2.756-0.154,4.375-0.154h6.035v7.053c0,0.312,0.107,0.576,0.329,0.805c0.438,0.451,1.066,0.451,1.503,0l12.65-13.105
		c0.224-0.232,0.328-0.488,0.328-0.805c0-0.312-0.107-0.575-0.329-0.806L32.655,4.36z"/>
</g>
</svg>
