<?xml version="1.0" encoding="UTF-8" standalone="no"?>
<svg width="34px" height="42px" viewBox="0 0 34 42" version="1.1" xmlns="http://www.w3.org/2000/svg" xmlns:xlink="http://www.w3.org/1999/xlink">
    <!-- Generator: Sketch 41.2 (35397) - http://www.bohemiancoding.com/sketch -->
    <title>fail</title>
    <desc>Created with Sketch.</desc>
    <defs>
        <rect id="path-1" x="0" y="0" width="48" height="48"></rect>
    </defs>
    <g id="Page-1" stroke="none" stroke-width="1" fill="none" fill-rule="evenodd">
        <g id="Artboard" transform="translate(-515.000000, -231.000000)">
            <g id="fail" transform="translate(508.000000, 228.000000)">
                <mask id="mask-2" fill="white">
                    <use xlink:href="#path-1"></use>
                </mask>
                <g id="Mask"></g>
                <path d="M32.3975291,11.4453097 L32.3975291,6.47474459 L37.3858469,11.4453097 L32.3975291,11.4453097 Z M33.9517617,32.5788383 C34.6467192,33.2719869 34.6467192,34.392727 33.9517617,35.0858755 L32.1216566,36.9072658 C31.4266991,37.5989141 30.299089,37.5989141 29.602624,36.9072658 L24.0007538,31.3305708 L18.3958685,36.9072658 C17.700911,37.5989141 16.5748084,37.5989141 15.8783434,36.9072658 L14.0482383,35.0858755 C13.3532808,34.392727 13.3517733,33.2719869 14.0482383,32.5788383 L19.6531236,27.0021433 L14.0482383,21.423948 C13.3517733,20.7322998 13.3532808,19.6115596 14.0482383,18.9184111 L15.8783434,17.0985211 C16.5748084,16.4053726 17.700911,16.4038723 18.3958685,17.0985211 L24.0007538,22.6737158 L29.602624,17.0985211 C30.299089,16.4053726 31.4266991,16.4053726 32.1216566,17.0985211 L33.9517617,18.9184111 C34.6467192,19.6115596 34.6467192,20.7322998 33.9517617,21.423948 L28.3468764,27.0021433 L33.9517617,32.5788383 Z M33.7075467,3.43209259 C33.4165992,3.15603344 33.0306792,3 32.6266691,3 L9.50463308,3 C8.38908303,3 7.48156799,3.91069515 7.48156799,5.02843466 L7.48156799,42.974566 C7.48156799,44.0923055 8.38908303,45 9.50463308,45 L38.4953669,45 C39.610917,45 40.518432,44.0923055 40.518432,42.974566 L40.518432,10.5886261 C40.518432,10.1595342 40.3420545,9.74694577 40.0315095,9.45138244 L33.7075467,3.43209259 Z" id="Fill-1" fill="#4C7BC1" mask="url(#mask-2)"></path>
            </g>
        </g>
    </g>
</svg>