<?xml version="1.0" encoding="utf-8"?>
<!-- Generator: Adobe Illustrator 16.0.0, SVG Export Plug-In . SVG Version: 6.00 Build 0)  -->
<!DOCTYPE svg PUBLIC "-//W3C//DTD SVG 1.1//EN" "http://www.w3.org/Graphics/SVG/1.1/DTD/svg11.dtd">
<svg version="1.1" id="Layer_1" xmlns="http://www.w3.org/2000/svg" xmlns:xlink="http://www.w3.org/1999/xlink" x="0px" y="0px"
	 width="48px" height="48px" viewBox="0 0 48 48" enable-background="new 0 0 48 48" xml:space="preserve">
<title>fast-forward</title>
<desc>Created with Sketch.</desc>
<g id="Page-1">
	<g id="Artboard" transform="translate(-567.000000, -349.000000)">
		<g id="fast-forward" transform="translate(564.000000, 340.000000)">
			<g id="Mask">
			</g>
			<defs>
				<filter id="Adobe_OpacityMaskFilter" filterUnits="userSpaceOnUse" x="5" y="18" width="42.508" height="30.986">
					<feColorMatrix  type="matrix" values="1 0 0 0 0  0 1 0 0 0  0 0 1 0 0  0 0 0 1 0"/>
				</filter>
			</defs>
			<mask maskUnits="userSpaceOnUse" x="5" y="18" width="42.508" height="30.986" id="mask-2_1_">
				<g filter="url(#Adobe_OpacityMaskFilter)">
					<rect id="path-1_1_" x="2" y="9" fill="#FFFFFF" width="48" height="48"/>
				</g>
			</mask>
			<path id="Combined-Shape" mask="url(#mask-2_1_)" fill="#4C7BC1" d="M25,31.331V18.774c0-0.289,0.162-0.555,0.418-0.687
				c0.258-0.133,0.566-0.113,0.804,0.054L47.178,32.86c0.207,0.144,0.33,0.381,0.33,0.633c0,0.251-0.123,0.489-0.33,0.633
				L26.222,48.845c-0.132,0.094-0.289,0.142-0.446,0.142c-0.122,0-0.245-0.029-0.358-0.087C25.162,48.766,25,48.5,25,48.211V35.655
				L6.222,48.845c-0.132,0.094-0.289,0.142-0.446,0.142c-0.122,0-0.245-0.029-0.358-0.087C5.162,48.766,5,48.5,5,48.211V18.774
				c0-0.289,0.162-0.555,0.418-0.687c0.258-0.133,0.566-0.113,0.804,0.054L25,31.331L25,31.331z"/>
		</g>
	</g>
</g>
</svg>
