<?xml version="1.0" encoding="UTF-8" standalone="no"?>
<svg width="48px" height="24px" viewBox="0 0 48 24" version="1.1" xmlns="http://www.w3.org/2000/svg" xmlns:xlink="http://www.w3.org/1999/xlink">
    <!-- Generator: Sketch 41.2 (35397) - http://www.bohemiancoding.com/sketch -->
    <title>fatigue</title>
    <desc>Created with Sketch.</desc>
    <defs>
        <rect id="path-1" x="0" y="0" width="48" height="48"></rect>
    </defs>
    <g id="Page-1" stroke="none" stroke-width="1" fill="none" fill-rule="evenodd">
        <g id="Artboard" transform="translate(-228.000000, -184.000000)">
            <g id="fatigue" transform="translate(228.000000, 173.000000)">
                <g id="Combined-Shape">
                    <mask id="mask-2" fill="white">
                        <use xlink:href="#path-1"></use>
                    </mask>
                    <g id="Mask"></g>
                    <path d="M11.8038451,18.6932198 C13.6528598,18.6932198 15.1515551,17.1865131 15.1515551,15.3275066 C15.1515551,13.46899 13.6528598,11.9622833 11.8038451,11.9622833 C9.95483039,11.9622833 8.4556552,13.46899 8.4556552,15.3275066 C8.4556552,17.1865131 9.95483039,18.6932198 11.8038451,18.6932198 Z M45.9355148,17.9862191 L43.9732462,17.9862191 C42.8330284,17.9862191 41.908761,18.9152324 41.908761,20.0613095 L41.908761,23.4309426 L39.4037371,23.4309426 L39.4037371,19.5277148 C39.4037371,18.9230722 38.9430431,18.3546886 38.3527789,18.2547314 L23.9407336,15.8141116 C22.5202603,15.5735285 21.2975016,16.183071 21.2975016,17.189992 L21.2975016,23.4309426 L20.1227318,23.4309426 C20.1875169,23.3006064 20.2273477,23.1545906 20.2273477,22.998285 L20.2273477,17.4790837 C20.2273477,16.6470876 19.5559821,15.972377 18.7286524,15.972377 L17.3340932,15.972377 C16.5062836,15.972377 15.834918,16.6470876 15.834918,17.4790837 L15.834918,19.5585839 L8.98065445,19.5585839 C8.44413785,19.5585839 8.00983774,19.9956514 8.00983774,20.5351259 L8.00983774,22.998285 C8.00983774,23.1545906 8.04966858,23.3006064 8.11397379,23.4309426 L6.09123902,23.4309426 L6.09123902,13.0755803 C6.09123902,11.9290133 5.1669716,11 4.02675385,11 L2.06448517,11 C0.924267418,11 0,11.9290133 0,13.0755803 L0,32.9239297 C0,34.0704967 0.924267418,35 2.06448517,35 L4.02675385,35 C5.1669716,35 6.09123902,34.0704967 6.09123902,32.9239297 L6.09123902,29.5547865 L41.908761,29.5547865 L41.908761,32.9239297 C41.908761,34.0704967 42.8330284,35 43.9732462,35 L45.9355148,35 C47.0757326,35 48,34.0704967 48,32.9239297 L48,20.0613095 C48,18.9152324 47.0757326,17.9862191 45.9355148,17.9862191 Z" fill="#4C7BC1" mask="url(#mask-2)"></path>
                </g>
            </g>
        </g>
    </g>
</svg>