<?xml version="1.0" encoding="UTF-8" standalone="no"?>
<svg width="41px" height="36px" viewBox="0 0 41 36" version="1.1" xmlns="http://www.w3.org/2000/svg" xmlns:xlink="http://www.w3.org/1999/xlink">
    <!-- Generator: Sketch 41.2 (35397) - http://www.bohemiancoding.com/sketch -->
    <title>filter</title>
    <desc>Created with Sketch.</desc>
    <defs>
        <rect id="path-1" x="0" y="0" width="48" height="48"></rect>
    </defs>
    <g id="Page-1" stroke="none" stroke-width="1" fill="none" fill-rule="evenodd">
        <g id="Artboard" transform="translate(-511.000000, -179.000000)">
            <g id="filter" transform="translate(507.000000, 173.000000)">
                <g id="Shape">
                    <mask id="mask-2" fill="white">
                        <use xlink:href="#path-1"></use>
                    </mask>
                    <g id="Mask"></g>
                    <path d="M42.3434125,6 L6.65658747,6 C5.18944276,6 4,7.18607209 4,8.64905917 C4,10.1120462 5.18944276,11.2981183 6.65658747,11.2981183 L7.79555508,11.2981183 L20.4421512,25.5246257 L20.4421512,40.7037348 C20.4421512,40.8940255 20.5412419,41.0707178 20.7039136,41.1703224 C20.8665853,41.269927 21.0693715,41.2781391 21.2395702,41.192133 L27.9451512,37.8017787 C28.3208812,37.6118412 28.5576717,37.2273744 28.5576717,36.8072336 L28.5576717,25.5245374 L41.2044449,11.2981183 L42.3434125,11.2981183 C43.8105572,11.2981183 45,10.1120462 45,8.64905917 C45,7.18607209 43.8105572,6 42.3434125,6 L42.3434125,6 Z" fill="#4C7BC1" mask="url(#mask-2)"></path>
                </g>
            </g>
        </g>
    </g>
</svg>