<?xml version="1.0" encoding="utf-8"?>
<!-- Generator: Adobe Illustrator 16.0.0, SVG Export Plug-In . SVG Version: 6.00 Build 0)  -->
<!DOCTYPE svg PUBLIC "-//W3C//DTD SVG 1.1//EN" "http://www.w3.org/Graphics/SVG/1.1/DTD/svg11.dtd">
<svg version="1.1" id="Layer_1" xmlns="http://www.w3.org/2000/svg" xmlns:xlink="http://www.w3.org/1999/xlink" x="0px" y="0px"
	 width="48px" height="48px" viewBox="0 0 48 48" enable-background="new 0 0 48 48" xml:space="preserve">
<title>flag</title>
<desc>Created with Sketch.</desc>
<g id="Page-1">
	<g id="Artboard" transform="translate(-11.000000, -458.000000)">
		<g id="flag" transform="translate(4.000000, 452.000000)">
			<g>
				<g id="Mask">
				</g>
				<defs>
					<filter id="Adobe_OpacityMaskFilter" filterUnits="userSpaceOnUse" x="13.075" y="12" width="34.799" height="37.949">
						<feColorMatrix  type="matrix" values="1 0 0 0 0  0 1 0 0 0  0 0 1 0 0  0 0 0 1 0"/>
					</filter>
				</defs>
				<mask maskUnits="userSpaceOnUse" x="13.075" y="12" width="34.799" height="37.949" id="mask-2_1_">
					<g filter="url(#Adobe_OpacityMaskFilter)">
						<rect id="path-1_1_" x="6" y="6" fill="#FFFFFF" width="48" height="48"/>
					</g>
				</mask>
				<path id="Combined-Shape" mask="url(#mask-2_1_)" fill="#4C7BC1" d="M16.852,13.887c0-1.042-0.845-1.887-1.888-1.887
					s-1.889,0.845-1.889,1.887v34.174c0,1.042,0.846,1.888,1.889,1.888s1.888-0.846,1.888-1.888V33.123c0,0.001,0,0.001,0,0.001
					L16.852,13.887z M41.942,22.333c-0.329-0.442-0.325-1.036,0.009-1.437c1.785-2.131,3.622-3.879,5.355-5.274
					c1.528-1.229-0.465-2.126-0.911-2.313c-9.097-3.828-18.186,4.182-27.277,1.743V33.96c9.105,2.44,18.21-5.604,27.315-1.728
					c0.445,0.189,0.851,0.143,1.046-0.152c0.196-0.293,0.147-0.797-0.125-1.291C45.551,27.531,43.746,24.771,41.942,22.333z"/>
			</g>
		</g>
	</g>
</g>
</svg>
