<?xml version="1.0" encoding="UTF-8" standalone="no"?>
<svg width="37px" height="37px" viewBox="0 0 37 37" version="1.1" xmlns="http://www.w3.org/2000/svg" xmlns:xlink="http://www.w3.org/1999/xlink">
    <!-- Generator: Sketch 41.2 (35397) - http://www.bohemiancoding.com/sketch -->
    <title>fuel</title>
    <desc>Created with Sketch.</desc>
    <defs>
        <rect id="path-1" x="0" y="0" width="48" height="48"></rect>
    </defs>
    <g id="Page-1" stroke="none" stroke-width="1" fill="none" fill-rule="evenodd">
        <g id="Artboard" transform="translate(-10.000000, -234.000000)">
            <g id="fuel" transform="translate(4.000000, 228.000000)">
                <g id="Fill-1">
                    <mask id="mask-2" fill="white">
                        <use xlink:href="#path-1"></use>
                    </mask>
                    <g id="Mask"></g>
                    <path d="M29.6270813,20.7660063 C29.6270813,21.4333823 29.1252996,21.9739069 28.5054148,21.9739069 L16.9213172,21.9739069 C16.3020573,21.9739069 15.7996506,21.4333823 15.7996506,20.7660063 L15.7996506,12.3325733 C15.7996506,11.6651973 16.3020573,11.1246728 16.9213172,11.1246728 L28.5054148,11.1246728 C29.1252996,11.1246728 29.6270813,11.6651973 29.6270813,12.3325733 L29.6270813,20.7660063 Z M38.9990899,11.19341 C38.1611206,10.4148047 36.8469898,10.4591714 36.0658849,11.2946412 C35.2835303,12.1319856 35.3291468,13.4417422 36.1671161,14.2209725 C37.2356676,15.2157876 38.3517102,16.6336492 38.4560658,17.043573 L38.4560658,20.057388 C38.4560658,20.7478847 38.7991271,21.3558967 39.3202802,21.7320768 L39.3202802,31.1422033 C39.3234047,32.0420361 39.3246544,33.4055328 39.0128374,33.7179747 C38.9465997,33.7842124 38.7697575,33.7935857 38.6697761,33.7935857 C38.0736369,33.7935857 37.5112414,33.7935857 37.5112414,30.8178886 L37.5112414,21.58023 C37.5112414,20.912854 36.969467,20.3729543 36.3008413,20.3729543 L33.4401228,20.3729543 L33.4401228,7.20790056 C33.4401228,6.54052456 32.9383411,6 32.3184562,6 L13.1089006,6 C12.4890158,6 11.987234,6.54052456 11.987234,7.20790056 L11.987234,38.6608063 L7.63304307,38.6608063 C7.1506327,38.6608063 6.75945539,39.0513587 6.75945539,39.5325193 L6.75945539,42.128287 C6.75945539,42.6100725 7.1506327,43 7.63304307,43 L37.7943138,43 C38.2767241,43 38.6679015,42.6100725 38.6679015,42.128287 L38.6679015,39.5325193 C38.6679015,39.0513587 38.2767241,38.6608063 37.7943138,38.6608063 L33.4401228,38.6608063 L33.4401228,22.7881306 L35.0898163,22.7881306 L35.0898163,30.8178886 C35.0898163,32.4313388 35.0898163,36.2087619 38.6697761,36.2087619 C39.5121196,36.2087619 40.2044909,35.944436 40.726269,35.4245326 C41.748579,34.4028474 41.7442048,32.7419061 41.7417053,31.1365794 L41.7417053,21.7320768 C42.2634834,21.3558967 42.6065446,20.7478847 42.6065446,20.057388 L42.6065446,17.043573 C42.6065446,14.7921163 40.0838883,12.2032224 38.9990899,11.19341 L38.9990899,11.19341 Z" fill="#4C7BC1" mask="url(#mask-2)"></path>
                </g>
            </g>
        </g>
    </g>
</svg>