<?xml version="1.0" encoding="UTF-8" standalone="no"?>
<svg width="38px" height="38px" viewBox="0 0 38 38" version="1.1" xmlns="http://www.w3.org/2000/svg" xmlns:xlink="http://www.w3.org/1999/xlink">
    <!-- Generator: Sketch 41.2 (35397) - http://www.bohemiancoding.com/sketch -->
    <title>full-screen</title>
    <desc>Created with Sketch.</desc>
    <defs>
        <rect id="path-1" x="0" y="0" width="48" height="48"></rect>
    </defs>
    <g id="Page-1" stroke="none" stroke-width="1" fill="none" fill-rule="evenodd">
        <g id="Artboard" transform="translate(-793.000000, -10.000000)">
            <g id="full-screen" transform="translate(788.000000, 5.000000)">
                <g id="Symbols">
                    <mask id="mask-2" fill="white">
                        <use xlink:href="#path-1"></use>
                    </mask>
                    <g id="Mask"></g>
                    <path d="M5.608,6.06019231 C5.59955556,5.47388462 6.07948148,4.99288462 6.66637037,5 L18.193037,5.16792308 C19.1148889,5.18357692 19.5708889,6.29642308 18.9164444,6.95246154 L15.708963,10.1657692 L21.0416296,15.5065769 L16.0903704,20.466 L10.7577037,15.1251923 L7.55022222,18.3370769 C6.90281481,18.986 5.78251852,18.5277692 5.76703704,17.6041923 L5.608,6.06019231 Z M40.902963,18.4053846 C41.5588148,19.0614231 42.6706667,18.6046154 42.6875556,17.6810385 L42.855037,6.13703846 C42.8620741,5.54930769 42.3821481,5.06973077 41.7952593,5.07684615 L30.2685926,5.24476923 C29.3481481,5.26042308 28.8907407,6.37326923 29.5451852,7.02930769 L32.7442222,10.2269615 L27.4115556,15.5677692 L32.3642222,20.5271923 L37.6954815,15.1935 L40.902963,18.4053846 Z M30.2615556,42.6926154 L41.7882222,42.8605385 C42.3737037,42.8690769 42.855037,42.3880769 42.8465926,41.7989231 L42.6791111,30.2563462 C42.6636296,29.3341923 41.5517778,28.8745385 40.8959259,29.5305769 L37.6898519,32.7438846 L32.3557778,27.4016538 L27.4031111,32.3610769 L32.7357778,37.7018846 L29.5367407,40.9066538 C28.8822963,41.5626923 29.3382963,42.6769615 30.2615556,42.6926154 Z M18.193037,42.6171923 C19.1148889,42.6015385 19.5708889,41.4886923 18.9164444,40.8326538 L15.708963,37.6278846 L21.0416296,32.2856538 L16.0903704,27.3262308 L10.7577037,32.6670385 L7.55022222,29.4551538 C6.89577778,28.7976923 5.78251852,29.2545 5.76703704,30.1795 L5.59955556,41.7235 C5.59955556,42.3112308 6.07948148,42.7922308 6.66637037,42.7851154 L18.193037,42.6171923 Z" fill="#4C7BC1" mask="url(#mask-2)"></path>
                </g>
            </g>
        </g>
    </g>
</svg>