<?xml version="1.0" encoding="UTF-8" standalone="no"?>
<svg width="38px" height="39px" viewBox="0 0 38 39" version="1.1" xmlns="http://www.w3.org/2000/svg" xmlns:xlink="http://www.w3.org/1999/xlink">
    <!-- Generator: Sketch 41.2 (35397) - http://www.bohemiancoding.com/sketch -->
    <title>grid</title>
    <desc>Created with Sketch.</desc>
    <defs>
        <rect id="path-1" x="0" y="0" width="48" height="48"></rect>
    </defs>
    <g id="Page-1" stroke="none" stroke-width="1" fill="none" fill-rule="evenodd">
        <g id="Artboard" transform="translate(-65.000000, -10.000000)">
            <g id="grid" transform="translate(60.000000, 5.000000)">
                <g id="Shape">
                    <mask id="mask-2" fill="white">
                        <use xlink:href="#path-1"></use>
                    </mask>
                    <g id="Mask"></g>
                    <path d="M19.9098805,26.8170822 L7.1967518,26.8170822 C6.14312491,26.8170822 5.28973478,27.6874613 5.28973478,28.7598927 L5.28973478,41.5066721 C5.28973478,42.5800749 6.14312491,43.4494826 7.1967518,43.4494826 L19.9098805,43.4494826 C20.9625539,43.4494826 21.8168975,42.5800749 21.8168975,41.5066721 L21.8168975,28.7598927 C21.8168975,27.6874613 20.9625539,26.8170822 19.9098805,26.8170822 M40.5695491,26.8170822 L27.8564204,26.8170822 C26.8027935,26.8170822 25.9494034,27.6874613 25.9494034,28.7598927 L25.9494034,41.5066721 C25.9494034,42.5800749 26.8027935,43.4494826 27.8564204,43.4494826 L40.5695491,43.4494826 C41.6222224,43.4494826 42.4765661,42.5800749 42.4765661,41.5066721 L42.4765661,28.7598927 C42.4765661,27.6874613 41.6222224,26.8170822 40.5695491,26.8170822 M19.9098805,5.56467865 L7.1967518,5.56467865 C6.14312491,5.56467865 5.28973478,6.43505769 5.28973478,7.50748911 L5.28973478,20.2542686 C5.28973478,21.3276713 6.14312491,22.197079 7.1967518,22.197079 L19.9098805,22.197079 C20.9625539,22.197079 21.8168975,21.3276713 21.8168975,20.2542686 L21.8168975,7.50748911 C21.8168975,6.43505769 20.9625539,5.56467865 19.9098805,5.56467865 M40.5695491,5.56467865 L27.8564204,5.56467865 C26.8027935,5.56467865 25.9494034,6.43505769 25.9494034,7.50748911 L25.9494034,20.2542686 C25.9494034,21.3276713 26.8027935,22.197079 27.8564204,22.197079 L40.5695491,22.197079 C41.6222224,22.197079 42.4765661,21.3276713 42.4765661,20.2542686 L42.4765661,7.50748911 C42.4765661,6.43505769 41.6222224,5.56467865 40.5695491,5.56467865" fill="#4C7BC1" mask="url(#mask-2)"></path>
                </g>
            </g>
        </g>
    </g>
</svg>