<?xml version="1.0" encoding="UTF-8" standalone="no"?>
<svg width="20px" height="39px" viewBox="0 0 20 39" version="1.1" xmlns="http://www.w3.org/2000/svg" xmlns:xlink="http://www.w3.org/1999/xlink">
    <!-- Generator: Sketch 41.2 (35397) - http://www.bohemiancoding.com/sketch -->
    <title>grip</title>
    <desc>Created with Sketch.</desc>
    <defs>
        <rect id="path-1" x="0" y="0" width="48" height="48"></rect>
    </defs>
    <g id="Page-1" stroke="none" stroke-width="1" fill="none" fill-rule="evenodd">
        <g id="Artboard" transform="translate(-634.000000, -178.000000)">
            <g id="grip" transform="translate(620.000000, 173.000000)">
                <g id="Combined-Shape">
                    <mask id="mask-2" fill="white">
                        <use xlink:href="#path-1"></use>
                    </mask>
                    <g id="Mask"></g>
                    <path d="M14,7.99550699 C14,6.34113416 15.3490995,5 17.0017901,5 L17.6648765,5 C19.3227194,5 20.6666667,6.34246828 20.6666667,7.99550699 L20.6666667,41.004493 C20.6666667,42.6588658 19.3175672,44 17.6648765,44 L17.0017901,44 C15.3439472,44 14,42.6575317 14,41.004493 L14,7.99550699 Z M27.3333333,7.99550699 C27.3333333,6.34113416 28.6824328,5 30.3351235,5 L30.9982099,5 C32.6560528,5 34,6.34246828 34,7.99550699 L34,41.004493 C34,42.6588658 32.6509005,44 30.9982099,44 L30.3351235,44 C28.6772806,44 27.3333333,42.6575317 27.3333333,41.004493 L27.3333333,7.99550699 Z" fill="#4C7BC1" mask="url(#mask-2)"></path>
                </g>
            </g>
        </g>
    </g>
</svg>