<?xml version="1.0" encoding="UTF-8" standalone="no"?>
<svg width="38px" height="21px" viewBox="0 0 38 21" version="1.1" xmlns="http://www.w3.org/2000/svg" xmlns:xlink="http://www.w3.org/1999/xlink">
    <!-- Generator: Sketch 41.2 (35397) - http://www.bohemiancoding.com/sketch -->
    <title>grip-narrow</title>
    <desc>Created with Sketch.</desc>
    <defs>
        <rect id="path-1" x="0" y="0" width="48" height="48"></rect>
    </defs>
    <g id="Page-1" stroke="none" stroke-width="1" fill="none" fill-rule="evenodd">
        <g id="Artboard" transform="translate(-681.000000, -187.000000)">
            <g id="grip-narrow" transform="translate(676.000000, 173.000000)">
                <g id="Combined-Shape">
                    <mask id="mask-2" fill="white">
                        <use xlink:href="#path-1"></use>
                    </mask>
                    <g id="Mask"></g>
                    <path d="M20.6218827,16.9929091 C20.6218827,15.339971 21.9552237,14 23.612364,14 L25.0894016,14 C26.7409988,14 28.0798829,15.3524868 28.0798829,16.9929091 L28.0798829,31.1436914 C28.0798829,32.7966295 26.7465419,34.1366005 25.0894016,34.1366005 L23.612364,34.1366005 C21.9607668,34.1366005 20.6218827,32.7841137 20.6218827,31.1436914 L20.6218827,16.9929091 Z M5.70588235,16.9929091 C5.70588235,15.339971 7.03922332,14 8.69636367,14 L10.1734012,14 C11.8249984,14 13.1638825,15.3524868 13.1638825,16.9929091 L13.1638825,31.1436914 C13.1638825,32.7966295 11.8305416,34.1366005 10.1734012,34.1366005 L8.69636367,34.1366005 C7.04476645,34.1366005 5.70588235,32.7841137 5.70588235,31.1436914 L5.70588235,16.9929091 Z M35.5378831,16.9929091 C35.5378831,15.339971 36.8712241,14 38.5283644,14 L40.0054019,14 C41.6569992,14 42.9958833,15.3524868 42.9958833,16.9929091 L42.9958833,31.1436914 C42.9958833,32.7966295 41.6625423,34.1366005 40.0054019,34.1366005 L38.5283644,34.1366005 C36.8767672,34.1366005 35.5378831,32.7841137 35.5378831,31.1436914 L35.5378831,16.9929091 Z" fill="#4C7BC1" mask="url(#mask-2)"></path>
                </g>
            </g>
        </g>
    </g>
</svg>