<?xml version="1.0" encoding="UTF-8" standalone="no"?>
<svg width="43px" height="38px" viewBox="0 0 43 38" version="1.1" xmlns="http://www.w3.org/2000/svg" xmlns:xlink="http://www.w3.org/1999/xlink">
    <!-- Generator: Sketch 41.2 (35397) - http://www.bohemiancoding.com/sketch -->
    <title>history</title>
    <desc>Created with Sketch.</desc>
    <defs>
        <rect id="path-1" x="0" y="0" width="48" height="48"></rect>
    </defs>
    <g id="Page-1" stroke="none" stroke-width="1" fill="none" fill-rule="evenodd">
        <g id="Artboard" transform="translate(-172.000000, -10.000000)">
            <g id="history" transform="translate(172.000000, 5.000000)">
                <g id="Shape">
                    <mask id="mask-2" fill="white">
                        <use xlink:href="#path-1"></use>
                    </mask>
                    <g id="Mask"></g>
                    <path d="M37.0026599,10.5497683 C35.2779923,8.82837619 33.2701337,7.47585383 31.035526,6.53090069 C28.720918,5.55214674 26.2639783,5.05542175 23.7344004,5.05542175 C21.8732907,5.05542175 20.0342669,5.32827759 18.2683722,5.86615138 C16.5589194,6.38687983 14.9324116,7.15058225 13.4340023,8.1366842 C11.9581698,9.10809016 10.6256506,10.2818111 9.47472696,11.625026 C8.75865128,12.460249 8.11275983,13.3630736 7.55423058,14.3080267 C7.39177611,14.5838218 7.23619286,14.8654952 7.08698996,15.1505977 L1.09580687,11.8028477 C0.836174212,11.6578471 0.514700884,11.6833202 0.280589774,11.8670202 C0.0464786628,12.0512102 -0.0531535288,12.357377 0.0273375029,12.6434592 L3.43986278,24.7123086 C3.49286906,24.8999276 3.6185136,25.0586445 3.78882085,25.1541685 C3.89974142,25.2163816 4.02342276,25.2477331 4.1480857,25.2477331 C4.21532516,25.2477331 4.28256462,25.2389155 4.34833168,25.2203005 L16.4406368,21.8147462 C16.7272634,21.7339182 16.9368346,21.4889848 16.9716813,21.194085 C17.0070188,20.8986952 16.8602699,20.6116333 16.6006373,20.4661428 L11.3682294,17.5426175 C11.5154691,17.2540859 11.672034,16.9699632 11.837924,16.6931884 C12.2006245,16.0901623 12.6133864,15.5091802 13.0649215,14.9664078 C13.9164577,13.9430759 14.9073808,13.0475993 16.0106969,12.3059409 C17.1302094,11.5535055 18.3478816,10.9705639 19.628867,10.5737718 C20.9540242,10.1627735 22.3351325,9.95409019 23.7344004,9.95409019 C25.6028721,9.95409019 27.4168651,10.3210004 29.1253363,11.0435541 C30.7754025,11.7411244 32.258597,12.739963 33.5336927,14.012637 C34.8082977,15.2843313 35.8090368,16.7647089 36.5084253,18.412621 C37.2323538,20.1178475 37.5994715,21.9279055 37.5994715,23.7928286 C37.5994715,25.6582415 37.2323538,27.4682995 36.5084253,29.1740158 C35.8090368,30.8214381 34.8082977,32.3018157 33.5336927,33.57351 C32.2590878,34.846184 30.7758933,35.8450225 29.1253363,36.5430828 C27.4168651,37.2651465 25.6028721,37.6315669 23.7344004,37.6315669 C22.1427393,37.6315669 20.581017,37.3636097 19.0934053,36.8340637 C17.6553643,36.3226427 16.3179371,35.5795147 15.1174428,34.6252541 C13.9277461,33.6798111 12.9063934,32.5545869 12.0823419,31.2809332 C11.66958,30.6426366 11.3068795,29.9666204 11.005529,29.2714993 C10.6997612,28.5651113 10.4514169,27.8288415 10.2683489,27.0822844 C10.2212322,26.8907465 10.0990233,26.7256614 9.92871604,26.6252386 C9.757918,26.5238362 9.55423641,26.4954239 9.36331561,26.5473498 L6.04256973,27.4310696 C5.65434774,27.5344315 5.42121826,27.9297541 5.51790564,28.3187083 C5.73532958,29.1892017 6.01852058,30.0513674 6.35913506,30.8807119 C6.80183574,31.9579291 7.34956742,33.0003658 7.98662447,33.9791197 C9.10319215,35.6941436 10.4847912,37.2088118 12.0921579,38.480996 C13.7152301,39.7659168 15.5233335,40.7672046 17.4654251,41.4559574 C19.4747561,42.1687136 21.5842101,42.5302353 23.7344004,42.5302353 C26.2639783,42.5302353 28.720918,42.0340002 31.035526,41.0552463 C33.2701337,40.1098033 35.2775015,38.7577708 37.0026599,37.0363787 C38.7278183,35.3144967 40.0819327,33.3109413 41.0291747,31.0800877 C42.009791,28.7703656 42.5074612,26.3180921 42.5074612,23.7928286 C42.5074612,21.2680548 42.009791,18.8162713 41.0291747,16.5055694 C40.0824234,14.2756955 38.7283091,12.2716503 37.0026599,10.5497683 L37.0026599,10.5497683 Z M21.893757,12.1587359 C21.4868846,12.1587359 21.1575586,12.4874366 21.1575586,12.8935362 L21.1575586,25.4551917 C21.1575586,25.7055136 21.2856571,25.9391801 21.4971914,26.0738935 L28.9858022,30.8549939 C29.1050664,30.9309233 29.2434716,30.9706025 29.3828586,30.9706025 C29.435374,30.9706025 29.4888711,30.965214 29.5408958,30.9534571 C29.7318166,30.9118185 29.8981975,30.7962099 30.0027377,30.6321045 L31.5894907,28.1558276 C31.8083871,27.8139006 31.7082641,27.3593041 31.3661772,27.1408235 L25.5747493,23.4437984 L25.5747493,12.8935362 C25.5747493,12.4874366 25.2449324,12.1587359 24.8385508,12.1587359 L21.893757,12.1587359 L21.893757,12.1587359 Z" fill="#4C7BC1" mask="url(#mask-2)"></path>
                </g>
            </g>
        </g>
    </g>
</svg>