<?xml version="1.0" encoding="UTF-8" standalone="no"?>
<svg width="47px" height="43px" viewBox="0 0 47 43" version="1.1" xmlns="http://www.w3.org/2000/svg" xmlns:xlink="http://www.w3.org/1999/xlink">
    <!-- Generator: Sketch 41.2 (35397) - http://www.bohemiancoding.com/sketch -->
    <title>iap</title>
    <desc>Created with Sketch.</desc>
    <defs>
        <rect id="path-1" x="0" y="0" width="48" height="48"></rect>
    </defs>
    <g id="Page-1" stroke="none" stroke-width="1" fill="none" fill-rule="evenodd">
        <g id="Artboard" transform="translate(-173.000000, -231.000000)">
            <g id="iap" transform="translate(172.000000, 228.000000)">
                <g id="Fill-1">
                    <mask id="mask-2" fill="white">
                        <use xlink:href="#path-1"></use>
                    </mask>
                    <g id="Mask"></g>
                    <path d="M35.6783692,36.1767241 L39.9928223,22.4827069 L44.3058067,36.1767241 L35.6783692,36.1767241 Z M12.5984317,36.1767241 L3.97172858,36.1767241 L8.28544733,22.4827069 L12.5984317,36.1767241 Z M47.1206661,36.7987414 C47.0986348,36.7587069 47.065588,36.7283103 47.0391505,36.6912414 L41.1634161,18.0366552 C41.1590098,18.0247931 41.1501973,18.0151552 41.1457911,18.0025517 C41.1090723,17.8950517 41.0591348,17.7927414 40.9937755,17.7015517 C40.984963,17.6882069 40.973213,17.6763448 40.9629317,17.663 C40.8990411,17.5807069 40.826338,17.5073103 40.744088,17.4435517 C40.7301348,17.432431 40.7176505,17.420569 40.7036973,17.4101897 C40.6126348,17.3456897 40.5127598,17.2952759 40.4062755,17.2574655 C40.3842442,17.2500517 40.3629473,17.2433793 40.3409161,17.2367069 C40.2292911,17.2033448 40.1139942,17.1811034 39.9928223,17.1811034 L27.4834786,17.1811034 C26.9804317,15.819931 25.6776505,14.8413103 24.1391348,14.8413103 C22.5998848,14.8413103 21.2971036,15.819931 20.7940567,17.1811034 L8.28544733,17.1811034 C8.16354108,17.1811034 8.04897858,17.2033448 7.93808795,17.2367069 C7.91532233,17.2433793 7.89329108,17.2493103 7.87125983,17.2574655 C7.76477545,17.2952759 7.66490045,17.3456897 7.57457233,17.4101897 C7.5606192,17.420569 7.54813483,17.432431 7.5341817,17.4435517 C7.4519317,17.5073103 7.3784942,17.5807069 7.31533795,17.663 C7.3050567,17.6763448 7.29404108,17.6882069 7.28375983,17.7015517 C7.21913483,17.7927414 7.1699317,17.8950517 7.13247858,18.0025517 C7.12807233,18.0151552 7.11852545,18.0247931 7.11485358,18.0366552 L1.23838483,36.6927241 C1.21121295,36.7290517 1.17963483,36.7594483 1.15760358,36.7987414 C0.940228575,37.1835172 0.9483067,37.6550345 1.17816608,38.0323966 C1.2567442,38.1606552 3.16097858,41.1906724 8.28544733,41.1906724 C13.4099161,41.1906724 15.3141505,38.1606552 15.3927286,38.0323966 C15.6218536,37.6550345 15.6299317,37.1835172 15.4125567,36.7987414 C15.3905255,36.7594483 15.3589473,36.7290517 15.3325098,36.6927241 L9.95688483,19.6246897 L20.7940567,19.6246897 C21.1076348,20.4720862 21.7333223,21.1623103 22.5345255,21.5678448 L19.9128067,44.6262241 C19.8738848,44.9724483 19.9847755,45.3186724 20.216838,45.5781552 C20.4503692,45.8376379 20.7830411,45.9851724 21.1318692,45.9851724 L27.125838,45.9851724 C27.4746661,45.9851724 27.807338,45.8376379 28.0401348,45.5781552 C28.2729317,45.3186724 28.383088,44.9724483 28.3441661,44.6262241 L25.7246505,21.5782241 C26.5354005,21.1749138 27.166963,20.4795 27.4834786,19.6246897 L38.3221192,19.6246897 L32.9442911,36.6927241 C32.918588,36.7290517 32.8870098,36.7594483 32.8642442,36.7987414 C32.6468692,37.1835172 32.6549473,37.6550345 32.8848067,38.0323966 C32.9633848,38.1606552 34.8676192,41.1906724 39.9928223,41.1906724 C45.1172911,41.1906724 47.0215255,38.1613966 47.100838,38.0323966 C47.329963,37.6550345 47.3380411,37.1835172 47.1206661,36.7987414 L47.1206661,36.7987414 Z M15.1885723,8.99924138 C17.614213,6.70615517 20.7933223,5.44358621 24.1391348,5.44358621 C27.5121192,5.44358621 30.7088536,6.72394828 33.141838,9.04891379 C33.3790411,9.27577586 33.6852755,9.38846552 33.9907755,9.38846552 C34.3131661,9.38846552 34.6348223,9.26243103 34.8764317,9.01258621 C35.344963,8.52624138 35.3288067,7.75224138 34.839713,7.28517241 C31.9484786,4.5227931 28.148088,3 24.1391348,3 C20.1624942,3 16.3841348,4.50055172 13.5002442,7.22586207 C13.0089473,7.68922414 12.9883848,8.46248276 13.454713,8.95253448 C13.9210411,9.44258621 14.6965411,9.46334483 15.1885723,8.99924138 L15.1885723,8.99924138 Z M18.001963,12.2991207 C17.5224161,12.776569 17.5231505,13.5498276 18.0034317,14.0265345 C18.242838,14.2645172 18.5564161,14.3838793 18.8692598,14.3838793 C19.1835723,14.3838793 19.4978848,14.2637759 19.7380255,14.0250517 C20.9130255,12.8521897 22.4750411,12.2071897 24.1391348,12.2071897 C25.7936817,12.2071897 27.3505567,12.8462586 28.5233536,14.0087414 C29.0043692,14.4839655 29.781338,14.4817414 30.2579473,14.0035517 C30.7360255,13.5246207 30.7338223,12.7513621 30.2528067,12.2753966 C28.6173536,10.6554828 26.4465411,9.76360345 24.1391348,9.76360345 C21.8199786,9.76360345 19.6403536,10.6636379 18.001963,12.2991207 L18.001963,12.2991207 Z" fill="#4C7BC1" mask="url(#mask-2)"></path>
                </g>
            </g>
        </g>
    </g>
</svg>