<?xml version="1.0" encoding="UTF-8" standalone="no"?>
<svg width="43px" height="32px" viewBox="0 0 43 32" version="1.1" xmlns="http://www.w3.org/2000/svg" xmlns:xlink="http://www.w3.org/1999/xlink">
    <!-- Generator: Sketch 41.2 (35397) - http://www.bohemiancoding.com/sketch -->
    <title>incidents</title>
    <desc>Created with Sketch.</desc>
    <defs>
        <rect id="path-1" x="0" y="0" width="48" height="48"></rect>
    </defs>
    <g id="Page-1" stroke="none" stroke-width="1" fill="none" fill-rule="evenodd">
        <g id="Artboard" transform="translate(-120.000000, -181.000000)">
            <g id="incidents" transform="translate(117.000000, 173.000000)">
                <g id="Combined-Shape">
                    <mask id="mask-2" fill="white">
                        <use xlink:href="#path-1"></use>
                    </mask>
                    <g id="Mask"></g>
                    <path d="M45.8333333,38.4737679 L45.8333333,20.0063593 L3.16666667,20.0063593 L3.16666667,38.4737679 C3.16666667,39.318283 3.87955112,40 4.76267664,40 L44.2373234,40 C45.1204489,40 45.8333333,39.318283 45.8333333,38.4737679 L45.8333333,38.4737679 Z M31.3947631,30.6187599 C31.3947631,31.4633259 30.6819318,32.1449921 29.7987531,32.1449921 L26.734414,32.1449921 L26.734414,35.1160572 C26.734414,35.9605723 26.0215295,36.6422893 25.138404,36.6422893 L23.861596,36.6422893 C22.9784705,36.6422893 22.265586,35.9605723 22.265586,35.1160572 L22.265586,32.1449921 L19.2012469,32.1449921 C18.3180682,32.1449921 17.6052369,31.4633259 17.6052369,30.6187599 L17.6052369,29.3977742 C17.6052369,28.5532591 18.3180682,27.8715421 19.2012469,27.8715421 L22.265586,27.8715421 L22.265586,24.9411765 C22.265586,24.0966614 22.9784705,23.4149444 23.861596,23.4149444 L25.138404,23.4149444 C26.0215295,23.4149444 26.734414,24.0966614 26.734414,24.9411765 L26.734414,27.8715421 L29.7987531,27.8715421 C30.6819318,27.8715421 31.3947631,28.5532591 31.3947631,29.3977742 L31.3947631,30.6187599 Z M45.8333333,14.9697933 C45.8333333,14.1252782 45.1204489,13.4435612 44.2373234,13.4435612 L35.6082294,13.4435612 L35.6082294,9.52623211 C35.6082294,8.68171701 34.8953982,8 34.0122195,8 L14.9877805,8 C14.104655,8 13.3917706,8.68171701 13.3917706,9.52623211 L13.3917706,13.4435612 L4.76267664,13.4435612 C3.87955112,13.4435612 3.16666667,14.1252782 3.16666667,14.9697933 L3.16666667,18.2257552 L45.8333333,18.2257552 L45.8333333,14.9697933 Z M32.4162095,13.4435612 L16.5837905,13.4435612 L16.5837905,11.0524642 L32.4108894,11.0524642 L32.4108894,13.4435612 L32.4162095,13.4435612 Z" fill="#4C7BC1" mask="url(#mask-2)"></path>
                </g>
            </g>
        </g>
    </g>
</svg>