<?xml version="1.0" encoding="UTF-8" standalone="no"?>
<svg width="18px" height="40px" viewBox="0 0 18 40" version="1.1" xmlns="http://www.w3.org/2000/svg" xmlns:xlink="http://www.w3.org/1999/xlink">
    <!-- Generator: Sketch 41.2 (35397) - http://www.bohemiancoding.com/sketch -->
    <title>info</title>
    <desc>Created with Sketch.</desc>
    <defs>
        <rect id="path-1" x="0" y="0" width="48" height="48"></rect>
    </defs>
    <g id="Page-1" stroke="none" stroke-width="1" fill="none" fill-rule="evenodd">
        <g id="Artboard" transform="translate(-467.000000, -177.000000)">
            <g id="info" transform="translate(452.000000, 173.000000)">
                <g id="Shape">
                    <mask id="mask-2" fill="white">
                        <use xlink:href="#path-1"></use>
                    </mask>
                    <g id="Mask"></g>
                    <path d="M32.2815487,39.6833398 L31.718181,41.96804 C30.0280778,42.6298251 28.6780189,43.1335132 27.6727021,43.4798211 C26.6663011,43.8272045 25.4969246,44 24.1645726,44 C22.1185251,44 20.5270746,43.5027649 19.3920277,42.5151062 C18.2569809,41.5235039 17.6892768,40.2669726 17.6892768,38.7426441 C17.6892768,38.1525583 17.7304724,37.5456232 17.8161159,36.9272162 C17.9024821,36.3080922 18.0398007,35.6108158 18.2277104,34.8314438 L20.3398876,27.4148615 C20.5277973,26.7046793 20.6875205,26.0317807 20.8154437,25.3954489 C20.9451736,24.7630605 21.0076898,24.1812201 21.0076898,23.6574563 C21.0076898,22.7103077 20.8100232,22.0478056 20.4164969,21.6753274 C20.0229707,21.3039246 19.2720546,21.1153553 18.1572442,21.1153553 C17.611222,21.1153553 17.0500225,21.2021115 16.477982,21.3698881 C15.903412,21.5383816 15.4123172,21.7011391 15,21.8524248 L15.5648132,19.565932 C16.948479,19.0070355 18.2710741,18.5284422 19.5362123,18.1312278 C20.8013505,17.7329378 21.9967452,17.5336136 23.1274557,17.5336136 C25.1594099,17.5336136 26.7273718,18.0208107 27.8284503,18.9952051 C28.9295288,19.9703165 29.4798874,21.2343763 29.4798874,22.792045 C29.4798874,23.1143336 29.443751,23.6821926 29.3660575,24.4938294 C29.2901709,25.3072587 29.1488773,26.0525736 28.9428993,26.7304911 L26.8397562,34.1173181 C26.6673852,34.7106303 26.5123597,35.3889063 26.3775706,36.1521461 C26.2384452,36.9103668 26.1719541,37.4896977 26.1719541,37.8783083 C26.1719541,38.8591556 26.3923866,39.5288276 26.8343358,39.884815 C27.2795372,40.2408023 28.0463533,40.4178997 29.1355068,40.4178997 C29.646838,40.4178997 30.2286353,40.327917 30.8751169,40.1511781 C31.5197917,39.9744392 31.9899273,39.8192101 32.2815487,39.6833398 L32.2815487,39.6833398 Z M32.8149231,8.6712136 C32.8149231,9.9582172 32.3259966,11.0573685 31.3434457,11.9611389 C30.3634244,12.8681359 29.1824842,13.3219929 27.8009866,13.3219929 C26.4151526,13.3219929 25.2313215,12.8681359 24.2400979,11.9611389 C23.2506811,11.05701 22.7548886,9.9582172 22.7548886,8.6712136 C22.7548886,7.38671949 23.2506811,6.28577574 24.2400979,5.37053335 C25.2295147,4.45672495 26.415514,4 27.8009866,4 C29.1821228,4 30.3634244,4.45780044 31.3434457,5.37053335 C32.3267193,6.28577574 32.8149231,7.38707798 32.8149231,8.6712136 L32.8149231,8.6712136 Z" fill="#4C7BC1" mask="url(#mask-2)"></path>
                </g>
            </g>
        </g>
    </g>
</svg>