<?xml version="1.0" encoding="UTF-8" standalone="no"?>
<svg width="38px" height="38px" viewBox="0 0 38 38" version="1.1" xmlns="http://www.w3.org/2000/svg" xmlns:xlink="http://www.w3.org/1999/xlink">
    <!-- Generator: Sketch 41.2 (35397) - http://www.bohemiancoding.com/sketch -->
    <title>information</title>
    <desc>Created with Sketch.</desc>
    <defs>
        <rect id="path-1" x="0" y="0" width="48" height="48"></rect>
    </defs>
    <g id="Page-1" stroke="none" stroke-width="1" fill="none" fill-rule="evenodd">
        <g id="Artboard" transform="translate(-569.000000, -121.000000)">
            <g id="information" transform="translate(564.000000, 116.000000)">
                <g>
                    <mask id="mask-2" fill="white">
                        <use xlink:href="#path-1"></use>
                    </mask>
                    <g id="Mask"></g>
                    <path d="M23.7023333,5 C13.3758333,5 5,13.3758333 5,23.7023333 C5,34.0288333 13.3758333,42.4046667 23.7023333,42.4046667 C34.0288333,42.4046667 42.4046667,34.0288333 42.4046667,23.7023333 C42.4046667,13.3758333 34.032,5 23.7023333,5 L23.7023333,5 L23.7023333,5 Z M27.5973333,33.9845 C26.6346667,34.3645 25.8683333,34.6526667 25.292,34.8521667 C24.7188333,35.0485 24.0506667,35.1498333 23.2938333,35.1498333 C22.1285,35.1498333 21.2228333,34.8648333 20.5768333,34.2948333 C19.9308333,33.728 19.6078333,33.0091667 19.6078333,32.1288333 C19.6078333,31.79 19.6331667,31.4416667 19.6806667,31.087 C19.7281667,30.7323333 19.8073333,30.3365 19.9118333,29.8836667 L21.1151667,25.6276667 C21.2228333,25.2255 21.3146667,24.8391667 21.3875,24.475 C21.4603333,24.1108333 21.4951667,23.7783333 21.4951667,23.4743333 C21.4951667,22.9328333 21.3811667,22.5528333 21.1595,22.3406667 C20.9315,22.1253333 20.5071667,22.0208333 19.8706667,22.0208333 C19.5603333,22.0208333 19.2405,22.0683333 18.9143333,22.1633333 C18.5913333,22.2646667 18.3095,22.3533333 18.0751667,22.442 L18.395,21.131 C19.1835,20.8111667 19.9371667,20.5356667 20.6591667,20.3076667 C21.378,20.0765 22.062,19.9625 22.7016667,19.9625 C23.8606667,19.9625 24.7505,20.2443333 25.3806667,20.8016667 C26.0045,21.3621667 26.318,22.0873333 26.318,22.9803333 C26.318,23.164 26.299,23.4901667 26.2546667,23.9556667 C26.2135,24.4211667 26.1343333,24.8486667 26.0171667,25.2413333 L24.817,29.4846667 C24.7188333,29.8235 24.6333333,30.213 24.551,30.65 C24.475,31.0838333 24.437,31.4163333 24.437,31.638 C24.437,32.2016667 24.5636667,32.588 24.8138333,32.7906667 C25.064,32.9933333 25.5041667,33.0978333 26.1248333,33.0978333 C26.4193333,33.0978333 26.7455,33.0471667 27.116,32.9458333 C27.4801667,32.8445 27.7461667,32.7526667 27.914,32.6766667 L27.5973333,33.9845 L27.5973333,33.9845 L27.5973333,33.9845 Z M27.382,16.761 C26.8278333,17.2803333 26.1533333,17.54 25.3648333,17.54 C24.5795,17.54 23.9018333,17.2803333 23.3381667,16.761 C22.7776667,16.2416667 22.4926667,15.6115 22.4926667,14.8736667 C22.4926667,14.139 22.7776667,13.5025 23.3381667,12.98 C23.9018333,12.4543333 24.5795,12.1915 25.3648333,12.1915 C26.1533333,12.1915 26.8246667,12.4543333 27.382,12.98 C27.9425,13.5056667 28.2243333,14.139 28.2243333,14.8736667 C28.2243333,15.6146667 27.9425,16.2416667 27.382,16.761 L27.382,16.761 L27.382,16.761 Z" fill="#4C7BC1" mask="url(#mask-2)"></path>
                </g>
            </g>
        </g>
    </g>
</svg>