<?xml version="1.0" encoding="UTF-8" standalone="no"?>
<svg width="44px" height="42px" viewBox="0 0 44 42" version="1.1" xmlns="http://www.w3.org/2000/svg" xmlns:xlink="http://www.w3.org/1999/xlink">
    <!-- Generator: Sketch 41.2 (35397) - http://www.bohemiancoding.com/sketch -->
    <title>inspect</title>
    <desc>Created with Sketch.</desc>
    <defs>
        <rect id="path-1" x="0" y="0" width="48" height="48"></rect>
    </defs>
    <g id="Page-1" stroke="none" stroke-width="1" fill="none" fill-rule="evenodd">
        <g id="Artboard" transform="translate(-958.000000, -63.000000)">
            <g id="inspect" transform="translate(956.000000, 60.000000)">
                <g>
                    <mask id="mask-2" fill="white">
                        <use xlink:href="#path-1"></use>
                    </mask>
                    <g id="Mask"></g>
                    <path d="M40.4021116,32.0848658 C47.1794925,25.4401321 47.1793545,14.628284 40.4021116,7.98355028 C33.6245927,1.33881657 22.5968238,1.33881657 15.8194429,7.98355028 C10.0696404,13.6207026 9.1988346,22.0045865 13.2046793,28.5514981 C13.2046793,28.5514981 13.4924179,29.0247786 13.1037984,29.4055137 C10.8867626,31.5789779 4.23524146,38.1003177 4.23524146,38.1003177 C2.47003113,39.8308087 2.04980868,42.2506549 3.61518908,43.7856369 L3.88471107,44.0496078 C5.45009147,45.5845899 7.91843264,45.1727357 9.68350497,43.4421094 C9.68350497,43.4421094 16.3209497,36.9345702 18.5334313,34.7655709 C18.9406814,34.3662997 19.4232817,34.6484008 19.4232817,34.6484008 C26.1008856,38.5756277 34.6523091,37.722018 40.4021116,32.0848658 Z M26.3953234,19.4086547 L24.1095958,17.1733219 C22.9850629,16.0718255 21.1581023,16.0718255 20.0335695,17.1733219 C18.9075953,18.2741134 18.9075953,20.0599475 20.0335695,21.160739 L24.3573102,25.3904854 C24.9195766,25.9412336 25.6578553,26.2166077 26.3953234,26.2166077 C27.1327914,26.2166077 27.8710701,25.9412336 28.4333365,25.3904854 L35.6395711,18.3409081 C36.7655452,17.2401166 36.7655452,15.4542825 35.6395711,14.353491 C34.5150382,13.2519946 32.6880776,13.2519946 31.5635447,14.353491 L26.3953234,19.4086547 Z M19.02859,28.938457 C14.0206975,24.0286792 14.0208355,16.0400075 19.028728,11.1302297 C24.0366204,6.22058719 32.184934,6.22045189 37.1926884,11.1302297 C42.2005809,16.0398722 42.2005809,24.0286792 37.1926884,28.938457 C32.184796,33.8479642 24.0366204,33.8479642 19.02859,28.938457 Z" fill="#4C7BC1" mask="url(#mask-2)"></path>
                </g>
            </g>
        </g>
    </g>
</svg>