<?xml version="1.0" encoding="utf-8"?>
<!-- Generator: Adobe Illustrator 16.0.0, SVG Export Plug-In . SVG Version: 6.00 Build 0)  -->
<!DOCTYPE svg PUBLIC "-//W3C//DTD SVG 1.1//EN" "http://www.w3.org/Graphics/SVG/1.1/DTD/svg11.dtd">
<svg version="1.1" id="Layer_1" xmlns="http://www.w3.org/2000/svg" xmlns:xlink="http://www.w3.org/1999/xlink" x="0px" y="0px"
	 width="48px" height="48px" viewBox="0 0 48 48" enable-background="new 0 0 48 48" xml:space="preserve">
<title>inspect-defect</title>
<desc>Created with Sketch.</desc>
<g id="Page-1">
	<g id="Artboard" transform="translate(-454.000000, -287.000000)">
		<g id="inspect-defect" transform="translate(452.000000, 284.000000)">
			<g id="inspect">
				<g id="Mask">
				</g>
			</g>
			<g id="Group" transform="translate(2.000000, 3.000000)">
				<path id="Combined-Shape" fill="#4C7BC1" d="M40.402,32.085c6.777-6.646,6.777-17.457,0-24.102
					c-6.777-6.645-17.806-6.645-24.583,0c-5.75,5.637-6.621,14.021-2.615,20.568c0,0,0.288,0.474-0.101,0.854
					C10.887,31.579,4.235,38.1,4.235,38.1c-1.765,1.731-2.186,4.15-0.62,5.686l0.27,0.265c1.565,1.534,4.034,1.123,5.799-0.608
					c0,0,6.637-6.507,8.85-8.676c0.407-0.399,0.89-0.117,0.89-0.117C26.102,38.576,34.652,37.723,40.402,32.085z M19.029,28.938
					c-5.008-4.91-5.008-12.898,0-17.808s13.157-4.91,18.165,0s5.008,12.898,0,17.808C32.185,33.848,24.037,33.848,19.029,28.938z
					 M30.65,22.07c-0.013,0.114-0.077,0.214-0.194,0.299c-0.118,0.085-0.263,0.128-0.436,0.128h-3.429
					c-0.174,0-0.322-0.042-0.445-0.128s-0.186-0.185-0.186-0.299l-0.314-10.625c0-0.137,0.062-0.239,0.185-0.308
					C25.955,11.046,26.104,11,26.276,11h4.078c0.173,0,0.321,0.045,0.444,0.137c0.124,0.069,0.186,0.171,0.186,0.308L30.65,22.07z
					 M30.471,28.443c-0.117,0.114-0.261,0.172-0.431,0.172l-3.497-0.008c-0.17,0-0.319-0.061-0.449-0.18
					c-0.131-0.121-0.195-0.259-0.195-0.414v-3.426c0-0.156,0.064-0.294,0.195-0.415c0.13-0.12,0.279-0.18,0.449-0.18L30.04,24
					c0.17,0,0.313,0.057,0.431,0.171c0.116,0.115,0.176,0.255,0.176,0.424v3.425C30.646,28.188,30.587,28.329,30.471,28.443z"/>
			</g>
		</g>
	</g>
</g>
</svg>
