<?xml version="1.0" encoding="UTF-8" standalone="no"?>
<svg width="44px" height="34px" viewBox="0 0 44 34" version="1.1" xmlns="http://www.w3.org/2000/svg" xmlns:xlink="http://www.w3.org/1999/xlink">
    <!-- Generator: Sketch 41.2 (35397) - http://www.bohemiancoding.com/sketch -->
    <title>invisible</title>
    <desc>Created with Sketch.</desc>
    <defs>
        <rect id="path-1" x="0" y="0" width="48" height="48"></rect>
    </defs>
    <g id="Page-1" stroke="none" stroke-width="1" fill="none" fill-rule="evenodd">
        <g id="Artboard" transform="translate(-398.000000, -123.000000)">
            <g id="invisible" transform="translate(396.000000, 116.000000)">
                <g>
                    <mask id="mask-2" fill="white">
                        <use xlink:href="#path-1"></use>
                    </mask>
                    <g id="Mask"></g>
                    <path d="M25.6860496,15.146602 C24.9048393,14.9909631 24.0880937,14.9315358 23.2489559,14.9832566 C18.672438,15.2633114 14.9630482,18.8958404 14.6769803,23.3773524 C14.512609,25.9405091 15.4436682,28.2892352 17.0542805,30.0204107 L19.371706,26.0271871 C19.0277106,25.3127097 18.8562809,24.5032124 18.9138027,23.6487473 C19.0623536,21.2871507 20.9793165,19.3699075 23.369841,19.13776 L25.6860496,15.146602 Z M17.695053,40.2158348 C17.3030281,40.8912236 16.4260833,41.1275819 15.7362265,40.7437678 L13.2776331,39.3755115 C12.5879386,38.9916974 12.3464928,38.1330217 12.7384365,37.4574739 L14.3377717,34.7014966 C9.79476096,32.7183115 5.7080309,29.353205 2.34190626,24.970447 C1.88603125,24.3752214 1.88603125,23.5437169 2.34190626,22.9484912 C7.92850487,15.6834333 15.499324,11.2106605 23.8477837,11.2106605 C25.1785753,11.2106605 26.4894897,11.3248275 27.7759027,11.5453756 L30.0005955,7.71192222 C30.3924581,7.03637448 31.2694841,6.80009563 31.9592597,7.18398917 L34.417772,8.55216601 C35.1077099,8.93613899 35.3490746,9.79481475 34.9569686,10.4702036 L17.695053,40.2158348 Z M23.8477837,36.7169376 C23.7087252,36.7169376 23.5699912,36.7149514 23.4313383,36.7124885 L25.7164737,32.774958 C29.6847525,31.9613294 32.7515038,28.6002748 33.018587,24.5502457 C33.0980954,23.3101393 32.9205808,22.1204825 32.5343162,21.0264018 L36.2124706,14.6882656 C39.6188362,16.6987014 42.7087909,19.5136293 45.3536611,22.9572305 C45.809455,23.5524562 45.809455,24.3839607 45.3536611,24.9791863 C39.7671436,32.2442443 32.1962433,36.7169376 23.8477837,36.7169376 Z" fill="#4C7BC1" mask="url(#mask-2)"></path>
                </g>
            </g>
        </g>
    </g>
</svg>