<?xml version="1.0" encoding="UTF-8" standalone="no"?>
<svg width="45px" height="34px" viewBox="0 0 45 34" version="1.1" xmlns="http://www.w3.org/2000/svg" xmlns:xlink="http://www.w3.org/1999/xlink">
    <!-- Generator: Sketch 41.2 (35397) - http://www.bohemiancoding.com/sketch -->
    <title>job-status</title>
    <desc>Created with Sketch.</desc>
    <defs>
        <rect id="path-1" x="0" y="0" width="48" height="48"></rect>
    </defs>
    <g id="Page-1" stroke="none" stroke-width="1" fill="none" fill-rule="evenodd">
        <g id="Artboard" transform="translate(-118.000000, -235.000000)">
            <g id="job-status" transform="translate(117.000000, 228.000000)">
                <g id="Fill-1">
                    <mask id="mask-2" fill="white">
                        <use xlink:href="#path-1"></use>
                    </mask>
                    <g id="Mask"></g>
                    <path d="M35.9383123,27.9553333 C35.5134818,28.2409333 35.0779733,28.5106667 34.6363632,28.7705778 C33.6730581,29.3357333 32.6800072,29.848 31.664075,30.3141778 C29.7336513,31.2004444 27.7139903,31.9272889 25.6386513,32.3972444 C23.7509394,32.8241333 21.7411937,33.0870667 19.8168716,32.7561333 C17.9657699,32.4388 16.144414,31.8079111 14.4908547,30.9178667 C12.8456852,30.0323556 11.1593293,28.9194222 9.96415977,27.4596889 C10.7108547,27.7868444 11.4636513,28.0981333 12.2233123,28.3935556 C12.7114479,26.7147111 13.2773801,25.0509778 13.9569564,23.4393778 C14.6182276,21.8723556 15.3923801,20.3657778 16.5189055,19.0790667 C17.8444988,17.5641778 19.4889055,16.2993778 21.2225496,15.2831556 C22.6793293,14.4293778 24.2383123,13.7584444 25.8933971,13.4018222 C25.2382276,13.6443556 24.6036513,13.9299556 23.9919564,14.2707111 C22.1660242,15.2884444 20.5246682,16.6597778 19.1395835,18.2184889 C18.5309394,18.9037778 17.8879733,19.6555556 17.4623801,20.4715556 C16.9910242,21.3752 16.6867021,22.3453333 16.4372954,23.3298222 C15.9445835,25.2852 15.654753,27.2964889 15.4656004,29.3017333 C15.4457699,29.5117778 15.4533971,29.4928889 15.6608547,29.5488 C15.7920411,29.5850667 15.9239903,29.6205778 16.0551767,29.6560889 C16.2931428,29.7263556 16.5333971,29.7837778 16.774414,29.8412 C17.2732276,29.9605778 17.7758547,30.0656 18.2784818,30.1683556 C21.3011089,30.8136 25.3259394,30.0731556 27.8184818,29.5193333 C30.335431,28.9609778 32.8356004,28.3195111 35.348736,27.7377333 C35.3472106,27.7377333 35.3693293,27.7324444 35.4272954,27.7188444 C35.8010242,27.6342222 35.7171259,27.6538667 35.579075,27.6856 C35.9306852,27.6062667 36.2822954,27.5292 36.6369564,27.4596889 C36.6361937,27.5647111 36.0161089,27.9039556 35.9383123,27.9553333 M44.9253462,25.8541333 L42.9445835,22.9618667 C42.3572954,17.8996444 40.9081428,14.1536 38.5315326,11.5424 C35.7491598,8.48542222 31.7739055,7 26.3777191,7 C25.6165326,7 24.8149225,7.03022222 23.9942445,7.08991111 C14.7982276,7.76084444 9.87415977,18.3348444 7.92466824,23.8307556 C7.82780384,23.8730667 7.73017672,23.9146222 7.6325496,23.9576889 C3.1645835,25.9168444 0.995430954,28.0981333 1.00000723,30.6269778 C1.00153265,31.5804889 1.56365129,32.5989778 2.82060045,33.9302667 C3.73356655,34.8973778 4.98060045,35.9748 6.32983773,36.9660889 C7.91780384,38.1326667 11.9731428,40.8587111 15.3222106,40.9909333 C15.4717021,40.9969778 15.6318716,41 15.7989055,41 L15.7989055,41 C21.0715326,41 37.7619564,37.8954222 44.904753,27.9039556 C45.3410242,27.2927111 45.3501767,26.4736889 44.9253462,25.8541333" fill="#4C7BC1" mask="url(#mask-2)"></path>
                </g>
            </g>
        </g>
    </g>
</svg>