<?xml version="1.0" encoding="utf-8"?>
<!-- Generator: Adobe Illustrator 16.0.0, SVG Export Plug-In . SVG Version: 6.00 Build 0)  -->
<!DOCTYPE svg PUBLIC "-//W3C//DTD SVG 1.1//EN" "http://www.w3.org/Graphics/SVG/1.1/DTD/svg11.dtd">
<svg version="1.1" id="Layer_1" xmlns="http://www.w3.org/2000/svg" xmlns:xlink="http://www.w3.org/1999/xlink" x="0px" y="0px"
	 width="48px" height="48px" viewBox="0 0 48 48" enable-background="new 0 0 48 48" xml:space="preserve">
<title>split</title>
<desc>Created with Sketch.</desc>
<g id="Mask_1_">
</g>
<path fill="#4C7BC1" d="M38.857,35.081c-7.299-0.659-9.764-2.035-9.764-8.414v-9.191h2.131c0.852,0,1.621-0.502,1.947-1.277
	c0.326-0.773,0.146-1.662-0.459-2.256l-7.799-7.667c-0.824-0.811-2.158-0.811-2.982,0l-7.801,7.667
	c-0.602,0.593-0.783,1.481-0.455,2.256c0.326,0.775,1.096,1.277,1.947,1.277h2.471v9.191c0,6.282-2.814,7.748-10.753,8.423
	c-1.035,0.088-1.831,0.954-1.831,1.993v4.084c0,0.551,0.228,1.077,0.629,1.455c0.371,0.351,0.863,0.545,1.371,0.545
	c0.039,0,0.078-0.001,0.117-0.004c3.154-0.185,12.039-2.163,15.892-8.435c3.648,6.438,12.018,8.204,15.026,8.404
	c0.551,0.049,1.096-0.156,1.498-0.534c0.404-0.379,0.635-0.907,0.635-1.461v-4.064C40.678,36.038,39.889,35.175,38.857,35.081z"/>
</svg>
