<?xml version="1.0" encoding="UTF-8" standalone="no"?>
<svg width="45px" height="34px" viewBox="0 0 45 34" version="1.1" xmlns="http://www.w3.org/2000/svg" xmlns:xlink="http://www.w3.org/1999/xlink">
    <!-- Generator: Sketch 41.2 (35397) - http://www.bohemiancoding.com/sketch -->
    <title>learn</title>
    <desc>Created with Sketch.</desc>
    <defs>
        <rect id="path-1" x="0" y="0" width="48" height="48"></rect>
    </defs>
    <g id="Page-1" stroke="none" stroke-width="1" fill="none" fill-rule="evenodd">
        <g id="Artboard" transform="translate(-958.000000, -237.000000)">
            <g id="learn" transform="translate(956.000000, 228.000000)">
                <mask id="mask-2" fill="white">
                    <use xlink:href="#path-1"></use>
                </mask>
                <g id="Mask"></g>
                <path d="M41.4730808,23.2516152 L24.9348042,29.5521461 L8.39698581,23.3427149 L7.45487407,31.9637713 C7.41088442,32.3180989 7.53506354,32.6728843 7.79029518,32.9228364 C8.04598503,33.1723306 8.40294274,33.2886087 8.75669286,33.2377942 C9.66214655,33.1059514 10.5882204,33.0391144 11.5083373,33.0391144 C17.0042946,33.0391144 21.9219712,35.3651333 23.7452506,38.8269233 C23.9432041,39.2032247 24.3336122,39.4385275 24.7588456,39.4385275 L25.1098463,39.4385275 C25.5350796,39.4385275 25.9254878,39.2032247 26.1234412,38.827381 C27.9471789,35.3655911 32.8643973,33.0395722 38.3594381,33.0395722 C39.2818462,33.0395722 40.20792,33.1064092 41.111999,33.238252 C41.1674443,33.24695 41.2833754,33.2496967 41.286583,33.2501545 C41.9193924,33.2501545 42.4788858,32.7745132 42.4321468,32.1056855 C42.4257317,32.0072611 41.4730808,23.2516152 41.4730808,23.2516152 Z M45.7872743,16.7624757 L25.3380427,9.07347491 C25.0777705,8.97550836 24.7913796,8.97550836 24.5306492,9.07347491 L4.02917985,16.7826184 C3.58286817,16.9506264 3.28731269,17.3772845 3.28731269,17.8538414 L3.28731269,31.7728739 L5.8574998,31.7728739 L5.8574998,19.5732917 L24.5311075,26.5943804 C24.7913796,26.6923469 25.0773123,26.6923469 25.3385009,26.5943804 L45.7877325,18.9049218 C46.2340442,18.7369137 46.5295997,18.3102556 46.5295997,17.8336987 C46.5295997,17.3571418 46.2331278,16.9304838 45.7872743,16.7624757 Z M2.06247579,40.8640781 C2.0285671,41.1868184 2.13304252,41.5086431 2.35024143,41.7498972 C2.56744035,41.9906935 2.87674259,42.1280298 3.20162451,42.1280298 L5.94272975,42.1280298 C6.26715344,42.1280298 6.57691392,41.9902357 6.79411283,41.7494394 C7.01131174,41.5086431 7.11624539,41.1868184 7.08187847,40.8636204 L6.33359615,33.7665389 L2.80984166,33.7665389 L2.06247579,40.8640781 Z" id="Combined-Shape" fill="#4C7BC1" mask="url(#mask-2)"></path>
            </g>
        </g>
    </g>
</svg>