<?xml version="1.0" encoding="utf-8"?>
<!-- Generator: Adobe Illustrator 16.0.0, SVG Export Plug-In . SVG Version: 6.00 Build 0)  -->
<!DOCTYPE svg PUBLIC "-//W3C//DTD SVG 1.1//EN" "http://www.w3.org/Graphics/SVG/1.1/DTD/svg11.dtd">
<svg version="1.1" id="Layer_1" xmlns="http://www.w3.org/2000/svg" xmlns:xlink="http://www.w3.org/1999/xlink" x="0px" y="0px"
	 width="48px" height="48px" viewBox="0 0 48 48" enable-background="new 0 0 48 48" xml:space="preserve">
<title>link</title>
<desc>Created with Sketch.</desc>
<g id="Page-1">
	<g id="Artboard" transform="translate(-400.000000, -456.000000)">
		<g id="link" transform="translate(396.000000, 452.000000)">
			<g>
				<g id="Mask">
				</g>
				<defs>
					<filter id="Adobe_OpacityMaskFilter" filterUnits="userSpaceOnUse" x="8" y="8" width="40.996" height="40.995">
						<feColorMatrix  type="matrix" values="1 0 0 0 0  0 1 0 0 0  0 0 1 0 0  0 0 0 1 0"/>
					</filter>
				</defs>
				<mask maskUnits="userSpaceOnUse" x="8" y="8" width="40.996" height="40.995" id="mask-2_1_">
					<g filter="url(#Adobe_OpacityMaskFilter)">
						<rect id="path-1_1_" x="4" y="4" fill="#FFFFFF" width="48" height="48"/>
					</g>
				</mask>
				<path id="Shape" mask="url(#mask-2_1_)" fill="#4C7BC1" d="M46.885,33.02l-5.225-5.225c-1.406-1.406-3.115-2.11-5.124-2.11
					c-2.044,0-3.784,0.737-5.226,2.21l-2.21-2.21c1.474-1.44,2.21-3.19,2.21-5.25c0-2.01-0.694-3.709-2.084-5.1l-5.175-5.199
					C22.661,8.712,20.953,8,18.927,8c-2.01,0-3.709,0.695-5.1,2.085l-3.692,3.667C8.711,15.143,8,16.843,8,18.852
					c0,2.01,0.704,3.718,2.11,5.125l5.225,5.225c1.407,1.406,3.115,2.11,5.125,2.11c2.043,0,3.785-0.737,5.225-2.211l2.21,2.211
					c-1.474,1.44-2.21,3.19-2.21,5.25c0,2.01,0.695,3.709,2.085,5.099l5.175,5.199c1.39,1.424,3.098,2.136,5.124,2.136
					c2.01,0,3.709-0.694,5.1-2.085l3.692-3.667c1.423-1.391,2.136-3.09,2.136-5.1C48.995,36.135,48.292,34.426,46.885,33.02z
					 M25.685,22.269c-0.05-0.05-0.206-0.209-0.465-0.478s-0.439-0.448-0.54-0.54c-0.101-0.092-0.26-0.218-0.478-0.377
					s-0.431-0.268-0.641-0.327s-0.439-0.088-0.691-0.088c-0.669,0-1.239,0.235-1.708,0.703c-0.469,0.469-0.703,1.038-0.703,1.708
					c0,0.251,0.029,0.481,0.088,0.69s0.167,0.423,0.326,0.641c0.159,0.218,0.285,0.377,0.377,0.478c0.092,0.1,0.272,0.28,0.54,0.54
					s0.427,0.415,0.477,0.465c-0.502,0.519-1.105,0.778-1.809,0.778c-0.687,0-1.256-0.226-1.708-0.678l-5.225-5.225
					c-0.469-0.469-0.703-1.039-0.703-1.708c0-0.653,0.234-1.214,0.703-1.683l3.692-3.668c0.486-0.452,1.055-0.678,1.708-0.678
					c0.669,0,1.239,0.234,1.708,0.703l5.175,5.2c0.469,0.469,0.703,1.038,0.703,1.708C26.513,21.138,26.237,21.749,25.685,22.269z
					 M43.471,39.826l-3.693,3.668c-0.469,0.435-1.039,0.652-1.709,0.652c-0.687,0-1.256-0.225-1.707-0.678l-5.175-5.199
					c-0.47-0.47-0.703-1.039-0.703-1.709c0-0.703,0.276-1.314,0.829-1.833c0.051,0.05,0.205,0.21,0.465,0.478
					s0.439,0.447,0.54,0.539c0.101,0.093,0.259,0.219,0.478,0.378c0.217,0.159,0.431,0.269,0.641,0.327
					c0.209,0.059,0.439,0.088,0.689,0.088c0.671,0,1.24-0.234,1.709-0.704c0.469-0.469,0.703-1.038,0.703-1.708
					c0-0.25-0.029-0.48-0.088-0.69s-0.167-0.423-0.327-0.641c-0.159-0.218-0.284-0.377-0.376-0.478
					c-0.093-0.1-0.273-0.28-0.541-0.54s-0.427-0.415-0.477-0.464c0.502-0.537,1.105-0.805,1.808-0.805
					c0.671,0,1.239,0.234,1.708,0.703l5.225,5.225c0.47,0.47,0.703,1.039,0.703,1.709C44.172,38.797,43.938,39.358,43.471,39.826z"
					/>
			</g>
		</g>
	</g>
</g>
</svg>
