<?xml version="1.0" encoding="utf-8"?>
<!-- Generator: Adobe Illustrator 16.0.0, SVG Export Plug-In . SVG Version: 6.00 Build 0)  -->
<!DOCTYPE svg PUBLIC "-//W3C//DTD SVG 1.1//EN" "http://www.w3.org/Graphics/SVG/1.1/DTD/svg11.dtd">
<svg version="1.1" id="Layer_1" xmlns="http://www.w3.org/2000/svg" xmlns:xlink="http://www.w3.org/1999/xlink" x="0px" y="0px"
	 width="48px" height="48px" viewBox="0 0 48 48" enable-background="new 0 0 48 48" xml:space="preserve">
<title>list-receipt</title>
<desc>Created with Sketch.</desc>
<g id="Page-1">
	<g id="Artboard" transform="translate(-120.000000, -456.000000)">
		<g id="list-receipt" transform="translate(116.000000, 452.000000)">
			<g id="list">
				<g id="Mask">
				</g>
				<defs>
					<filter id="Adobe_OpacityMaskFilter" filterUnits="userSpaceOnUse" x="8" y="8.029" width="40.971" height="39.913">
						<feColorMatrix  type="matrix" values="1 0 0 0 0  0 1 0 0 0  0 0 1 0 0  0 0 0 1 0"/>
					</filter>
				</defs>
				<mask maskUnits="userSpaceOnUse" x="8" y="8.029" width="40.971" height="39.913" id="mask-2_1_">
					<g filter="url(#Adobe_OpacityMaskFilter)">
						<rect id="path-1_1_" x="4" y="4" fill="#FFFFFF" width="48" height="48"/>
					</g>
				</mask>
				<path id="Combined-Shape" mask="url(#mask-2_1_)" fill="#4C7BC1" d="M48.75,14.291c-0.229-0.378-0.608-0.643-1.046-0.729
					L24.497,8.058c-0.765-0.146-1.52,0.27-1.784,0.988l-8.846,22.103l2.953,1.059l8.383-21.017l20.164,5.061
					c-1.259,3.84-4.256,11.854-7.129,19.317c-2.504,6.511-3.945,8.74-6.684,9.196c-0.004-0.004-0.007-0.007-0.007-0.012
					c-5.598,0.771-5.498-6.248-5.498-6.248L8.172,31.403c-1.271,7.921,4.917,9.825,4.917,9.825l13.089,5.846
					c0.003,0.002,2.047,0.959,4.268,0.86c5.99-0.139,8.096-4.417,10.733-11.271c3.811-9.906,7.678-21.006,7.717-21.124
					C49.032,15.121,48.979,14.668,48.75,14.291z M38.172,23.204c0.137,0.037,0.277,0.056,0.417,0.056
					c0.689,0,1.32-0.452,1.514-1.138c0.229-0.824-0.267-1.675-1.103-1.9l-6.812-2.068c-0.827-0.225-1.702,0.259-1.931,1.082
					c-0.229,0.824,0.263,1.676,1.103,1.901L38.172,23.204z M27.53,25.429c-0.273,0.812,0.17,1.686,0.993,1.957l6.776,2.381
					c0.164,0.054,0.326,0.078,0.488,0.079c0.661,0.004,1.28-0.406,1.501-1.056c0.273-0.81-0.169-1.685-0.995-1.956l-6.772-2.38
					C28.692,24.185,27.806,24.621,27.53,25.429z M26.934,30.907c-0.824-0.271-1.714,0.171-1.984,0.985
					c-0.271,0.808,0.181,1.684,1.005,1.949l6.79,2.371c0.164,0.055,0.326,0.078,0.492,0.078c0.659,0,1.273-0.413,1.491-1.062
					c0.271-0.812-0.179-1.687-1.003-1.951L26.934,30.907z M26.682,16.352c0.962,0,1.743,0.747,1.743,1.667
					c0,0.92-0.78,1.667-1.743,1.667c-0.963,0-1.744-0.746-1.744-1.667C24.938,17.099,25.719,16.352,26.682,16.352z M24.216,22.548
					c0.963,0,1.743,0.746,1.743,1.666s-0.78,1.665-1.743,1.665s-1.744-0.746-1.744-1.665S23.253,22.548,24.216,22.548z
					 M21.586,28.939c0.963,0,1.744,0.748,1.744,1.669c0,0.92-0.78,1.665-1.744,1.665c-0.963,0-1.744-0.745-1.744-1.665
					C19.843,29.688,20.624,28.939,21.586,28.939z"/>
			</g>
		</g>
	</g>
</g>
</svg>
