<?xml version="1.0" encoding="UTF-8" standalone="no"?>
<svg width="40px" height="33px" viewBox="0 0 40 33" version="1.1" xmlns="http://www.w3.org/2000/svg" xmlns:xlink="http://www.w3.org/1999/xlink">
    <!-- Generator: Sketch 41.2 (35397) - http://www.bohemiancoding.com/sketch -->
    <title>list</title>
    <desc>Created with Sketch.</desc>
    <defs>
        <rect id="path-1" x="0" y="0" width="48" height="48"></rect>
    </defs>
    <g id="Page-1" stroke="none" stroke-width="1" fill="none" fill-rule="evenodd">
        <g id="Artboard" transform="translate(-8.000000, -124.000000)">
            <g id="list" transform="translate(4.000000, 116.000000)">
                <g>
                    <mask id="mask-2" fill="white">
                        <use xlink:href="#path-1"></use>
                    </mask>
                    <g id="Mask"></g>
                    <path d="M6.16985426,33.4376623 C5.25621936,33.4376623 4.50869991,34.1735795 4.50869991,35.0730338 L4.50869991,38.7526195 C4.50869991,39.6520738 5.25621936,40.387991 6.16985426,40.387991 L41.9463491,40.387991 C42.8599836,40.387991 43.6075035,39.6520738 43.6075035,38.7526195 L43.6075035,35.0730338 C43.6075035,34.1735795 42.8599836,33.4376623 41.9463491,33.4376623 L6.16985426,33.4376623 L6.16985426,33.4376623 Z M6.16985426,20.6558442 C5.25621936,20.6558442 4.50869991,21.3917613 4.50869991,22.2912156 L4.50869991,25.9708014 C4.50869991,26.8702557 5.25621936,27.6061728 6.16985426,27.6061728 L41.9463491,27.6061728 C42.8599836,27.6061728 43.6075035,26.8702557 43.6075035,25.9708014 L43.6075035,22.2912156 C43.6075035,21.3917613 42.8599836,20.6558442 41.9463491,20.6558442 L6.16985426,20.6558442 L6.16985426,20.6558442 Z M6.16985426,8.0238001 C5.25621936,8.0238001 4.50869991,8.75971727 4.50869991,9.65917152 L4.50869991,13.3387573 C4.50869991,14.2382116 5.25621936,14.9741288 6.16985426,14.9741288 L41.9463491,14.9741288 C42.8599836,14.9741288 43.6075035,14.2382116 43.6075035,13.3387573 L43.6075035,9.65917152 C43.6075035,8.75971727 42.8599836,8.0238001 41.9463491,8.0238001 L6.16985426,8.0238001 L6.16985426,8.0238001 Z" fill="#4C7BC1" mask="url(#mask-2)"></path>
                </g>
            </g>
        </g>
    </g>
</svg>