<?xml version="1.0" encoding="UTF-8" standalone="no"?>
<svg width="27px" height="40px" viewBox="0 0 27 40" version="1.1" xmlns="http://www.w3.org/2000/svg" xmlns:xlink="http://www.w3.org/1999/xlink">
    <!-- Generator: Sketch 41.2 (35397) - http://www.bohemiancoding.com/sketch -->
    <title>location</title>
    <desc>Created with Sketch.</desc>
    <defs>
        <rect id="path-1" x="0" y="0" width="48" height="48"></rect>
    </defs>
    <g id="Page-1" stroke="none" stroke-width="1" fill="none" fill-rule="evenodd">
        <g id="Artboard" transform="translate(-911.000000, -9.000000)">
            <g id="location" transform="translate(900.000000, 5.000000)">
                <g id="Symbols">
                    <mask id="mask-2" fill="white">
                        <use xlink:href="#path-1"></use>
                    </mask>
                    <g id="Mask"></g>
                    <path d="M24.4904706,4.3392 C17.1226471,4.3392 11.1508824,10.4144 11.1508824,17.9072 C11.1508824,25.3984 24.4904706,43.72 24.4904706,43.72 C24.4904706,43.72 37.8300588,25.3984 37.8300588,17.9072 C37.8316471,10.4144 31.8582941,4.3392 24.4904706,4.3392 L24.4904706,4.3392 L24.4904706,4.3392 Z M24.4904706,21.8208 C22.4352941,21.8208 20.7676471,20.1248 20.7676471,18.0336 C20.7676471,15.9424 22.4352941,14.2464 24.4904706,14.2464 C26.5472353,14.2464 28.2132941,15.9424 28.2132941,18.0336 C28.2132941,20.1264 26.5472353,21.8208 24.4904706,21.8208 L24.4904706,21.8208 L24.4904706,21.8208 Z" fill="#4C7BC1" mask="url(#mask-2)"></path>
                </g>
            </g>
        </g>
    </g>
</svg>