<?xml version="1.0" encoding="UTF-8" standalone="no"?>
<svg width="27px" height="34px" viewBox="0 0 27 34" version="1.1" xmlns="http://www.w3.org/2000/svg" xmlns:xlink="http://www.w3.org/1999/xlink">
    <!-- Generator: Sketch 41.2 (35397) - http://www.bohemiancoding.com/sketch -->
    <title>lock</title>
    <desc>Created with Sketch.</desc>
    <defs>
        <rect id="path-1" x="0" y="0" width="48" height="48"></rect>
    </defs>
    <g id="Page-1" stroke="none" stroke-width="1" fill="none" fill-rule="evenodd">
        <g id="Artboard" transform="translate(-14.000000, -291.000000)">
            <g id="lock" transform="translate(4.000000, 284.000000)">
                <g id="Fill-1">
                    <mask id="mask-2" fill="white">
                        <use xlink:href="#path-1"></use>
                    </mask>
                    <g id="Mask"></g>
                    <path d="M13.7180964,17.1848198 L13.7180964,20.7252571 L13.4808108,20.7252571 C11.9873074,20.7252571 10.7729635,21.9308072 10.7729635,23.4134953 L10.7729635,38.2195904 C10.7729635,39.7022784 11.9873074,40.9078285 13.4808108,40.9078285 L34.2921527,40.9078285 C35.7856561,40.9078285 37,39.7022784 37,38.2195904 L37,23.4065668 C37,21.9238788 35.7856561,20.7183287 34.2921527,20.7183287 L34.2223628,20.7183287 L34.2223628,17.1778913 C34.2223628,11.5658478 29.6232098,7 23.9702296,7 C18.3172494,7.00692845 13.7180964,11.5727762 13.7180964,17.1848198 Z M25.4916489,31.4712812 C25.2822793,31.6237071 25.2264474,31.7692045 25.2264474,32.0117002 C25.2334264,33.0994667 25.2334264,34.1803047 25.2334264,35.2680712 L25.2334264,35.2680712 C25.2543634,35.7184204 25.0240568,36.1618411 24.6192755,36.3627661 C23.6631541,36.8477575 22.7070328,36.1687695 22.7070328,35.2680712 L22.7070328,35.2611427 C22.7070328,34.1733763 22.7070328,33.0856098 22.7140118,31.9978433 C22.7140118,31.776133 22.6651588,31.6306356 22.4697472,31.4851381 C21.4787309,30.757651 21.1507185,29.5174587 21.6462266,28.4296922 C22.1277768,27.3696395 23.3072257,26.7460791 24.4168848,26.9677895 C25.6521657,27.2172137 26.5105812,28.2010534 26.5245392,29.4273888 C26.5245392,30.279588 26.1825687,30.9724329 25.4916489,31.4712812 Z M18.2055856,17.1848198 C18.2055856,14.0254471 20.7947901,11.461921 23.9702296,11.461921 C27.1526481,11.461921 29.7348736,14.0323756 29.7348736,17.1848198 L29.7348736,20.7252571 L18.2055856,20.7252571 L18.2055856,17.1848198 Z" id="Shape" fill="#4C7BC1" mask="url(#mask-2)"></path>
                </g>
            </g>
        </g>
    </g>
</svg>