<?xml version="1.0" encoding="UTF-8" standalone="no"?>
<svg width="40px" height="40px" viewBox="0 0 40 40" version="1.1" xmlns="http://www.w3.org/2000/svg" xmlns:xlink="http://www.w3.org/1999/xlink">
    <!-- Generator: Sketch 41.2 (35397) - http://www.bohemiancoding.com/sketch -->
    <title>log-in</title>
    <desc>Created with Sketch.</desc>
    <defs>
        <rect id="path-1" x="0" y="0" width="48" height="48"></rect>
    </defs>
    <g id="Page-1" stroke="none" stroke-width="1" fill="none" fill-rule="evenodd">
        <g id="Artboard" transform="translate(-848.000000, -63.000000)">
            <g id="log-in" transform="translate(844.000000, 59.000000)">
                <g id="Symbols">
                    <mask id="mask-2" fill="white">
                        <use xlink:href="#path-1"></use>
                    </mask>
                    <g id="Mask"></g>
                    <path d="M35.2208696,17.1321739 C32.7426087,17.2 30.7652174,15.3965217 30.6504348,12.8765217 C30.5478261,10.6156522 32.3547826,8.56521739 34.7130435,8.39304348 C37.2347826,8.20869565 39.3426087,9.95652174 39.5182609,12.3947826 C39.706087,15.0086957 37.7947826,17.0695652 35.2208696,17.1321739 M43.7182609,13.8504348 C42.2782609,7.36347826 36.146087,3.14782609 29.5182609,4.14782609 C25.3965217,4.76869565 22.3165217,6.94782609 20.3130435,10.5426087 C18.5652174,13.6747826 18.4278261,16.986087 19.4313043,20.3756522 C19.5217391,20.6782609 19.4834783,20.8695652 19.2434783,21.1043478 C14.2469565,26.0156522 9.26434783,30.9356522 4.27304348,35.853913 C4.08695652,36.0382609 3.99826087,36.2173913 4,36.4886957 C4.01043478,38.6573913 4.00521739,40.8278261 4.00521739,42.9947826 L4.00521739,43.4 L11.4208696,43.4 L11.4208696,39.0226087 L15.8921739,39.0226087 L15.8921739,34.6626087 C16.1269565,34.6626087 16.3234783,34.6643478 16.5147826,34.6626087 C17.7773913,34.6573913 19.0365217,34.6504348 20.2991304,34.6417391 C21.1947826,33.7652174 22.0921739,32.8904348 22.986087,32.0104348 C24.2208696,30.7982609 25.4591304,29.5843478 26.6782609,28.3565217 C26.8817391,28.1513043 27.0486957,28.1165217 27.3165217,28.2 C29.3443478,28.8330435 31.4104348,28.9756522 33.5113043,28.6469565 C40.4678261,27.5617391 45.2313043,20.6556522 43.7182609,13.8504348" fill="#4C7BC1" mask="url(#mask-2)"></path>
                </g>
            </g>
        </g>
    </g>
</svg>