<?xml version="1.0" encoding="UTF-8" standalone="no"?>
<svg width="32px" height="46px" viewBox="0 0 32 46" version="1.1" xmlns="http://www.w3.org/2000/svg" xmlns:xlink="http://www.w3.org/1999/xlink">
    <!-- Generator: Sketch 41.2 (35397) - http://www.bohemiancoding.com/sketch -->
    <title>maintenance</title>
    <desc>Created with Sketch.</desc>
    <defs>
        <rect id="path-1" x="0" y="0" width="48" height="48"></rect>
    </defs>
    <g id="Page-1" stroke="none" stroke-width="1" fill="none" fill-rule="evenodd">
        <g id="Artboard" transform="translate(-292.000000, -60.000000)">
            <g id="maintenance" transform="translate(284.000000, 59.000000)">
                <g id="Shape">
                    <mask id="mask-2" fill="white">
                        <use xlink:href="#path-1"></use>
                    </mask>
                    <g id="Mask"></g>
                    <path d="M38.8221354,29.9295561 C39.2563007,28.9234413 39.2915489,28.0125692 38.929203,27.2168773 C38.7883308,26.9064073 38.5843007,26.6168355 38.3251729,26.3582507 C37.8895639,25.9234726 37.3782858,25.6513159 37.0089624,25.4954203 C37.2925113,24.5171698 37.2197293,23.6625065 36.7935037,22.9519686 C36.6766917,22.7564386 36.5298045,22.5735196 36.3618646,22.4021305 C35.2215338,21.2372376 34.3594587,21.5361775 34.3594587,21.5361775 C34.3594587,21.5361775 34.8253834,19.6786423 33.4769323,18.3618172 C32.1284812,17.0449922 30.8463158,17.6076814 29.7337744,18.736423 L24.1266767,24.3319686 C23.3346166,24.0350705 22.0881804,23.2869399 20.8045714,23.4339478 C18.5181354,23.6961358 17.9222858,25.2223029 17.5998797,26.4998538 C16.8701354,29.3860836 17.0871579,33.6894256 16.2612932,35.3521514 C15.245594,37.3966893 13.2565414,39.1135822 13.2565414,39.1135822 L21.0556391,46.899953 C24.2310978,43.7297964 27.2861354,42.9086423 29.5657142,41.9564543 C34.7317895,39.798778 37.2674887,37.2155718 38.5574736,35.8283655 C41.2323609,32.9519843 39.1983158,30.4552533 38.8221354,29.9295561 L38.8221354,29.9295561 Z M19.7058646,7.09253786 L24.7340752,5.7215457 C24.4589474,5.09051698 24.1012932,4.49359791 23.6708572,3.94748302 C22.4659248,2.41891384 20.745985,1.37592689 18.8279098,1.0106893 C18.6223158,0.971415144 18.4103459,1.04203655 18.2695939,1.19721149 C18.1288421,1.35214621 18.0790376,1.56929504 18.137985,1.77010966 L19.7058646,7.09253786 L19.7058646,7.09253786 Z M18.678015,17.4030235 L22.8072181,22.6408981 L28.323609,17.5353786 L24.5691428,12.7728773 C25.2025264,11.4875196 25.5082105,10.0570757 25.4561203,8.61113838 C25.4492631,8.42677807 25.3584361,8.25586945 25.2089022,8.14729504 C25.0594887,8.03872063 24.8684511,8.00473107 24.6907669,8.05493473 L14.4637594,10.9474099 L11.5046015,3.14062141 C11.4315789,2.94785379 11.2644812,2.80589034 11.0621353,2.76469452 C10.8593083,2.72385901 10.6504662,2.78883551 10.5076692,2.93764491 C7.52902256,6.04126371 7.28962406,10.9271123 9.95079699,14.3028877 C11.6084211,16.4055561 14.0986466,17.6116449 16.7820752,17.611765 C17.4209925,17.6118851 18.0571428,17.5417442 18.678015,17.4030235 L18.678015,17.4030235 Z" fill="#4C7BC1" mask="url(#mask-2)"></path>
                </g>
            </g>
        </g>
    </g>
</svg>