<?xml version="1.0" encoding="UTF-8" standalone="no"?>
<svg width="41px" height="38px" viewBox="0 0 41 38" version="1.1" xmlns="http://www.w3.org/2000/svg" xmlns:xlink="http://www.w3.org/1999/xlink">
    <!-- Generator: Sketch 41.2 (35397) - http://www.bohemiancoding.com/sketch -->
    <title>map</title>
    <desc>Created with Sketch.</desc>
    <defs>
        <rect id="path-1" x="0" y="0" width="48" height="48"></rect>
    </defs>
    <g id="Page-1" stroke="none" stroke-width="1" fill="none" fill-rule="evenodd">
        <g id="Artboard" transform="translate(-848.000000, -10.000000)">
            <g id="map" transform="translate(844.000000, 5.000000)">
                <g id="Symbols">
                    <mask id="mask-2" fill="white">
                        <use xlink:href="#path-1"></use>
                    </mask>
                    <g id="Mask"></g>
                    <path d="M22.6770376,21.6408333 L10.5404651,21.6408333 C10.0529195,21.6408333 9.62375313,21.967 9.48963864,22.4388333 L7.16077996,30.5819167 L23.4896136,32.3869167 L24.7708014,26.1945 C23.9740036,24.75525 23.2387406,23.2146667 22.6770376,21.6408333 L22.6770376,21.6408333 Z M37.9282218,33.9813333 L42.8320787,34.5244167 L41.3662862,29.4039167 C41.1706369,29.6968333 40.9749875,29.9818333 40.7824937,30.2541667 C39.7916243,31.6633333 38.8023327,32.9268333 37.9282218,33.9813333 L37.9282218,33.9813333 Z M27.2921538,30.2035 L26.7667406,32.7479167 L29.4174741,33.03925 C28.7516351,32.2048333 28.0447728,31.2706667 27.3347549,30.2620833 C27.3205546,30.2430833 27.307932,30.2240833 27.2921538,30.2035 L27.2921538,30.2035 Z M4.01934526,41.5639167 C3.92309839,41.898 3.98936673,42.2574167 4.19606082,42.5329167 C4.40275492,42.8115833 4.72620751,42.9746667 5.07017174,42.9746667 L21.298025,42.9746667 L22.8143077,35.6438333 L6.23617889,33.8119167 L4.01934526,41.5639167 L4.01934526,41.5639167 Z M43.8166369,37.965 L26.0945903,36.0064167 L24.6508873,42.9746667 L43.7945474,42.9746667 L43.7961252,42.9746667 C44.4020072,42.9746667 44.8895528,42.4806667 44.8895528,41.8695 C44.8895528,41.7380833 44.8658855,41.6114167 44.8248623,41.49425 L43.8166369,37.965 L43.8166369,37.965 Z M33.603424,35.3841667 C33.7201825,35.50925 33.8842755,35.5805 34.0546798,35.5805 C34.2250841,35.5805 34.3891771,35.50925 34.5059356,35.3841667 C35.5031163,34.31225 37.4706547,32.09875 39.4445045,29.2930833 C41.9295671,25.76225 44.8895528,20.5815833 44.8895528,15.9661667 C44.8895528,9.93208333 40.028297,5.02533333 34.0546798,5.02533333 C28.0810626,5.02533333 23.2198068,9.93366667 23.2198068,15.9661667 C23.2198068,20.58475 26.1845259,25.7685833 28.6727442,29.3025833 C30.6434383,32.1066667 32.6078211,34.317 33.603424,35.3841667 L33.603424,35.3841667 Z M34.1446154,10.7253333 C36.9720644,10.7253333 39.2725224,13.0338333 39.2725224,15.8711667 C39.2725224,18.7069167 36.9720644,21.017 34.1446154,21.017 C31.3171664,21.017 29.0167084,18.7069167 29.0167084,15.8711667 C29.0167084,13.0338333 31.3171664,10.7253333 34.1446154,10.7253333 L34.1446154,10.7253333 Z" fill="#4C7BC1" mask="url(#mask-2)"></path>
                </g>
            </g>
        </g>
    </g>
</svg>