<?xml version="1.0" encoding="UTF-8" standalone="no"?>
<svg width="42px" height="41px" viewBox="0 0 42 41" version="1.1" xmlns="http://www.w3.org/2000/svg" xmlns:xlink="http://www.w3.org/1999/xlink">
    <!-- Generator: Sketch 41.2 (35397) - http://www.bohemiancoding.com/sketch -->
    <title>mass</title>
    <desc>Created with Sketch.</desc>
    <defs>
        <rect id="path-1" x="0" y="0" width="48" height="48"></rect>
    </defs>
    <g id="Page-1" stroke="none" stroke-width="1" fill="none" fill-rule="evenodd">
        <g id="Artboard" transform="translate(-399.000000, -62.000000)">
            <g id="mass" transform="translate(396.000000, 59.000000)">
                <g id="Shape">
                    <mask id="mask-2" fill="white">
                        <use xlink:href="#path-1"></use>
                    </mask>
                    <g id="Mask"></g>
                    <path d="M44.5792211,38.2503529 L39.7742595,14.0941176 C39.2791441,11.6091961 36.8835288,9.66290196 34.3174903,9.66290196 L31.8394903,9.66290196 C31.178798,5.88527451 27.8446441,3 23.8336441,3 C19.8218364,3 16.4876826,5.88527451 15.8269903,9.66290196 L13.3506057,9.66290196 C10.7837595,9.66290196 8.38652874,11.6091961 7.89383643,14.0949216 L3.0880672,38.2503529 C2.83364412,39.5253725 3.13652874,40.7947647 3.91837489,41.7329412 C4.70022105,42.6711176 5.90368258,43.2089412 7.22102874,43.2089412 L40.4470672,43.2089412 C41.7636057,43.2089412 42.9670672,42.6711176 43.7489134,41.7337451 C44.5299518,40.7955686 44.8336441,39.5261765 44.5792211,38.2503529 L44.5792211,38.2503529 Z M23.8336441,5.7357451 C26.3116441,5.7357451 28.396298,7.40468627 29.0093364,9.66290196 L18.6579518,9.66290196 C19.2709903,7.40468627 21.3556441,5.7357451 23.8336441,5.7357451 L23.8336441,5.7357451 Z M20.7337211,32.1646667 L17.5013364,27.7310392 L16.6298364,28.686902 L16.6298364,32.1646667 L14.945798,32.1646667 L14.945798,18.5976863 L16.6298364,18.5976863 L16.6298364,27.1578431 L16.6686057,27.1578431 C16.9004134,26.8330588 17.2307595,26.4327059 17.5013364,26.1079216 L20.2499134,22.9163529 L22.3022595,22.9163529 L18.6813749,26.718098 L22.8046441,32.1646667 L20.7337211,32.1646667 L20.7337211,32.1646667 Z M32.0212211,25.457549 L32.0212211,30.8277451 C32.0212211,32.9476863 31.5963749,34.2484314 30.6861057,35.0507451 C29.7766441,35.8916471 28.459298,36.1593529 27.2792595,36.1593529 C26.1557595,36.1593529 24.9175672,35.8916471 24.1631826,35.3940196 L24.5880288,34.1141765 C25.2075288,34.4960392 26.1759518,34.8401176 27.3374134,34.8401176 C29.078798,34.8401176 30.3565672,33.9421373 30.3565672,31.6107647 L30.3565672,30.5785294 L30.317798,30.5785294 C29.7952211,31.4379216 28.7880288,32.1268824 27.3374134,32.1268824 C25.0136826,32.1268824 23.3498364,30.1773725 23.3498364,27.6168824 C23.3498364,24.4831961 25.4207595,22.7057255 27.5692211,22.7057255 C29.1959134,22.7057255 30.0859903,23.5466275 30.4914518,24.3111569 L30.5302211,24.3111569 L30.6077595,22.9163529 L32.0987595,22.9163529 C32.0599903,23.5852157 32.0212211,24.330451 32.0212211,25.457549 L32.0212211,25.457549 Z M27.8596672,24.0248 C26.2329749,24.0248 25.0723211,25.3810157 25.0723211,27.5218588 C25.0723211,29.3363098 26.0011672,30.8460745 27.8402826,30.8460745 C28.8854364,30.8460745 29.8336672,30.1965059 30.2011672,29.1264863 C30.298898,28.8394863 30.3368595,28.514702 30.3368595,28.2285059 L30.3368595,26.5659961 C30.3368595,26.2789961 30.3174749,26.0305843 30.2399364,25.8014667 C29.9305903,24.8271137 29.0986672,24.0248 27.8596672,24.0248 L27.8596672,24.0248 Z" fill="#4C7BC1" mask="url(#mask-2)"></path>
                </g>
            </g>
        </g>
    </g>
</svg>