<?xml version="1.0" encoding="UTF-8" standalone="no"?>
<svg width="47px" height="24px" viewBox="0 0 47 24" version="1.1" xmlns="http://www.w3.org/2000/svg" xmlns:xlink="http://www.w3.org/1999/xlink">
    <!-- Generator: Sketch 41.2 (35397) - http://www.bohemiancoding.com/sketch -->
    <title>meter</title>
    <desc>Created with Sketch.</desc>
    <defs>
        <rect id="path-1" x="0" y="0" width="48" height="48"></rect>
    </defs>
    <g id="Page-1" stroke="none" stroke-width="1" fill="none" fill-rule="evenodd">
        <g id="Artboard" transform="translate(-340.000000, -240.000000)">
            <g id="meter" transform="translate(340.000000, 228.000000)">
                <g id="Fill-1">
                    <mask id="mask-2" fill="white">
                        <use xlink:href="#path-1"></use>
                    </mask>
                    <g id="Mask"></g>
                    <path d="M16.8159227,24.491682 C16.8159227,25.6191332 16.0502423,26.599082 14.689642,26.8128818 L14.689642,27.1949756 C14.689642,27.5794231 14.5200565,27.7814541 14.1479868,27.7814541 L14.0837558,27.7814541 C13.7011115,27.7814541 13.5307427,27.6100219 13.5307427,27.3016794 L13.5307427,26.8128818 C12.7349051,26.694017 12.1497765,26.3762593 11.7882814,26.1196995 C11.4902339,25.9180607 11.4694763,25.6097181 11.6817519,25.3107906 L12.0005569,24.8427846 C12.2234071,24.5218886 12.4897307,24.5010971 12.8187187,24.7039127 C13.1594563,24.9165357 13.6478467,25.1405353 14.1593447,25.1405353 C14.5412058,25.1405353 14.9563573,24.9922484 14.9563573,24.5340497 C14.9563573,23.6819885 11.5012002,23.6066682 11.5012002,21.3184211 C11.5012002,20.125457 12.3514774,19.2741804 13.5307427,19.0509655 L13.5307427,18.6351345 C13.5307427,18.2514716 13.7011115,18.0490482 14.0837558,18.0490482 L14.1479868,18.0490482 C14.5200565,18.0490482 14.689642,18.2204804 14.689642,18.528823 L14.689642,19.0184051 C15.3813001,19.0929408 15.8916231,19.3275323 16.2092532,19.5295633 C16.5182669,19.7111952 16.5492074,20.0089458 16.3901965,20.327488 L16.1352309,20.8276621 C15.9550708,21.1799415 15.6895305,21.2223092 15.3390016,21.0312623 C15.0405625,20.8606147 14.6152281,20.700559 14.1687444,20.700559 C13.7861,20.700559 13.3611572,20.8715989 13.3611572,21.2968449 C13.3611572,22.202258 16.8159227,22.1375296 16.8159227,24.491682 L16.8159227,24.491682 Z M38.2506645,29.4235941 L8.75845873,29.4235941 L8.75845873,17.9184145 C8.75845873,16.8890368 9.5922866,16.0546288 10.6191991,16.0546288 L36.3871825,16.0546288 C37.4160533,16.0546288 38.2506645,16.8890368 38.2506645,17.9184145 L38.2506645,29.4235941 Z M42.8921365,29.4302631 L42.8921365,15.7274561 C42.8921365,13.6694852 41.2256558,12.0002769 39.1698725,12.0002769 L7.83768404,12.0002769 C5.78307578,12.0002769 4.11659501,13.6694852 4.11659501,15.7274561 L4.11659501,29.4353629 C2.15128348,29.5404976 0.516134898,31.1638075 0.516134898,33.1519502 L0.516134898,34.3017621 L0.516134898,35.0686956 C0.516134898,35.5822076 0.932853005,36 1.4467009,36 L45.4723422,36 C45.9861901,36 46.4835886,35.5822076 46.4835886,35.0686956 L46.4835886,34.3017621 L46.4835886,33.1519502 C46.4835886,31.1371315 44.8876053,29.4993068 42.8921365,29.4302631 L42.8921365,29.4302631 Z" fill="#4C7BC1" mask="url(#mask-2)"></path>
                </g>
            </g>
        </g>
    </g>
</svg>