<?xml version="1.0" encoding="UTF-8" standalone="no"?>
<svg width="47px" height="38px" viewBox="0 0 47 38" version="1.1" xmlns="http://www.w3.org/2000/svg" xmlns:xlink="http://www.w3.org/1999/xlink">
    <!-- Generator: Sketch 41.2 (35397) - http://www.bohemiancoding.com/sketch -->
    <title>meter-off</title>
    <desc>Created with Sketch.</desc>
    <defs>
        <rect id="path-1" x="0" y="0" width="48" height="48"></rect>
    </defs>
    <g id="Page-1" stroke="none" stroke-width="1" fill="none" fill-rule="evenodd">
        <g id="Artboard" transform="translate(-452.000000, -457.000000)">
            <g id="meter-off" transform="translate(452.000000, 452.000000)">
                <g id="Fill-1">
                    <mask id="mask-2" fill="white">
                        <use xlink:href="#path-1"></use>
                    </mask>
                    <g id="Mask"></g>
                    <path d="M42.8921365,15.7274561 L42.8921365,29.4302631 C44.8876053,29.4993068 46.4835886,31.1371315 46.4835886,33.1519502 L46.4835886,35.0686956 C46.4835886,35.5822076 45.9861901,36 45.4723422,36 L17.4264069,36 L10.9515493,42.4748575 C10.5600299,42.866377 9.92375308,42.8648786 9.54205487,42.4831804 L6.70058582,39.6417113 C6.31366296,39.2547885 6.31433069,38.6267948 6.70890864,38.2322169 L39.2322169,5.70890864 C39.6237363,5.31738921 40.2600131,5.31888761 40.6417113,5.70058582 L43.4831804,8.54205487 C43.8701032,8.92897773 43.8694355,9.55697138 43.4748575,9.95154933 L40.9648353,12.4615716 C42.1138201,13.0961707 42.8921365,14.3210291 42.8921365,15.7274561 Z M38.2506645,29.4235941 L38.2506645,17.9184145 C38.2506645,17.176696 37.8173403,16.5362043 37.1902505,16.2361564 L24.0028127,29.4235941 L38.2506645,29.4235941 Z M7.83768404,12.0002769 C5.78307578,12.0002769 4.11659501,13.6694852 4.11659501,15.7274561 L4.11659501,29.4353629 C2.15128348,29.5404976 0.516134898,31.1638075 0.516134898,33.1519502 L0.516134898,35.0686956 C0.516134898,35.4350729 0.728263116,35.7527247 1.03644821,35.9046773 L8.75845873,28.1826668 L8.75845873,17.9184145 C8.75845873,16.8890368 9.5922866,16.0546288 10.6191991,16.0546288 L20.8864967,16.0546288 L24.9408486,12.0002769 L7.83768404,12.0002769 Z M12.0005569,24.8427846 C12.1101404,24.6849885 12.2302359,24.5997589 12.3631254,24.5780001 L11.7916171,25.1495084 L12.0005569,24.8427846 Z M11.5012002,21.3184211 C11.5012002,20.125457 12.3514774,19.2741804 13.5307427,19.0509655 L13.5307427,18.6351345 C13.5307427,18.2514716 13.7011115,18.0490482 14.0837558,18.0490482 L14.1479868,18.0490482 C14.5200565,18.0490482 14.689642,18.2204804 14.689642,18.528823 L14.689642,19.0184051 C15.3813001,19.0929408 15.8916231,19.3275323 16.2092532,19.5295633 C16.5182669,19.7111952 16.5492074,20.0089458 16.3901965,20.327488 L16.1578645,20.783261 L15.8101511,21.1309744 C15.6753745,21.1656386 15.5183072,21.1289883 15.3390016,21.0312623 C15.0405625,20.8606147 14.6152281,20.700559 14.1687444,20.700559 C13.7861,20.700559 13.3611572,20.8715989 13.3611572,21.2968449 C13.3611572,21.688294 14.0069239,21.8984037 14.7400717,22.2010538 L13.3978723,23.5432532 C12.4815676,23.1282986 11.5012002,22.5373082 11.5012002,21.3184211 Z" id="Combined-Shape" fill="#4C7BC1" mask="url(#mask-2)"></path>
                </g>
            </g>
        </g>
    </g>
</svg>