<?xml version="1.0" encoding="utf-8"?>
<!-- Generator: Adobe Illustrator 16.0.0, SVG Export Plug-In . SVG Version: 6.00 Build 0)  -->
<!DOCTYPE svg PUBLIC "-//W3C//DTD SVG 1.1//EN" "http://www.w3.org/Graphics/SVG/1.1/DTD/svg11.dtd">
<svg version="1.1" id="Layer_1" xmlns="http://www.w3.org/2000/svg" xmlns:xlink="http://www.w3.org/1999/xlink" x="0px" y="0px"
	 width="48px" height="48px" viewBox="0 0 48 48" enable-background="new 0 0 48 48" xml:space="preserve">
<title>microphone-off</title>
<desc>Created with Sketch.</desc>
<g id="Page-1">
	<g id="Artboard" transform="translate(-514.000000, -398.000000)">
		<g id="microphone-off" transform="translate(508.000000, 396.000000)">
			<g id="microphone">
				<g id="Mask">
				</g>
				<defs>
					<filter id="Adobe_OpacityMaskFilter" filterUnits="userSpaceOnUse" x="12.024" y="5" width="35.96" height="42.918">
						<feColorMatrix  type="matrix" values="1 0 0 0 0  0 1 0 0 0  0 0 1 0 0  0 0 0 1 0"/>
					</filter>
				</defs>
				<mask maskUnits="userSpaceOnUse" x="12.024" y="5" width="35.96" height="42.918" id="mask-2_1_">
					<g filter="url(#Adobe_OpacityMaskFilter)">
						<rect id="path-1_1_" x="6" y="3" fill="#FFFFFF" width="48" height="48"/>
					</g>
				</mask>
				<path id="Combined-Shape" mask="url(#mask-2_1_)" fill="#4C7BC1" d="M18.737,30.373c-0.26-1.031-0.391-2.003-0.391-2.914v-3.302
					c0-0.447-0.165-0.833-0.494-1.16s-0.72-0.49-1.171-0.49s-0.842,0.164-1.171,0.49s-0.494,0.713-0.494,1.16v3.302
					c0,1.908,0.364,3.748,1.093,5.52L18.737,30.373z M30.004,34.711c2.29,0,4.251-0.808,5.881-2.424
					c1.631-1.615,2.445-3.559,2.445-5.829v-3.301l9.395-9.311c0.173-0.172,0.26-0.37,0.26-0.593c0-0.224-0.087-0.421-0.26-0.593
					l-2.134-2.115c-0.175-0.172-0.374-0.258-0.599-0.258c-0.226,0-0.425,0.086-0.599,0.258L12.284,42.372
					c-0.173,0.172-0.26,0.37-0.26,0.593c0,0.224,0.087,0.422,0.26,0.594l2.134,2.115c0.173,0.172,0.373,0.257,0.598,0.257
					c0.226,0,0.425-0.085,0.599-0.257l6.609-6.552c1.908,1.17,3.946,1.866,6.115,2.089v3.405h-6.661
					c-0.451,0-0.842,0.163-1.171,0.49c-0.33,0.326-0.495,0.714-0.495,1.161c0,0.445,0.165,0.834,0.495,1.16
					c0.329,0.326,0.72,0.49,1.171,0.49H38.33c0.451,0,0.842-0.164,1.172-0.49c0.329-0.326,0.494-0.715,0.494-1.16
					c0-0.447-0.165-0.834-0.494-1.161c-0.33-0.327-0.721-0.49-1.172-0.49h-6.66v-3.405c3.764-0.412,6.925-2.023,9.484-4.835
					c2.559-2.812,3.838-6.116,3.838-9.917v-3.302c0-0.447-0.165-0.834-0.494-1.161c-0.33-0.327-0.721-0.49-1.172-0.49
					c-0.45,0-0.841,0.164-1.17,0.49c-0.33,0.327-0.495,0.713-0.495,1.161v3.301c0,3.181-1.141,5.902-3.422,8.163
					c-2.28,2.261-5.026,3.392-8.235,3.392c-1.874,0-3.651-0.438-5.334-1.315l2.498-2.475C28.105,34.549,29.05,34.711,30.004,34.711z
					 M34.805,6.522C33.374,5.507,31.773,5,30.004,5c-2.29,0-4.25,0.809-5.88,2.425c-1.63,1.616-2.446,3.559-2.446,5.829v13.205
					l16.158-16.016C37.246,8.843,36.236,7.536,34.805,6.522z"/>
			</g>
		</g>
	</g>
</g>
</svg>
