<?xml version="1.0" encoding="UTF-8" standalone="no"?>
<svg width="48px" height="12px" viewBox="0 0 48 12" version="1.1" xmlns="http://www.w3.org/2000/svg" xmlns:xlink="http://www.w3.org/1999/xlink">
    <!-- Generator: Sketch 41.2 (35397) - http://www.bohemiancoding.com/sketch -->
    <title>more</title>
    <desc>Created with Sketch.</desc>
    <defs>
        <rect id="path-1" x="0" y="0" width="48" height="48"></rect>
    </defs>
    <g id="Page-1" stroke="none" stroke-width="1" fill="none" fill-rule="evenodd">
        <g id="Artboard" transform="translate(-620.000000, -76.000000)">
            <g id="more" transform="translate(620.000000, 59.000000)">
                <g id="Symbols">
                    <mask id="mask-2" fill="white">
                        <use xlink:href="#path-1"></use>
                    </mask>
                    <g id="Mask"></g>
                    <path d="M5.87662222,28.9767892 C9.12355556,28.9767892 11.7539556,26.3589787 11.7539556,23.1276596 C11.7539556,19.8970832 9.12177778,17.27853 5.87662222,17.27853 C2.63182222,17.27853 0,19.8970832 0,23.1276596 C0,26.3589787 2.63182222,28.9767892 5.87662222,28.9767892 L5.87662222,28.9767892 Z M23.5104,28.9767892 C26.7562667,28.9767892 29.3873778,26.3589787 29.3873778,23.1276596 C29.3873778,19.8970832 26.7566222,17.27853 23.5104,17.27853 C20.2659556,17.27853 17.6337778,19.8970832 17.6337778,23.1276596 C17.6334222,26.3589787 20.2641778,28.9767892 23.5104,28.9767892 L23.5104,28.9767892 Z M42.1219556,28.9767892 C45.3688889,28.9767892 47.9996444,26.3589787 47.9996444,23.1276596 C47.9996444,19.8970832 45.3688889,17.27853 42.1219556,17.27853 C38.8764444,17.27853 36.2442667,19.8970832 36.2442667,23.1276596 C36.2442667,26.3589787 38.8764444,28.9767892 42.1219556,28.9767892 L42.1219556,28.9767892 Z" fill="#4C7BC1" mask="url(#mask-2)"></path>
                </g>
            </g>
        </g>
    </g>
</svg>