<?xml version="1.0" encoding="utf-8"?>
<!-- Generator: Adobe Illustrator 16.0.0, SVG Export Plug-In . SVG Version: 6.00 Build 0)  -->
<!DOCTYPE svg PUBLIC "-//W3C//DTD SVG 1.1//EN" "http://www.w3.org/Graphics/SVG/1.1/DTD/svg11.dtd">
<svg version="1.1" id="Layer_1" xmlns="http://www.w3.org/2000/svg" xmlns:xlink="http://www.w3.org/1999/xlink" x="0px" y="0px"
	 width="48px" height="48px" viewBox="0 0 48 48" enable-background="new 0 0 48 48" xml:space="preserve">
<title>move-x</title>
<desc>Created with Sketch.</desc>
<g id="Page-1">
	<g id="Artboard" transform="translate(-845.000000, -353.000000)">
		<g id="move-x" transform="translate(844.000000, 340.000000)">
			<g id="Shape">
				<g id="Mask">
				</g>
				<defs>
					<filter id="Adobe_OpacityMaskFilter" filterUnits="userSpaceOnUse" x="2.259" y="26.973" width="45.482" height="20.055">
						<feColorMatrix  type="matrix" values="1 0 0 0 0  0 1 0 0 0  0 0 1 0 0  0 0 0 1 0"/>
					</filter>
				</defs>
				<mask maskUnits="userSpaceOnUse" x="2.259" y="26.973" width="45.482" height="20.055" id="mask-2_1_">
					<g filter="url(#Adobe_OpacityMaskFilter)">
						<rect id="path-1_1_" x="0.972" y="13.259" fill="#FFFFFF" width="48" height="48"/>
					</g>
				</mask>
				<path id="Combined-Shape" mask="url(#mask-2_1_)" fill="#4C7BC1" d="M33.486,42.586H16.513v3.725
					c0,0.688-0.451,0.92-1.008,0.524L2.676,37.717c-0.556-0.396-0.557-1.038,0-1.434l12.829-9.118
					c0.556-0.396,1.008-0.162,1.008,0.524v3.725h16.973v-3.725c0-0.686,0.453-0.919,1.008-0.524l12.83,9.118
					c0.557,0.396,0.555,1.039,0,1.434l-12.83,9.118c-0.557,0.396-1.008,0.163-1.008-0.524V42.586z"/>
			</g>
		</g>
	</g>
</g>
</svg>
