<?xml version="1.0" encoding="UTF-8" standalone="no"?>
<svg width="36px" height="41px" viewBox="0 0 36 41" version="1.1" xmlns="http://www.w3.org/2000/svg" xmlns:xlink="http://www.w3.org/1999/xlink">
    <!-- Generator: Sketch 41.2 (35397) - http://www.bohemiancoding.com/sketch -->
    <title>ncr</title>
    <desc>Created with Sketch.</desc>
    <defs>
        <rect id="path-1" x="0" y="0" width="48" height="48"></rect>
    </defs>
    <g id="Page-1" stroke="none" stroke-width="1" fill="none" fill-rule="evenodd">
        <g id="Artboard" transform="translate(-234.000000, -120.000000)">
            <g id="ncr" transform="translate(228.000000, 116.000000)">
                <g id="Combined-Shape">
                    <mask id="mask-2" fill="white">
                        <use xlink:href="#path-1"></use>
                    </mask>
                    <g id="Mask"></g>
                    <path d="M40.1995345,29.0050352 L7.76035944,29.0050352 C6.92110753,29.0050352 6.24070099,29.6766504 6.24070099,30.5050586 L6.24070099,37.7370742 C6.24070099,38.5654824 6.92110753,39.2370977 7.76035944,39.2370977 L40.1994533,39.2370977 C41.0387053,39.2370977 41.7191118,38.5654824 41.7191118,37.7370742 L41.7191118,30.5050586 C41.7191118,29.6765703 41.0387864,29.0050352 40.1995345,29.0050352 Z M35.892862,40.7369609 L12.0670319,40.7369609 C11.5075847,40.7369609 11.0539263,41.1846777 11.0539263,41.7369766 L11.0539263,43.4999766 C11.0539263,44.3283848 11.7343328,45 12.5735847,45 L35.3863092,45 C36.2255611,45 36.9059677,44.3283848 36.9059677,43.4999766 L36.9059677,41.7369766 C36.9059677,41.1846777 36.4523903,40.7369609 35.892862,40.7369609 Z M17.8211604,20.1069141 L18.4148428,26.5948438 C18.4619772,27.1101465 18.8995727,27.5048516 19.4238922,27.5048516 L28.5362451,27.5048516 C29.0604024,27.5048516 29.4980789,27.1101465 29.5452944,26.5948438 L30.1388958,20.1069141 C36.5304339,14.5871289 32.6186844,4 23.979947,4 C15.3257144,4 11.4476323,14.6013027 17.8211604,20.1069141 Z M26.1739275,13.2004961 C26.1739275,14.3964629 25.1916498,15.3659687 23.979947,15.3659687 C22.7682441,15.3659687 21.7861287,14.3964629 21.7861287,13.2004961 C21.7861287,10.3389043 26.1739275,10.3360215 26.1739275,13.2004961 Z" fill="#4C7BC1" mask="url(#mask-2)"></path>
                </g>
            </g>
        </g>
    </g>
</svg>