<?xml version="1.0" encoding="UTF-8" standalone="no"?>
<svg width="43px" height="37px" viewBox="0 0 43 37" version="1.1" xmlns="http://www.w3.org/2000/svg" xmlns:xlink="http://www.w3.org/1999/xlink">
    <!-- Generator: Sketch 41.2 (35397) - http://www.bohemiancoding.com/sketch -->
    <title>no-favourite</title>
    <desc>Created with Sketch.</desc>
    <defs>
        <rect id="path-1" x="0" y="0" width="48" height="48"></rect>
    </defs>
    <g id="Page-1" stroke="none" stroke-width="1" fill="none" fill-rule="evenodd">
        <g id="Artboard" transform="translate(-398.000000, -179.000000)">
            <g id="no-favourite" transform="translate(395.000000, 173.000000)">
                <g id="Shape-Copy">
                    <mask id="mask-2" fill="white">
                        <use xlink:href="#path-1"></use>
                    </mask>
                    <g id="Mask"></g>
                    <path d="M34.1277595,12 C32.1960153,12 30.5990359,13.2199814 29.4355043,14.6490532 C28.2719727,16.078125 24.3214,20.9821971 24.3214,20.9821971 C24.3214,20.9821971 20.2336589,16.0653444 19.2077718,14.648761 C18.1818848,13.2321777 16.4466802,12 14.5144842,12 C11.4707556,12 9,14.4751313 9,17.534413 C9,19.1536136 9.69537953,20.6473963 10.9005767,21.7004501 L11.0544907,21.8349341 L11.1988961,21.9795803 L24.3217277,35 L37.4445593,21.9795803 L37.5890023,21.8348964 L37.7429588,21.7003801 C38.9482804,20.6472553 39.643715,19.1534719 39.643715,17.534413 C39.643715,14.475649 37.1720063,12 34.1277595,12 Z M24.3217277,11.5106955 C24.3217277,11.5106955 27.1468159,8.41237445 28.7501657,7.33851144 C30.3535156,6.26464844 32.1830916,6 34.1277595,6 C40.4878066,6 45.643715,11.1640285 45.643715,17.534413 C45.643715,21.0027295 44.1091371,24.1056544 41.6907336,26.2186844 L25.3725903,42.564044 C25.0939066,42.8431807 24.7159526,43 24.3217277,43 C23.9275027,43 23.5495488,42.8431807 23.2708651,42.564044 L6.95272175,26.2186844 C4.53440485,24.1056544 3,21.0027295 3,17.534413 C3,11.1640285 8.1544371,6 14.5144842,6 C16.4592977,6 17.7491772,6.13893931 19.8931433,7.33875676 C22.0371094,8.53857422 24.3217277,11.5106955 24.3217277,11.5106955 Z" fill="#4C7BC1" mask="url(#mask-2)"></path>
                </g>
            </g>
        </g>
    </g>
</svg>