<?xml version="1.0" encoding="UTF-8" standalone="no"?>
<svg width="33px" height="42px" viewBox="0 0 33 42" version="1.1" xmlns="http://www.w3.org/2000/svg" xmlns:xlink="http://www.w3.org/1999/xlink">
    <!-- Generator: Sketch 41.2 (35397) - http://www.bohemiancoding.com/sketch -->
    <title>notifications</title>
    <desc>Created with Sketch.</desc>
    <defs>
        <rect id="path-1" x="0" y="0" width="48" height="48"></rect>
    </defs>
    <g id="Page-1" stroke="none" stroke-width="1" fill="none" fill-rule="evenodd">
        <g id="Artboard" transform="translate(-908.000000, -119.000000)">
            <g id="notifications" transform="translate(900.000000, 116.000000)">
                <g id="Combined-Shape">
                    <mask id="mask-2" fill="white">
                        <use xlink:href="#path-1"></use>
                    </mask>
                    <g id="Mask"></g>
                    <path d="M19.4651961,39.9874383 C19.465104,39.9984107 19.4643677,40.0092917 19.4643677,40.0202641 C19.4643677,42.7704982 21.7087017,45 24.4772321,45 C27.2457625,45 29.4900964,42.7704982 29.4900964,40.0202641 C29.4900964,40.0092917 29.4893601,39.9984107 29.489268,39.9874383 L19.4651961,39.9874383 Z M40.4821139,33.7627913 L35.9705268,27.1791637 L35.9705268,18.9654021 C35.9705268,13.4260734 31.999336,8.80870129 26.7309546,7.76815128 L26.7309546,5.23882839 C26.7308626,4.0024209 25.721865,3 24.47714,3 C23.2324151,3 22.2234175,4.0024209 22.2234175,5.23882839 L22.2234175,7.76824272 C16.9550361,8.80888417 12.9838453,13.4262563 12.9838453,18.9654935 L12.9838453,27.1792552 L8.47225817,33.7628828 C7.99702968,34.456339 7.9467731,35.3539734 8.34164628,36.0955253 C8.73651945,36.8370772 9.5117227,37.3008443 10.3562358,37.3008443 L38.5980442,37.3008443 C39.4425573,37.3008443 40.2177606,36.8369857 40.6126338,36.0955253 C41.007599,35.3538819 40.9572504,34.4562475 40.4821139,33.7627913 Z" fill="#4C7BC1" mask="url(#mask-2)"></path>
                </g>
            </g>
        </g>
    </g>
</svg>