<?xml version="1.0" encoding="UTF-8" standalone="no"?>
<svg width="42px" height="47px" viewBox="0 0 42 47" version="1.1" xmlns="http://www.w3.org/2000/svg" xmlns:xlink="http://www.w3.org/1999/xlink">
    <!-- Generator: Sketch 41.2 (35397) - http://www.bohemiancoding.com/sketch -->
    <title>operator</title>
    <desc>Created with Sketch.</desc>
    <defs>
        <rect id="path-1" x="0" y="0" width="48" height="48"></rect>
    </defs>
    <g id="Page-1" stroke="none" stroke-width="1" fill="none" fill-rule="evenodd">
        <g id="Artboard" transform="translate(-623.000000, -116.000000)">
            <g id="operator" transform="translate(620.000000, 116.000000)">
                <mask id="mask-2" fill="white">
                    <use xlink:href="#path-1"></use>
                </mask>
                <g id="Mask"></g>
                <path d="M10.2423024,21.9967082 C10.7173444,23.8610101 13.3048227,23.3479062 13.3048227,21.6204808 C13.3048227,14.6997998 13.6356686,14.0534792 12.7090073,13.3024884 C14.8302272,0.232612153 33.1006786,0.330694782 35.3251047,13.3046842 C34.3991755,14.057871 34.7300213,14.7005318 34.7300213,21.6204808 C34.7300213,22.1628631 35.0220733,22.6174102 35.4392905,22.8984828 C35.4392905,28.28278 33.2543901,27.9673052 26.6872458,29.7086379 C25.6734813,28.6063062 23.8596847,29.323627 23.8596847,30.8102375 C23.8596847,32.6723436 26.5269466,33.1071277 27.0451742,31.2362382 C32.3467599,29.8301432 37.0071486,29.3865755 37.0071486,24.0871857 L37.0071486,23.0002253 C37.4009431,22.7960084 37.6790878,22.4358842 37.7910777,21.9967082 C42.9030857,21.892038 42.9038177,14.2335414 37.7910777,14.1288711 C37.6856755,13.71019 37.4265617,13.3690967 37.0605817,13.1604881 C37.1908706,11.59263 36.8680762,9.53143089 35.9684975,7.54049993 C29.7160959,-5.36175746 11.2472834,-0.312697982 10.9588912,12.1913732 C10.9186334,12.615178 10.9508396,12.9152816 10.9749943,13.1604881 C10.6090143,13.3690967 10.3491686,13.71019 10.2423024,14.1288711 C8.10131968,14.1705928 6.37535821,15.9119255 6.37535821,18.0631556 C6.37535821,20.2129219 8.10131968,21.9549865 10.2423024,21.9967082 Z M24.0770483,27.8570081 C18.7127514,27.8570081 14.3665155,22.7789417 14.3665155,16.5194355 C14.3665155,10.2606059 18.7127514,5.621333 24.0770483,5.621333 C29.4421784,5.621333 33.7920249,10.2606059 33.7920249,16.5194355 C33.7920249,22.7789417 29.4420395,27.8570081 24.0770483,27.8570081 Z M7.03769535,46.9920506 C7.03769535,46.9920506 4.72935712,47.140548 3.71261132,45.7750997 C3.16322932,45.0374663 3.54592913,43.5426326 3.9216255,42.708529 L4.84172364,40.664907 C4.84172364,40.664907 7.38631169,35.1183229 10.28294,31.9041649 C12.0622841,29.933199 14.178572,30.3820283 15.5473581,31.0230397 C16.3904182,31.4174149 17.3436661,32.5665636 18.0402762,33.17557 C19.0002162,34.0146791 20.6948963,34.9683087 23.4654625,35.0220044 L25.1652784,35.0220044 C27.9341326,34.9683087 29.6288127,34.0146791 30.5879745,33.17557 C31.2838065,32.5667153 32.2107525,31.3819211 33.0461867,30.9745012 C34.3024506,30.3615511 36.214549,29.9844677 37.947359,31.9043166 C40.8449211,35.1186263 43.1397193,40.765776 43.1397193,40.765776 L44.0826954,42.7698089 C44.4728655,43.5981485 44.8725293,45.0855498 44.3383992,45.8330425 C43.385307,47.1695194 41.245363,46.9922023 41.245363,46.9922023 L7.03769535,46.9920506 Z" id="Combined-Shape" fill="#4C7BC1" mask="url(#mask-2)"></path>
            </g>
        </g>
    </g>
</svg>