<?xml version="1.0" encoding="utf-8"?>
<!-- Generator: Adobe Illustrator 16.0.0, SVG Export Plug-In . SVG Version: 6.00 Build 0)  -->
<!DOCTYPE svg PUBLIC "-//W3C//DTD SVG 1.1//EN" "http://www.w3.org/Graphics/SVG/1.1/DTD/svg11.dtd">
<svg version="1.1" id="Layer_1" xmlns="http://www.w3.org/2000/svg" xmlns:xlink="http://www.w3.org/1999/xlink" x="0px" y="0px"
	 width="48px" height="48px" viewBox="0 0 48 48" enable-background="new 0 0 48 48" xml:space="preserve">
<title>pause</title>
<desc>Created with Sketch.</desc>
<g id="Page-1">
	<g id="Artboard" transform="translate(-684.000000, -347.000000)">
		<g id="pause" transform="translate(676.000000, 340.000000)">
			<g id="Mask">
			</g>
			<defs>
				<filter id="Adobe_OpacityMaskFilter" filterUnits="userSpaceOnUse" x="16" y="14" width="32" height="34">
					<feColorMatrix  type="matrix" values="1 0 0 0 0  0 1 0 0 0  0 0 1 0 0  0 0 0 1 0"/>
				</filter>
			</defs>
			<mask maskUnits="userSpaceOnUse" x="16" y="14" width="32" height="34" id="mask-2">
				<g filter="url(#Adobe_OpacityMaskFilter)">
					<rect id="path-1" x="8" y="7" fill="#FFFFFF" width="48" height="48"/>
				</g>
			</mask>
			<path id="Combined-Shape" mask="url(#mask-2)" fill="#4C7BC1" d="M16,16c0-1.104,0.9-2,1.992-2h7.016C26.108,14,27,14.892,27,16
				v30c0,1.104-0.9,2-1.992,2h-7.016C16.892,48,16,47.107,16,46V16z M37,16c0-1.104,0.9-2,1.992-2h7.016c1.1,0,1.992,0.892,1.992,2
				v30c0,1.104-0.9,2-1.992,2h-7.016C37.893,48,37,47.107,37,46V16z"/>
		</g>
	</g>
</g>
</svg>
