<?xml version="1.0" encoding="UTF-8" standalone="no"?>
<svg width="42px" height="43px" viewBox="0 0 42 43" version="1.1" xmlns="http://www.w3.org/2000/svg" xmlns:xlink="http://www.w3.org/1999/xlink">
    <!-- Generator: Sketch 41.2 (35397) - http://www.bohemiancoding.com/sketch -->
    <title>payment</title>
    <desc>Created with Sketch.</desc>
    <defs>
        <rect id="path-1" x="0" y="0" width="48" height="48"></rect>
    </defs>
    <g id="Page-1" stroke="none" stroke-width="1" fill="none" fill-rule="evenodd">
        <g id="Artboard" transform="translate(-789.000000, -60.000000)">
            <g id="payment" transform="translate(788.000000, 59.000000)">
                <g id="Symbols">
                    <mask id="mask-2" fill="white">
                        <use xlink:href="#path-1"></use>
                    </mask>
                    <g id="Mask"></g>
                    <path d="M34.4875,12.0747241 C35.116,12.0747241 35.2945,11.2310345 34.726,10.976 L12.5845,1.23131034 C11.2375,0.633758621 9.652,1.23131034 9.049,2.57617241 L1.2955,19.8295517 C0.6925,21.1655172 1.2955,22.7402069 2.6515,23.3377586 L7.117,25.2549655 C7.675,25.5011034 8.3125,25.0977931 8.3125,24.4883793 L8.3125,17.1650345 C8.3125,14.3596552 10.6075,12.0821379 13.435,12.0821379 L34.4875,12.0821379 L34.4875,12.0747241 L34.4875,12.0747241 L34.4875,12.0747241 Z M40.282,14.4664138 L13.426,14.4664138 C11.9275,14.4664138 10.714,15.6704138 10.714,17.1576207 L10.714,35.9842069 C10.714,37.469931 11.9275,38.673931 13.426,38.673931 L17.032,38.673931 C16.9435,38.1475517 16.9,37.6093103 16.9,37.0651379 C16.9,36.4497931 16.963,35.8507586 17.068,35.2621034 L14.161,35.2621034 L14.161,26.2484138 L39.556,26.2484138 L39.556,35.2532069 L36.6415,35.2532069 C36.748,35.8403793 36.8095,36.4408966 36.8095,37.0547586 C36.8095,37.6004138 36.766,38.1371724 36.676,38.6650345 L40.282,38.6650345 C41.7805,38.6650345 42.994,37.4610345 42.994,35.9753103 L42.994,17.1561379 C42.994,15.6704138 41.782,14.4664138 40.282,14.4664138 L40.282,14.4664138 Z M39.556,20.699931 L14.161,20.699931 L14.161,17.8782414 L39.556,17.8782414 L39.556,20.699931 L39.556,20.699931 Z M26.8585,30.1451034 C23.014,30.1451034 19.894,33.2396207 19.894,37.0547586 C19.894,40.8713793 23.014,43.9673793 26.8585,43.9673793 C30.703,43.9673793 33.8245,40.8713793 33.8245,37.0547586 C33.8245,33.2396207 30.7045,30.1451034 26.8585,30.1451034 L26.8585,30.1451034 Z M28.861,39.7815517 C28.5595,40.1507586 28.1605,40.3968966 27.7015,40.5214483 C27.496,40.5733448 27.409,40.6771379 27.418,40.8891724 C27.427,41.0923103 27.418,41.2939655 27.418,41.506 C27.418,41.6898621 27.322,41.7862414 27.142,41.7862414 C26.923,41.7951379 26.6995,41.7951379 26.479,41.7862414 C26.284,41.7862414 26.197,41.672069 26.197,41.4882069 L26.197,41.038931 C26.197,40.7127241 26.1775,40.6964138 25.8595,40.6415517 C25.4515,40.5807586 25.0525,40.4843793 24.6805,40.307931 C24.3895,40.1655862 24.352,40.0958966 24.442,39.7889655 C24.5035,39.5606207 24.565,39.3307931 24.6355,39.1113448 C24.7165,38.8474138 24.7885,38.8222069 25.036,38.9437931 C25.4515,39.1558276 25.8865,39.2788966 26.347,39.3322759 C26.6395,39.3663793 26.9335,39.3411724 27.2065,39.2166207 C27.721,38.9986552 27.8005,38.4085172 27.3655,38.0571034 C27.214,37.9340345 27.055,37.845069 26.878,37.7753793 C26.425,37.5826207 25.957,37.4343448 25.54,37.1793103 C24.8485,36.7745172 24.415,36.2125517 24.4675,35.3762759 C24.52,34.4347241 25.0615,33.8549655 25.93,33.5391379 C26.284,33.4056897 26.293,33.4145862 26.293,33.0468621 L26.293,32.6672759 C26.302,32.3870345 26.3455,32.3425517 26.6305,32.3336552 L26.887,32.3336552 C27.4885,32.3336552 27.4885,32.3336552 27.4885,32.9297241 C27.4885,33.3523103 27.4885,33.3523103 27.9145,33.4131034 C28.2325,33.4664828 28.543,33.5554483 28.8445,33.6874138 C29.0125,33.7585862 29.074,33.8712759 29.0215,34.0477241 C28.9495,34.3027586 28.879,34.5666897 28.792,34.8128276 C28.711,35.050069 28.633,35.0856552 28.402,34.9803793 C27.9325,34.7520345 27.4435,34.663069 26.932,34.6897586 C26.797,34.6986552 26.665,34.717931 26.5405,34.7698276 C26.098,34.964069 26.017,35.4563448 26.398,35.7543793 C26.5945,35.9041379 26.8045,36.0183103 27.037,36.1146897 C27.436,36.2718621 27.8245,36.432 28.2055,36.641069 C29.3755,37.2845862 29.7025,38.7717931 28.861,39.7815517 L28.861,39.7815517 Z" fill="#4C7BC1" mask="url(#mask-2)"></path>
                </g>
            </g>
        </g>
    </g>
</svg>