<?xml version="1.0" encoding="UTF-8" standalone="no"?>
<svg width="367px" height="393px" viewBox="0 0 367 393" version="1.1" xmlns="http://www.w3.org/2000/svg" xmlns:xlink="http://www.w3.org/1999/xlink">
    <!-- Generator: Sketch 41.2 (35397) - http://www.bohemiancoding.com/sketch -->
    <title>ingenico</title>
    <desc>Created with Sketch.</desc>
    <defs></defs>
    <g id="Welcome" stroke="none" stroke-width="1" fill="none" fill-rule="evenodd">
        <g id="complete-payment" transform="translate(-892.000000, -80.000000)">
            <g id="ingenico" transform="translate(1076.000000, 276.500000) rotate(-270.000000) translate(-1076.000000, -276.500000) translate(880.500000, 94.500000)">
                <path d="M62.8997921,20.6082 C62.8997921,20.6082 55.4746938,1.3018918 92.601238,1.3018918 C119.664169,1.3018918 241.802989,-1.97862295 390.147087,4.96023934" id="Stroke-1" stroke="#373A42" stroke-width="3" stroke-linecap="round" stroke-linejoin="round"></path>
                <path d="M221.061649,191.393356 L221.061649,318.740897 C221.061649,319.767044 220.229154,320.597434 219.206164,320.597434 L79.9784656,320.597434 C78.952318,320.597434 78.1219279,319.767044 78.1219279,318.740897 L78.1219279,192.137444" id="Stroke-7" stroke="#373A42" stroke-width="3" stroke-linecap="round" stroke-linejoin="round"></path>
                <path d="M79.6055793,319.854925 C79.6055793,319.854925 70.3260482,336.933177 70.3260482,191.39283" id="Stroke-9" stroke="#373A42" stroke-width="3" stroke-linecap="round" stroke-linejoin="round"></path>
                <path d="M221.061649,191.375885 L221.061649,64.77138 C221.061649,63.7462849 220.229154,62.9148423 219.206164,62.9148423 L79.9784656,62.9148423 C78.952318,62.9148423 78.1219279,63.7462849 78.1219279,64.77138 L78.1219279,191.745298" id="Stroke-15" stroke="#373A42" stroke-width="3" stroke-linecap="round" stroke-linejoin="round"></path>
                <path d="M79.9786761,63.2852026 C79.9786761,63.2852026 70.325522,46.5784682 70.325522,192.117763" id="Stroke-17" stroke="#373A42" stroke-width="3" stroke-linecap="round" stroke-linejoin="round"></path>
                <path d="M10.9213672,311.687106 C10.9213672,311.687106 22.3889607,351.658447 41.3658492,357.354355 C52.504023,360.69486 141.608361,363.665952 201.012305,363.665952 C227.312203,363.665952 340.164125,362.506142 390.084361,359.923408" id="Stroke-19" stroke="#373A42" stroke-width="3" stroke-linecap="round" stroke-linejoin="round"></path>
                <path d="M11.6633508,68.8742862 C11.6633508,68.8742862 22.3879082,28.9008403 41.3658492,23.207037 C52.504023,19.8665321 141.608361,16.8954403 201.012305,16.8954403 C226.412351,16.8954403 337.25197,17.9773682 384.986249,20.3790797" id="Stroke-21" stroke="#373A42" stroke-width="3" stroke-linecap="round" stroke-linejoin="round"></path>
                <path d="M269.992784,267.542449 C269.992784,265.39859 268.330951,263.66098 266.279709,263.66098 L236.574053,263.66098 C234.52281,263.66098 232.859925,265.39859 232.859925,267.542449 L232.859925,300.920134 C232.859925,311.399469 238.803161,319.937016 246.599778,319.937016 C254.398499,319.937016 268.877178,319.160302 269.992784,267.542449 Z" id="Stroke-49" stroke="#373A42" stroke-width="3" stroke-linecap="round" stroke-linejoin="round"></path>
                <path d="M269.992784,115.013984 C269.992784,117.157843 268.330951,118.895453 266.279709,118.895453 L236.574053,118.895453 C234.52281,118.895453 232.859925,117.157843 232.859925,115.013984 L232.859925,81.636299 C232.859925,71.1559121 238.803161,62.619417 246.599778,62.619417 C254.398499,62.619417 268.877178,63.3950793 269.992784,115.013984 Z" id="Stroke-57" stroke="#373A42" stroke-width="3" stroke-linecap="round" stroke-linejoin="round"></path>
                <path d="M0.526229508,192.137444 C0.526229508,272.331664 4.98128852,286.44093 10.9213672,311.687316 C16.8614459,336.932651 28.3711377,348.071877 86.2890098,348.071877 C118.916292,348.071877 285.609911,348.31289 390.136984,344.574556" id="Stroke-3" stroke="#373A42" stroke-width="3" stroke-linecap="round" stroke-linejoin="round"></path>
                <path d="M12.4075446,192.137444 C12.4075446,264.906566 19.8315905,296.835015 27.2566889,310.201244 C34.6838921,323.567474 48.0490692,329.507552 80.719502,329.507552 C113.39204,329.507552 216.581436,329.478084 250.765305,328.764516 C268.585541,328.395103 274.52562,310.201244 276.01064,290.894936 C277.495659,271.58968 278.238695,232.978116 278.238695,191.393356" id="Stroke-5" stroke="#373A42" stroke-width="3" stroke-linecap="round" stroke-linejoin="round"></path>
                <path d="M0.526229508,191.744772 C0.526229508,111.552657 4.98128852,97.0718734 10.9213672,71.826539 C16.8614459,46.5780472 28.3711377,35.4409259 86.2890098,35.4409259 C118.37638,35.4409259 282.427275,35.2083325 384.953623,38.7561718" id="Stroke-11" stroke="#373A42" stroke-width="3" stroke-linecap="round" stroke-linejoin="round"></path>
                <path d="M12.4075446,191.744772 C12.4075446,118.97565 19.8315905,86.6767357 27.2566889,73.3115587 C34.6838921,59.9463816 48.0490692,54.0052505 80.719502,54.0052505 C113.39204,54.0052505 216.581436,54.0336669 250.765305,54.7461816 C268.585541,55.1187521 274.52562,73.3115587 276.01064,92.6168144 C277.495659,111.923123 278.238695,149.794808 278.238695,191.375359" id="Stroke-13" stroke="#373A42" stroke-width="3" stroke-linecap="round" stroke-linejoin="round"></path>
                <path d="M267.022429,253.182067 C269.071567,253.182067 270.7334,251.446562 270.7334,249.30165 L270.7334,200.010785 C270.7334,197.866926 269.071567,196.130369 267.022429,196.130369 L236.573737,196.130369 C234.522495,196.130369 232.85961,197.866926 232.85961,200.010785 L232.85961,249.30165 C232.85961,251.446562 234.522495,253.182067 236.573737,253.182067 L267.022429,253.182067 Z" id="Stroke-45" stroke="#373A42" stroke-width="3" stroke-linecap="round" stroke-linejoin="round"></path>
                <path d="M267.022429,129.373209 C269.071567,129.373209 270.7334,131.110819 270.7334,133.254678 L270.7334,182.545543 C270.7334,184.690455 269.071567,186.42596 267.022429,186.42596 L236.573737,186.42596 C234.522495,186.42596 232.85961,184.690455 232.85961,182.545543 L232.85961,133.254678 C232.85961,131.110819 234.522495,129.373209 236.573737,129.373209 L267.022429,129.373209 Z" id="Stroke-53" stroke="#373A42" stroke-width="3" stroke-linecap="round" stroke-linejoin="round"></path>
                <path d="M252.658995,228.657983 L255.673237,228.657983 L255.673237,225.068045 L256.456267,225.068045 L256.456267,228.657983 L260.070411,228.657983 L260.070411,229.534681 L251.874913,229.534681 L251.874913,224.447094 L252.658995,224.447094 L252.658995,228.657983 Z M260.070411,223.262025 L259.334742,223.262025 L255.225942,220.027819 C254.82285,219.716291 254.466067,219.566842 254.015614,219.566842 C253.129444,219.566842 252.543224,220.095176 252.543224,220.993976 C252.543224,221.752799 252.968418,222.422163 254.028244,222.422163 L254.028244,223.249396 C252.738982,223.249396 251.80545,222.363225 251.80545,220.993976 C251.80545,219.647881 252.670572,218.736451 254.015614,218.736451 C254.671296,218.736451 255.099647,218.944838 255.673237,219.394238 L259.334742,222.260084 L259.334742,218.736451 L260.070411,218.736451 L260.070411,223.262025 Z M252.658995,161.829887 L255.673237,161.829887 L255.673237,158.238897 L256.456267,158.238897 L256.456267,161.829887 L260.070411,161.829887 L260.070411,162.704481 L251.874913,162.704481 L251.874913,157.616894 L252.658995,157.616894 L252.658995,161.829887 Z M260.151661,154.32596 C260.151661,155.616274 259.472825,156.662419 257.987805,156.732933 L257.987805,155.902543 C259.0129,155.834133 259.415992,155.110042 259.415992,154.32596 C259.415992,153.438737 258.82872,152.748324 257.826779,152.748324 C256.837468,152.748324 256.237566,153.244032 256.237566,154.359638 L256.237566,154.533294 L255.513474,154.533294 L255.513474,154.359638 C255.513474,153.357697 254.949356,152.897773 254.028454,152.897773 C253.049668,152.897773 252.531858,153.530301 252.531858,154.32596 C252.531858,155.188976 253.061245,155.716258 253.902159,155.799402 L253.902159,156.62874 C252.579218,156.536124 251.797241,155.568914 251.797241,154.32596 C251.797241,152.990389 252.680254,152.068435 254.015825,152.068435 C254.880946,152.068435 255.501897,152.437848 255.834474,153.17457 C256.146002,152.346284 256.814313,151.918986 257.838356,151.918986 C259.34653,151.918986 260.151661,152.990389 260.151661,154.32596 Z M250.430729,282.12269 L253.448129,282.12269 L253.448129,278.530648 L254.229053,278.530648 L254.229053,282.12269 L257.84425,282.12269 L257.84425,282.997284 L249.648751,282.997284 L249.648751,277.909697 L250.430729,277.909697 L250.430729,282.12269 Z M257.84425,274.538565 L250.568601,274.538565 L251.915748,276.069893 L250.972745,276.069893 L249.648751,274.538565 L249.648751,273.709228 L257.84425,273.709228 L257.84425,274.538565 Z M250.430729,109.109268 L253.448129,109.109268 L253.448129,105.516173 L254.229053,105.516173 L254.229053,109.109268 L257.84425,109.109268 L257.84425,109.983862 L249.648751,109.983862 L249.648751,104.895222 L250.430729,104.895222 L250.430729,109.109268 Z M256.542042,99.9485597 L257.843934,99.9485597 L257.843934,100.764215 L256.542042,100.764215 L256.542042,104.034206 L255.794796,104.034206 L249.648436,101.075743 L249.648436,100.189573 L255.794796,103.148035 L255.794796,100.764215 L253.468862,100.764215 L253.468862,99.9485597 L255.794796,99.9485597 L255.794796,98.9466187 L256.542042,98.9466187 L256.542042,99.9485597 Z M238.129167,152.968288 C238.129167,151.214891 239.371068,150.497114 240.889767,151.373812 L247.801265,155.364737 C249.319963,156.242488 249.319963,157.676989 247.801265,158.55474 L240.889767,162.545665 C239.371068,163.42131 238.129167,162.703533 238.129167,160.950137 L238.129167,152.968288 Z M248.940447,228.411286 C248.940447,230.16363 247.69644,230.88246 246.179847,230.005762 L239.267296,226.014837 C237.748597,225.137086 237.748597,223.701532 239.267296,222.823781 L246.179847,218.833909 C247.69644,217.958263 248.940447,218.673935 248.940447,220.429437 L248.940447,228.411286 Z M239.997702,303.519287 C241.433256,303.519287 242.597276,302.355268 242.597276,300.919713 L242.597276,274.189359 C242.597276,272.753805 241.433256,271.589786 239.997702,271.589786 C238.562148,271.589786 237.398129,272.753805 237.398129,274.189359 L237.398129,300.919713 C237.398129,302.355268 238.562148,303.519287 239.997702,303.519287 Z M239.997702,111.941856 C241.433256,111.941856 242.597276,110.777837 242.597276,109.342283 L242.597276,82.6108761 C242.597276,81.1763744 241.433256,80.0113023 239.997702,80.0113023 C238.562148,80.0113023 237.398129,81.1763744 237.398129,82.6108761 L237.398129,109.342283 C237.398129,110.777837 238.562148,111.941856 239.997702,111.941856 Z" id="Combined-Shape" fill="#373A42"></path>
                <path d="M28.0998138,99.5405213 C27.6356793,103.801928 27.0726138,106.686718 26.5316498,109.472577 C25.8654433,112.889911 25.2392302,116.114646 24.9013908,121.161187 C24.7361548,123.611311 26.5937449,125.739384 29.0480793,125.902515 C31.5024138,126.066698 33.6273285,124.210161 33.7904597,121.754774 C34.0925154,117.268141 34.6408466,114.444393 35.2775843,111.175456 C35.8280203,108.344341 36.4521285,105.140656 36.9583613,100.509836 C36.9762531,100.345652 36.9846728,100.182521 36.9846728,100.020443 C36.9846728,97.7766 35.2944236,95.8453377 33.0147974,95.5969574 C30.5678302,95.3285803 28.3681908,97.095659 28.0998138,99.5405213 Z M23.2743944,140.380878 C22.4482141,147.929114 22.2303551,151.430645 21.8967256,156.726619 C21.8020043,158.277943 21.6946534,159.983979 21.5599387,161.998386 C21.3989125,164.45272 23.2522928,166.57974 25.7076797,166.743924 C28.1630666,166.908107 30.2858764,165.050517 30.45006,162.59513 C30.5858272,160.564937 30.693178,158.846271 30.7921092,157.284422 C31.1152141,152.111586 31.3278108,148.692147 32.130837,141.351245 C32.1508338,141.186009 32.158201,141.022878 32.158201,140.860799 C32.158201,138.615904 30.4690043,136.687799 28.1883256,136.437314 C25.7413584,136.168937 23.541719,137.937068 23.2743944,140.380878 Z M24.9013908,264.06744 C25.2392302,269.113981 25.8654433,272.338715 26.5316498,275.753945 C27.0726138,278.540856 27.6356793,281.424594 28.0998138,285.686001 C28.3681908,288.131915 30.5678302,289.897942 33.0147974,289.628512 C35.2944236,289.380132 36.9846728,287.450974 36.9846728,285.206079 C36.9846728,285.045053 36.9762531,284.881922 36.9583613,284.714581 C36.4521285,280.085866 35.8280203,276.882181 35.2775843,274.053171 C34.6408466,270.782129 34.0925154,267.960486 33.7904597,263.471748 C33.6273285,261.018466 31.5024138,259.159824 29.0480793,259.324007 C26.5937449,259.489243 24.7361548,261.61521 24.9013908,264.06744 Z M20.4459108,182.38778 C20.6942911,186.10717 20.5616813,188.665698 20.4195993,191.372622 C20.2406813,194.802586 20.0554485,198.348321 20.6753469,204.00634 C20.9426715,206.451203 23.1433633,208.218281 25.589278,207.949904 C27.8699567,207.701524 29.5591534,205.770262 29.5591534,203.526419 C29.5591534,203.36434 29.5496813,203.201209 29.532842,203.035973 C28.991878,198.093626 29.1507993,195.054124 29.3181403,191.837809 C29.466537,188.988803 29.6201961,186.04297 29.3360321,181.792088 C29.1718485,179.338806 27.0469338,177.479111 24.5936518,177.643294 C22.1372125,177.807478 20.2817272,179.93134 20.4459108,182.38778 Z M21.5600439,223.228136 C21.6947587,225.242543 21.801057,226.949631 21.8968308,228.498851 C22.2304603,233.797982 22.4483193,237.297408 23.2744997,244.845644 C23.5418243,247.292611 25.7414636,249.058638 28.1884308,248.789208 C30.4691095,248.540828 32.1583062,246.609566 32.1583062,244.36467 C32.1583062,244.203644 32.150939,244.040513 32.1309423,243.875277 C31.3279161,236.53648 31.1153193,233.117041 30.791162,227.944205 C30.6932833,226.382356 30.5859325,224.65948 30.4501652,222.631392 C30.2859816,220.176005 28.1621193,218.32052 25.7067325,218.483651 C23.2513456,218.647834 21.3990177,220.773802 21.5600439,223.228136 Z" id="Combined-Shape" fill="#373A42"></path>
                <rect id="Rectangle-3" fill="#373A42" transform="translate(150.493430, 191.688255) rotate(-90.000000) translate(-150.493430, -191.688255) " x="19.9885121" y="120.121042" width="261.009836" height="143.134426"></rect>
            </g>
        </g>
    </g>
</svg>