<?xml version="1.0" encoding="UTF-8" standalone="no"?>
<svg width="40px" height="40px" viewBox="0 0 40 40" version="1.1" xmlns="http://www.w3.org/2000/svg" xmlns:xlink="http://www.w3.org/1999/xlink">
    <!-- Generator: Sketch 41.2 (35397) - http://www.bohemiancoding.com/sketch -->
    <title>phone</title>
    <desc>Created with Sketch.</desc>
    <defs>
        <rect id="path-1" x="0" y="0" width="48" height="48"></rect>
    </defs>
    <g id="Page-1" stroke="none" stroke-width="1" fill="none" fill-rule="evenodd">
        <g id="Artboard" transform="translate(-960.000000, -120.000000)">
            <g id="phone" transform="translate(956.000000, 116.000000)">
                <g id="Fill-1">
                    <mask id="mask-2" fill="white">
                        <use xlink:href="#path-1"></use>
                    </mask>
                    <g id="Mask"></g>
                    <path d="M33.3333333,28 C30.6666667,30.6666667 30.6666667,33.3333333 28,33.3333333 C25.3325,33.3333333 22.6666667,30.6666667 20,28 C17.3333333,25.3333333 14.6666667,22.6666667 14.6666667,20 C14.6666667,17.3333333 17.3333333,17.3333333 20,14.6666667 C22.6666667,12 14.6666667,4 11.9991667,4 C9.33333333,4 4,12 4,12 C4,17.3333333 9.47916667,28.1458333 14.6666667,33.3333333 C19.8541667,38.5208333 30.6666667,44 36,44 C36,44 44,38.6666667 44,36.0008333 C44,33.3333333 36,25.3333333 33.3333333,28" fill="#4C7BC1" mask="url(#mask-2)"></path>
                </g>
            </g>
        </g>
    </g>
</svg>