<?xml version="1.0" encoding="utf-8"?>
<!-- Generator: Adobe Illustrator 16.0.0, SVG Export Plug-In . SVG Version: 6.00 Build 0)  -->
<!DOCTYPE svg PUBLIC "-//W3C//DTD SVG 1.1//EN" "http://www.w3.org/Graphics/SVG/1.1/DTD/svg11.dtd">
<svg version="1.1" id="Layer_1" xmlns="http://www.w3.org/2000/svg" xmlns:xlink="http://www.w3.org/1999/xlink" x="0px" y="0px"
	 width="48px" height="48px" viewBox="0 0 48 48" enable-background="new 0 0 48 48" xml:space="preserve">
<title>pie-chart</title>
<desc>Created with Sketch.</desc>
<g id="Page-1">
	<g id="Artboard" transform="translate(-849.000000, -401.000000)">
		<g id="pie-chart" transform="translate(844.000000, 396.000000)">
			<g id="chart">
				<g id="Mask">
				</g>
				<defs>
					<filter id="Adobe_OpacityMaskFilter" filterUnits="userSpaceOnUse" x="9.538" y="9.5" width="38.924" height="39">
						<feColorMatrix  type="matrix" values="1 0 0 0 0  0 1 0 0 0  0 0 1 0 0  0 0 0 1 0"/>
					</filter>
				</defs>
				<mask maskUnits="userSpaceOnUse" x="9.538" y="9.5" width="38.924" height="39" id="mask-2">
					<g filter="url(#Adobe_OpacityMaskFilter)">
						<rect id="path-1" x="4.538" y="4.5" fill="#FFFFFF" width="48" height="48"/>
					</g>
				</mask>
				<path id="Combined-Shape" mask="url(#mask-2)" fill="#4C7BC1" d="M31.962,9.5c-0.7,0-1.27,0.569-1.27,1.272v15.261
					c0,0.703,0.569,1.271,1.27,1.271h15.23c0.701,0,1.27-0.569,1.27-1.271C48.462,16.917,41.06,9.5,31.962,9.5z M41.27,30.695
					H27.308V16.707c0-0.703-0.568-1.272-1.269-1.272c-9.098,0-16.5,7.417-16.5,16.532c0,9.117,7.402,16.533,16.5,16.533
					c9.097,0,16.5-7.416,16.5-16.533C42.539,31.265,41.97,30.695,41.27,30.695z"/>
			</g>
		</g>
	</g>
</g>
</svg>
