<?xml version="1.0" encoding="utf-8"?>
<!-- Generator: Adobe Illustrator 16.0.0, SVG Export Plug-In . SVG Version: 6.00 Build 0)  -->
<!DOCTYPE svg PUBLIC "-//W3C//DTD SVG 1.1//EN" "http://www.w3.org/Graphics/SVG/1.1/DTD/svg11.dtd">
<svg version="1.1" id="Layer_1" xmlns="http://www.w3.org/2000/svg" xmlns:xlink="http://www.w3.org/1999/xlink" x="0px" y="0px"
	 width="48px" height="48px" viewBox="0 0 48 48" enable-background="new 0 0 48 48" xml:space="preserve">
<title>pin</title>
<desc>Created with Sketch.</desc>
<g id="Page-1">
</g>
<path fill="#4C7BC1" d="M23.96,46.93L23.96,46.93c-0.655,0-0.849-0.874-0.922-1.203l-5.035-22.655H9.035
	c-1.376,0-2.495-1.124-2.495-2.506v-0.989c0-1.381,1.119-2.505,2.495-2.505h1.495v-4H9.035c-1.376,0-2.495-1.118-2.495-2.492V3.563
	c0-1.374,1.119-2.492,2.495-2.492h29.93c1.376,0,2.495,1.118,2.495,2.492v7.016c0,1.374-1.119,2.492-2.495,2.492H37.46v4h1.505
	c1.376,0,2.495,1.124,2.495,2.505v0.989c0,1.382-1.119,2.506-2.495,2.506h-9.048l-5.035,22.655
	C24.809,46.056,24.615,46.93,23.96,46.93z"/>
</svg>
