<?xml version="1.0" encoding="utf-8"?>
<!-- Generator: Adobe Illustrator 16.0.0, SVG Export Plug-In . SVG Version: 6.00 Build 0)  -->
<!DOCTYPE svg PUBLIC "-//W3C//DTD SVG 1.1//EN" "http://www.w3.org/Graphics/SVG/1.1/DTD/svg11.dtd">
<svg version="1.1" id="Layer_1" xmlns="http://www.w3.org/2000/svg" xmlns:xlink="http://www.w3.org/1999/xlink" x="0px" y="0px"
	 width="48px" height="48px" viewBox="0 0 48 48" enable-background="new 0 0 48 48" xml:space="preserve">
<title>play</title>
<desc>Created with Sketch.</desc>
<g id="Page-1">
	<g id="Artboard" transform="translate(-518.000000, -344.000000)">
		<g id="play" transform="translate(508.000000, 340.000000)">
			<g id="Mask">
			</g>
			<defs>
				<filter id="Adobe_OpacityMaskFilter" filterUnits="userSpaceOnUse" x="21.5" y="8.038" width="29" height="39.924">
					<feColorMatrix  type="matrix" values="1 0 0 0 0  0 1 0 0 0  0 0 1 0 0  0 0 0 1 0"/>
				</filter>
			</defs>
			<mask maskUnits="userSpaceOnUse" x="21.5" y="8.038" width="29" height="39.924" id="mask-2">
				<g filter="url(#Adobe_OpacityMaskFilter)">
					<rect id="path-1" x="11.5" y="3.507" fill="#FFFFFF" width="48" height="48"/>
				</g>
			</mask>
			<path id="Shape" mask="url(#mask-2)" fill="#4C7BC1" d="M23.075,8.22c-0.306-0.216-0.703-0.242-1.036-0.07
				C21.708,8.321,21.5,8.663,21.5,9.036v37.928c0,0.373,0.208,0.715,0.539,0.887c0.146,0.074,0.304,0.111,0.461,0.111
				c0.202,0,0.404-0.062,0.575-0.182l27-18.965C50.342,28.63,50.5,28.324,50.5,28c0-0.325-0.158-0.63-0.425-0.815L23.075,8.22z"/>
		</g>
	</g>
</g>
</svg>
