<?xml version="1.0" encoding="UTF-8" standalone="no"?>
<svg width="43px" height="40px" viewBox="0 0 43 40" version="1.1" xmlns="http://www.w3.org/2000/svg" xmlns:xlink="http://www.w3.org/1999/xlink">
    <!-- Generator: Sketch 41.2 (35397) - http://www.bohemiancoding.com/sketch -->
    <title>print-desktop</title>
    <desc>Created with Sketch.</desc>
    <defs>
        <rect id="path-1" x="0" y="0" width="48" height="48"></rect>
    </defs>
    <g id="Page-1" stroke="none" stroke-width="1" fill="none" fill-rule="evenodd">
        <g id="Artboard" transform="translate(-567.000000, -177.000000)">
            <g id="print-desktop" transform="translate(564.000000, 173.000000)">
                <g id="Shape">
                    <mask id="mask-2" fill="white">
                        <use xlink:href="#path-1"></use>
                    </mask>
                    <g id="Mask"></g>
                    <path d="M44.5410457,21.8064451 C43.567233,20.8431117 42.4000878,20.3617136 41.0391576,20.3617136 L39.3856944,20.3617136 L39.3856944,13.8169028 C39.3856944,13.13537 39.2128175,12.3850659 38.8680594,11.567334 C38.5235728,10.7492438 38.110388,10.1016488 37.628143,9.62436984 L33.6996744,5.73826249 C33.2174294,5.26143127 32.5628506,4.8522071 31.7363,4.51112726 C30.9092064,4.1704056 30.1516255,4 29.4621093,4 L12.096401,4 C11.4072468,4 10.8213661,4.23846039 10.3389401,4.71573934 C9.85678559,5.19274966 9.61539155,5.77228989 9.61539155,6.45418093 L9.61539155,20.3617136 L7.9616568,20.3617136 C6.60063609,20.3617136 5.43349091,20.8433803 4.45994973,21.8064451 C3.48658957,22.7692412 3,23.9240235 3,25.2706128 L3,35.9062325 C3,36.128127 3.08191286,36.318949 3.24546706,36.4816537 C3.40920228,36.6431942 3.60307781,36.7240541 3.82682212,36.7240541 L9.61539155,36.7240541 L9.61539155,40.8145049 C9.61539155,41.496575 9.85651406,42.0761152 10.3389401,42.5532151 C10.8213661,43.0300463 11.4072468,43.269044 12.096401,43.269044 L36.9040514,43.269044 C37.5929341,43.269044 38.1796293,43.0300463 38.6616028,42.5532151 C39.1438478,42.075757 39.3851513,41.496575 39.3851513,40.8145049 L39.3851513,36.7240541 L45.1736302,36.7240541 C45.397284,36.7240541 45.5911596,36.6431942 45.7547138,36.4816537 C45.918268,36.3190385 45.9999998,36.128127 45.9999998,35.9062325 L45.9999998,25.2706128 C46.0003618,23.9240235 45.5139533,22.7692412 44.5410457,21.8064451 L44.5410457,21.8064451 Z M36.0773198,39.9965938 L12.9233136,39.9965938 L12.9233136,33.4519621 L36.0773198,33.4519621 L36.0773198,39.9965938 L36.0773198,39.9965938 Z M36.0773198,23.6343429 L12.9233136,23.6343429 L12.9233136,7.27245018 L29.4621093,7.27245018 L29.4621093,11.3628114 C29.4621093,12.0446129 29.7036843,12.6238845 30.1853863,13.101253 C30.6676313,13.578532 31.2533309,13.8169924 31.9428471,13.8169924 L36.0773198,13.8169924 L36.0773198,23.6343429 L36.0773198,23.6343429 Z M42.2019582,26.4209177 C41.8748498,26.7445361 41.4870988,26.9069722 41.0391576,26.9069722 C40.5912164,26.9069722 40.2034654,26.7446257 39.8762665,26.4209177 C39.5492486,26.0976575 39.3856944,25.7136852 39.3856944,25.2705232 C39.3856944,24.8273612 39.5492486,24.4438367 39.8762665,24.1201287 C40.2033748,23.7962416 40.5911259,23.6342533 41.0391576,23.6342533 C41.4870083,23.6342533 41.8747593,23.7962416 42.2019582,24.1201287 C42.5289761,24.4437471 42.6931639,24.8273612 42.6931639,25.2705232 C42.6931639,25.7136852 42.5293382,26.0976575 42.2019582,26.4209177 L42.2019582,26.4209177 Z" fill="#4C7BC1" mask="url(#mask-2)"></path>
                </g>
            </g>
        </g>
    </g>
</svg>