<?xml version="1.0" encoding="UTF-8" standalone="no"?>
<svg width="33px" height="42px" viewBox="0 0 33 42" version="1.1" xmlns="http://www.w3.org/2000/svg" xmlns:xlink="http://www.w3.org/1999/xlink">
    <!-- Generator: Sketch 41.2 (35397) - http://www.bohemiancoding.com/sketch -->
    <title>print-receipt</title>
    <desc>Created with Sketch.</desc>
    <defs>
        <rect id="path-1" x="0" y="0" width="48" height="48"></rect>
    </defs>
    <g id="Page-1" stroke="none" stroke-width="1" fill="none" fill-rule="evenodd">
        <g id="Artboard" transform="translate(-236.000000, -231.000000)">
            <g id="print-receipt" transform="translate(228.000000, 228.000000)">
                <g id="Combined-Shape">
                    <mask id="mask-2" fill="white">
                        <use xlink:href="#path-1"></use>
                    </mask>
                    <g id="Mask"></g>
                    <path d="M37.1927281,12.4347546 L36.2360719,12.4347546 L36.2360719,4.74965017 C36.2360719,3.97491137 35.6118219,3.345847 34.8425094,3.345847 L14.1594156,3.345847 C13.3890719,3.345847 12.7648219,3.97491137 12.7648219,4.74965017 L12.7648219,12.4347546 L11.8085094,12.4347546 C9.70510313,12.4347546 8.00010313,14.1513598 8.00010313,16.2686563 L8.00010313,26.8295329 C8.00010313,28.9468294 9.70510313,30.6620506 11.8085094,30.6620506 L12.7648219,30.6620506 L12.7648219,43.1461065 C12.7648219,43.9218833 13.3890719,44.5502557 14.1594156,44.5502557 L34.8425094,44.5502557 C35.6118219,44.5502557 36.2360719,43.9218833 36.2360719,43.1461065 L36.2360719,30.6620506 L37.1927281,30.6620506 C39.2961344,30.6620506 41.0001031,28.9468294 41.0001031,26.8295329 L41.0001031,16.2686563 C41.0001031,14.1513598 39.2961344,12.4347546 37.1927281,12.4347546 Z M13.5485719,27.1624042 C13.2687594,27.1624042 13.0044156,27.1001206 12.7648219,26.9911243 C12.0976031,26.6890488 11.6314781,26.018116 11.6314781,25.2326506 C11.6314781,24.4492613 12.0976031,23.7769444 12.7648219,23.475561 C13.0044156,23.3669107 13.2687594,23.303243 13.5485719,23.303243 C14.6073219,23.303243 15.4653219,24.167255 15.4653219,25.2326506 C15.4653219,26.2990843 14.6073219,27.1624042 13.5485719,27.1624042 Z M19.3872344,34.986574 L29.6137969,34.986574 C30.1909531,34.986574 30.6594844,34.5156408 30.6594844,33.9332891 C30.6594844,33.3530136 30.1909531,32.8810423 29.6137969,32.8810423 L19.3872344,32.8810423 C18.8100781,32.8810423 18.3415469,33.3530136 18.3415469,33.9332891 C18.3415469,34.5156408 18.8100781,34.986574 19.3872344,34.986574 Z M19.3872344,39.197949 L29.6137969,39.197949 C30.1909531,39.197949 30.6594844,38.7266697 30.6594844,38.1453561 C30.6594844,37.5643885 30.1909531,37.0920712 29.6137969,37.0920712 L19.3872344,37.0920712 C18.8100781,37.0920712 18.3415469,37.5643885 18.3415469,38.1453561 C18.3415469,38.7266697 18.8100781,39.197949 19.3872344,39.197949 Z M33.4472281,41.7433413 L15.5536656,41.7433413 L15.5536656,30.6620506 L33.4482594,30.6620506 L33.4482594,41.7433413 L33.4472281,41.7433413 Z M33.4472281,12.4347546 L15.5536656,12.4347546 L15.5536656,6.15310733 L33.4482594,6.15310733 L33.4482594,12.4347546 L33.4472281,12.4347546 Z" fill="#4C7BC1" mask="url(#mask-2)"></path>
                </g>
            </g>
        </g>
    </g>
</svg>