<?xml version="1.0" encoding="UTF-8" standalone="no"?>
<svg width="43px" height="43px" viewBox="0 0 43 43" version="1.1" xmlns="http://www.w3.org/2000/svg" xmlns:xlink="http://www.w3.org/1999/xlink">
    <!-- Generator: Sketch 41.2 (35397) - http://www.bohemiancoding.com/sketch -->
    <title>profile</title>
    <desc>Created with Sketch.</desc>
    <defs>
        <rect id="path-1" x="0" y="0" width="48" height="48"></rect>
    </defs>
    <g id="Page-1" stroke="none" stroke-width="1" fill="none" fill-rule="evenodd">
        <g id="Artboard" transform="translate(-735.000000, -61.000000)">
            <g id="profile" transform="translate(732.000000, 59.000000)">
                <g id="Shape">
                    <mask id="mask-2" fill="white">
                        <use xlink:href="#path-1"></use>
                    </mask>
                    <g id="Mask"></g>
                    <path d="M24.1322475,27.4497104 C17.9925733,27.4497104 13.0181147,21.6376395 13.0181147,14.4733587 C13.0181147,7.30985241 17.9925733,2 24.1322475,2 C30.2728754,2 35.2514665,7.30985241 35.2514665,14.4733587 C35.2514665,21.6376395 30.2727165,27.4497104 24.1322475,27.4497104 L24.1322475,27.4497104 Z M6.84379075,44.9918815 C6.84379075,44.9918815 4.48633894,45.1435384 3.44796025,43.749038 C2.88688926,42.9957103 3.27773163,41.4690716 3.66142154,40.6172211 L4.60109623,38.5301178 C4.60109623,38.5301178 7.19982446,32.8655213 10.1580832,29.582977 C11.9752856,27.5700755 14.136601,28.0284544 15.5345101,28.6831044 C16.3955077,29.0858705 17.3690374,30.2594692 18.0804691,30.8814331 C19.0608333,31.7383956 20.7915704,32.7123152 23.6210848,32.7671534 L25.3570671,32.7671534 C28.184833,32.7123152 29.9155702,31.7383956 30.8951397,30.8814331 C31.6057766,30.2596241 32.5524448,29.0496216 33.4056542,28.6335331 C34.6886471,28.0075416 36.6414285,27.6224351 38.4111068,29.5831319 C41.3703191,32.8658311 43.7139428,38.633133 43.7139428,38.633133 L44.6769823,40.6798048 C45.0754539,41.5257687 45.4836211,43.0448168 44.9381266,43.8082136 C43.9647559,45.1731262 41.7792811,44.9920364 41.7792811,44.9920364 L6.84379075,44.9918815 L6.84379075,44.9918815 Z" fill="#4C7BC1" mask="url(#mask-2)"></path>
                </g>
            </g>
        </g>
    </g>
</svg>