<?xml version="1.0" encoding="UTF-8" standalone="no"?>
<svg width="38px" height="38px" viewBox="0 0 38 38" version="1.1" xmlns="http://www.w3.org/2000/svg" xmlns:xlink="http://www.w3.org/1999/xlink">
    <!-- Generator: Sketch 41.2 (35397) - http://www.bohemiancoding.com/sketch -->
    <title>proximity</title>
    <desc>Created with Sketch.</desc>
    <defs>
        <rect id="path-1" x="0" y="0" width="48" height="48"></rect>
    </defs>
    <g id="Page-1" stroke="none" stroke-width="1" fill="none" fill-rule="evenodd">
        <g id="Artboard" transform="translate(-849.000000, -121.000000)">
            <g id="proximity" transform="translate(844.000000, 116.000000)">
                <g id="Combined-Shape">
                    <mask id="mask-2" fill="white">
                        <use xlink:href="#path-1"></use>
                    </mask>
                    <g id="Mask"></g>
                    <path d="M42.3775862,21.7068966 L39.4120793,21.7068966 C38.8975069,18.3810448 37.3312517,15.275069 34.9654241,12.9092414 C32.6025448,10.5462966 29.5413172,9.02118621 26.2931034,8.57717586 L26.2931034,5.62241379 C26.2931034,5.27864483 26.0144586,5 25.6706897,5 L22.3293103,5 C21.9855414,5 21.7068966,5.27864483 21.7068966,5.62241379 L21.7068966,8.57547241 C18.3811103,9.01718966 15.2752655,10.5432172 12.9092414,12.9092414 C10.5432172,15.2752655 9.01718966,18.3811103 8.57547241,21.7068966 L5.62241379,21.7068966 C5.27864483,21.7068966 5,21.9855414 5,22.3293103 L5,25.6706897 C5,26.0144586 5.27864483,26.2931034 5.62241379,26.2931034 L8.58792069,26.2931034 C9.1024931,29.6189552 10.6686828,32.724931 13.0345103,35.0907586 C15.3974552,37.4537034 18.4586828,38.9788138 21.7068966,39.4228241 L21.7068966,42.3775862 C21.7068966,42.7213552 21.9855414,43 22.3293103,43 L25.6706897,43 C26.0144586,43 26.2931034,42.7213552 26.2931034,42.3775862 L26.2931034,39.4120793 C29.6189552,38.8975069 32.724931,37.3312517 35.0907586,34.9654241 C37.4537034,32.6025448 38.9788138,29.5413172 39.4228241,26.2931034 L42.3775862,26.2931034 C42.7213552,26.2931034 43,26.0144586 43,25.6706897 L43,22.3293103 C43,21.9855414 42.7213552,21.7068966 42.3775862,21.7068966 Z M31.850669,31.850669 C29.7731172,33.9282207 26.9849655,35.0724138 24,35.0724138 C21.014969,35.0724138 18.2268828,33.9282207 16.149331,31.850669 C14.0717138,29.7731172 12.9275862,26.9849655 12.9275862,24 C12.9275862,21.014969 14.0717138,18.2268828 16.149331,16.149331 C18.2268828,14.0717138 21.014969,12.9275862 24,12.9275862 C26.9849655,12.9275862 29.7731172,14.0717138 31.850669,16.149331 C33.9282207,18.2268828 35.0724138,21.014969 35.0724138,24 C35.0724138,26.9849655 33.9282207,29.7731172 31.850669,31.850669 Z M23.9999869,16.6948145 C19.9719214,16.6948145 16.6948145,19.9719214 16.6948145,23.9999869 C16.6948145,28.0280524 19.9719214,31.3051593 23.9999869,31.3051593 C28.0280524,31.3051593 31.3051593,28.0280524 31.3051593,23.9999869 C31.3051593,19.9719214 28.0280524,16.6948145 23.9999869,16.6948145 Z" fill="#4C7BC1" mask="url(#mask-2)"></path>
                </g>
            </g>
        </g>
    </g>
</svg>