<?xml version="1.0" encoding="UTF-8" standalone="no"?>
<svg width="31px" height="43px" viewBox="0 0 31 43" version="1.1" xmlns="http://www.w3.org/2000/svg" xmlns:xlink="http://www.w3.org/1999/xlink">
    <!-- Generator: Sketch 41.2 (35397) - http://www.bohemiancoding.com/sketch -->
    <title>question</title>
    <desc>Created with Sketch.</desc>
    <defs>
        <rect id="path-1" x="0" y="0" width="48" height="48"></rect>
    </defs>
    <g id="Page-1" stroke="none" stroke-width="1" fill="none" fill-rule="evenodd">
        <g id="Artboard" transform="translate(-685.000000, -119.000000)">
            <g id="question" transform="translate(676.000000, 116.000000)">
                <g id="Symbols">
                    <mask id="mask-2" fill="white">
                        <use xlink:href="#path-1"></use>
                    </mask>
                    <g id="Mask"></g>
                    <path d="M27.972,35.1993214 L19.95695,35.1993214 C19.602,35.1993214 19.2889,35.3344643 19.0223,35.6032143 C18.75415,35.8719643 18.62085,36.18525 18.62085,36.5430714 L18.62085,44.5932857 C18.62085,44.9495714 18.75415,45.2643929 19.0223,45.5316071 C19.2889,45.7988214 19.60045,45.9339643 19.95695,45.9339643 L27.972,45.9339643 C28.3285,45.9339643 28.6416,45.7988214 28.9082,45.5316071 C29.17635,45.2628571 29.3112,44.9495714 29.3112,44.5932857 L29.3112,36.5430714 C29.3112,36.18525 29.17635,35.8704286 28.9082,35.6032143 C28.6416,35.3344643 28.33005,35.1993214 27.972,35.1993214 L27.972,35.1993214 Z M38.49495,11.1008929 C37.58045,9.41160714 36.4009,7.98646429 34.9532,6.82392857 C33.5055,5.66139286 31.8811,4.73228571 30.0769,4.03967857 C28.2727,3.34707143 26.48245,3 24.69995,3 C17.9311,3 12.76495,5.97467857 9.20305,11.9225 C9.02635,12.21275 8.96435,12.5260357 9.02015,12.8608214 C9.07595,13.1956071 9.248,13.4751071 9.53785,13.6993214 L15.01555,17.8918214 C15.3054,18.0699643 15.58285,18.1605714 15.851,18.1605714 C16.25245,18.1605714 16.59655,17.9808929 16.8864,17.6230714 C18.4891,15.60975 19.68105,14.3243571 20.45915,13.7653571 C21.41705,13.1188214 22.61985,12.7947857 24.066,12.7947857 C25.42225,12.7947857 26.6204,13.1526071 27.65735,13.8667143 C28.69275,14.5823571 29.2089,15.4101071 29.2089,16.3499643 C29.2089,17.4003929 28.93145,18.2511786 28.375,18.89925 C27.81855,19.5473214 26.88235,20.1738929 25.56795,20.7774286 C23.83195,21.5606429 22.23855,22.7738571 20.7924,24.4170714 C19.3447,26.0602857 18.6224,27.8094643 18.6224,29.6646071 L18.6224,31.1742143 C18.6224,31.5980714 18.73865,32.0188571 18.9727,32.4319643 C19.20675,32.8466071 19.4904,33.0523929 19.82365,33.0523929 L27.8387,33.0523929 C28.1952,33.0523929 28.5083,32.8788571 28.7749,32.53025 C29.0415,32.1847143 29.17635,31.8222857 29.17635,31.4414286 C29.17635,30.8839643 29.48325,30.133 30.0955,29.1946786 C30.70775,28.2563571 31.47035,27.5284286 32.38485,27.0139643 C33.25285,26.5225357 33.9302,26.1263214 34.42,25.8237857 C34.91135,25.5227857 35.54995,25.0344286 36.34045,24.3648571 C37.13095,23.69375 37.7432,23.0287857 38.17875,22.3684286 C38.6112,21.7080714 39.0018,20.8542143 39.34745,19.80225 C39.6931,18.7502857 39.86515,17.6215357 39.86515,16.4144643 C39.8636,14.5608571 39.40635,12.7886429 38.49495,11.1008929 L38.49495,11.1008929 Z" fill="#4E7BBE" mask="url(#mask-2)"></path>
                </g>
            </g>
        </g>
    </g>
</svg>