<?xml version="1.0" encoding="UTF-8" standalone="no"?>
<svg width="48px" height="34px" viewBox="0 0 48 34" version="1.1" xmlns="http://www.w3.org/2000/svg" xmlns:xlink="http://www.w3.org/1999/xlink">
    <!-- Generator: Sketch 41.2 (35397) - http://www.bohemiancoding.com/sketch -->
    <title>radio</title>
    <desc>Created with Sketch.</desc>
    <defs>
        <rect id="path-1" x="0" y="0" width="48" height="48"></rect>
    </defs>
    <g id="Page-1" stroke="none" stroke-width="1" fill="none" fill-rule="evenodd">
        <g id="Artboard" transform="translate(-4.000000, -180.000000)">
            <g id="radio" transform="translate(4.000000, 173.000000)">
                <g id="Combined-Shape">
                    <mask id="mask-2" fill="white">
                        <use xlink:href="#path-1"></use>
                    </mask>
                    <g id="Mask"></g>
                    <path d="M24,47.5384615 C30.5384615,47.5384615 36.4230769,44.9230769 40.6076923,40.6076923 C40.8692308,40.3461538 41,40.0846154 41,39.6923077 C41,39.3 40.8692308,39.0384615 40.6076923,38.7769231 L38.7769231,36.9461538 C38.2538462,36.4230769 37.4692308,36.4230769 36.9461538,36.9461538 C33.6769231,40.2153846 29.1,42.3076923 24,42.3076923 C18.9,42.3076923 14.3230769,40.2153846 11.0538462,36.9461538 C10.5307692,36.4230769 9.74615385,36.4230769 9.22307692,36.9461538 L7.39230769,38.7769231 C7.13076923,39.0384615 7,39.3 7,39.6923077 C7,40.0846154 7.13076923,40.4769231 7.39230769,40.6076923 C11.7076923,44.9230769 17.4615385,47.5384615 24,47.5384615 Z M32.7615385,33.2846154 C33.2846154,32.7615385 33.2846154,31.9769231 32.7615385,31.4538462 L30.9307692,29.6230769 C30.4076923,29.1 29.6230769,29.1 29.1,29.6230769 C27.6615385,31.0615385 25.7,31.8461538 23.6076923,31.8461538 C21.5153846,31.8461538 19.5538462,30.9307692 18.1153846,29.6230769 C17.5923077,29.1 16.8076923,29.1 16.2846154,29.6230769 L14.4538462,31.4538462 C13.9307692,31.9769231 13.9307692,32.7615385 14.4538462,33.2846154 C16.8076923,35.6384615 19.9461538,37.0769231 23.6076923,37.0769231 C27.2692308,37.0769231 30.4076923,35.6384615 32.7615385,33.2846154 Z M24,0.461538462 C17.4615385,0.461538462 11.5769231,3.07692308 7.39230769,7.39230769 C7.13076923,7.65384615 7,7.91538462 7,8.30769231 C7,8.7 7.13076923,8.96153846 7.39230769,9.22307692 L9.22307692,11.0538462 C9.74615385,11.5769231 10.5307692,11.5769231 11.0538462,11.0538462 C14.3230769,7.78461538 18.9,5.69230769 24,5.69230769 C29.1,5.69230769 33.6769231,7.78461538 36.9461538,11.0538462 C37.4692308,11.5769231 38.2538462,11.5769231 38.7769231,11.0538462 L40.6076923,9.22307692 C40.8692308,8.96153846 41,8.7 41,8.30769231 C41,7.91538462 40.8692308,7.52307692 40.6076923,7.39230769 C36.2923077,3.07692308 30.5384615,0.461538462 24,0.461538462 Z M15.2384615,14.7153846 C14.7153846,15.2384615 14.7153846,16.0230769 15.2384615,16.5461538 L17.0692308,18.3769231 C17.5923077,18.9 18.3769231,18.9 18.9,18.3769231 C20.3384615,16.9384615 22.3,16.1538462 24.3923077,16.1538462 C26.4846154,16.1538462 28.4461538,17.0692308 29.8846154,18.3769231 C30.4076923,18.9 31.1923077,18.9 31.7153846,18.3769231 L33.5461538,16.5461538 C34.0692308,16.0230769 34.0692308,15.2384615 33.5461538,14.7153846 C31.1923077,12.3615385 28.0538462,10.9230769 24.3923077,10.9230769 C20.7307692,10.9230769 17.5923077,12.3615385 15.2384615,14.7153846 Z M24,26.6153846 C25.444437,26.6153846 26.6153846,25.444437 26.6153846,24 C26.6153846,22.555563 25.444437,21.3846154 24,21.3846154 C22.555563,21.3846154 21.3846154,22.555563 21.3846154,24 C21.3846154,25.444437 22.555563,26.6153846 24,26.6153846 Z" fill="#4C7BC1" mask="url(#mask-2)" transform="translate(24.000000, 24.000000) rotate(-270.000000) translate(-24.000000, -24.000000) "></path>
                </g>
            </g>
        </g>
    </g>
</svg>