<?xml version="1.0" encoding="UTF-8" standalone="no"?>
<svg width="40px" height="40px" viewBox="0 0 40 40" version="1.1" xmlns="http://www.w3.org/2000/svg" xmlns:xlink="http://www.w3.org/1999/xlink">
    <!-- Generator: Sketch 41.2 (35397) - http://www.bohemiancoding.com/sketch -->
    <title>repair</title>
    <desc>Created with Sketch.</desc>
    <defs>
        <rect id="path-1" x="0" y="0" width="48" height="48"></rect>
    </defs>
    <g id="Page-1" stroke="none" stroke-width="1" fill="none" fill-rule="evenodd">
        <g id="Artboard" transform="translate(-624.000000, -232.000000)">
            <g id="repair" transform="translate(620.000000, 228.000000)">
                <mask id="mask-2" fill="white">
                    <use xlink:href="#path-1"></use>
                </mask>
                <g id="Mask"></g>
                <path d="M43.4233297,36.5764652 L39.3618406,32.5149761 C39.3469251,32.5000606 39.330518,32.4881282 39.3148568,32.4732127 C39.2999413,32.459043 39.2887546,32.4418902 39.2738392,32.4269747 C38.0224292,31.1755647 36.2571804,30.7579309 34.6582394,31.1636323 L27.4943275,23.9997204 L34.6574936,16.8365542 C36.2571804,17.2415099 38.0224292,16.823876 39.2738392,15.572466 C39.2887546,15.5575505 39.3014328,15.5411435 39.3163483,15.526228 C39.3312638,15.5120583 39.3469251,15.4993801 39.3618406,15.4844646 L43.4233297,11.4229755 C44.1922234,10.6540818 44.1922234,9.40789219 43.4233297,8.63899846 L39.3618406,4.57676356 C38.5922011,3.80786982 37.3460115,3.80786982 36.576372,4.57676356 L32.5156286,8.63825268 C32.5007131,8.65316818 32.488035,8.66957522 32.4738653,8.68449072 C32.4589498,8.69940621 32.4417969,8.71133861 32.4268814,8.7262541 C31.1754715,9.97766408 30.7585834,11.7436586 31.1642848,13.3425996 L24.0003729,20.5065116 L16.8364609,13.3425996 C17.2421624,11.7429128 16.8237828,9.97691831 15.5731186,8.7262541 C15.5582031,8.71133861 15.5410502,8.69866044 15.5268805,8.68374494 C15.5127108,8.66882945 15.5000326,8.65316818 15.4851171,8.63825268 L11.423628,4.57676356 C10.6547343,3.80786982 9.40779894,3.80786982 8.6389052,4.57601778 L4.5766703,8.63825268 C3.80777657,9.40714642 3.80777657,10.6540818 4.5766703,11.4229755 L8.63815943,15.4844646 C8.65307492,15.4993801 8.66948197,15.5120583 8.68439746,15.5254822 C8.69931296,15.5403977 8.71124535,15.5575505 8.72616084,15.572466 C9.97757083,16.8246218 11.7435654,17.2415099 13.3432521,16.8358084 L20.5064183,23.9997204 L13.3439979,31.1636323 C11.7435654,30.7579309 9.97757083,31.1755647 8.72616084,32.4269747 C8.71124535,32.4418902 8.69931296,32.4582972 8.68439746,32.4732127 C8.66873619,32.4873825 8.65307492,32.5000606 8.63815943,32.5149761 L4.5766703,36.5764652 C3.80777657,37.3446132 3.80777657,38.5915485 4.5766703,39.3604423 L8.63815943,43.423423 C9.40779894,44.1915709 10.6547343,44.1915709 11.423628,43.423423 L15.4851171,39.3611881 C15.5000326,39.3470183 15.511965,39.3298655 15.5268805,39.31495 C15.541796,39.3000345 15.5582031,39.2888479 15.5731186,39.2739324 C16.8237828,38.0217767 17.2421624,36.2572737 16.8364609,34.6583327 L24.0003729,27.4936749 L31.1635391,34.6568411 C30.7578376,36.2557821 31.1754715,38.0217767 32.4268814,39.2739324 C32.4417969,39.2888479 32.458204,39.3000345 32.4731195,39.3156958 C32.4872892,39.3306113 32.5007131,39.3470183 32.5148829,39.3611881 L36.576372,43.423423 C37.3452657,44.1915709 38.5922011,44.1923167 39.3610948,43.423423 L43.4233297,39.3611881 C44.1922234,38.5922943 44.1922234,37.3446132 43.4233297,36.5764652" id="Page-1" fill="#4C7BC1" mask="url(#mask-2)"></path>
            </g>
        </g>
    </g>
</svg>