<?xml version="1.0" encoding="UTF-8" standalone="no"?>
<svg width="43px" height="43px" viewBox="0 0 43 43" version="1.1" xmlns="http://www.w3.org/2000/svg" xmlns:xlink="http://www.w3.org/1999/xlink">
    <!-- Generator: Sketch 41.2 (35397) - http://www.bohemiancoding.com/sketch -->
    <title>repeat</title>
    <desc>Created with Sketch.</desc>
    <defs>
        <rect id="path-1" x="0" y="0" width="48" height="48"></rect>
    </defs>
    <g id="Page-1" stroke="none" stroke-width="1" fill="none" fill-rule="evenodd">
        <g id="Artboard" transform="translate(-791.000000, -119.000000)">
            <g id="repeat" transform="translate(788.000000, 116.000000)">
                <g>
                    <mask id="mask-2" fill="white">
                        <use xlink:href="#path-1"></use>
                    </mask>
                    <g id="Mask"></g>
                    <path d="M45.6197895,9.98184211 L35.7976842,3.17878947 C35.2635789,2.80763158 34.5416316,3.20594737 34.5416316,3.86452632 L34.5416316,7.54215789 L6.56673684,7.54215789 C4.88973684,7.54215789 3.52957895,8.94305263 3.52957895,10.6675789 L3.52957895,27.2791579 L9.60389474,27.2791579 L9.60389474,13.8043158 L34.5348421,13.8043158 L34.5348421,17.4887368 C34.5348421,18.1563684 35.2545263,18.5456316 35.7908947,18.1744737 L45.613,11.3623684 C46.0927895,11.0387368 46.0927895,10.3167895 45.6197895,9.98184211 L45.6197895,9.98184211 Z M39.3689474,35.1594737 L14.438,35.1594737 L14.438,31.4841053 C14.438,30.8142105 13.7183158,30.4249474 13.1842105,30.7938421 L3.35531579,37.5968947 C2.88231579,37.9250526 2.88231579,38.6447368 3.35531579,38.9796842 L13.1751579,45.7917895 C13.7092632,46.1629474 14.4289474,45.7646316 14.4289474,45.1037895 L14.4289474,41.4193684 L42.3970526,41.4193684 C44.0717895,41.4193684 45.4342105,40.0184737 45.4342105,38.2916842 L45.4342105,21.6801053 L39.3598947,21.6801053 L39.3598947,35.1594737 L39.3689474,35.1594737 L39.3689474,35.1594737 Z" fill="#4C7BC1" mask="url(#mask-2)"></path>
                </g>
            </g>
        </g>
    </g>
</svg>