<?xml version="1.0" encoding="UTF-8" standalone="no"?>
<svg width="34px" height="41px" viewBox="0 0 34 41" version="1.1" xmlns="http://www.w3.org/2000/svg" xmlns:xlink="http://www.w3.org/1999/xlink">
    <!-- Generator: Sketch 41.2 (35397) - http://www.bohemiancoding.com/sketch -->
    <title>reset</title>
    <desc>Created with Sketch.</desc>
    <defs>
        <rect id="path-1" x="0" y="0" width="48" height="48"></rect>
    </defs>
    <g id="Page-1" stroke="none" stroke-width="1" fill="none" fill-rule="evenodd">
        <g id="Artboard" transform="translate(-460.000000, -60.000000)">
            <g id="reset" transform="translate(451.000000, 59.000000)">
                <g id="Shape">
                    <mask id="mask-2" fill="white">
                        <use xlink:href="#path-1"></use>
                    </mask>
                    <g id="Mask"></g>
                    <path d="M33.0085714,7.29567293 C30.9486692,6.42178547 28.7620979,5.97828102 26.5108816,5.97828102 C24.8545735,5.97828102 23.217921,6.2219023 21.6463501,6.70214676 C20.1250101,7.16708288 18.6774877,7.84896003 17.3439675,8.72940821 C16.0305397,9.59673495 14.8446545,10.6447001 13.8203816,11.8439991 C13.1831049,12.5897339 12.6082891,13.3958273 12.1112219,14.2395355 C11.9666444,14.485781 11.828182,14.7372751 11.6953978,14.991831 L6.36350084,12.0027685 C6.13243887,11.8733036 5.84634135,11.8960474 5.63799246,12.0600654 C5.42964358,12.2245207 5.34097519,12.4978839 5.41260877,12.7533144 L8.44961043,23.5290729 C8.49678376,23.6965898 8.60860203,23.8383013 8.7601682,23.9235906 C8.85888276,23.979138 8.96895387,24.0071304 9.07989856,24.0071304 C9.13973881,24.0071304 9.19957905,23.9992576 9.25810892,23.9826371 L20.0197438,20.9419636 C20.2748292,20.8697957 20.4613386,20.6511052 20.4923507,20.3878017 C20.5237995,20.1240609 20.3931993,19.8677556 20.1621373,19.7378534 L15.5055179,17.1275629 C15.636555,16.8699454 15.775891,16.6162644 15.923526,16.3691441 C16.2463139,15.8307279 16.6136545,15.3119939 17.0155013,14.8273757 C17.7733322,13.9136865 18.6552114,13.1141539 19.6371156,12.4519588 C20.6334339,11.7801415 21.7171101,11.2596579 22.8571323,10.9053792 C24.0364656,10.5384165 25.265593,10.3520921 26.5108816,10.3520921 C28.1737416,10.3520921 29.7881179,10.6796906 31.3085842,11.3248277 C32.7770726,11.9476584 34.0970523,12.8394785 35.231833,13.9757946 C36.366177,15.111236 37.256792,16.4330017 37.8792179,17.9043518 C38.5234833,19.4268754 38.8502023,21.0429986 38.8502023,22.7081085 C38.8502023,24.3736558 38.5234833,25.989779 37.8792179,27.51274 C37.256792,28.9836527 36.366177,30.3054184 35.231833,31.4408598 C34.0974891,32.5771759 32.7775094,33.468996 31.3085842,34.0922641 C29.7881179,34.7369638 28.1737416,35.0641249 26.5108816,35.0641249 C25.0943713,35.0641249 24.3266219,34.7908617 24.3266219,34.7908617 C23.2518605,34.5485229 22.0839052,35.1971239 21.7155435,36.2463238 L21.5968124,36.5845039 C21.2295149,37.6306723 21.7993907,38.6916317 22.8827685,38.9330673 C22.8827685,38.9330673 24.5973042,39.437936 26.5108816,39.437936 C28.7620979,39.437936 30.9486692,38.9948689 33.0085714,38.1209815 C34.9972767,37.276836 36.7837483,36.0696641 38.3190655,34.5327069 C39.8543828,32.9953123 41.0594867,31.2064235 41.9024916,29.2145899 C42.7751983,27.152338 43.2181035,24.9628081 43.2181035,22.7081085 C43.2181035,20.4538463 42.7751983,18.2647538 41.9024916,16.2016271 C41.0599235,14.2106683 39.8548196,12.4213422 38.3190655,10.8839475 C36.7841851,9.34699034 34.9972767,8.13938109 33.0085714,7.29567293 Z" fill="#4C7BC1" mask="url(#mask-2)" transform="translate(24.303115, 22.708109) rotate(61.000000) translate(-24.303115, -22.708109) "></path>
                </g>
            </g>
        </g>
    </g>
</svg>