<?xml version="1.0" encoding="utf-8"?>
<!-- Generator: Adobe Illustrator 16.0.0, SVG Export Plug-In . SVG Version: 6.00 Build 0)  -->
<!DOCTYPE svg PUBLIC "-//W3C//DTD SVG 1.1//EN" "http://www.w3.org/Graphics/SVG/1.1/DTD/svg11.dtd">
<svg version="1.1" id="Layer_1" xmlns="http://www.w3.org/2000/svg" xmlns:xlink="http://www.w3.org/1999/xlink" x="0px" y="0px"
	 width="48px" height="48px" viewBox="0 0 48 48" enable-background="new 0 0 48 48" xml:space="preserve">
<title>route</title>
<desc>Created with Sketch.</desc>
<g id="Mask">
</g>
<path fill="#4C7BC1" d="M38.189,24.072c0.08,0.085,0.193,0.134,0.311,0.134s0.229-0.049,0.31-0.135
	c0.685-0.736,2.037-2.257,3.394-4.185c1.707-2.426,3.742-5.986,3.742-9.157c0-4.146-3.342-7.518-7.445-7.518
	c-4.105,0-7.445,3.373-7.445,7.518c0,3.173,2.037,6.735,3.746,9.164C36.156,21.82,37.506,23.339,38.189,24.072z M38.561,7.128
	c1.943,0,3.523,1.586,3.523,3.536c0,1.949-1.58,3.536-3.523,3.536c-1.941,0-3.523-1.587-3.523-3.536
	C35.037,8.714,36.619,7.128,38.561,7.128z M45.188,37.028c-0.019,5.723-3.647,7.76-12.606,7.76H13.726
	c-0.849,0-1.312-0.99-0.767-1.643c0.528-0.631,1.041-1.283,1.535-1.951c0.188-0.256,0.487-0.406,0.805-0.406h17.283
	c6.832,0,8.597-0.873,8.604-3.771c0.007-2.345-1.348-2.858-8.907-2.858c-8.766,0-11.102-1.34-11.022-7.005
	c0.07-5.104,3.207-7.028,10.771-7.264c0.338-0.01,0.658,0.15,0.853,0.428c0.053,0.076,0.053,0.076,0.106,0.152
	c0.422,0.602,0.864,1.194,1.321,1.772c0.517,0.654,0.054,1.614-0.778,1.62c-6.509,0.039-8.238,0.833-8.271,3.345
	c-0.038,2.738,0.393,2.949,7.021,2.949c4.771,0,6.713,0.162,8.559,0.771C43.699,31.874,45.197,33.95,45.188,37.028z M16.945,30.729
	c0-4.146-3.34-7.518-7.445-7.518s-7.445,3.373-7.445,7.518c0,3.174,2.037,6.734,3.747,9.164c1.354,1.926,2.704,3.445,3.388,4.178
	c0.08,0.086,0.193,0.135,0.31,0.135c0.117,0,0.23-0.049,0.31-0.135c0.685-0.736,2.037-2.257,3.394-4.185
	C14.911,37.46,16.945,33.901,16.945,30.729z M9.561,34.2c-1.942,0-3.523-1.589-3.523-3.537c0-1.949,1.581-3.535,3.523-3.535
	c1.943,0,3.523,1.586,3.523,3.535C13.083,32.611,11.503,34.2,9.561,34.2z"/>
</svg>
