<?xml version="1.0" encoding="UTF-8" standalone="no"?>
<svg width="32px" height="42px" viewBox="0 0 32 42" version="1.1" xmlns="http://www.w3.org/2000/svg" xmlns:xlink="http://www.w3.org/1999/xlink">
    <!-- Generator: Sketch 41.2 (35397) - http://www.bohemiancoding.com/sketch -->
    <title>safety-check</title>
    <desc>Created with Sketch.</desc>
    <defs>
        <rect id="path-1" x="0" y="0" width="48" height="48"></rect>
    </defs>
    <g id="Page-1" stroke="none" stroke-width="1" fill="none" fill-rule="evenodd">
        <g id="Artboard" transform="translate(-181.000000, -118.000000)">
            <g id="safety-check" transform="translate(172.000000, 116.000000)">
                <g id="Combined-Shape">
                    <mask id="mask-2" fill="white">
                        <use xlink:href="#path-1"></use>
                    </mask>
                    <g id="Mask"></g>
                    <path d="M37.5766665,5.24145958 L28.2976561,5.24145958 C27.7639556,3.76562741 26.3448176,2.70266647 24.6599998,2.70266647 C22.9751821,2.70266647 21.5560441,3.76562741 21.0222629,5.24145958 L11.7433332,5.24145958 C10.3166066,5.24145958 9.15999985,6.37820419 9.15999985,7.78025268 L9.15999985,40.784563 C9.15999985,42.1866115 10.3166066,43.3233561 11.7433332,43.3233561 L37.5766665,43.3233561 C39.0033931,43.3233561 40.1599998,42.1866115 40.1599998,40.784563 L40.1599998,7.78025268 C40.1599998,6.37820419 39.0033931,5.24145958 37.5766665,5.24145958 L37.5766665,5.24145958 Z M24.6599998,5.24145958 C25.3733228,5.24145958 25.9516665,5.80967321 25.9516665,6.51085613 C25.9516665,7.21188037 25.3733228,7.78025268 24.6599998,7.78025268 C23.9465962,7.78025268 23.3683332,7.21188037 23.3683332,6.51085613 C23.3683332,5.80967321 23.9465962,5.24145958 24.6599998,5.24145958 L24.6599998,5.24145958 Z M34.9933332,38.2457699 L14.3266665,38.2457699 L14.3266665,10.3190458 L20.7849998,10.3190458 L20.7849998,11.5884423 C20.7849998,12.2894666 21.3632629,12.8578389 22.0766665,12.8578389 L27.2433332,12.8578389 C27.9566561,12.8578389 28.5349998,12.2894666 28.5349998,11.5884423 L28.5349998,10.3190458 L34.9933332,10.3190458 L34.9933332,38.2457699 Z M23.3683332,24.4999507 L21.3198306,22.4874018 C20.3120077,21.4956857 18.6746587,21.4956857 17.6668358,22.4874018 C16.6577212,23.4784831 16.6577212,25.0863326 17.6668358,26.0774139 L21.5418358,29.8856036 C22.0457472,30.3814616 22.7074035,30.6293906 23.3683332,30.6293906 C24.0292629,30.6293906 24.6909191,30.3814616 25.1948306,29.8856036 L31.6531639,23.5386208 C32.6622785,22.5475395 32.6622785,20.93969 31.6531639,19.9486087 C30.645341,18.9568926 29.007992,18.9568926 28.0001691,19.9486087 L23.3683332,24.4999507 Z" fill="#4C7BC1" mask="url(#mask-2)"></path>
                </g>
            </g>
        </g>
    </g>
</svg>