<?xml version="1.0" encoding="utf-8"?>
<!-- Generator: Adobe Illustrator 16.0.0, SVG Export Plug-In . SVG Version: 6.00 Build 0)  -->
<!DOCTYPE svg PUBLIC "-//W3C//DTD SVG 1.1//EN" "http://www.w3.org/Graphics/SVG/1.1/DTD/svg11.dtd">
<svg version="1.1" id="Layer_1" xmlns="http://www.w3.org/2000/svg" xmlns:xlink="http://www.w3.org/1999/xlink" x="0px" y="0px"
	 width="48px" height="48px" viewBox="0 0 48 48" enable-background="new 0 0 48 48" xml:space="preserve">
<title>save</title>
<desc>Created with Sketch.</desc>
<g id="Page-1">
	<g id="Artboard" transform="translate(-568.000000, -401.000000)">
		<g id="save" transform="translate(564.000000, 396.000000)">
			<g>
				<g id="Mask">
				</g>
				<defs>
					<filter id="Adobe_OpacityMaskFilter" filterUnits="userSpaceOnUse" x="8.5" y="9.5" width="39" height="39">
						<feColorMatrix  type="matrix" values="1 0 0 0 0  0 1 0 0 0  0 0 1 0 0  0 0 0 1 0"/>
					</filter>
				</defs>
				<mask maskUnits="userSpaceOnUse" x="8.5" y="9.5" width="39" height="39" id="mask-2">
					<g filter="url(#Adobe_OpacityMaskFilter)">
						<rect id="path-1" x="4.5" y="4.5" fill="#FFFFFF" width="48" height="48"/>
					</g>
				</mask>
				<path id="Combined-Shape" mask="url(#mask-2)" fill="#4C7BC1" d="M11.157,48.5h33.687c1.466,0,2.656-1.19,2.656-2.656V20.233
					c0-1.057-0.42-2.072-1.169-2.816L38.414,9.5h-0.011v14.771H17.31V9.5h-6.153C9.69,9.5,8.5,10.69,8.5,12.157v24.919v8.768
					C8.5,47.31,9.69,48.5,11.157,48.5z M29.525,9.5h5.658v11.896h-5.658V9.5z"/>
			</g>
		</g>
	</g>
</g>
</svg>
