<?xml version="1.0" encoding="utf-8"?>
<!-- Generator: Adobe Illustrator 16.0.0, SVG Export Plug-In . SVG Version: 6.00 Build 0)  -->
<!DOCTYPE svg PUBLIC "-//W3C//DTD SVG 1.1//EN" "http://www.w3.org/Graphics/SVG/1.1/DTD/svg11.dtd">
<svg version="1.1" id="Layer_1" xmlns="http://www.w3.org/2000/svg" xmlns:xlink="http://www.w3.org/1999/xlink" x="0px" y="0px"
	 width="48px" height="48px" viewBox="0 0 48 48" enable-background="new 0 0 48 48" xml:space="preserve">
<title>screen</title>
<desc>Created with Sketch.</desc>
<g id="Page-1">
	<g id="Artboard" transform="translate(-7.000000, -403.000000)">
		<g id="screen" transform="translate(4.000000, 396.000000)">
			<g>
				<g id="Mask">
				</g>
				<defs>
					<filter id="Adobe_OpacityMaskFilter" filterUnits="userSpaceOnUse" x="7.289" y="13" width="39.422" height="36">
						<feColorMatrix  type="matrix" values="1 0 0 0 0  0 1 0 0 0  0 0 1 0 0  0 0 0 1 0"/>
					</filter>
				</defs>
				<mask maskUnits="userSpaceOnUse" x="7.289" y="13" width="39.422" height="36" id="mask-2">
					<g filter="url(#Adobe_OpacityMaskFilter)">
						<rect id="path-1" x="3.5" y="6" fill="#FFFFFF" width="48" height="48"/>
					</g>
				</mask>
				<path id="Shape" mask="url(#mask-2)" fill="#4C7BC1" d="M43.521,13H10.47c-1.756,0-3.181,1.425-3.181,3.181v22.333
					c0,1.756,1.425,3.182,3.181,3.182h12.966v3.56h-2.529c-0.418,0-0.765,0.347-0.765,0.765v2.215c0,0.42,0.347,0.766,0.765,0.766
					h12.186c0.419,0,0.765-0.346,0.765-0.766V46.02c0-0.418-0.346-0.765-0.765-0.765h-2.528v-3.552H43.53
					c1.756,0,3.181-1.426,3.181-3.182v-22.34C46.703,14.425,45.277,13,43.521,13z M42.362,37.33H11.629V17.341h30.742V37.33H42.362z
					"/>
			</g>
		</g>
	</g>
</g>
</svg>
