<?xml version="1.0" encoding="UTF-8" standalone="no"?>
<svg width="40px" height="40px" viewBox="0 0 40 40" version="1.1" xmlns="http://www.w3.org/2000/svg" xmlns:xlink="http://www.w3.org/1999/xlink">
    <!-- Generator: Sketch 41.2 (35397) - http://www.bohemiancoding.com/sketch -->
    <title>search</title>
    <desc>Created with Sketch.</desc>
    <defs>
        <rect id="path-1" x="0" y="0" width="48" height="48"></rect>
    </defs>
    <g id="Page-1" stroke="none" stroke-width="1" fill="none" fill-rule="evenodd">
        <g id="Artboard" transform="translate(-736.000000, -120.000000)">
            <g id="search" transform="translate(732.000000, 116.000000)">
                <g id="Symbols">
                    <mask id="mask-2" fill="white">
                        <use xlink:href="#path-1"></use>
                    </mask>
                    <g id="Mask"></g>
                    <path d="M39.1885714,31.6485714 C45.5042857,25.3314286 45.5042857,15.0542857 39.1885714,8.73857143 C32.8714286,2.42142857 22.5942857,2.42142857 16.2771429,8.73857143 C10.9185714,14.0971429 10.1071429,22.0671429 13.84,28.29 C13.84,28.29 14.1085714,28.74 13.7471429,29.1014286 C11.68,31.1685714 5.48142857,37.3671429 5.48142857,37.3671429 C3.83714286,39.0114286 3.44428571,41.3128571 4.90428571,42.7714286 L5.15571429,43.0228571 C6.61428571,44.4814286 8.91428571,44.09 10.56,42.4457143 C10.56,42.4457143 16.7457143,36.26 18.8071429,34.1985714 C19.1871429,33.8185714 19.6371429,34.0871429 19.6371429,34.0871429 C25.86,37.8185714 33.83,37.0071429 39.1885714,31.6485714 L39.1885714,31.6485714 L39.1885714,31.6485714 Z M19.2685714,28.6571429 C14.6014286,23.99 14.6014286,16.3957143 19.2685714,11.7285714 C23.9357143,7.06142857 31.53,7.06142857 36.1971429,11.7285714 C40.8642857,16.3957143 40.8642857,23.99 36.1971429,28.6571429 C31.53,33.3242857 23.9357143,33.3242857 19.2685714,28.6571429 L19.2685714,28.6571429 Z M20.3028571,19.2314286 C20.0857143,19.2314286 19.8642857,19.1885714 19.6514286,19.0985714 C18.8014286,18.7385714 18.4028571,17.7571429 18.7628571,16.9071429 C21.0242857,11.5614286 27.2142857,9.05285714 32.5585714,11.3157143 C33.4085714,11.6757143 33.8071429,12.6557143 33.4471429,13.5071429 C33.0871429,14.3585714 32.1057143,14.7557143 31.2542857,14.3957143 C27.6071429,12.8514286 23.3857143,14.5642857 21.8428571,18.21 C21.5728571,18.8485714 20.9542857,19.2314286 20.3028571,19.2314286 L20.3028571,19.2314286 Z" fill="#4E7BBE" mask="url(#mask-2)"></path>
                </g>
            </g>
        </g>
    </g>
</svg>