<?xml version="1.0" encoding="UTF-8" standalone="no"?>
<svg width="40px" height="40px" viewBox="0 0 40 40" version="1.1" xmlns="http://www.w3.org/2000/svg" xmlns:xlink="http://www.w3.org/1999/xlink">
    <!-- Generator: Sketch 41.2 (35397) - http://www.bohemiancoding.com/sketch -->
    <title>settings</title>
    <desc>Created with Sketch.</desc>
    <defs>
        <rect id="path-1" x="0" y="0" width="48" height="48"></rect>
    </defs>
    <g id="Page-1" stroke="none" stroke-width="1" fill="none" fill-rule="evenodd">
        <g id="Artboard" transform="translate(-8.000000, -63.000000)">
            <g id="settings" transform="translate(4.000000, 59.000000)">
                <g id="Shape">
                    <mask id="mask-2" fill="white">
                        <use xlink:href="#path-1"></use>
                    </mask>
                    <g id="Mask"></g>
                    <path d="M17.323155,23.987776 C17.323155,20.319893 20.3074815,17.3355664 23.9761317,17.3355664 C27.644782,17.3355664 30.6291084,20.319893 30.6291084,23.987776 C30.6291084,27.6564261 27.644782,30.6407526 23.9761317,30.6407526 C20.3074815,30.6407526 17.323155,27.6564261 17.323155,23.987776 L17.323155,23.987776 Z M42.4820246,20.748746 C40.653837,20.748746 39.0327877,19.6762298 38.3522998,18.0160542 C37.6572356,16.3159856 38.1052682,14.3335949 39.4670109,13.0838602 C39.8966313,12.6918317 39.9480323,12.0358937 39.5889924,11.5801893 C38.6538012,10.3918289 37.5897238,9.31931267 36.428982,8.38872446 C35.974812,8.02431435 35.3081334,8.07494825 34.9130362,8.51147313 C33.7246758,9.82795232 31.5888494,10.3174126 29.9386473,9.62848582 C28.2217006,8.90657025 27.1384437,7.16584101 27.2450817,5.29852722 C27.2796046,4.71163525 26.8507516,4.20146121 26.2653939,4.13318232 C24.7762995,3.96133415 23.2733957,3.95596388 21.7789309,4.12167459 C21.200478,4.1861176 20.7716248,4.68401681 20.7915715,5.26323703 C20.8567817,7.11213853 19.7604829,8.82218056 18.0604141,9.51877917 C16.4301586,10.1846906 14.3089085,9.69906629 13.1228498,8.39409473 C12.7308212,7.96447441 12.074116,7.91153913 11.6176445,8.26751019 C10.4223795,9.20577016 9.33528681,10.2798208 8.39165658,11.4574406 C8.0226435,11.9162137 8.07634598,12.5798236 8.50980217,12.9741536 C9.89762904,14.2307929 10.3464288,16.2308287 9.62528047,17.9500768 C8.93635371,19.5903057 7.23475063,20.6467112 5.28611583,20.6467112 C4.65319314,20.6259974 4.20285904,21.0502474 4.13381285,21.6256317 C3.95812891,23.1239324 3.95582732,24.6506187 4.12460671,26.1611942 C4.18751543,26.7250708 4.86109859,27.141649 5.43264705,27.141649 C7.16954032,27.0979198 8.8373876,28.1727376 9.5370549,29.8751079 C10.2336535,31.5751767 9.78562091,33.5568002 8.4215766,34.8073021 C7.99425787,35.1993305 7.94055529,35.8545014 8.29959514,36.3102058 C9.22634737,37.4908944 10.2904247,38.564945 11.4557697,39.5024378 C11.9122412,39.8706838 12.5773854,39.8185156 12.9732499,39.3827579 C14.1669804,38.0624427 16.3020398,37.5737497 17.9461044,38.2642108 C19.6676542,38.9838248 20.7501439,40.7245541 20.6435059,42.592635 C20.6089829,43.1802941 21.0401375,43.6912354 21.6231936,43.7579799 C22.3850023,43.8469727 23.1521814,43.8907019 23.9208948,43.8907019 C24.6504821,43.8907019 25.3800694,43.8515758 26.1096567,43.7694877 C26.6881096,43.7058117 27.1169627,43.2079125 27.097016,42.6279252 C27.0302715,40.7790237 28.1281047,39.0689816 29.8266391,38.3739175 C31.4684023,37.7041701 33.579679,38.1951647 34.7657378,39.4986019 C35.1600678,39.9266878 35.81217,39.978856 36.270943,39.6244193 C37.4646737,38.6884609 38.5494649,37.6151773 39.4976982,36.4337216 C39.865944,35.9764829 39.8145431,35.3121059 39.3787854,34.9177758 C37.9909585,33.6611366 37.5406244,31.6611008 38.2610055,29.9426197 C38.9391918,28.3246391 40.5786535,27.2383136 42.3408637,27.2383136 L42.5878953,27.244451 C43.160211,27.2920161 43.6857286,26.8516554 43.7555419,26.2670649 C43.9312258,24.7672299 43.9335274,23.2413108 43.7639808,21.7315024 C43.7010721,21.1706945 43.0474356,20.748746 42.4820246,20.748746 L42.4820246,20.748746 Z" fill="#4C7BC1" mask="url(#mask-2)"></path>
                </g>
            </g>
        </g>
    </g>
</svg>