<?xml version="1.0" encoding="UTF-8" standalone="no"?>
<svg width="38px" height="41px" viewBox="0 0 38 41" version="1.1" xmlns="http://www.w3.org/2000/svg" xmlns:xlink="http://www.w3.org/1999/xlink">
    <!-- Generator: Sketch 41.2 (35397) - http://www.bohemiancoding.com/sketch -->
    <title>speed</title>
    <desc>Created with Sketch.</desc>
    <defs>
        <rect id="path-1" x="0" y="0" width="48" height="48"></rect>
    </defs>
    <g id="Page-1" stroke="none" stroke-width="1" fill="none" fill-rule="evenodd">
        <g id="Artboard" transform="translate(-960.000000, -175.000000)">
            <g id="speed" transform="translate(956.000000, 172.000000)">
                <mask id="mask-2" fill="white">
                    <use xlink:href="#path-1"></use>
                </mask>
                <g id="Mask"></g>
                <path d="M41.1051027,27.6175401 C40.302979,35.7406281 33.7592493,42.2695074 25.6774428,43.0164324 C16.1238605,43.8994181 7.9773814,36.8343538 7.03243073,27.6515389 L5.34872648,27.6515389 C4.32510046,27.6515389 3.68534235,26.5368506 4.19725305,25.6452834 L7.96285773,19.0864668 C8.4747033,18.1949651 9.75408928,18.1950306 10.2658697,19.0865323 L14.030758,25.6453489 C14.5425384,26.5369816 13.9027803,27.6515389 12.8792194,27.6515389 L11.4134354,27.6515389 C12.3656805,34.5075664 18.7115496,39.6495051 25.9873898,38.5768731 C31.3713747,37.7832407 35.7385722,33.5107274 36.653694,28.1154028 C38.0234133,20.0401359 31.8453155,13.0119527 24.0662267,13.0119527 C21.543536,13.0119527 19.1087037,13.7481344 17.0171642,15.1422154 C16.0464878,15.7891748 14.7009312,15.6611717 13.9888152,14.7345575 C13.2134593,13.7255995 13.4555423,12.2852697 14.4894586,11.5830214 C16.7334641,10.0582514 19.2773868,9.10536849 21.942644,8.77356923 L21.942644,6.2874658 L20.1982399,6.2874658 C19.5980799,6.2874658 19.1115042,5.7981192 19.1115042,5.19439521 L19.1115042,4.09307059 C19.1115042,3.48934659 19.5980148,3 20.1982399,3 L28.2879269,3 C28.8880868,3 29.3746625,3.48934659 29.3746625,4.09307059 L29.3746625,5.19439521 C29.3746625,5.79805369 28.8881519,6.2874658 28.2879269,6.2874658 L26.3665033,6.2874658 L26.3665033,8.79951049 C35.2794808,10.0091202 42.041261,18.1364662 41.1051027,27.6175401 L41.1051027,27.6175401 Z M41.6679439,11.0748739 L38.3911944,8.02841293 C37.9504041,7.61865886 37.2629068,7.64584478 36.8554623,8.08913908 L35.9886659,9.03239231 C35.5812215,9.4756866 35.6082499,10.1672572 36.0490401,10.5770767 L39.3257897,13.6234722 C39.7665799,14.0331608 40.4540773,14.0060403 40.8615218,13.562746 L41.7283181,12.6194928 C42.1357626,12.1761985 42.1087342,11.484628 41.6679439,11.0748739 L41.6679439,11.0748739 Z M24.01471,15.2591476 L24.01471,25.9497002 L34.5372102,25.9497002 C34.5373405,19.4392287 29.6263845,15.2591476 24.01471,15.2591476 L24.01471,15.2591476 Z" id="Shape" fill="#4C7BC1" mask="url(#mask-2)"></path>
            </g>
        </g>
    </g>
</svg>