<?xml version="1.0" encoding="utf-8"?>
<!-- Generator: Adobe Illustrator 16.0.0, SVG Export Plug-In . SVG Version: 6.00 Build 0)  -->
<!DOCTYPE svg PUBLIC "-//W3C//DTD SVG 1.1//EN" "http://www.w3.org/Graphics/SVG/1.1/DTD/svg11.dtd">
<svg version="1.1" id="Layer_1" xmlns="http://www.w3.org/2000/svg" xmlns:xlink="http://www.w3.org/1999/xlink" x="0px" y="0px"
	 width="48px" height="48px" viewBox="0 0 48 48" enable-background="new 0 0 48 48" xml:space="preserve">
<title>speedometer</title>
<desc>Created with Sketch.</desc>
<g id="Page-1_1_">
	<g id="Artboard" transform="translate(-511.000000, -575.000000)">
		<g id="speedometer" transform="translate(508.000000, 564.000000)">
			<g>
				<g id="Mask">
				</g>
				<defs>
					<filter id="Adobe_OpacityMaskFilter" filterUnits="userSpaceOnUse" x="7.559" y="23" width="37.326" height="23.557">
						<feColorMatrix  type="matrix" values="1 0 0 0 0  0 1 0 0 0  0 0 1 0 0  0 0 0 1 0"/>
					</filter>
				</defs>
				<mask maskUnits="userSpaceOnUse" x="7.559" y="23" width="37.326" height="23.557" id="mask-2_2_">
					<g filter="url(#Adobe_OpacityMaskFilter)">
						<rect id="path-1_2_" x="4.734" y="13.035" fill="#FFFFFF" width="43.488" height="43.488"/>
					</g>
				</mask>
				<path id="Fill-1" mask="url(#mask-2_2_)" fill="#4C7BC1" d="M42.606,42.111c-0.003,0.11-0.097,0.199-0.209,0.199h-2.071
					c-0.054,0-0.106-0.023-0.147-0.062c-0.039-0.038-0.059-0.095-0.057-0.148l0.003-0.122c0.004-0.089,0.007-0.177,0.007-0.268
					c0-0.308-0.015-0.634-0.041-1.024c-0.003-0.058,0.017-0.113,0.054-0.156c0.038-0.04,0.094-0.065,0.152-0.065h2.076
					c0.105,0,0.199,0.084,0.205,0.192c0.028,0.401,0.038,0.736,0.038,1.054c0,0.089-0.003,0.176-0.007,0.264L42.606,42.111z
					 M36.69,32.329c-0.036,0.038-0.092,0.06-0.145,0.06c-0.062,0-0.114-0.024-0.153-0.064c-0.32-0.341-0.663-0.673-1.025-0.986
					c-0.043-0.037-0.068-0.09-0.068-0.147c-0.004-0.057,0.02-0.112,0.059-0.152l1.473-1.459c0.075-0.077,0.2-0.081,0.285-0.008
					c0.355,0.314,0.71,0.657,1.048,1.015c0.079,0.08,0.075,0.208-0.003,0.286L36.69,32.329z M27.453,44.158
					c-0.351,0.402-0.862,0.631-1.398,0.631c-0.448,0-0.879-0.16-1.217-0.453c-0.374-0.321-0.597-0.77-0.631-1.26
					c-0.033-0.49,0.127-0.964,0.454-1.333c0.637-0.726,5.676-4.844,5.676-4.844c2.119-1.748,2.646-1.28,1.18,1.044
					C31.516,37.945,28.09,43.438,27.453,44.158z M16.062,32.31c-0.039,0.04-0.092,0.065-0.147,0.065
					c-0.059,0-0.11-0.022-0.149-0.061l-1.469-1.455c-0.078-0.079-0.08-0.206-0.003-0.287c0.339-0.356,0.694-0.697,1.053-1.014
					c0.082-0.072,0.205-0.068,0.282,0.008l1.472,1.46c0.04,0.041,0.063,0.096,0.062,0.153c-0.002,0.056-0.029,0.11-0.07,0.147
					C16.729,31.639,16.383,31.97,16.062,32.31z M25.304,25.685c0-0.109,0.087-0.201,0.197-0.206
					c0.196-0.008,0.455-0.018,0.723-0.018c0.22,0,0.458,0.005,0.746,0.018c0.11,0.005,0.197,0.096,0.197,0.206v2.052
					c0,0.057-0.023,0.11-0.065,0.149c-0.039,0.035-0.089,0.057-0.142,0.057c-0.003,0-0.007,0-0.012,0
					c-0.479-0.025-0.947-0.025-1.429,0c-0.055,0.003-0.112-0.019-0.153-0.057c-0.04-0.039-0.064-0.092-0.064-0.149v-2.052H25.304z
					 M12.326,42.098c0.001,0.056-0.021,0.11-0.059,0.15c-0.038,0.039-0.091,0.062-0.147,0.062h-2.07
					c-0.113,0-0.204-0.089-0.208-0.199l-0.004-0.138c-0.001-0.088-0.005-0.175-0.005-0.264c0-0.319,0.012-0.654,0.037-1.056
					c0.007-0.106,0.099-0.19,0.208-0.19h2.076c0.059,0,0.112,0.025,0.152,0.065c0.038,0.041,0.059,0.1,0.056,0.156
					c-0.029,0.387-0.042,0.715-0.042,1.024c0,0.093,0.003,0.183,0.007,0.272V42.098z M7.559,41.499c0,1.755,0.25,3.449,0.71,5.058
					h35.903c0.459-1.608,0.712-3.305,0.712-5.058C44.885,31.283,36.528,23,26.222,23C15.916,23,7.559,31.281,7.559,41.499z"/>
			</g>
			<g id="Page-1" transform="translate(3.000000, 11.000000)">
			</g>
		</g>
	</g>
</g>
</svg>
