<?xml version="1.0" encoding="UTF-8" standalone="no"?>
<svg width="48px" height="40px" viewBox="0 0 48 40" version="1.1" xmlns="http://www.w3.org/2000/svg" xmlns:xlink="http://www.w3.org/1999/xlink">
    <!-- Generator: Sketch 41.2 (35397) - http://www.bohemiancoding.com/sketch -->
    <title>split</title>
    <desc>Created with Sketch.</desc>
    <defs>
        <rect id="path-1" x="0" y="0" width="48" height="48"></rect>
    </defs>
    <g id="Page-1" stroke="none" stroke-width="1" fill="none" fill-rule="evenodd">
        <g id="Artboard" transform="translate(-340.000000, -9.000000)">
            <g id="split" transform="translate(340.000000, 5.000000)">
                <g>
                    <mask id="mask-2" fill="white">
                        <use xlink:href="#path-1"></use>
                    </mask>
                    <g id="Mask"></g>
                    <path d="M47.1669503,13.2896667 L39.501793,5.49081481 C38.9085113,4.88718519 38.0133105,4.70781481 37.238455,5.03325926 C36.4635996,5.35977778 35.9537151,6.12881481 35.9537151,6.98055556 L35.9537151,10.8815926 C30.8084216,11.8987407 26.4010353,15.2101111 23.8790603,19.7298148 C21.358141,15.2101111 17.0024821,11.8987407 11.8065168,10.8815926 L11.8065168,6.98055556 C11.8065168,6.12881481 11.3029663,5.35977778 10.5281109,5.03325926 C9.75642243,4.70674074 8.86649989,4.88718519 8.2732182,5.49188889 L0.607005291,13.2907407 C-0.202686984,14.1145556 -0.202686984,15.4485556 0.607005291,16.2712963 L8.2732182,24.0722963 C8.86649989,24.6748519 9.75536677,24.8552963 10.5291666,24.5287778 C11.304022,24.2022593 11.8075725,23.4332222 11.8075725,22.5814815 L11.8075725,19.6438889 C15.3735966,21.0305185 17.8691801,24.5309259 17.8691801,28.6199259 L17.8691801,40.0255185 C17.8691801,41.7472593 19.2394286,43.1403333 20.9295424,43.1403333 L21.5829968,43.1403333 L26.1877917,43.1403333 L26.8275225,43.1403333 C28.5197477,43.1403333 29.8889405,41.7461852 29.8889405,40.0255185 L29.8889405,28.621 C29.8889405,24.5309259 32.4362514,21.0305185 35.9505481,19.644963 L35.9505481,22.5825556 C35.9505481,23.4353704 36.4583213,24.2033333 37.235288,24.5298519 C38.0080322,24.8563704 38.9011217,24.6759259 39.4944034,24.0733704 L47.1637833,16.2723704 C47.9766425,15.4485556 47.9766425,14.1145556 47.1669503,13.2896667 L47.1669503,13.2896667 L47.1669503,13.2896667 Z" fill="#4C7BC1" mask="url(#mask-2)"></path>
                </g>
            </g>
        </g>
    </g>
</svg>