<?xml version="1.0" encoding="UTF-8" standalone="no"?>
<svg width="45px" height="38px" viewBox="0 0 45 38" version="1.1" xmlns="http://www.w3.org/2000/svg" xmlns:xlink="http://www.w3.org/1999/xlink">
    <!-- Generator: Sketch 41.2 (35397) - http://www.bohemiancoding.com/sketch -->
    <title>stats</title>
    <desc>Created with Sketch.</desc>
    <defs>
        <rect id="path-1" x="0" y="0" width="48" height="48"></rect>
    </defs>
    <g id="Page-1" stroke="none" stroke-width="1" fill="none" fill-rule="evenodd">
        <g id="Artboard" transform="translate(-958.000000, -10.000000)">
            <g id="stats" transform="translate(956.000000, 5.000000)">
                <g id="Symbols">
                    <mask id="mask-2" fill="white">
                        <use xlink:href="#path-1"></use>
                    </mask>
                    <g id="Mask"></g>
                    <path d="M45.3933333,37.3925217 L41.8566667,37.3925217 L41.8566667,18.7047826 C41.8566667,18.0191304 41.2783333,17.4590435 40.5716667,17.4590435 L34.465,17.4590435 C33.7583333,17.4590435 33.18,18.0191304 33.18,18.7047826 L33.18,37.3941739 L28.6816667,37.3941739 L28.6816667,24.9351304 C28.6816667,24.2494783 28.1016667,23.6893913 27.3966667,23.6893913 L21.2883333,23.6893913 C20.5816667,23.6893913 20.0033333,24.2494783 20.0033333,24.9351304 L20.0033333,37.3941739 L15.5,37.3941739 L15.5,6.24573913 C15.5,5.56008696 14.92,5 14.215,5 L8.10833333,5 C7.4,5 6.82166667,5.56008696 6.82166667,6.24573913 L6.82166667,37.3941739 L3.285,37.3941739 C2.57833333,37.3925217 2,37.9526087 2,38.639913 L2,41.442 C2,42.1276522 2.57833333,42.6893913 3.285,42.6893913 L45.3933333,42.6893913 C46.1,42.6893913 46.6783333,42.1276522 46.6783333,41.442 L46.6783333,38.639913 C46.6783333,37.9526087 46.1,37.3925217 45.3933333,37.3925217" fill="#4C7BC1" mask="url(#mask-2)"></path>
                </g>
            </g>
        </g>
    </g>
</svg>