<?xml version="1.0" encoding="UTF-8" standalone="no"?>
<svg width="43px" height="41px" viewBox="0 0 43 41" version="1.1" xmlns="http://www.w3.org/2000/svg" xmlns:xlink="http://www.w3.org/1999/xlink">
    <!-- Generator: Sketch 41.2 (35397) - http://www.bohemiancoding.com/sketch -->
    <title>taxi</title>
    <desc>Created with Sketch.</desc>
    <defs>
        <rect id="path-1" x="0" y="0" width="48" height="48"></rect>
    </defs>
    <g id="Page-1" stroke="none" stroke-width="1" fill="none" fill-rule="evenodd">
        <g id="Artboard" transform="translate(-7.000000, -9.000000)">
            <g id="taxi" transform="translate(4.000000, 5.000000)">
                <g id="jobs">
                    <mask id="mask-2" fill="white">
                        <use xlink:href="#path-1"></use>
                    </mask>
                    <g id="Mask"></g>
                    <path d="M43.3125,26.7874184 C43.3125,27.5895239 42.50625,28.3916294 41.7,28.3916294 L36.8625,28.3916294 C36.05625,28.3916294 35.25,27.5895239 35.25,26.7874184 L35.25,24.6484704 C35.25,23.8463649 36.05625,23.0442594 36.8625,23.0442594 L41.7,23.0442594 C42.50625,23.0442594 43.3125,23.8463649 43.3125,24.6484704 L43.3125,26.7874184 L43.3125,26.7874184 Z M8.64375,20.3705744 L11.86875,13.9537304 C12.40625,12.8842564 13.48125,12.3495194 14.55625,12.3495194 L34.44375,12.3495194 C35.51875,12.3495194 36.59375,12.8842564 37.13125,13.9537304 L40.35625,20.3705744 L8.64375,20.3705744 L8.64375,20.3705744 Z M19.125,33.7389994 L29.875,33.7389994 L29.875,31.0653144 L19.125,31.0653144 L19.125,33.7389994 L19.125,33.7389994 Z M13.75,26.7874184 C13.75,27.5895239 12.94375,28.3916294 12.1375,28.3916294 L7.3,28.3916294 C6.49375,28.3916294 5.6875,27.5895239 5.6875,26.7874184 L5.6875,24.6484704 C5.6875,23.8463649 6.49375,23.0442594 7.3,23.0442594 L12.1375,23.0442594 C12.94375,23.0442594 13.75,23.8463649 13.75,24.6484704 L13.75,26.7874184 L13.75,26.7874184 Z M39.55,12.8842564 C38.475,11.0126769 36.59375,9.67583438 34.175,9.67583438 L32.5625,9.67583438 L32.5625,6.20004389 C32.5625,5.13056989 31.75625,4.32846439 30.68125,4.32846439 L18.31875,4.32846439 C17.24375,4.32846439 16.4375,5.13056989 16.4375,6.20004389 L16.4375,9.67583438 L14.55625,9.67583438 C12.40625,9.67583438 10.25625,11.0126769 9.45,12.8842564 L5.6875,20.6379429 C4.075,20.9053114 3,22.2421539 3,23.5789964 L3,32.9368939 C3,34.5411049 3,35.8779474 5.6875,36.1453159 L5.6875,41.4926859 C5.6875,43.0968968 6.7625,44.4337393 8.375,44.4337393 L10.79375,44.4337393 C12.40625,44.4337393 13.75,43.0968968 13.75,41.4926859 L13.75,36.4126844 L35.25,36.4126844 L35.25,41.4926859 C35.25,43.0968968 36.325,44.4337393 37.9375,44.4337393 L40.35625,44.4337393 C41.96875,44.4337393 43.3125,43.0968968 43.3125,41.4926859 L43.3125,36.1453159 C46,35.8779474 46,34.5411049 46,32.9368939 L46,23.5789964 C46,22.2421539 44.925,20.9053114 43.3125,20.6379429 L39.55,12.8842564 L39.55,12.8842564 Z" fill="#4C7BC1" mask="url(#mask-2)"></path>
                </g>
            </g>
        </g>
    </g>
</svg>