<?xml version="1.0" encoding="UTF-8" standalone="no"?>
<svg width="43px" height="43px" viewBox="0 0 43 43" version="1.1" xmlns="http://www.w3.org/2000/svg" xmlns:xlink="http://www.w3.org/1999/xlink">
    <!-- Generator: Sketch 41.2 (35397) - http://www.bohemiancoding.com/sketch -->
    <title>technician</title>
    <desc>Created with Sketch.</desc>
    <defs>
        <rect id="path-1" x="0" y="0" width="48" height="48"></rect>
    </defs>
    <g id="Page-1" stroke="none" stroke-width="1" fill="none" fill-rule="evenodd">
        <g id="Artboard" transform="translate(-679.000000, -232.000000)">
            <g id="technician" transform="translate(676.000000, 230.000000)">
                <g id="Combined-Shape">
                    <mask id="mask-2" fill="white">
                        <use xlink:href="#path-1"></use>
                    </mask>
                    <g id="Mask"></g>
                    <path d="M41.6119198,44.9019908 C41.6119198,44.9019908 43.7973946,45.0830806 44.7707653,43.718168 C45.3162598,42.9547712 44.9080926,41.4357231 44.5096209,40.5897592 L43.5465815,38.5430874 C43.5465815,38.5430874 41.2029578,32.7757855 38.2437454,29.4930863 C36.4740672,27.5323895 34.5212858,27.917496 33.2382929,28.5434875 C32.3850835,28.959576 31.4384153,30.1695785 30.7277784,30.7913875 C29.7482088,31.64835 28.0174717,32.6222696 25.1897057,32.6771078 L23.4537235,32.6771078 C20.6242091,32.6222696 18.893472,31.64835 17.9131078,30.7913875 C17.2016761,30.1694236 16.2281464,28.9958249 15.3671488,28.5930588 C13.9692397,27.9384088 11.8079243,27.4800299 9.99072184,29.4929314 C7.03246314,32.7754757 4.43373491,38.4400722 4.43373491,38.4400722 L3.49406021,40.5271755 C3.11037031,41.379026 2.71952794,42.9056647 3.28059893,43.6589924 C4.31897761,45.0534928 6.67642942,44.9018359 6.67642942,44.9018359 L22.2125434,44.9019047 C22.1751146,44.7741704 22.1685954,44.630453 22.1991753,44.4775534 L23.2901561,39.0226495 L20.625,35.6912044 C20.279822,35.2597319 20.4530363,34.9099544 20.9970301,34.9099544 L27.0029699,34.9099544 C27.5536144,34.9099544 27.7250638,35.2536246 27.375,35.6912044 L24.7158685,39.0151187 L25.8083555,44.4775534 C25.8387698,44.6296249 25.8323495,44.7735821 25.7947717,44.9019206 L41.6119198,44.9019908 Z M24.0803223,27.4111751 C18.2060547,27.4111751 12.9074707,21.2058528 12.9074707,13.0476497 L16.697998,15.815472 C16.697998,15.815472 18.0195313,13.3003353 24.1132812,13.3003353 C30.2070313,13.3003353 31.8349609,15.8181575 31.8349609,15.8181575 C31.8349609,15.8181575 35.1149902,13.4932064 35.1149902,13.4932064 C35.1149902,20.6103939 29.9545898,27.4111751 24.0803223,27.4111751 Z M24.0791016,2.00004229 C34.5270996,2.01639971 34.3149414,7.52445635 35.0478516,10.6445735 L32.1435547,13.3281673 C32.1435547,13.3281673 29.7724609,11.2253841 24.112793,11.2253841 C18.453125,11.2253841 16.7167969,13.3608821 16.7167969,13.3608821 L12.9782715,10.3059505 C13.8378906,6.7158626 13.6311035,1.98368487 24.0791016,2.00004229 Z M24,9 C25.1045695,9 26,8.1045695 26,7 C26,5.8954305 25.1045695,5 24,5 C22.8954305,5 22,5.8954305 22,7 C22,8.1045695 22.8954305,9 24,9 Z" fill="#4C7BC1" mask="url(#mask-2)"></path>
                </g>
            </g>
        </g>
    </g>
</svg>