<?xml version="1.0" encoding="UTF-8" standalone="no"?>
<svg width="42px" height="42px" viewBox="0 0 42 42" version="1.1" xmlns="http://www.w3.org/2000/svg" xmlns:xlink="http://www.w3.org/1999/xlink">
    <!-- Generator: Sketch 41.2 (35397) - http://www.bohemiancoding.com/sketch -->
    <title>time</title>
    <desc>Created with Sketch.</desc>
    <defs>
        <rect id="path-1" x="0" y="0" width="48" height="48"></rect>
    </defs>
    <g id="Page-1" stroke="none" stroke-width="1" fill="none" fill-rule="evenodd">
        <g id="Artboard" transform="translate(-567.000000, -62.000000)">
            <g id="time" transform="translate(564.000000, 59.000000)">
                <g id="Combined-Shape">
                    <mask id="mask-2" fill="white">
                        <use xlink:href="#path-1"></use>
                    </mask>
                    <g id="Mask"></g>
                    <path d="M44.4878049,24.2560976 C44.4878049,12.7995566 35.2004434,3.51219512 23.7439024,3.51219512 C12.2873615,3.51219512 3,12.7995566 3,24.2560976 C3,35.7126385 12.2873615,45 23.7439024,45 C35.2004434,45 44.4878049,35.7126385 44.4878049,24.2560976 Z M8.45892169,24.2560976 C8.45892169,15.8144358 15.3022407,8.97111682 23.7439024,8.97111682 C32.1855642,8.97111682 39.0288832,15.8144358 39.0288832,24.2560976 C39.0288832,32.6977593 32.1855642,39.5410783 23.7439024,39.5410783 C15.3022407,39.5410783 8.45892169,32.6977593 8.45892169,24.2560976 Z M21.9902315,11.8738831 C21.5460146,11.8738831 21.1864616,12.2327533 21.1864616,12.6761265 L21.1864616,26.3907452 C21.1864616,26.6640428 21.3263175,26.9191562 21.5572674,27.0662342 L29.7332153,32.2861647 C29.8634261,32.3690632 30.0145348,32.4123844 30.1667153,32.4123844 C30.2240509,32.4123844 30.2824581,32.4065013 30.3392579,32.3936653 C30.5477022,32.3482049 30.7293542,32.2219853 30.8434896,32.0428176 L32.5758817,29.3392572 C32.8148694,28.9659466 32.7055567,28.4696253 32.3320715,28.2310916 L26.0090813,24.1947376 L26.0090813,12.6761265 C26.0090813,12.2327533 25.6489923,11.8738831 25.2053113,11.8738831 L21.9902315,11.8738831 Z" fill="#4C7BC1" mask="url(#mask-2)"></path>
                </g>
            </g>
        </g>
    </g>
</svg>