<?xml version="1.0" encoding="UTF-8" standalone="no"?>
<svg width="35px" height="43px" viewBox="0 0 35 43" version="1.1" xmlns="http://www.w3.org/2000/svg" xmlns:xlink="http://www.w3.org/1999/xlink">
    <!-- Generator: Sketch 41.2 (35397) - http://www.bohemiancoding.com/sketch -->
    <title>to-end</title>
    <desc>Created with Sketch.</desc>
    <defs>
        <rect id="path-1" x="0" y="0" width="48" height="48"></rect>
    </defs>
    <g id="Page-1" stroke="none" stroke-width="1" fill="none" fill-rule="evenodd">
        <g id="Artboard" transform="translate(-739.000000, -176.000000)">
            <g id="to-end" transform="translate(732.000000, 173.000000)">
                <g id="Combined-Shape-Copy-3">
                    <mask id="mask-2" fill="white">
                        <use xlink:href="#path-1"></use>
                    </mask>
                    <g id="Mask"></g>
                    <path d="M29.8260872,20.6956523 L29.8260872,15.6164906 C29.8260872,15.0600907 29.4831024,14.9026829 29.0600092,15.2653342 L19.9399916,23.0824921 C19.5162659,23.4456856 19.5168984,24.0331174 19.9399916,24.3957688 L29.0600092,32.2129267 C29.4837349,32.5761202 29.8260872,32.41836 29.8260872,31.8617703 L29.8260872,26.7826086 L40.992926,26.7826086 C41.5443212,26.7826086 42,26.3325935 42,25.7774716 L42,21.7007893 C42,21.1334112 41.5491176,20.6956523 40.992926,20.6956523 L29.8260872,20.6956523 Z M7.7251294,22.8981738 C6.74571002,23.8123145 6.76049291,25.3694603 7.75709113,26.2648415 C7.75709113,26.2648415 13.0869572,30.7124677 13.0869572,31.0508899 L13.0869572,42.7608691 C13.0869572,44.0215191 14.1089159,45.0434778 15.3695658,45.0434778 C16.6302158,45.0434778 17.6521745,44.0215191 17.6521745,42.7608691 L17.6521745,30.0356232 C17.6521745,29.3878473 17.3769463,28.770578 16.8950842,28.337655 L12.6320913,24.5630087 L16.9270459,20.5543145 C17.3895736,20.1226144 17.6521745,19.5183051 17.6521745,18.8856149 L17.6521745,6.23913086 C17.6521745,4.97848091 16.6302158,3.95652221 15.3695658,3.95652221 C14.1089159,3.95652221 13.0869572,4.97848091 13.0869572,6.23913086 L13.0869572,17.9051781 C13.0869572,18.2319904 7.7251294,22.8981738 7.7251294,22.8981738 Z" fill="#4C7BC1" mask="url(#mask-2)" transform="translate(24.500000, 24.500000) scale(-1, 1) translate(-24.500000, -24.500000) "></path>
                </g>
            </g>
        </g>
    </g>
</svg>