<?xml version="1.0" encoding="UTF-8" standalone="no"?>
<svg width="35px" height="43px" viewBox="0 0 35 43" version="1.1" xmlns="http://www.w3.org/2000/svg" xmlns:xlink="http://www.w3.org/1999/xlink">
    <!-- Generator: Sketch 41.2 (35397) - http://www.bohemiancoding.com/sketch -->
    <title>to-start</title>
    <desc>Created with Sketch.</desc>
    <defs>
        <rect id="path-1" x="0" y="0" width="48" height="48"></rect>
    </defs>
    <g id="Page-1" stroke="none" stroke-width="1" fill="none" fill-rule="evenodd">
        <g id="Artboard" transform="translate(-795.000000, -176.000000)">
            <g id="to-start" transform="translate(812.000000, 197.000000) scale(-1, 1) translate(-812.000000, -197.000000) translate(788.000000, 173.000000)">
                <g id="Combined-Shape-Copy-3">
                    <mask id="mask-2" fill="white">
                        <use xlink:href="#path-1"></use>
                    </mask>
                    <g id="Mask"></g>
                    <path d="M28.8260872,20.6956523 L28.8260872,15.6164906 C28.8260872,15.0600907 28.4831024,14.9026829 28.0600092,15.2653342 L18.9399916,23.0824921 C18.5162659,23.4456856 18.5168984,24.0331174 18.9399916,24.3957688 L28.0600092,32.2129267 C28.4837349,32.5761202 28.8260872,32.41836 28.8260872,31.8617703 L28.8260872,26.7826086 L39.992926,26.7826086 C40.5443212,26.7826086 41,26.3325935 41,25.7774716 L41,21.7007893 C41,21.1334112 40.5491176,20.6956523 39.992926,20.6956523 L28.8260872,20.6956523 Z M6.7251294,22.8981738 C5.74571002,23.8123145 5.76049291,25.3694603 6.75709113,26.2648415 C6.75709113,26.2648415 12.0869572,30.7124677 12.0869572,31.0508899 L12.0869572,42.7608691 C12.0869572,44.0215191 13.1089159,45.0434778 14.3695658,45.0434778 C15.6302158,45.0434778 16.6521745,44.0215191 16.6521745,42.7608691 L16.6521745,30.0356232 C16.6521745,29.3878473 16.3769463,28.770578 15.8950842,28.337655 L11.6320913,24.5630087 L15.9270459,20.5543145 C16.3895736,20.1226144 16.6521745,19.5183051 16.6521745,18.8856149 L16.6521745,6.23913086 C16.6521745,4.97848091 15.6302158,3.95652221 14.3695658,3.95652221 C13.1089159,3.95652221 12.0869572,4.97848091 12.0869572,6.23913086 L12.0869572,17.9051781 C12.0869572,18.2319904 6.7251294,22.8981738 6.7251294,22.8981738 Z" fill="#4C7BC1" mask="url(#mask-2)" transform="translate(23.500000, 24.500000) scale(-1, 1) translate(-23.500000, -24.500000) "></path>
                </g>
            </g>
        </g>
    </g>
</svg>