<?xml version="1.0" encoding="UTF-8" standalone="no"?>
<svg width="41px" height="40px" viewBox="0 0 41 40" version="1.1" xmlns="http://www.w3.org/2000/svg" xmlns:xlink="http://www.w3.org/1999/xlink">
    <!-- Generator: Sketch 41.2 (35397) - http://www.bohemiancoding.com/sketch -->
    <title>tools</title>
    <desc>Created with Sketch.</desc>
    <defs>
        <rect id="path-1" x="0" y="0" width="48" height="48"></rect>
    </defs>
    <g id="Page-1" stroke="none" stroke-width="1" fill="none" fill-rule="evenodd">
        <g id="Artboard" transform="translate(-287.000000, -120.000000)">
            <g id="tools" transform="translate(284.000000, 116.000000)">
                <g>
                    <mask id="mask-2" fill="white">
                        <use xlink:href="#path-1"></use>
                    </mask>
                    <g id="Mask"></g>
                    <path d="M34.2692308,11.6923077 L32.1994978,11.6923077 C31.630345,11.6923077 31.1923077,12.1411054 31.1923077,12.6947255 L31.1923077,16.843736 C31.1923077,17.4035844 31.6432421,17.8461538 32.1994978,17.8461538 L42.4928099,17.8461538 C43.0619627,17.8461538 43.5,17.3973561 43.5,16.843736 L43.5,12.6947255 C43.5,12.1348771 43.0490656,11.6923077 42.4928099,11.6923077 L40.4230769,11.6923077 L40.4230769,4.99384014 C40.4230769,4.44902964 39.9742792,4 39.4206591,4 L35.2716486,4 C34.7118002,4 34.2692308,4.44495739 34.2692308,4.99384014 L34.2692308,11.6923077 L34.2692308,11.6923077 Z M12.7307692,20.9230769 L12.7307692,4.99180311 C12.7307692,4.45530558 12.2819715,4 11.7283514,4 L7.57934088,4 C7.01949252,4 6.57692308,4.44404538 6.57692308,4.99180311 L6.57692308,20.9230769 L4.50719012,20.9230769 C3.93803729,20.9230769 3.5,21.3718747 3.5,21.9254947 L3.5,26.0745053 C3.5,26.6343536 3.95093438,27.0769231 4.50719012,27.0769231 L14.8005022,27.0769231 C15.369655,27.0769231 15.8076923,26.6281253 15.8076923,26.0745053 L15.8076923,21.9254947 C15.8076923,21.3656464 15.3567579,20.9230769 14.8005022,20.9230769 L12.7307692,20.9230769 L12.7307692,20.9230769 Z M26.5769231,30.1538462 L26.5769231,5.00194387 C26.5769231,4.45754731 26.1281253,4 25.5745053,4 L21.4254947,4 C20.8656464,4 20.4230769,4.44858555 20.4230769,5.00194387 L20.4230769,30.1538462 L18.353344,30.1538462 C17.7841911,30.1538462 17.3461538,30.6026439 17.3461538,31.156264 L17.3461538,35.3052745 C17.3461538,35.8651229 17.7970882,36.3076923 18.353344,36.3076923 L28.646656,36.3076923 C29.2158089,36.3076923 29.6538462,35.8588946 29.6538462,35.3052745 L29.6538462,31.156264 C29.6538462,30.5964156 29.2029118,30.1538462 28.646656,30.1538462 L26.5769231,30.1538462 L26.5769231,30.1538462 Z M20.4230769,37.8461538 L26.5769231,37.8461538 L26.5769231,42.9975822 C26.5769231,43.5512023 26.1343536,44 25.5745053,44 L21.4254947,44 C20.8718747,44 20.4230769,43.5574306 20.4230769,42.9975822 L20.4230769,37.8461538 L20.4230769,37.8461538 Z M34.2692308,19.3846154 L40.4230769,19.3846154 L40.4230769,43.0045606 C40.4230769,43.5543266 39.9805075,44 39.4206591,44 L35.2716486,44 C34.7180285,44 34.2692308,43.5517412 34.2692308,43.0045606 L34.2692308,19.3846154 L34.2692308,19.3846154 Z M6.57692308,28.6153846 L12.7307692,28.6153846 L12.7307692,42.9905724 C12.7307692,43.5480639 12.2881998,44 11.7283514,44 L7.57934088,44 C7.02572081,44 6.57692308,43.55616 6.57692308,42.9905724 L6.57692308,28.6153846 L6.57692308,28.6153846 Z" fill="#4C7BC1" mask="url(#mask-2)"></path>
                </g>
            </g>
        </g>
    </g>
</svg>