<?xml version="1.0" encoding="UTF-8" standalone="no"?>
<svg width="44px" height="31px" viewBox="0 0 44 31" version="1.1" xmlns="http://www.w3.org/2000/svg" xmlns:xlink="http://www.w3.org/1999/xlink">
    <!-- Generator: Sketch 41.2 (35397) - http://www.bohemiancoding.com/sketch -->
    <title>truck</title>
    <desc>Created with Sketch.</desc>
    <defs>
        <rect id="path-1" x="0" y="0" width="48" height="48"></rect>
    </defs>
    <g id="Page-1" stroke="none" stroke-width="1" fill="none" fill-rule="evenodd">
        <g id="Artboard" transform="translate(-453.000000, -125.000000)">
            <g id="truck" transform="translate(451.000000, 116.000000)">
                <g id="Combined-Shape">
                    <mask id="mask-2" fill="white">
                        <use xlink:href="#path-1"></use>
                    </mask>
                    <g id="Mask"></g>
                    <path d="M8.13472871,31.1903726 C5.78024541,31.1903726 3.87226281,33.162947 3.87226281,35.5961131 C3.87226281,38.0288158 5.78024541,40 8.13472871,40 C10.4901223,40 12.3971946,38.0288158 12.3971946,35.5961131 C12.3971946,33.162947 10.4901223,31.1903726 8.13472871,31.1903726 Z M30.6227979,28.0997281 L30.6227979,10.7376448 C30.6227979,9.77800149 29.8695271,9 28.9423895,9 L3.83548681,9 C2.90698383,9 2.15416817,9.77800149 2.15416817,10.7376448 L2.15416817,28.0997281 C2.15416817,29.058908 2.90698383,29.8373729 3.83548681,29.8373729 L28.9423895,29.8373729 C29.8695271,29.8373729 30.6227979,29.058908 30.6227979,28.0997281 Z M41.2010412,16.2529757 C40.8305503,15.4860951 40.3617473,14.5153309 39.4327892,14.5153309 L33.8868044,14.5153309 C32.9573912,14.5153309 32.2041204,15.292869 32.2041204,16.2529757 L32.2041204,27.8961225 C32.2041204,29.122668 32.9833346,30.0035381 34.0583954,30.0035381 L38.6303623,30.0035381 C40.9279521,30.0035381 43.2264521,32.0711037 43.2264521,34.7915604 C43.2264521,35.5190543 43.9091749,35.9879867 44.5495688,35.9879867 C45.2423049,35.9879867 45.8458318,35.4893985 45.8458318,34.8193627 L45.8458318,25.1005995 L41.2010412,16.2529757 Z M31.2691088,31.2157191 L15.3516547,31.2157191 C14.503713,31.2157191 13.8187145,31.923288 13.8187145,32.7995244 C13.8187145,33.6734439 13.5651967,34.3828663 14.4113178,34.3828663 L30.5253961,34.3828663 C31.3701517,34.3828663 32.0556054,33.6734439 32.0556054,32.7995244 C32.0556054,31.923288 32.1143196,31.2157191 31.2691088,31.2157191 Z M37.6176114,31.1903726 C35.2617626,31.1903726 33.3542352,33.162947 33.3542352,35.5961131 C33.3542352,38.0288158 35.2617626,40 37.6176114,40 C39.9716395,40 41.8800773,38.0288158 41.8800773,35.5961131 C41.8800773,33.162947 39.9716395,31.1903726 37.6176114,31.1903726 Z" fill="#4C7BC1" mask="url(#mask-2)"></path>
                </g>
            </g>
        </g>
    </g>
</svg>