<?xml version="1.0" encoding="UTF-8" standalone="no"?>
<svg width="26px" height="36px" viewBox="0 0 26 36" version="1.1" xmlns="http://www.w3.org/2000/svg" xmlns:xlink="http://www.w3.org/1999/xlink">
    <!-- Generator: Sketch 41.2 (35397) - http://www.bohemiancoding.com/sketch -->
    <title>unlock</title>
    <desc>Created with Sketch.</desc>
    <defs>
        <rect id="path-1" x="0" y="0" width="48" height="48"></rect>
    </defs>
    <g id="Page-1" stroke="none" stroke-width="1" fill="none" fill-rule="evenodd">
        <g id="Artboard" transform="translate(-71.000000, -290.000000)">
            <g id="unlock" transform="translate(60.000000, 284.000000)">
                <g id="Fill-1">
                    <mask id="mask-2" fill="white">
                        <use xlink:href="#path-1"></use>
                    </mask>
                    <g id="Mask"></g>
                    <path d="M34.3155934,21.7586759 C35.7961682,21.7586759 37,22.9673205 37,24.4538145 L37,39.3048614 C37,40.7913554 35.7961682,42 34.3155934,42 L13.6844066,42 C12.2038318,42 11,40.7913554 11,39.3048614 L11,24.4607607 C11,22.9742667 12.2038318,21.7656221 13.6844066,21.7656221 L13.9196381,21.7656221 L13.9196381,16.2109631 C13.9196381,10.584514 18.4789782,6.00694623 24.0830229,6 C29.6870676,6 34.2464077,10.5775678 34.2464077,16.2040169 L29.7977648,16.2109631 C29.7977648,13.0504269 27.2378925,10.4733743 24.0830229,10.4733743 C20.9350718,10.4733743 18.368281,13.0434807 18.368281,16.2109631 L18.368281,21.7656221 L34.3155934,21.7586759 Z M25.591272,32.5392301 C25.3837147,32.6920473 25.3283662,32.8379182 25.3283662,33.0810363 C25.3352847,34.171595 25.3352847,35.2552074 25.3352847,36.345766 C25.3560404,36.7972712 25.1277275,37.2418301 24.7264502,37.4432709 C23.7786056,37.9295072 22.830761,37.2487764 22.830761,36.345766 C22.830761,35.2482611 22.830761,34.1577025 22.8376796,33.0671439 C22.8376796,32.8448644 22.7892496,32.6989935 22.5955295,32.5531226 C21.6130921,31.8237681 21.2879191,30.5803923 21.7791378,29.4898337 C22.2565194,28.42706 23.4257584,27.8018989 24.5258116,28.0241784 C25.7503991,28.2742428 26.6013837,29.260608 26.6152209,30.4900913 C26.6152209,31.344478 26.2762108,32.0391013 25.591272,32.5392301 Z" id="Shape" fill="#4C7BC1" mask="url(#mask-2)"></path>
                </g>
            </g>
        </g>
    </g>
</svg>