<?xml version="1.0" encoding="UTF-8" standalone="no"?>
<svg width="45px" height="26px" viewBox="0 0 45 26" version="1.1" xmlns="http://www.w3.org/2000/svg" xmlns:xlink="http://www.w3.org/1999/xlink">
    <!-- Generator: Sketch 41.2 (35397) - http://www.bohemiancoding.com/sketch -->
    <title>visible</title>
    <desc>Created with Sketch.</desc>
    <defs>
        <rect id="path-1" x="0" y="0" width="48" height="48"></rect>
    </defs>
    <g id="Page-1" stroke="none" stroke-width="1" fill="none" fill-rule="evenodd">
        <g id="Artboard" transform="translate(-341.000000, -127.000000)">
            <g id="visible" transform="translate(339.000000, 116.000000)">
                <g id="Combined-Shape-Copy-2">
                    <mask id="mask-2" fill="white">
                        <use xlink:href="#path-1"></use>
                    </mask>
                    <g id="Mask"></g>
                    <path d="M24.0673077,11 C15.6349193,11 7.98798888,15.4486342 2.34533068,22.6744002 C1.88488977,23.2663907 1.88488977,24.0934362 2.34533068,24.6854267 C7.98798888,31.9198984 15.6349193,36.3685326 24.0673077,36.3685326 C32.4996961,36.3685326 40.1466265,31.9198984 45.7892847,24.6941324 C46.2497256,24.1021419 46.2497256,23.2750964 45.7892847,22.683106 C40.1466265,15.4486342 32.4996961,11 24.0673077,11 Z M24.6722007,32.6163577 C19.0746837,32.9558817 14.4522181,28.5072475 14.80432,23.1009816 C15.0932241,18.6436416 18.8399491,15.0307586 23.4624147,14.7521749 C29.0599317,14.4126509 33.6823973,18.8612852 33.3302954,24.267551 C33.032363,28.7161853 29.285638,32.3290683 24.6722007,32.6163577 Z M24.3923248,28.489836 C21.3768883,28.6726566 18.8850904,26.2785775 19.083712,23.3708596 C19.2371923,20.9680748 21.259521,19.0266943 23.7513188,18.8699909 C26.7667554,18.6871703 29.2585532,21.0812494 29.0599317,23.9889673 C28.8974231,26.4004579 26.8750944,28.3418384 24.3923248,28.489836 Z" fill="#4C7BC1" mask="url(#mask-2)"></path>
                </g>
            </g>
        </g>
    </g>
</svg>