<?xml version="1.0" encoding="utf-8"?>
<!-- Generator: Adobe Illustrator 16.0.0, SVG Export Plug-In . SVG Version: 6.00 Build 0)  -->
<!DOCTYPE svg PUBLIC "-//W3C//DTD SVG 1.1//EN" "http://www.w3.org/Graphics/SVG/1.1/DTD/svg11.dtd">
<svg version="1.1" id="Layer_1" xmlns="http://www.w3.org/2000/svg" xmlns:xlink="http://www.w3.org/1999/xlink" x="0px" y="0px"
	 width="48px" height="48px" viewBox="0 0 48 48" enable-background="new 0 0 48 48" xml:space="preserve">
<title>web-camera</title>
<desc>Created with Sketch.</desc>
<g id="Page-1">
	<g id="Artboard" transform="translate(-796.000000, -398.000000)">
		<g id="web-camera" transform="translate(788.000000, 396.000000)">
			<g id="camera">
				<g id="Mask">
				</g>
				<defs>
					<filter id="Adobe_OpacityMaskFilter" filterUnits="userSpaceOnUse" x="15.538" y="4.006" width="32.925" height="43.989">
						<feColorMatrix  type="matrix" values="1 0 0 0 0  0 1 0 0 0  0 0 1 0 0  0 0 0 1 0"/>
					</filter>
				</defs>
				<mask maskUnits="userSpaceOnUse" x="15.538" y="4.006" width="32.925" height="43.989" id="mask-2">
					<g filter="url(#Adobe_OpacityMaskFilter)">
						<rect id="path-1" x="7.506" y="2.006" fill="#FFFFFF" width="48" height="48"/>
					</g>
				</mask>
				<path id="Combined-Shape" mask="url(#mask-2)" fill="#4C7BC1" d="M32,39.931c-4.957,0-9.629-1.847-13.235-5.214
					c-1.011,2.275-1.582,4.733-1.582,7.135c0,8.191,29.632,8.191,29.632,0c0-2.401-0.57-4.859-1.582-7.135
					C41.629,38.084,36.957,39.931,32,39.931z M32,36.968c9.091,0,16.462-7.379,16.462-16.481S41.093,4.006,32,4.006
					s-16.463,7.379-16.463,16.481C15.538,29.59,22.908,36.968,32,36.968z M32,10.81c5.33,0,9.666,4.341,9.666,9.677
					c0,5.336-4.336,9.677-9.666,9.677s-9.666-4.341-9.666-9.677C22.334,15.151,26.671,10.81,32,10.81z M32,25.719
					c2.882,0,5.226-2.347,5.226-5.232c0-2.885-2.344-5.232-5.226-5.232c-2.882,0-5.227,2.348-5.227,5.232
					C26.774,23.372,29.119,25.719,32,25.719z"/>
			</g>
		</g>
	</g>
</g>
</svg>
