<?xml version="1.0" encoding="UTF-8" standalone="no"?>
<svg width="35px" height="28px" viewBox="0 0 35 28" version="1.1" xmlns="http://www.w3.org/2000/svg" xmlns:xlink="http://www.w3.org/1999/xlink">
    <!-- Generator: Sketch 41.2 (35397) - http://www.bohemiancoding.com/sketch -->
    <title>wifi</title>
    <desc>Created with Sketch.</desc>
    <defs>
        <rect id="path-1" x="0" y="0" width="48" height="48"></rect>
    </defs>
    <g id="Page-1" stroke="none" stroke-width="1" fill="none" fill-rule="evenodd">
        <g id="Artboard" transform="translate(-794.000000, -237.000000)">
            <g id="wifi" transform="translate(788.000000, 228.000000)">
                <g id="Combined-Shape">
                    <mask id="mask-2" fill="white">
                        <use xlink:href="#path-1"></use>
                    </mask>
                    <g id="Mask"></g>
                    <path d="M23.5384615,36.0769231 C30.0769231,36.0769231 35.9615385,33.4615385 40.1461538,29.1461538 C40.4076923,28.8846154 40.5384615,28.6230769 40.5384615,28.2307692 C40.5384615,27.8384615 40.4076923,27.5769231 40.1461538,27.3153846 L38.3153846,25.4846154 C37.7923077,24.9615385 37.0076923,24.9615385 36.4846154,25.4846154 C33.2153846,28.7538462 28.6384615,30.8461538 23.5384615,30.8461538 C18.4384615,30.8461538 13.8615385,28.7538462 10.5923077,25.4846154 C10.0692308,24.9615385 9.28461538,24.9615385 8.76153846,25.4846154 L6.93076923,27.3153846 C6.66923077,27.5769231 6.53846154,27.8384615 6.53846154,28.2307692 C6.53846154,28.6230769 6.66923077,29.0153846 6.93076923,29.1461538 C11.2461538,33.4615385 17,36.0769231 23.5384615,36.0769231 Z M32.3,21.8230769 C32.8230769,21.3 32.8230769,20.5153846 32.3,19.9923077 L30.4692308,18.1615385 C29.9461538,17.6384615 29.1615385,17.6384615 28.6384615,18.1615385 C27.2,19.6 25.2384615,20.3846154 23.1461538,20.3846154 C21.0538462,20.3846154 19.0923077,19.4692308 17.6538462,18.1615385 C17.1307692,17.6384615 16.3461538,17.6384615 15.8230769,18.1615385 L13.9923077,19.9923077 C13.4692308,20.5153846 13.4692308,21.3 13.9923077,21.8230769 C16.3461538,24.1769231 19.4846154,25.6153846 23.1461538,25.6153846 C26.8076923,25.6153846 29.9461538,24.1769231 32.3,21.8230769 Z M23.5384615,15.1538462 C24.9828986,15.1538462 26.1538462,13.9828986 26.1538462,12.5384615 C26.1538462,11.0940245 24.9828986,9.92307692 23.5384615,9.92307692 C22.0940245,9.92307692 20.9230769,11.0940245 20.9230769,12.5384615 C20.9230769,13.9828986 22.0940245,15.1538462 23.5384615,15.1538462 Z" fill="#4C7BC1" mask="url(#mask-2)" transform="translate(23.538462, 23.000000) rotate(-180.000000) translate(-23.538462, -23.000000) "></path>
                </g>
            </g>
        </g>
    </g>
</svg>